<?xml version="1.0" encoding="utf-8"?>
<!-- Generator: Adobe Illustrator 16.0.0, SVG Export Plug-In . SVG Version: 6.00 Build 0)  -->
<!DOCTYPE svg PUBLIC "-//W3C//DTD SVG 1.1//EN" "http://www.w3.org/Graphics/SVG/1.1/DTD/svg11.dtd">
<svg version="1.1" id="Layer_1" xmlns="http://www.w3.org/2000/svg" xmlns:xlink="http://www.w3.org/1999/xlink" x="0px" y="0px"
	 width="2304px" height="1296px" viewBox="0 0 2304 1296" enable-background="new 0 0 2304 1296" xml:space="preserve">
<path fill="none" stroke="#000000" stroke-width="0.118" stroke-linecap="round" stroke-linejoin="round" d="M475.941,275.235
	c0,15.172-12.312,27.471-27.5,27.471s-27.5-12.299-27.5-27.471c0-15.171,12.312-27.47,27.5-27.47S475.941,260.064,475.941,275.235"
	/>
<path fill="none" stroke="#000000" stroke-width="0.118" stroke-linecap="round" stroke-linejoin="round" d="M446.647,209
	c1.098,0,2.118,0.353,3.059,1.059c0.941,0.745,1.686,1.745,2.235,3s0.824,2.235,0.824,2.941c0,0.745,0,3.451,0,8.118
	c0,4.666,0,7.372,0,8.117c0,0.706-0.275,1.687-0.824,2.942c-0.549,1.255-1.294,2.255-2.235,3c-0.941,0.706-1.686,1.058-2.235,1.058
	c-0.549,0-0.824,0-0.824,0s-0.275,0-0.824,0c-0.549,0-1.294-0.352-2.235-1.058c-0.98-0.745-1.725-1.745-2.235-3
	c-0.549-1.255-0.824-2.236-0.824-2.942c0-0.745,0-3.451,0-8.117c0-4.667,0-7.373,0-8.118c0-0.706,0.275-1.686,0.824-2.941
	c0.51-1.255,1.255-2.255,2.235-3c0.941-0.706,1.686-1.059,2.235-1.059C446.372,209,446.647,209,446.647,209"/>
<path fill="none" stroke="#000000" stroke-width="0.118" stroke-linecap="round" stroke-linejoin="round" d="M408.059,222.706
	c0.863-0.627,1.902-0.941,3.117-0.941c1.177,0.039,2.353,0.412,3.53,1.118c1.176,0.666,1.98,1.294,2.412,1.882
	c0.431,0.588,2.019,2.784,4.764,6.588c2.745,3.765,4.334,5.941,4.765,6.53c0.431,0.588,0.784,1.549,1.059,2.882
	c0.314,1.333,0.294,2.569-0.059,3.706c-0.353,1.176-0.745,1.921-1.176,2.235c-0.432,0.314-0.883,0.628-1.353,0.941
	c-0.432,0.314-1.236,0.471-2.412,0.471c-1.216-0.039-2.412-0.412-3.588-1.118c-1.177-0.706-1.981-1.333-2.412-1.882
	c-0.392-0.588-1.961-2.784-4.706-6.588c-2.784-3.765-4.373-5.942-4.765-6.53c-0.431-0.588-0.804-1.549-1.117-2.882
	c-0.275-1.334-0.255-2.569,0.058-3.706c0.353-1.177,0.746-1.922,1.177-2.235C407.823,222.863,408.059,222.706,408.059,222.706"/>
<path fill="none" stroke="#000000" stroke-width="0.118" stroke-linecap="round" stroke-linejoin="round" d="M384.882,256.471
	c0.314-1.02,0.961-1.883,1.941-2.588c0.981-0.667,2.157-1.059,3.53-1.177c1.372-0.157,2.392-0.118,3.059,0.118
	c0.706,0.235,3.274,1.078,7.706,2.529c4.47,1.451,7.039,2.275,7.705,2.471c0.706,0.235,1.569,0.804,2.589,1.706
	c1.019,0.902,1.725,1.921,2.117,3.058c0.393,1.138,0.51,1.961,0.353,2.471s-0.333,1.02-0.529,1.529
	c-0.157,0.549-0.726,1.157-1.706,1.824s-2.157,1.059-3.529,1.176c-1.334,0.157-2.353,0.118-3.059-0.117
	c-0.667-0.236-3.236-1.059-7.706-2.471c-4.431-1.451-7-2.294-7.706-2.529c-0.667-0.236-1.529-0.804-2.588-1.706
	c-1.02-0.902-1.726-1.922-2.118-3.059c-0.392-1.098-0.49-1.922-0.294-2.471C384.804,256.726,384.882,256.471,384.882,256.471"/>
<path fill="none" stroke="#000000" stroke-width="0.118" stroke-linecap="round" stroke-linejoin="round" d="M386,297.412
	c-0.353-1.02-0.333-2.098,0.059-3.235c0.392-1.138,1.098-2.157,2.117-3.059c1.02-0.902,1.883-1.471,2.589-1.706
	c0.706-0.196,3.274-1.02,7.706-2.471c4.47-1.451,7.039-2.294,7.705-2.529c0.706-0.235,1.726-0.275,3.059-0.118
	c1.373,0.118,2.549,0.51,3.53,1.177c0.98,0.706,1.549,1.313,1.706,1.823c0.196,0.51,0.372,1.04,0.529,1.589
	c0.157,0.509,0.039,1.313-0.353,2.411c-0.392,1.138-1.098,2.157-2.118,3.059c-1.019,0.902-1.882,1.471-2.588,1.706
	c-0.667,0.235-3.235,1.078-7.706,2.529c-4.431,1.451-7,2.275-7.706,2.471c-0.666,0.235-1.686,0.294-3.058,0.176
	c-1.373-0.156-2.549-0.568-3.53-1.235c-0.98-0.666-1.549-1.274-1.706-1.823C386.078,297.667,386,297.412,386,297.412"/>
<path fill="none" stroke="#000000" stroke-width="0.118" stroke-linecap="round" stroke-linejoin="round" d="M410.941,329.883
	c-0.863-0.628-1.47-1.51-1.823-2.648c-0.353-1.176-0.373-2.431-0.059-3.764c0.274-1.334,0.627-2.294,1.059-2.883
	c0.431-0.588,2.019-2.764,4.764-6.529c2.745-3.804,4.334-6,4.765-6.588c0.431-0.549,1.235-1.177,2.412-1.883
	c1.176-0.705,2.353-1.078,3.529-1.117c1.216,0,2.039,0.157,2.471,0.47c0.431,0.314,0.882,0.628,1.353,0.942
	c0.431,0.352,0.823,1.098,1.176,2.235c0.314,1.137,0.334,2.372,0.059,3.706c-0.314,1.333-0.686,2.294-1.118,2.882
	c-0.392,0.588-1.98,2.765-4.764,6.529c-2.745,3.804-4.334,6-4.765,6.589c-0.392,0.588-1.196,1.215-2.412,1.882
	c-1.176,0.706-2.353,1.078-3.529,1.118c-1.177,0-2-0.157-2.471-0.471C411.157,330.039,410.941,329.883,410.941,329.883"/>
<path fill="none" stroke="#000000" stroke-width="0.118" stroke-linecap="round" stroke-linejoin="round" d="M450.235,311.235
	c1.098,0,2.118,0.353,3.059,1.059c0.941,0.745,1.686,1.745,2.235,3c0.549,1.255,0.824,2.236,0.824,2.941c0,0.746,0,3.451,0,8.118
	s0,7.373,0,8.118c0,0.706-0.275,1.686-0.824,2.941c-0.549,1.255-1.294,2.255-2.235,3c-0.941,0.706-1.686,1.059-2.235,1.059
	c-0.549,0-0.824,0-0.824,0s-0.274,0-0.823,0c-0.549,0-1.294-0.353-2.236-1.059c-0.941-0.745-1.686-1.745-2.235-3
	s-0.823-2.235-0.823-2.941c0-0.745,0-3.451,0-8.118s0-7.372,0-8.118c0-0.705,0.274-1.686,0.823-2.941
	c0.549-1.255,1.294-2.255,2.235-3c0.942-0.706,1.687-1.059,2.236-1.059C449.961,311.235,450.235,311.235,450.235,311.235"/>
<path fill="none" stroke="#000000" stroke-width="0.118" stroke-linecap="round" stroke-linejoin="round" d="M488.823,327.765
	c-0.901,0.627-1.941,0.941-3.117,0.941c-1.177-0.039-2.353-0.412-3.53-1.118c-1.215-0.666-2.019-1.294-2.411-1.882
	c-0.432-0.588-2.02-2.784-4.765-6.588c-2.784-3.765-4.373-5.941-4.765-6.53c-0.431-0.588-0.804-1.549-1.117-2.882
	c-0.275-1.333-0.255-2.569,0.058-3.706c0.353-1.137,0.746-1.882,1.177-2.235c0.47-0.314,0.921-0.628,1.353-0.941
	c0.431-0.314,1.255-0.451,2.47-0.412c1.177,0,2.353,0.353,3.53,1.059c1.176,0.706,1.98,1.333,2.412,1.882
	c0.431,0.588,2.019,2.784,4.764,6.588c2.745,3.804,4.334,5.981,4.765,6.53c0.431,0.588,0.784,1.549,1.059,2.882
	c0.314,1.333,0.294,2.588-0.059,3.765c-0.353,1.137-0.745,1.863-1.176,2.176C489.039,327.608,488.823,327.765,488.823,327.765"/>
<path fill="none" stroke="#000000" stroke-width="0.118" stroke-linecap="round" stroke-linejoin="round" d="M512,294
	c-0.353,1.02-1.02,1.883-2,2.588c-0.98,0.667-2.157,1.059-3.529,1.177c-1.334,0.157-2.353,0.118-3.059-0.118
	c-0.667-0.235-3.236-1.078-7.706-2.529c-4.432-1.412-7-2.235-7.706-2.471c-0.706-0.235-1.569-0.804-2.588-1.706
	c-1.02-0.902-1.726-1.921-2.118-3.058c-0.392-1.099-0.51-1.922-0.353-2.471c0.196-0.51,0.373-1.02,0.53-1.529
	c0.156-0.51,0.725-1.118,1.705-1.824c0.981-0.667,2.157-1.059,3.53-1.176c1.372-0.157,2.392-0.118,3.059,0.117
	c0.706,0.235,3.274,1.079,7.706,2.53c4.47,1.411,7.039,2.235,7.705,2.47c0.706,0.235,1.569,0.804,2.589,1.706
	c1.019,0.902,1.725,1.922,2.117,3.059c0.392,1.098,0.51,1.921,0.353,2.47C512.078,293.745,512,294,512,294"/>
<path fill="none" stroke="#000000" stroke-width="0.118" stroke-linecap="round" stroke-linejoin="round" d="M510.882,253.059
	c0.314,1.02,0.275,2.098-0.117,3.235c-0.393,1.138-1.098,2.157-2.118,3.059s-1.882,1.471-2.588,1.706
	c-0.667,0.196-3.236,1.02-7.706,2.471c-4.431,1.451-7,2.294-7.706,2.529c-0.667,0.235-1.686,0.275-3.059,0.118
	c-1.372-0.118-2.549-0.51-3.529-1.177c-0.981-0.706-1.549-1.314-1.706-1.823c-0.157-0.51-0.314-1.02-0.471-1.53
	c-0.196-0.549-0.098-1.372,0.294-2.47c0.393-1.138,1.098-2.157,2.118-3.059c1.059-0.902,1.922-1.471,2.588-1.706
	c0.706-0.235,3.275-1.078,7.706-2.529c4.471-1.412,7.039-2.236,7.706-2.471c0.706-0.235,1.726-0.275,3.059-0.118
	c1.372,0.118,2.549,0.51,3.529,1.177c0.981,0.666,1.549,1.274,1.706,1.823C510.784,252.804,510.882,253.059,510.882,253.059"/>
<path fill="none" stroke="#000000" stroke-width="0.118" stroke-linecap="round" stroke-linejoin="round" d="M485.882,220.588
	c0.902,0.628,1.53,1.53,1.883,2.706c0.313,1.138,0.333,2.373,0.058,3.706c-0.313,1.334-0.686,2.294-1.117,2.883
	c-0.392,0.588-1.981,2.764-4.765,6.529c-2.745,3.804-4.333,6-4.765,6.588c-0.392,0.588-1.176,1.216-2.353,1.883
	c-1.176,0.705-2.372,1.078-3.588,1.117c-1.176,0-2-0.157-2.47-0.47c-0.432-0.314-0.863-0.628-1.294-0.942
	c-0.432-0.313-0.824-1.058-1.177-2.235c-0.353-1.137-0.372-2.372-0.059-3.706c0.275-1.333,0.628-2.294,1.059-2.882
	s2.02-2.765,4.765-6.53c2.745-3.803,4.333-6,4.764-6.588c0.432-0.588,1.236-1.215,2.412-1.882c1.177-0.706,2.353-1.079,3.53-1.118
	c1.215,0,2.039,0.157,2.47,0.471C485.667,220.432,485.882,220.588,485.882,220.588"/>
<g>
</g>
</svg>
