0
SECTION
2
ENTITIES
0
LINE
8
0
10
-256.0
20
-44.08264
30
-173.20508
11
-254.0
21
-45.388794
31
-173.20508
0
LINE
8
0
10
-256.0
20
55.91736
30
-173.20508
11
-254.0
21
54.611206
31
-173.20508
0
LINE
8
0
10
-254.0
20
-45.388794
30
-173.20508
11
-252.0
21
-47.56775
31
-173.20508
0
LINE
8
0
10
-254.0
20
54.611206
30
-173.20508
11
-252.0
21
52.43225
31
-173.20508
0
LINE
8
0
10
-252.0
20
-47.56775
30
-173.20508
11
-250.0
21
-51.342773
31
-173.20508
0
LINE
8
0
10
-252.0
20
52.43225
30
-173.20508
11
-250.0
21
48.657227
31
-173.20508
0
LINE
8
0
10
-250.0
20
-51.342773
30
-173.20508
11
-248.0
21
-56.352234
31
-173.20508
0
LINE
8
0
10
-250.0
20
48.657227
30
-173.20508
11
-248.0
21
43.647766
31
-173.20508
0
LINE
8
0
10
-248.0
20
-56.352234
30
-173.20508
11
-246.0
21
-60.9375
31
-173.20508
0
LINE
8
0
10
-248.0
20
43.647766
30
-173.20508
11
-246.0
21
39.0625
31
-173.20508
0
LINE
8
0
10
-246.0
20
-60.9375
30
-173.20508
11
-244.0
21
-63.85498
31
-173.20508
0
LINE
8
0
10
-246.0
20
39.0625
30
-173.20508
11
-244.0
21
36.14502
31
-173.20508
0
LINE
8
0
10
-244.0
20
-63.85498
30
-173.20508
11
-242.0
21
-65.122986
31
-173.20508
0
LINE
8
0
10
-244.0
20
36.14502
30
-173.20508
11
-242.0
21
34.877014
31
-173.20508
0
LINE
8
0
10
-242.0
20
-65.122986
30
-173.20508
11
-240.0
21
-65.05585
31
-173.20508
0
LINE
8
0
10
-242.0
20
34.877014
30
-173.20508
11
-240.0
21
34.944153
31
-173.20508
0
LINE
8
0
10
-240.0
20
-65.05585
30
-173.20508
11
-238.0
21
-64.234924
31
-173.20508
0
LINE
8
0
10
-240.0
20
34.944153
30
-173.20508
11
-238.0
21
35.765076
31
-173.20508
0
LINE
8
0
10
-238.0
20
-64.234924
30
-173.20508
11
-236.0
21
-64.00757
31
-173.20508
0
LINE
8
0
10
-238.0
20
35.765076
30
-173.20508
11
-236.0
21
35.99243
31
-173.20508
0
LINE
8
0
10
-236.0
20
-64.00757
30
-173.20508
11
-234.0
21
-64.05945
31
-173.20508
0
LINE
8
0
10
-236.0
20
35.99243
30
-173.20508
11
-234.0
21
35.94055
31
-173.20508
0
LINE
8
0
10
-234.0
20
-64.05945
30
-173.20508
11
-232.0
21
-63.25531
31
-173.20508
0
LINE
8
0
10
-234.0
20
35.94055
30
-173.20508
11
-232.0
21
36.74469
31
-173.20508
0
LINE
8
0
10
-232.0
20
-63.25531
30
-173.20508
11
-230.0
21
-61.257935
31
-173.20508
0
LINE
8
0
10
-232.0
20
36.74469
30
-173.20508
11
-230.0
21
38.742065
31
-173.20508
0
LINE
8
0
10
-230.0
20
-61.257935
30
-173.20508
11
-228.0
21
-57.48291
31
-173.20508
0
LINE
8
0
10
-230.0
20
38.742065
30
-173.20508
11
-228.0
21
42.51709
31
-173.20508
0
LINE
8
0
10
-228.0
20
-57.48291
30
-173.20508
11
-226.0
21
-52.737427
31
-173.20508
0
LINE
8
0
10
-228.0
20
42.51709
30
-173.20508
11
-226.0
21
47.262573
31
-173.20508
0
LINE
8
0
10
-226.0
20
-52.737427
30
-173.20508
11
-224.0
21
-48.667908
31
-173.20508
0
LINE
8
0
10
-226.0
20
47.262573
30
-173.20508
11
-224.0
21
51.332092
31
-173.20508
0
LINE
8
0
10
-224.0
20
-48.667908
30
-173.20508
11
-222.0
21
-46.170044
31
-173.20508
0
LINE
8
0
10
-224.0
20
51.332092
30
-173.20508
11
-222.0
21
53.829956
31
-173.20508
0
LINE
8
0
10
-222.0
20
-46.170044
30
-173.20508
11
-220.0
21
-45.672607
31
-173.20508
0
LINE
8
0
10
-222.0
20
53.829956
30
-173.20508
11
-220.0
21
54.327393
31
-173.20508
0
LINE
8
0
10
-220.0
20
-45.672607
30
-173.20508
11
-218.0
21
-46.82007
31
-173.20508
0
LINE
8
0
10
-220.0
20
54.327393
30
-173.20508
11
-218.0
21
53.17993
31
-173.20508
0
LINE
8
0
10
-218.0
20
-46.82007
30
-173.20508
11
-216.0
21
-47.462463
31
-173.20508
0
LINE
8
0
10
-218.0
20
53.17993
30
-173.20508
11
-216.0
21
52.537537
31
-173.20508
0
LINE
8
0
10
-216.0
20
-47.462463
30
-173.20508
11
-214.0
21
-47.305298
31
-173.20508
0
LINE
8
0
10
-216.0
20
52.537537
30
-173.20508
11
-214.0
21
52.694702
31
-173.20508
0
LINE
8
0
10
-214.0
20
-47.305298
30
-173.20508
11
-212.0
21
-46.60492
31
-173.20508
0
LINE
8
0
10
-214.0
20
52.694702
30
-173.20508
11
-212.0
21
53.39508
31
-173.20508
0
LINE
8
0
10
-212.0
20
-46.60492
30
-173.20508
11
-210.0
21
-45.672607
31
-173.20508
0
LINE
8
0
10
-212.0
20
53.39508
30
-173.20508
11
-210.0
21
54.327393
31
-173.20508
0
LINE
8
0
10
-210.0
20
-45.672607
30
-173.20508
11
-208.0
21
-46.183777
31
-173.20508
0
LINE
8
0
10
-210.0
20
54.327393
30
-173.20508
11
-208.0
21
53.816223
31
-173.20508
0
LINE
8
0
10
-208.0
20
-46.183777
30
-173.20508
11
-206.0
21
-48.287964
31
-173.20508
0
LINE
8
0
10
-208.0
20
53.816223
30
-173.20508
11
-206.0
21
51.712036
31
-173.20508
0
LINE
8
0
10
-206.0
20
-48.287964
30
-173.20508
11
-204.0
21
-51.063538
31
-173.20508
0
LINE
8
0
10
-206.0
20
51.712036
30
-173.20508
11
-204.0
21
48.936462
31
-173.20508
0
LINE
8
0
10
-204.0
20
-51.063538
30
-173.20508
11
-202.0
21
-53.749084
31
-173.20508
0
LINE
8
0
10
-204.0
20
48.936462
30
-173.20508
11
-202.0
21
46.250916
31
-173.20508
0
LINE
8
0
10
-202.0
20
-53.749084
30
-173.20508
11
-200.0
21
-54.563904
31
-173.20508
0
LINE
8
0
10
-202.0
20
46.250916
30
-173.20508
11
-200.0
21
45.436096
31
-173.20508
0
LINE
8
0
10
-200.0
20
-54.563904
30
-173.20508
11
-198.0
21
-53.082275
31
-173.20508
0
LINE
8
0
10
-200.0
20
45.436096
30
-173.20508
11
-198.0
21
46.917725
31
-173.20508
0
LINE
8
0
10
-198.0
20
-53.082275
30
-173.20508
11
-196.0
21
-50.639343
31
-173.20508
0
LINE
8
0
10
-198.0
20
46.917725
30
-173.20508
11
-196.0
21
49.360657
31
-173.20508
0
LINE
8
0
10
-196.0
20
-50.639343
30
-173.20508
11
-194.0
21
-47.369385
31
-173.20508
0
LINE
8
0
10
-196.0
20
49.360657
30
-173.20508
11
-194.0
21
52.630615
31
-173.20508
0
LINE
8
0
10
-194.0
20
-47.369385
30
-173.20508
11
-192.0
21
-45.211792
31
-173.20508
0
LINE
8
0
10
-194.0
20
52.630615
30
-173.20508
11
-192.0
21
54.788208
31
-173.20508
0
LINE
8
0
10
-192.0
20
-45.211792
30
-173.20508
11
-190.0
21
-45.259094
31
-173.20508
0
LINE
8
0
10
-192.0
20
54.788208
30
-173.20508
11
-190.0
21
54.740906
31
-173.20508
0
LINE
8
0
10
-190.0
20
-45.259094
30
-173.20508
11
-188.0
21
-44.924927
31
-173.20508
0
LINE
8
0
10
-190.0
20
54.740906
30
-173.20508
11
-188.0
21
55.075073
31
-173.20508
0
LINE
8
0
10
-188.0
20
-44.924927
30
-173.20508
11
-186.0
21
-43.90564
31
-173.20508
0
LINE
8
0
10
-188.0
20
55.075073
30
-173.20508
11
-186.0
21
56.09436
31
-173.20508
0
LINE
8
0
10
-186.0
20
-43.90564
30
-173.20508
11
-184.0
21
-42.64984
31
-173.20508
0
LINE
8
0
10
-186.0
20
56.09436
30
-173.20508
11
-184.0
21
57.35016
31
-173.20508
0
LINE
8
0
10
-184.0
20
-42.64984
30
-173.20508
11
-182.0
21
-39.86206
31
-173.20508
0
LINE
8
0
10
-184.0
20
57.35016
30
-173.20508
11
-182.0
21
60.13794
31
-173.20508
0
LINE
8
0
10
-182.0
20
-39.86206
30
-173.20508
11
-180.0
21
-36.39679
31
-173.20508
0
LINE
8
0
10
-182.0
20
60.13794
30
-173.20508
11
-180.0
21
63.60321
31
-173.20508
0
LINE
8
0
10
-180.0
20
-36.39679
30
-173.20508
11
-178.0
21
-34.838867
31
-173.20508
0
LINE
8
0
10
-180.0
20
63.60321
30
-173.20508
11
-178.0
21
65.16113
31
-173.20508
0
LINE
8
0
10
-178.0
20
-34.838867
30
-173.20508
11
-176.0
21
-35.06317
31
-173.20508
0
LINE
8
0
10
-178.0
20
65.16113
30
-173.20508
11
-176.0
21
64.93683
31
-173.20508
0
LINE
8
0
10
-176.0
20
-35.06317
30
-173.20508
11
-174.0
21
-36.97357
31
-173.20508
0
LINE
8
0
10
-176.0
20
64.93683
30
-173.20508
11
-174.0
21
63.02643
31
-173.20508
0
LINE
8
0
10
-174.0
20
-36.97357
30
-173.20508
11
-172.0
21
-39.816284
31
-173.20508
0
LINE
8
0
10
-174.0
20
63.02643
30
-173.20508
11
-172.0
21
60.183716
31
-173.20508
0
LINE
8
0
10
-172.0
20
-39.816284
30
-173.20508
11
-170.0
21
-42.19818
31
-173.20508
0
LINE
8
0
10
-172.0
20
60.183716
30
-173.20508
11
-170.0
21
57.80182
31
-173.20508
0
LINE
8
0
10
-170.0
20
-42.19818
30
-173.20508
11
-168.0
21
-43.841553
31
-173.20508
0
LINE
8
0
10
-170.0
20
57.80182
30
-173.20508
11
-168.0
21
56.158447
31
-173.20508
0
LINE
8
0
10
-168.0
20
-43.841553
30
-173.20508
11
-166.0
21
-45.140076
31
-173.20508
0
LINE
8
0
10
-168.0
20
56.158447
30
-173.20508
11
-166.0
21
54.859924
31
-173.20508
0
LINE
8
0
10
-166.0
20
-45.140076
30
-173.20508
11
-164.0
21
-46.948242
31
-173.20508
0
LINE
8
0
10
-166.0
20
54.859924
30
-173.20508
11
-164.0
21
53.051758
31
-173.20508
0
LINE
8
0
10
-164.0
20
-46.948242
30
-173.20508
11
-162.0
21
-50.24414
31
-173.20508
0
LINE
8
0
10
-164.0
20
53.051758
30
-173.20508
11
-162.0
21
49.75586
31
-173.20508
0
LINE
8
0
10
-162.0
20
-50.24414
30
-173.20508
11
-160.0
21
-55.03235
31
-173.20508
0
LINE
8
0
10
-162.0
20
49.75586
30
-173.20508
11
-160.0
21
44.96765
31
-173.20508
0
LINE
8
0
10
-160.0
20
-55.03235
30
-173.20508
11
-158.0
21
-59.796143
31
-173.20508
0
LINE
8
0
10
-160.0
20
44.96765
30
-173.20508
11
-158.0
21
40.203857
31
-173.20508
0
LINE
8
0
10
-158.0
20
-59.796143
30
-173.20508
11
-156.0
21
-63.217163
31
-173.20508
0
LINE
8
0
10
-158.0
20
40.203857
30
-173.20508
11
-156.0
21
36.782837
31
-173.20508
0
LINE
8
0
10
-156.0
20
-63.217163
30
-173.20508
11
-154.0
21
-64.91699
31
-173.20508
0
LINE
8
0
10
-156.0
20
36.782837
30
-173.20508
11
-154.0
21
35.083008
31
-173.20508
0
LINE
8
0
10
-154.0
20
-64.91699
30
-173.20508
11
-152.0
21
-65.23132
31
-173.20508
0
LINE
8
0
10
-154.0
20
35.083008
30
-173.20508
11
-152.0
21
34.768677
31
-173.20508
0
LINE
8
0
10
-152.0
20
-65.23132
30
-173.20508
11
-150.0
21
-64.38904
31
-173.20508
0
LINE
8
0
10
-152.0
20
34.768677
30
-173.20508
11
-150.0
21
35.610962
31
-173.20508
0
LINE
8
0
10
-150.0
20
-64.38904
30
-173.20508
11
-148.0
21
-63.796997
31
-173.20508
0
LINE
8
0
10
-150.0
20
35.610962
30
-173.20508
11
-148.0
21
36.203003
31
-173.20508
0
LINE
8
0
10
-148.0
20
-63.796997
30
-173.20508
11
-146.0
21
-63.81073
31
-173.20508
0
LINE
8
0
10
-148.0
20
36.203003
30
-173.20508
11
-146.0
21
36.18927
31
-173.20508
0
LINE
8
0
10
-146.0
20
-63.81073
30
-173.20508
11
-144.0
21
-63.316345
31
-173.20508
0
LINE
8
0
10
-146.0
20
36.18927
30
-173.20508
11
-144.0
21
36.683655
31
-173.20508
0
LINE
8
0
10
-144.0
20
-63.316345
30
-173.20508
11
-142.0
21
-61.772156
31
-173.20508
0
LINE
8
0
10
-144.0
20
36.683655
30
-173.20508
11
-142.0
21
38.227844
31
-173.20508
0
LINE
8
0
10
-142.0
20
-61.772156
30
-173.20508
11
-140.0
21
-58.493042
31
-173.20508
0
LINE
8
0
10
-142.0
20
38.227844
30
-173.20508
11
-140.0
21
41.506958
31
-173.20508
0
LINE
8
0
10
-140.0
20
-58.493042
30
-173.20508
11
-138.0
21
-53.9093
31
-173.20508
0
LINE
8
0
10
-140.0
20
41.506958
30
-173.20508
11
-138.0
21
46.0907
31
-173.20508
0
LINE
8
0
10
-138.0
20
-53.9093
30
-173.20508
11
-136.0
21
-49.632263
31
-173.20508
0
LINE
8
0
10
-138.0
20
46.0907
30
-173.20508
11
-136.0
21
50.367737
31
-173.20508
0
LINE
8
0
10
-136.0
20
-49.632263
30
-173.20508
11
-134.0
21
-46.766663
31
-173.20508
0
LINE
8
0
10
-136.0
20
50.367737
30
-173.20508
11
-134.0
21
53.233337
31
-173.20508
0
LINE
8
0
10
-134.0
20
-46.766663
30
-173.20508
11
-132.0
21
-45.962524
31
-173.20508
0
LINE
8
0
10
-134.0
20
53.233337
30
-173.20508
11
-132.0
21
54.037476
31
-173.20508
0
LINE
8
0
10
-132.0
20
-45.962524
30
-173.20508
11
-130.0
21
-47.148132
31
-173.20508
0
LINE
8
0
10
-132.0
20
54.037476
30
-173.20508
11
-130.0
21
52.851868
31
-173.20508
0
LINE
8
0
10
-130.0
20
-47.148132
30
-173.20508
11
-128.0
21
-48.043823
31
-173.20508
0
LINE
8
0
10
-130.0
20
52.851868
30
-173.20508
11
-128.0
21
51.956177
31
-173.20508
0
LINE
8
0
10
-128.0
20
-48.043823
30
-173.20508
11
-126.0
21
-48.042297
31
-173.20508
0
LINE
8
0
10
-128.0
20
51.956177
30
-173.20508
11
-126.0
21
51.957703
31
-173.20508
0
LINE
8
0
10
-126.0
20
-48.042297
30
-173.20508
11
-124.0
21
-47.520447
31
-173.20508
0
LINE
8
0
10
-126.0
20
51.957703
30
-173.20508
11
-124.0
21
52.479553
31
-173.20508
0
LINE
8
0
10
-124.0
20
-47.520447
30
-173.20508
11
-122.0
21
-46.45996
31
-173.20508
0
LINE
8
0
10
-124.0
20
52.479553
30
-173.20508
11
-122.0
21
53.54004
31
-173.20508
0
LINE
8
0
10
-122.0
20
-46.45996
30
-173.20508
11
-120.0
21
-46.50879
31
-173.20508
0
LINE
8
0
10
-122.0
20
53.54004
30
-173.20508
11
-120.0
21
53.49121
31
-173.20508
0
LINE
8
0
10
-120.0
20
-46.50879
30
-173.20508
11
-118.0
21
-48.37494
31
-173.20508
0
LINE
8
0
10
-120.0
20
53.49121
30
-173.20508
11
-118.0
21
51.62506
31
-173.20508
0
LINE
8
0
10
-118.0
20
-48.37494
30
-173.20508
11
-116.0
21
-51.04828
31
-173.20508
0
LINE
8
0
10
-118.0
20
51.62506
30
-173.20508
11
-116.0
21
48.95172
31
-173.20508
0
LINE
8
0
10
-116.0
20
-51.04828
30
-173.20508
11
-114.0
21
-53.941345
31
-173.20508
0
LINE
8
0
10
-116.0
20
48.95172
30
-173.20508
11
-114.0
21
46.058655
31
-173.20508
0
LINE
8
0
10
-114.0
20
-53.941345
30
-173.20508
11
-112.0
21
-55.506897
31
-173.20508
0
LINE
8
0
10
-114.0
20
46.058655
30
-173.20508
11
-112.0
21
44.493103
31
-173.20508
0
LINE
8
0
10
-112.0
20
-55.506897
30
-173.20508
11
-110.0
21
-54.47998
31
-173.20508
0
LINE
8
0
10
-112.0
20
44.493103
30
-173.20508
11
-110.0
21
45.52002
31
-173.20508
0
LINE
8
0
10
-110.0
20
-54.47998
30
-173.20508
11
-108.0
21
-52.378845
31
-173.20508
0
LINE
8
0
10
-110.0
20
45.52002
30
-173.20508
11
-108.0
21
47.621155
31
-173.20508
0
LINE
8
0
10
-108.0
20
-52.378845
30
-173.20508
11
-106.0
21
-49.378967
31
-173.20508
0
LINE
8
0
10
-108.0
20
47.621155
30
-173.20508
11
-106.0
21
50.621033
31
-173.20508
0
LINE
8
0
10
-106.0
20
-49.378967
30
-173.20508
11
-104.0
21
-46.720886
31
-173.20508
0
LINE
8
0
10
-106.0
20
50.621033
30
-173.20508
11
-104.0
21
53.279114
31
-173.20508
0
LINE
8
0
10
-104.0
20
-46.720886
30
-173.20508
11
-102.0
21
-46.50421
31
-173.20508
0
LINE
8
0
10
-104.0
20
53.279114
30
-173.20508
11
-102.0
21
53.49579
31
-173.20508
0
LINE
8
0
10
-102.0
20
-46.50421
30
-173.20508
11
-100.0
21
-46.499634
31
-173.20508
0
LINE
8
0
10
-102.0
20
53.49579
30
-173.20508
11
-100.0
21
53.500366
31
-173.20508
0
LINE
8
0
10
-100.0
20
-46.499634
30
-173.20508
11
-98.0
21
-45.52765
31
-173.20508
0
LINE
8
0
10
-100.0
20
53.500366
30
-173.20508
11
-98.0
21
54.47235
31
-173.20508
0
LINE
8
0
10
-98.0
20
-45.52765
30
-173.20508
11
-96.0
21
-44.343567
31
-173.20508
0
LINE
8
0
10
-98.0
20
54.47235
30
-173.20508
11
-96.0
21
55.656433
31
-173.20508
0
LINE
8
0
10
-96.0
20
-44.343567
30
-173.20508
11
-94.0
21
-41.76178
31
-173.20508
0
LINE
8
0
10
-96.0
20
55.656433
30
-173.20508
11
-94.0
21
58.23822
31
-173.20508
0
LINE
8
0
10
-94.0
20
-41.76178
30
-173.20508
11
-92.0
21
-37.886047
31
-173.20508
0
LINE
8
0
10
-94.0
20
58.23822
30
-173.20508
11
-92.0
21
62.113953
31
-173.20508
0
LINE
8
0
10
-92.0
20
-37.886047
30
-173.20508
11
-90.0
21
-35.617065
31
-173.20508
0
LINE
8
0
10
-92.0
20
62.113953
30
-173.20508
11
-90.0
21
64.382935
31
-173.20508
0
LINE
8
0
10
-90.0
20
-35.617065
30
-173.20508
11
-88.0
21
-35.360718
31
-173.20508
0
LINE
8
0
10
-90.0
20
64.382935
30
-173.20508
11
-88.0
21
64.63928
31
-173.20508
0
LINE
8
0
10
-88.0
20
-35.360718
30
-173.20508
11
-86.0
21
-36.758423
31
-173.20508
0
LINE
8
0
10
-88.0
20
64.63928
30
-173.20508
11
-86.0
21
63.241577
31
-173.20508
0
LINE
8
0
10
-86.0
20
-36.758423
30
-173.20508
11
-84.0
21
-39.356995
31
-173.20508
0
LINE
8
0
10
-86.0
20
63.241577
30
-173.20508
11
-84.0
21
60.643005
31
-173.20508
0
LINE
8
0
10
-84.0
20
-39.356995
30
-173.20508
11
-82.0
21
-41.91742
31
-173.20508
0
LINE
8
0
10
-84.0
20
60.643005
30
-173.20508
11
-82.0
21
58.08258
31
-173.20508
0
LINE
8
0
10
-82.0
20
-41.91742
30
-173.20508
11
-80.0
21
-43.696594
31
-173.20508
0
LINE
8
0
10
-82.0
20
58.08258
30
-173.20508
11
-80.0
21
56.303406
31
-173.20508
0
LINE
8
0
10
-80.0
20
-43.696594
30
-173.20508
11
-78.0
21
-44.81964
31
-173.20508
0
LINE
8
0
10
-80.0
20
56.303406
30
-173.20508
11
-78.0
21
55.18036
31
-173.20508
0
LINE
8
0
10
-78.0
20
-44.81964
30
-173.20508
11
-76.0
21
-46.30432
31
-173.20508
0
LINE
8
0
10
-78.0
20
55.18036
30
-173.20508
11
-76.0
21
53.69568
31
-173.20508
0
LINE
8
0
10
-76.0
20
-46.30432
30
-173.20508
11
-74.0
21
-49.27826
31
-173.20508
0
LINE
8
0
10
-76.0
20
53.69568
30
-173.20508
11
-74.0
21
50.72174
31
-173.20508
0
LINE
8
0
10
-74.0
20
-49.27826
30
-173.20508
11
-72.0
21
-53.907776
31
-173.20508
0
LINE
8
0
10
-74.0
20
50.72174
30
-173.20508
11
-72.0
21
46.092224
31
-173.20508
0
LINE
8
0
10
-72.0
20
-53.907776
30
-173.20508
11
-70.0
21
-58.88977
31
-173.20508
0
LINE
8
0
10
-72.0
20
46.092224
30
-173.20508
11
-70.0
21
41.11023
31
-173.20508
0
LINE
8
0
10
-70.0
20
-58.88977
30
-173.20508
11
-68.0
21
-62.713623
31
-173.20508
0
LINE
8
0
10
-70.0
20
41.11023
30
-173.20508
11
-68.0
21
37.286377
31
-173.20508
0
LINE
8
0
10
-68.0
20
-62.713623
30
-173.20508
11
-66.0
21
-64.59503
31
-173.20508
0
LINE
8
0
10
-68.0
20
37.286377
30
-173.20508
11
-66.0
21
35.40497
31
-173.20508
0
LINE
8
0
10
-66.0
20
-64.59503
30
-173.20508
11
-64.0
21
-64.90173
31
-173.20508
0
LINE
8
0
10
-66.0
20
35.40497
30
-173.20508
11
-64.0
21
35.098267
31
-173.20508
0
LINE
8
0
10
-64.0
20
-64.90173
30
-173.20508
11
-62.0
21
-64.086914
31
-173.20508
0
LINE
8
0
10
-64.0
20
35.098267
30
-173.20508
11
-62.0
21
35.913086
31
-173.20508
0
LINE
8
0
10
-62.0
20
-64.086914
30
-173.20508
11
-60.0
21
-63.20038
31
-173.20508
0
LINE
8
0
10
-62.0
20
35.913086
30
-173.20508
11
-60.0
21
36.79962
31
-173.20508
0
LINE
8
0
10
-60.0
20
-63.20038
30
-173.20508
11
-58.0
21
-63.11493
31
-173.20508
0
LINE
8
0
10
-60.0
20
36.79962
30
-173.20508
11
-58.0
21
36.88507
31
-173.20508
0
LINE
8
0
10
-58.0
20
-63.11493
30
-173.20508
11
-56.0
21
-62.78076
31
-173.20508
0
LINE
8
0
10
-58.0
20
36.88507
30
-173.20508
11
-56.0
21
37.21924
31
-173.20508
0
LINE
8
0
10
-56.0
20
-62.78076
30
-173.20508
11
-54.0
21
-61.38916
31
-173.20508
0
LINE
8
0
10
-56.0
20
37.21924
30
-173.20508
11
-54.0
21
38.61084
31
-173.20508
0
LINE
8
0
10
-54.0
20
-61.38916
30
-173.20508
11
-52.0
21
-58.224487
31
-173.20508
0
LINE
8
0
10
-54.0
20
38.61084
30
-173.20508
11
-52.0
21
41.775513
31
-173.20508
0
LINE
8
0
10
-52.0
20
-58.224487
30
-173.20508
11
-50.0
21
-53.642273
31
-173.20508
0
LINE
8
0
10
-52.0
20
41.775513
30
-173.20508
11
-50.0
21
46.357727
31
-173.20508
0
LINE
8
0
10
-50.0
20
-53.642273
30
-173.20508
11
-48.0
21
-49.005127
31
-173.20508
0
LINE
8
0
10
-50.0
20
46.357727
30
-173.20508
11
-48.0
21
50.994873
31
-173.20508
0
LINE
8
0
10
-48.0
20
-49.005127
30
-173.20508
11
-46.0
21
-45.602417
31
-173.20508
0
LINE
8
0
10
-48.0
20
50.994873
30
-173.20508
11
-46.0
21
54.397583
31
-173.20508
0
LINE
8
0
10
-46.0
20
-45.602417
30
-173.20508
11
-44.0
21
-44.20929
31
-173.20508
0
LINE
8
0
10
-46.0
20
54.397583
30
-173.20508
11
-44.0
21
55.79071
31
-173.20508
0
LINE
8
0
10
-44.0
20
-44.20929
30
-173.20508
11
-42.0
21
-45.062256
31
-173.20508
0
LINE
8
0
10
-44.0
20
55.79071
30
-173.20508
11
-42.0
21
54.937744
31
-173.20508
0
LINE
8
0
10
-42.0
20
-45.062256
30
-173.20508
11
-40.0
21
-46.224976
31
-173.20508
0
LINE
8
0
10
-42.0
20
54.937744
30
-173.20508
11
-40.0
21
53.775024
31
-173.20508
0
LINE
8
0
10
-40.0
20
-46.224976
30
-173.20508
11
-38.0
21
-46.479797
31
-173.20508
0
LINE
8
0
10
-40.0
20
53.775024
30
-173.20508
11
-38.0
21
53.520203
31
-173.20508
0
LINE
8
0
10
-38.0
20
-46.479797
30
-173.20508
11
-36.0
21
-46.261597
31
-173.20508
0
LINE
8
0
10
-38.0
20
53.520203
30
-173.20508
11
-36.0
21
53.738403
31
-173.20508
0
LINE
8
0
10
-36.0
20
-46.261597
30
-173.20508
11
-34.0
21
-45.4834
31
-173.20508
0
LINE
8
0
10
-36.0
20
53.738403
30
-173.20508
11
-34.0
21
54.5166
31
-173.20508
0
LINE
8
0
10
-34.0
20
-45.4834
30
-173.20508
11
-32.0
21
-45.637512
31
-173.20508
0
LINE
8
0
10
-34.0
20
54.5166
30
-173.20508
11
-32.0
21
54.362488
31
-173.20508
0
LINE
8
0
10
-32.0
20
-45.637512
30
-173.20508
11
-30.0
21
-47.58911
31
-173.20508
0
LINE
8
0
10
-32.0
20
54.362488
30
-173.20508
11
-30.0
21
52.41089
31
-173.20508
0
LINE
8
0
10
-30.0
20
-47.58911
30
-173.20508
11
-28.0
21
-50.686646
31
-173.20508
0
LINE
8
0
10
-30.0
20
52.41089
30
-173.20508
11
-28.0
21
49.313354
31
-173.20508
0
LINE
8
0
10
-28.0
20
-50.686646
30
-173.20508
11
-26.0
21
-53.894043
31
-173.20508
0
LINE
8
0
10
-28.0
20
49.313354
30
-173.20508
11
-26.0
21
46.105957
31
-173.20508
0
LINE
8
0
10
-26.0
20
-53.894043
30
-173.20508
11
-24.0
21
-55.66101
31
-173.20508
0
LINE
8
0
10
-26.0
20
46.105957
30
-173.20508
11
-24.0
21
44.33899
31
-173.20508
0
LINE
8
0
10
-24.0
20
-55.66101
30
-173.20508
11
-22.0
21
-54.833984
31
-173.20508
0
LINE
8
0
10
-24.0
20
44.33899
30
-173.20508
11
-22.0
21
45.166016
31
-173.20508
0
LINE
8
0
10
-22.0
20
-54.833984
30
-173.20508
11
-20.0
21
-52.687073
31
-173.20508
0
LINE
8
0
10
-22.0
20
45.166016
30
-173.20508
11
-20.0
21
47.312927
31
-173.20508
0
LINE
8
0
10
-20.0
20
-52.687073
30
-173.20508
11
-18.0
21
-49.684143
31
-173.20508
0
LINE
8
0
10
-20.0
20
47.312927
30
-173.20508
11
-18.0
21
50.315857
31
-173.20508
0
LINE
8
0
10
-18.0
20
-49.684143
30
-173.20508
11
-16.0
21
-46.705627
31
-173.20508
0
LINE
8
0
10
-18.0
20
50.315857
30
-173.20508
11
-16.0
21
53.294373
31
-173.20508
0
LINE
8
0
10
-16.0
20
-46.705627
30
-173.20508
11
-14.0
21
-46.131897
31
-173.20508
0
LINE
8
0
10
-16.0
20
53.294373
30
-173.20508
11
-14.0
21
53.868103
31
-173.20508
0
LINE
8
0
10
-14.0
20
-46.131897
30
-173.20508
11
-12.0
21
-46.307373
31
-173.20508
0
LINE
8
0
10
-14.0
20
53.868103
30
-173.20508
11
-12.0
21
53.692627
31
-173.20508
0
LINE
8
0
10
-12.0
20
-46.307373
30
-173.20508
11
-10.0
21
-45.474243
31
-173.20508
0
LINE
8
0
10
-12.0
20
53.692627
30
-173.20508
11
-10.0
21
54.525757
31
-173.20508
0
LINE
8
0
10
-10.0
20
-45.474243
30
-173.20508
11
-8.0
21
-44.132996
31
-173.20508
0
LINE
8
0
10
-10.0
20
54.525757
30
-173.20508
11
-8.0
21
55.867004
31
-173.20508
0
LINE
8
0
10
-8.0
20
-44.132996
30
-173.20508
11
-6.0
21
-41.79077
31
-173.20508
0
LINE
8
0
10
-8.0
20
55.867004
30
-173.20508
11
-6.0
21
58.20923
31
-173.20508
0
LINE
8
0
10
-6.0
20
-41.79077
30
-173.20508
11
-4.0
21
-38.090515
31
-173.20508
0
LINE
8
0
10
-6.0
20
58.20923
30
-173.20508
11
-4.0
21
61.909485
31
-173.20508
0
LINE
8
0
10
-4.0
20
-38.090515
30
-173.20508
11
-2.0
21
-35.56366
31
-173.20508
0
LINE
8
0
10
-4.0
20
61.909485
30
-173.20508
11
-2.0
21
64.43634
31
-173.20508
0
LINE
8
0
10
-2.0
20
-35.56366
30
-173.20508
11
0.0
21
-35.20813
31
-173.20508
0
LINE
8
0
10
-2.0
20
64.43634
30
-173.20508
11
0.0
21
64.79187
31
-173.20508
0
LINE
8
0
10
0.0
20
-35.20813
30
-173.20508
11
2.0
21
-36.643982
31
-173.20508
0
LINE
8
0
10
0.0
20
64.79187
30
-173.20508
11
2.0
21
63.356018
31
-173.20508
0
LINE
8
0
10
2.0
20
-36.643982
30
-173.20508
11
4.0
21
-39.28833
31
-173.20508
0
LINE
8
0
10
2.0
20
63.356018
30
-173.20508
11
4.0
21
60.71167
31
-173.20508
0
LINE
8
0
10
4.0
20
-39.28833
30
-173.20508
11
6.0
21
-41.896057
31
-173.20508
0
LINE
8
0
10
4.0
20
60.71167
30
-173.20508
11
6.0
21
58.103943
31
-173.20508
0
LINE
8
0
10
6.0
20
-41.896057
30
-173.20508
11
8.0
21
-43.910217
31
-173.20508
0
LINE
8
0
10
6.0
20
58.103943
30
-173.20508
11
8.0
21
56.089783
31
-173.20508
0
LINE
8
0
10
8.0
20
-43.910217
30
-173.20508
11
10.0
21
-45.24231
31
-173.20508
0
LINE
8
0
10
8.0
20
56.089783
30
-173.20508
11
10.0
21
54.75769
31
-173.20508
0
LINE
8
0
10
10.0
20
-45.24231
30
-173.20508
11
12.0
21
-46.79718
31
-173.20508
0
LINE
8
0
10
10.0
20
54.75769
30
-173.20508
11
12.0
21
53.20282
31
-173.20508
0
LINE
8
0
10
12.0
20
-46.79718
30
-173.20508
11
14.0
21
-49.534607
31
-173.20508
0
LINE
8
0
10
12.0
20
53.20282
30
-173.20508
11
14.0
21
50.465393
31
-173.20508
0
LINE
8
0
10
14.0
20
-49.534607
30
-173.20508
11
16.0
21
-53.99475
31
-173.20508
0
LINE
8
0
10
14.0
20
50.465393
30
-173.20508
11
16.0
21
46.00525
31
-173.20508
0
LINE
8
0
10
16.0
20
-53.99475
30
-173.20508
11
18.0
21
-59.020996
31
-173.20508
0
LINE
8
0
10
16.0
20
46.00525
30
-173.20508
11
18.0
21
40.979004
31
-173.20508
0
LINE
8
0
10
18.0
20
-59.020996
30
-173.20508
11
20.0
21
-62.994385
31
-173.20508
0
LINE
8
0
10
18.0
20
40.979004
30
-173.20508
11
20.0
21
37.005615
31
-173.20508
0
LINE
8
0
10
20.0
20
-62.994385
30
-173.20508
11
22.0
21
-65.17334
31
-173.20508
0
LINE
8
0
10
20.0
20
37.005615
30
-173.20508
11
22.0
21
34.82666
31
-173.20508
0
LINE
8
0
10
22.0
20
-65.17334
30
-173.20508
11
24.0
21
-65.83557
31
-173.20508
0
LINE
8
0
10
22.0
20
34.82666
30
-173.20508
11
24.0
21
34.16443
31
-173.20508
0
LINE
8
0
10
24.0
20
-65.83557
30
-173.20508
11
26.0
21
-65.27405
31
-173.20508
0
LINE
8
0
10
24.0
20
34.16443
30
-173.20508
11
26.0
21
34.725952
31
-173.20508
0
LINE
8
0
10
26.0
20
-65.27405
30
-173.20508
11
28.0
21
-64.24103
31
-173.20508
0
LINE
8
0
10
26.0
20
34.725952
30
-173.20508
11
28.0
21
35.758972
31
-173.20508
0
LINE
8
0
10
28.0
20
-64.24103
30
-173.20508
11
30.0
21
-63.905334
31
-173.20508
0
LINE
8
0
10
28.0
20
35.758972
30
-173.20508
11
30.0
21
36.094666
31
-173.20508
0
LINE
8
0
10
30.0
20
-63.905334
30
-173.20508
11
32.0
21
-63.453674
31
-173.20508
0
LINE
8
0
10
30.0
20
36.094666
30
-173.20508
11
32.0
21
36.546326
31
-173.20508
0
LINE
8
0
10
32.0
20
-63.453674
30
-173.20508
11
34.0
21
-62.07733
31
-173.20508
0
LINE
8
0
10
32.0
20
36.546326
30
-173.20508
11
34.0
21
37.92267
31
-173.20508
0
LINE
8
0
10
34.0
20
-62.07733
30
-173.20508
11
36.0
21
-59.23004
31
-173.20508
0
LINE
8
0
10
34.0
20
37.92267
30
-173.20508
11
36.0
21
40.76996
31
-173.20508
0
LINE
8
0
10
36.0
20
-59.23004
30
-173.20508
11
38.0
21
-54.925537
31
-173.20508
0
LINE
8
0
10
36.0
20
40.76996
30
-173.20508
11
38.0
21
45.074463
31
-173.20508
0
LINE
8
0
10
38.0
20
-54.925537
30
-173.20508
11
40.0
21
-50.105286
31
-173.20508
0
LINE
8
0
10
38.0
20
45.074463
30
-173.20508
11
40.0
21
49.894714
31
-173.20508
0
LINE
8
0
10
40.0
20
-50.105286
30
-173.20508
11
42.0
21
-46.479797
31
-173.20508
0
LINE
8
0
10
40.0
20
49.894714
30
-173.20508
11
42.0
21
53.520203
31
-173.20508
0
LINE
8
0
10
42.0
20
-46.479797
30
-173.20508
11
44.0
21
-45.02716
31
-173.20508
0
LINE
8
0
10
42.0
20
53.520203
30
-173.20508
11
44.0
21
54.97284
31
-173.20508
0
LINE
8
0
10
44.0
20
-45.02716
30
-173.20508
11
46.0
21
-45.576477
31
-173.20508
0
LINE
8
0
10
44.0
20
54.97284
30
-173.20508
11
46.0
21
54.423523
31
-173.20508
0
LINE
8
0
10
46.0
20
-45.576477
30
-173.20508
11
48.0
21
-46.858215
31
-173.20508
0
LINE
8
0
10
46.0
20
54.423523
30
-173.20508
11
48.0
21
53.141785
31
-173.20508
0
LINE
8
0
10
48.0
20
-46.858215
30
-173.20508
11
50.0
21
-47.312927
31
-173.20508
0
LINE
8
0
10
48.0
20
53.141785
30
-173.20508
11
50.0
21
52.687073
31
-173.20508
0
LINE
8
0
10
50.0
20
-47.312927
30
-173.20508
11
52.0
21
-47.073364
31
-173.20508
0
LINE
8
0
10
50.0
20
52.687073
30
-173.20508
11
52.0
21
52.926636
31
-173.20508
0
LINE
8
0
10
52.0
20
-47.073364
30
-173.20508
11
54.0
21
-46.27533
31
-173.20508
0
LINE
8
0
10
52.0
20
52.926636
30
-173.20508
11
54.0
21
53.72467
31
-173.20508
0
LINE
8
0
10
54.0
20
-46.27533
30
-173.20508
11
56.0
21
-46.08612
31
-173.20508
0
LINE
8
0
10
54.0
20
53.72467
30
-173.20508
11
56.0
21
53.91388
31
-173.20508
0
LINE
8
0
10
56.0
20
-46.08612
30
-173.20508
11
58.0
21
-47.610474
31
-173.20508
0
LINE
8
0
10
56.0
20
53.91388
30
-173.20508
11
58.0
21
52.389526
31
-173.20508
0
LINE
8
0
10
58.0
20
-47.610474
30
-173.20508
11
60.0
21
-50.44403
31
-173.20508
0
LINE
8
0
10
58.0
20
52.389526
30
-173.20508
11
60.0
21
49.55597
31
-173.20508
0
LINE
8
0
10
60.0
20
-50.44403
30
-173.20508
11
62.0
21
-53.63617
31
-173.20508
0
LINE
8
0
10
60.0
20
49.55597
30
-173.20508
11
62.0
21
46.36383
31
-173.20508
0
LINE
8
0
10
62.0
20
-53.63617
30
-173.20508
11
64.0
21
-55.812073
31
-173.20508
0
LINE
8
0
10
62.0
20
46.36383
30
-173.20508
11
64.0
21
44.187927
31
-173.20508
0
LINE
8
0
10
64.0
20
-55.812073
30
-173.20508
11
66.0
21
-55.532837
31
-173.20508
0
LINE
8
0
10
64.0
20
44.187927
30
-173.20508
11
66.0
21
44.467163
31
-173.20508
0
LINE
8
0
10
66.0
20
-55.532837
30
-173.20508
11
68.0
21
-53.326416
31
-173.20508
0
LINE
8
0
10
66.0
20
44.467163
30
-173.20508
11
68.0
21
46.673584
31
-173.20508
0
LINE
8
0
10
68.0
20
-53.326416
30
-173.20508
11
70.0
21
-50.28839
31
-173.20508
0
LINE
8
0
10
68.0
20
46.673584
30
-173.20508
11
70.0
21
49.71161
31
-173.20508
0
LINE
8
0
10
70.0
20
-50.28839
30
-173.20508
11
72.0
21
-46.983337
31
-173.20508
0
LINE
8
0
10
70.0
20
49.71161
30
-173.20508
11
72.0
21
53.016663
31
-173.20508
0
LINE
8
0
10
72.0
20
-46.983337
30
-173.20508
11
74.0
21
-45.637512
31
-173.20508
0
LINE
8
0
10
72.0
20
53.016663
30
-173.20508
11
74.0
21
54.362488
31
-173.20508
0
LINE
8
0
10
74.0
20
-45.637512
30
-173.20508
11
76.0
21
-45.713806
31
-173.20508
0
LINE
8
0
10
74.0
20
54.362488
30
-173.20508
11
76.0
21
54.286194
31
-173.20508
0
LINE
8
0
10
76.0
20
-45.713806
30
-173.20508
11
78.0
21
-45.202637
31
-173.20508
0
LINE
8
0
10
76.0
20
54.286194
30
-173.20508
11
78.0
21
54.797363
31
-173.20508
0
LINE
8
0
10
78.0
20
-45.202637
30
-173.20508
11
80.0
21
-43.980408
31
-173.20508
0
LINE
8
0
10
78.0
20
54.797363
30
-173.20508
11
80.0
21
56.019592
31
-173.20508
0
LINE
8
0
10
80.0
20
-43.980408
30
-173.20508
11
82.0
21
-41.882324
31
-173.20508
0
LINE
8
0
10
80.0
20
56.019592
30
-173.20508
11
82.0
21
58.117676
31
-173.20508
0
LINE
8
0
10
82.0
20
-41.882324
30
-173.20508
11
84.0
21
-38.331604
31
-173.20508
0
LINE
8
0
10
82.0
20
58.117676
30
-173.20508
11
84.0
21
61.668396
31
-173.20508
0
LINE
8
0
10
84.0
20
-38.331604
30
-173.20508
11
86.0
21
-35.357666
31
-173.20508
0
LINE
8
0
10
84.0
20
61.668396
30
-173.20508
11
86.0
21
64.642334
31
-173.20508
0
LINE
8
0
10
86.0
20
-35.357666
30
-173.20508
11
88.0
21
-34.588623
31
-173.20508
0
LINE
8
0
10
86.0
20
64.642334
30
-173.20508
11
88.0
21
65.41138
31
-173.20508
0
LINE
8
0
10
88.0
20
-34.588623
30
-173.20508
11
90.0
21
-35.60028
31
-173.20508
0
LINE
8
0
10
88.0
20
65.41138
30
-173.20508
11
90.0
21
64.39972
31
-173.20508
0
LINE
8
0
10
90.0
20
-35.60028
30
-173.20508
11
92.0
21
-38.05847
31
-173.20508
0
LINE
8
0
10
90.0
20
64.39972
30
-173.20508
11
92.0
21
61.94153
31
-173.20508
0
LINE
8
0
10
92.0
20
-38.05847
30
-173.20508
11
94.0
21
-40.78369
31
-173.20508
0
LINE
8
0
10
92.0
20
61.94153
30
-173.20508
11
94.0
21
59.21631
31
-173.20508
0
LINE
8
0
10
94.0
20
-40.78369
30
-173.20508
11
96.0
21
-42.95349
31
-173.20508
0
LINE
8
0
10
94.0
20
59.21631
30
-173.20508
11
96.0
21
57.04651
31
-173.20508
0
LINE
8
0
10
96.0
20
-42.95349
30
-173.20508
11
98.0
21
-44.43817
31
-173.20508
0
LINE
8
0
10
96.0
20
57.04651
30
-173.20508
11
98.0
21
55.56183
31
-173.20508
0
LINE
8
0
10
98.0
20
-44.43817
30
-173.20508
11
100.0
21
-45.976257
31
-173.20508
0
LINE
8
0
10
98.0
20
55.56183
30
-173.20508
11
100.0
21
54.023743
31
-173.20508
0
LINE
8
0
10
100.0
20
-45.976257
30
-173.20508
11
102.0
21
-48.457336
31
-173.20508
0
LINE
8
0
10
100.0
20
54.023743
30
-173.20508
11
102.0
21
51.542664
31
-173.20508
0
LINE
8
0
10
102.0
20
-48.457336
30
-173.20508
11
104.0
21
-52.401733
31
-173.20508
0
LINE
8
0
10
102.0
20
51.542664
30
-173.20508
11
104.0
21
47.598267
31
-173.20508
0
LINE
8
0
10
104.0
20
-52.401733
30
-173.20508
11
106.0
21
-57.232666
31
-173.20508
0
LINE
8
0
10
104.0
20
47.598267
30
-173.20508
11
106.0
21
42.767334
31
-173.20508
0
LINE
8
0
10
106.0
20
-57.232666
30
-173.20508
11
108.0
21
-61.561584
31
-173.20508
0
LINE
8
0
10
106.0
20
42.767334
30
-173.20508
11
108.0
21
38.438416
31
-173.20508
0
LINE
8
0
10
108.0
20
-61.561584
30
-173.20508
11
110.0
21
-64.18915
31
-173.20508
0
LINE
8
0
10
108.0
20
38.438416
30
-173.20508
11
110.0
21
35.810852
31
-173.20508
0
LINE
8
0
10
110.0
20
-64.18915
30
-173.20508
11
112.0
21
-65.1947
31
-173.20508
0
LINE
8
0
10
110.0
20
35.810852
30
-173.20508
11
112.0
21
34.805298
31
-173.20508
0
LINE
8
0
10
112.0
20
-65.1947
30
-173.20508
11
114.0
21
-65.01007
31
-173.20508
0
LINE
8
0
10
112.0
20
34.805298
30
-173.20508
11
114.0
21
34.98993
31
-173.20508
0
LINE
8
0
10
114.0
20
-65.01007
30
-173.20508
11
116.0
21
-63.911438
31
-173.20508
0
LINE
8
0
10
114.0
20
34.98993
30
-173.20508
11
116.0
21
36.088562
31
-173.20508
0
LINE
8
0
10
116.0
20
-63.911438
30
-173.20508
11
118.0
21
-63.30719
31
-173.20508
0
LINE
8
0
10
116.0
20
36.088562
30
-173.20508
11
118.0
21
36.69281
31
-173.20508
0
LINE
8
0
10
118.0
20
-63.30719
30
-173.20508
11
120.0
21
-62.911987
31
-173.20508
0
LINE
8
0
10
118.0
20
36.69281
30
-173.20508
11
120.0
21
37.088013
31
-173.20508
0
LINE
8
0
10
120.0
20
-62.911987
30
-173.20508
11
122.0
21
-61.51581
31
-173.20508
0
LINE
8
0
10
120.0
20
37.088013
30
-173.20508
11
122.0
21
38.48419
31
-173.20508
0
LINE
8
0
10
122.0
20
-61.51581
30
-173.20508
11
124.0
21
-58.802795
31
-173.20508
0
LINE
8
0
10
122.0
20
38.48419
30
-173.20508
11
124.0
21
41.197205
31
-173.20508
0
LINE
8
0
10
124.0
20
-58.802795
30
-173.20508
11
126.0
21
-54.771423
31
-173.20508
0
LINE
8
0
10
124.0
20
41.197205
30
-173.20508
11
126.0
21
45.228577
31
-173.20508
0
LINE
8
0
10
126.0
20
-54.771423
30
-173.20508
11
128.0
21
-49.98169
31
-173.20508
0
LINE
8
0
10
126.0
20
45.228577
30
-173.20508
11
128.0
21
50.01831
31
-173.20508
0
LINE
8
0
10
128.0
20
-49.98169
30
-173.20508
11
130.0
21
-46.17462
31
-173.20508
0
LINE
8
0
10
128.0
20
50.01831
30
-173.20508
11
130.0
21
53.82538
31
-173.20508
0
LINE
8
0
10
130.0
20
-46.17462
30
-173.20508
11
132.0
21
-44.436646
31
-173.20508
0
LINE
8
0
10
130.0
20
53.82538
30
-173.20508
11
132.0
21
55.563354
31
-173.20508
0
LINE
8
0
10
132.0
20
-44.436646
30
-173.20508
11
134.0
21
-44.68994
31
-173.20508
0
LINE
8
0
10
132.0
20
55.563354
30
-173.20508
11
134.0
21
55.31006
31
-173.20508
0
LINE
8
0
10
134.0
20
-44.68994
30
-173.20508
11
136.0
21
-46.011353
31
-173.20508
0
LINE
8
0
10
134.0
20
55.31006
30
-173.20508
11
136.0
21
53.988647
31
-173.20508
0
LINE
8
0
10
136.0
20
-46.011353
30
-173.20508
11
138.0
21
-46.699524
31
-173.20508
0
LINE
8
0
10
136.0
20
53.988647
30
-173.20508
11
138.0
21
53.300476
31
-173.20508
0
LINE
8
0
10
138.0
20
-46.699524
30
-173.20508
11
140.0
21
-46.775818
31
-173.20508
0
LINE
8
0
10
138.0
20
53.300476
30
-173.20508
11
140.0
21
53.224182
31
-173.20508
0
LINE
8
0
10
140.0
20
-46.775818
30
-173.20508
11
142.0
21
-46.392822
31
-173.20508
0
LINE
8
0
10
140.0
20
53.224182
30
-173.20508
11
142.0
21
53.607178
31
-173.20508
0
LINE
8
0
10
142.0
20
-46.392822
30
-173.20508
11
144.0
21
-46.32263
31
-173.20508
0
LINE
8
0
10
142.0
20
53.607178
30
-173.20508
11
144.0
21
53.67737
31
-173.20508
0
LINE
8
0
10
144.0
20
-46.32263
30
-173.20508
11
146.0
21
-47.784424
31
-173.20508
0
LINE
8
0
10
144.0
20
53.67737
30
-173.20508
11
146.0
21
52.215576
31
-173.20508
0
LINE
8
0
10
146.0
20
-47.784424
30
-173.20508
11
148.0
21
-50.62256
31
-173.20508
0
LINE
8
0
10
146.0
20
52.215576
30
-173.20508
11
148.0
21
49.37744
31
-173.20508
0
LINE
8
0
10
148.0
20
-50.62256
30
-173.20508
11
150.0
21
-53.80249
31
-173.20508
0
LINE
8
0
10
148.0
20
49.37744
30
-173.20508
11
150.0
21
46.19751
31
-173.20508
0
LINE
8
0
10
150.0
20
-53.80249
30
-173.20508
11
152.0
21
-56.26526
31
-173.20508
0
LINE
8
0
10
150.0
20
46.19751
30
-173.20508
11
152.0
21
43.73474
31
-173.20508
0
LINE
8
0
10
152.0
20
-56.26526
30
-173.20508
11
154.0
21
-56.60553
31
-173.20508
0
LINE
8
0
10
152.0
20
43.73474
30
-173.20508
11
154.0
21
43.39447
31
-173.20508
0
LINE
8
0
10
154.0
20
-56.60553
30
-173.20508
11
156.0
21
-54.75464
31
-173.20508
0
LINE
8
0
10
154.0
20
43.39447
30
-173.20508
11
156.0
21
45.24536
31
-173.20508
0
LINE
8
0
10
156.0
20
-54.75464
30
-173.20508
11
158.0
21
-51.979065
31
-173.20508
0
LINE
8
0
10
156.0
20
45.24536
30
-173.20508
11
158.0
21
48.020935
31
-173.20508
0
LINE
8
0
10
158.0
20
-51.979065
30
-173.20508
11
160.0
21
-48.815918
31
-173.20508
0
LINE
8
0
10
158.0
20
48.020935
30
-173.20508
11
160.0
21
51.184082
31
-173.20508
0
LINE
8
0
10
160.0
20
-48.815918
30
-173.20508
11
162.0
21
-47.20764
31
-173.20508
0
LINE
8
0
10
160.0
20
51.184082
30
-173.20508
11
162.0
21
52.79236
31
-173.20508
0
LINE
8
0
10
162.0
20
-47.20764
30
-173.20508
11
164.0
21
-47.17865
31
-173.20508
0
LINE
8
0
10
162.0
20
52.79236
30
-173.20508
11
164.0
21
52.82135
31
-173.20508
0
LINE
8
0
10
164.0
20
-47.17865
30
-173.20508
11
166.0
21
-46.5744
31
-173.20508
0
LINE
8
0
10
164.0
20
52.82135
30
-173.20508
11
166.0
21
53.4256
31
-173.20508
0
LINE
8
0
10
166.0
20
-46.5744
30
-173.20508
11
168.0
21
-45.185852
31
-173.20508
0
LINE
8
0
10
166.0
20
53.4256
30
-173.20508
11
168.0
21
54.814148
31
-173.20508
0
LINE
8
0
10
168.0
20
-45.185852
30
-173.20508
11
170.0
21
-43.1015
31
-173.20508
0
LINE
8
0
10
168.0
20
54.814148
30
-173.20508
11
170.0
21
56.8985
31
-173.20508
0
LINE
8
0
10
170.0
20
-43.1015
30
-173.20508
11
172.0
21
-39.538574
31
-173.20508
0
LINE
8
0
10
170.0
20
56.8985
30
-173.20508
11
172.0
21
60.461426
31
-173.20508
0
LINE
8
0
10
172.0
20
-39.538574
30
-173.20508
11
174.0
21
-36.25641
31
-173.20508
0
LINE
8
0
10
172.0
20
60.461426
30
-173.20508
11
174.0
21
63.74359
31
-173.20508
0
LINE
8
0
10
174.0
20
-36.25641
30
-173.20508
11
176.0
21
-35.092163
31
-173.20508
0
LINE
8
0
10
174.0
20
63.74359
30
-173.20508
11
176.0
21
64.90784
31
-173.20508
0
LINE
8
0
10
176.0
20
-35.092163
30
-173.20508
11
178.0
21
-35.65216
31
-173.20508
0
LINE
8
0
10
176.0
20
64.90784
30
-173.20508
11
178.0
21
64.34784
31
-173.20508
0
LINE
8
0
10
178.0
20
-35.65216
30
-173.20508
11
180.0
21
-37.74872
31
-173.20508
0
LINE
8
0
10
178.0
20
64.34784
30
-173.20508
11
180.0
21
62.25128
31
-173.20508
0
LINE
8
0
10
180.0
20
-37.74872
30
-173.20508
11
182.0
21
-40.371704
31
-173.20508
0
LINE
8
0
10
180.0
20
62.25128
30
-173.20508
11
182.0
21
59.628296
31
-173.20508
0
LINE
8
0
10
182.0
20
-40.371704
30
-173.20508
11
184.0
21
-42.616272
31
-173.20508
0
LINE
8
0
10
182.0
20
59.628296
30
-173.20508
11
184.0
21
57.383728
31
-173.20508
0
LINE
8
0
10
184.0
20
-42.616272
30
-173.20508
11
186.0
21
-44.32373
31
-173.20508
0
LINE
8
0
10
184.0
20
57.383728
30
-173.20508
11
186.0
21
55.67627
31
-173.20508
0
LINE
8
0
10
186.0
20
-44.32373
30
-173.20508
11
188.0
21
-46.011353
31
-173.20508
0
LINE
8
0
10
186.0
20
55.67627
30
-173.20508
11
188.0
21
53.988647
31
-173.20508
0
LINE
8
0
10
188.0
20
-46.011353
30
-173.20508
11
190.0
21
-48.425293
31
-173.20508
0
LINE
8
0
10
188.0
20
53.988647
30
-173.20508
11
190.0
21
51.574707
31
-173.20508
0
LINE
8
0
10
190.0
20
-48.425293
30
-173.20508
11
192.0
21
-52.264404
31
-173.20508
0
LINE
8
0
10
190.0
20
51.574707
30
-173.20508
11
192.0
21
47.735596
31
-173.20508
0
LINE
8
0
10
192.0
20
-52.264404
30
-173.20508
11
194.0
21
-57.000732
31
-173.20508
0
LINE
8
0
10
192.0
20
47.735596
30
-173.20508
11
194.0
21
42.999268
31
-173.20508
0
LINE
8
0
10
194.0
20
-57.000732
30
-173.20508
11
196.0
21
-61.39679
31
-173.20508
0
LINE
8
0
10
194.0
20
42.999268
30
-173.20508
11
196.0
21
38.60321
31
-173.20508
0
LINE
8
0
10
196.0
20
-61.39679
30
-173.20508
11
198.0
21
-64.17847
31
-173.20508
0
LINE
8
0
10
196.0
20
38.60321
30
-173.20508
11
198.0
21
35.821533
31
-173.20508
0
LINE
8
0
10
198.0
20
-64.17847
30
-173.20508
11
200.0
21
-65.21301
31
-173.20508
0
LINE
8
0
10
198.0
20
35.821533
30
-173.20508
11
200.0
21
34.786987
31
-173.20508
0
LINE
8
0
10
200.0
20
-65.21301
30
-173.20508
11
202.0
21
-65.21301
31
-173.20508
0
LINE
8
0
10
200.0
20
34.786987
30
-173.20508
11
202.0
21
34.786987
31
-173.20508
0
LINE
8
0
10
202.0
20
-65.21301
30
-173.20508
11
204.0
21
-64.22119
31
-173.20508
0
LINE
8
0
10
202.0
20
34.786987
30
-173.20508
11
204.0
21
35.77881
31
-173.20508
0
LINE
8
0
10
204.0
20
-64.22119
30
-173.20508
11
206.0
21
-63.415527
31
-173.20508
0
LINE
8
0
10
204.0
20
35.77881
30
-173.20508
11
206.0
21
36.584473
31
-173.20508
0
LINE
8
0
10
206.0
20
-63.415527
30
-173.20508
11
208.0
21
-63.0661
31
-173.20508
0
LINE
8
0
10
206.0
20
36.584473
30
-173.20508
11
208.0
21
36.9339
31
-173.20508
0
LINE
8
0
10
208.0
20
-63.0661
30
-173.20508
11
210.0
21
-61.88507
31
-173.20508
0
LINE
8
0
10
208.0
20
36.9339
30
-173.20508
11
210.0
21
38.11493
31
-173.20508
0
LINE
8
0
10
210.0
20
-61.88507
30
-173.20508
11
212.0
21
-59.197998
31
-173.20508
0
LINE
8
0
10
210.0
20
38.11493
30
-173.20508
11
212.0
21
40.802002
31
-173.20508
0
LINE
8
0
10
212.0
20
-59.197998
30
-173.20508
11
214.0
21
-55.169678
31
-173.20508
0
LINE
8
0
10
212.0
20
40.802002
30
-173.20508
11
214.0
21
44.830322
31
-173.20508
0
LINE
8
0
10
214.0
20
-55.169678
30
-173.20508
11
216.0
21
-50.561523
31
-173.20508
0
LINE
8
0
10
214.0
20
44.830322
30
-173.20508
11
216.0
21
49.438477
31
-173.20508
0
LINE
8
0
10
216.0
20
-50.561523
30
-173.20508
11
218.0
21
-46.66443
31
-173.20508
0
LINE
8
0
10
216.0
20
49.438477
30
-173.20508
11
218.0
21
53.33557
31
-173.20508
0
LINE
8
0
10
218.0
20
-46.66443
30
-173.20508
11
220.0
21
-44.58618
31
-173.20508
0
LINE
8
0
10
218.0
20
53.33557
30
-173.20508
11
220.0
21
55.41382
31
-173.20508
0
LINE
8
0
10
220.0
20
-44.58618
30
-173.20508
11
222.0
21
-44.628906
31
-173.20508
0
LINE
8
0
10
220.0
20
55.41382
30
-173.20508
11
222.0
21
55.371094
31
-173.20508
0
LINE
8
0
10
222.0
20
-44.628906
30
-173.20508
11
224.0
21
-45.846558
31
-173.20508
0
LINE
8
0
10
222.0
20
55.371094
30
-173.20508
11
224.0
21
54.153442
31
-173.20508
0
LINE
8
0
10
224.0
20
-45.846558
30
-173.20508
11
226.0
21
-46.609497
31
-173.20508
0
LINE
8
0
10
224.0
20
54.153442
30
-173.20508
11
226.0
21
53.390503
31
-173.20508
0
LINE
8
0
10
226.0
20
-46.609497
30
-173.20508
11
228.0
21
-46.73004
31
-173.20508
0
LINE
8
0
10
226.0
20
53.390503
30
-173.20508
11
228.0
21
53.26996
31
-173.20508
0
LINE
8
0
10
228.0
20
-46.73004
30
-173.20508
11
230.0
21
-46.298218
31
-173.20508
0
LINE
8
0
10
228.0
20
53.26996
30
-173.20508
11
230.0
21
53.701782
31
-173.20508
0
LINE
8
0
10
230.0
20
-46.298218
30
-173.20508
11
232.0
21
-46.063232
31
-173.20508
0
LINE
8
0
10
230.0
20
53.701782
30
-173.20508
11
232.0
21
53.936768
31
-173.20508
0
LINE
8
0
10
232.0
20
-46.063232
30
-173.20508
11
234.0
21
-47.270203
31
-173.20508
0
LINE
8
0
10
232.0
20
53.936768
30
-173.20508
11
234.0
21
52.729797
31
-173.20508
0
LINE
8
0
10
234.0
20
-47.270203
30
-173.20508
11
236.0
21
-49.9115
31
-173.20508
0
LINE
8
0
10
234.0
20
52.729797
30
-173.20508
11
236.0
21
50.0885
31
-173.20508
0
LINE
8
0
10
236.0
20
-49.9115
30
-173.20508
11
238.0
21
-53.100586
31
-173.20508
0
LINE
8
0
10
236.0
20
50.0885
30
-173.20508
11
238.0
21
46.899414
31
-173.20508
0
LINE
8
0
10
238.0
20
-53.100586
30
-173.20508
11
240.0
21
-55.786133
31
-173.20508
0
LINE
8
0
10
238.0
20
46.899414
30
-173.20508
11
240.0
21
44.213867
31
-173.20508
0
LINE
8
0
10
240.0
20
-55.786133
30
-173.20508
11
242.0
21
-56.28357
31
-173.20508
0
LINE
8
0
10
240.0
20
44.213867
30
-173.20508
11
242.0
21
43.71643
31
-173.20508
0
LINE
8
0
10
242.0
20
-56.28357
30
-173.20508
11
244.0
21
-54.434204
31
-173.20508
0
LINE
8
0
10
242.0
20
43.71643
30
-173.20508
11
244.0
21
45.565796
31
-173.20508
0
LINE
8
0
10
244.0
20
-54.434204
30
-173.20508
11
246.0
21
-51.678467
31
-173.20508
0
LINE
8
0
10
244.0
20
45.565796
30
-173.20508
11
246.0
21
48.321533
31
-173.20508
0
LINE
8
0
10
246.0
20
-51.678467
30
-173.20508
11
248.0
21
-48.47107
31
-173.20508
0
LINE
8
0
10
246.0
20
48.321533
30
-173.20508
11
248.0
21
51.52893
31
-173.20508
0
LINE
8
0
10
248.0
20
-48.47107
30
-173.20508
11
250.0
21
-46.479797
31
-173.20508
0
LINE
8
0
10
248.0
20
51.52893
30
-173.20508
11
250.0
21
53.520203
31
-173.20508
0
LINE
8
0
10
250.0
20
-46.479797
30
-173.20508
11
252.0
21
-46.34247
31
-173.20508
0
LINE
8
0
10
250.0
20
53.520203
30
-173.20508
11
252.0
21
53.65753
31
-173.20508
0
LINE
8
0
10
252.0
20
-46.34247
30
-173.20508
11
254.0
21
-45.951843
31
-173.20508
0
LINE
8
0
10
252.0
20
53.65753
30
-173.20508
11
254.0
21
54.048157
31
-173.20508
0
ENDSEC
0
EOF
