0
SECTION
2
ENTITIES
0
LINE
8
0
10
-256.0
20
-41.532898
30
-173.20508
11
-254.0
21
-42.393494
31
-173.20508
0
LINE
8
0
10
-256.0
20
58.467102
30
-173.20508
11
-254.0
21
57.606506
31
-173.20508
0
LINE
8
0
10
-254.0
20
-42.393494
30
-173.20508
11
-252.0
21
-44.796753
31
-173.20508
0
LINE
8
0
10
-254.0
20
57.606506
30
-173.20508
11
-252.0
21
55.203247
31
-173.20508
0
LINE
8
0
10
-252.0
20
-44.796753
30
-173.20508
11
-250.0
21
-48.40851
31
-173.20508
0
LINE
8
0
10
-252.0
20
55.203247
30
-173.20508
11
-250.0
21
51.59149
31
-173.20508
0
LINE
8
0
10
-250.0
20
-48.40851
30
-173.20508
11
-248.0
21
-52.72827
31
-173.20508
0
LINE
8
0
10
-250.0
20
51.59149
30
-173.20508
11
-248.0
21
47.27173
31
-173.20508
0
LINE
8
0
10
-248.0
20
-52.72827
30
-173.20508
11
-246.0
21
-56.69098
31
-173.20508
0
LINE
8
0
10
-248.0
20
47.27173
30
-173.20508
11
-246.0
21
43.30902
31
-173.20508
0
LINE
8
0
10
-246.0
20
-56.69098
30
-173.20508
11
-244.0
21
-58.151245
31
-173.20508
0
LINE
8
0
10
-246.0
20
43.30902
30
-173.20508
11
-244.0
21
41.848755
31
-173.20508
0
LINE
8
0
10
-244.0
20
-58.151245
30
-173.20508
11
-242.0
21
-58.987427
31
-173.20508
0
LINE
8
0
10
-244.0
20
41.848755
30
-173.20508
11
-242.0
21
41.012573
31
-173.20508
0
LINE
8
0
10
-242.0
20
-58.987427
30
-173.20508
11
-240.0
21
-57.440186
31
-173.20508
0
LINE
8
0
10
-242.0
20
41.012573
30
-173.20508
11
-240.0
21
42.559814
31
-173.20508
0
LINE
8
0
10
-240.0
20
-57.440186
30
-173.20508
11
-238.0
21
-54.145813
31
-173.20508
0
LINE
8
0
10
-240.0
20
42.559814
30
-173.20508
11
-238.0
21
45.854187
31
-173.20508
0
LINE
8
0
10
-238.0
20
-54.145813
30
-173.20508
11
-236.0
21
-50.14801
31
-173.20508
0
LINE
8
0
10
-238.0
20
45.854187
30
-173.20508
11
-236.0
21
49.85199
31
-173.20508
0
LINE
8
0
10
-236.0
20
-50.14801
30
-173.20508
11
-234.0
21
-46.496582
31
-173.20508
0
LINE
8
0
10
-236.0
20
49.85199
30
-173.20508
11
-234.0
21
53.503418
31
-173.20508
0
LINE
8
0
10
-234.0
20
-46.496582
30
-173.20508
11
-232.0
21
-43.48297
31
-173.20508
0
LINE
8
0
10
-234.0
20
53.503418
30
-173.20508
11
-232.0
21
56.51703
31
-173.20508
0
LINE
8
0
10
-232.0
20
-43.48297
30
-173.20508
11
-230.0
21
-41.992188
31
-173.20508
0
LINE
8
0
10
-232.0
20
56.51703
30
-173.20508
11
-230.0
21
58.007812
31
-173.20508
0
LINE
8
0
10
-230.0
20
-41.992188
30
-173.20508
11
-228.0
21
-42.259216
31
-173.20508
0
LINE
8
0
10
-230.0
20
58.007812
30
-173.20508
11
-228.0
21
57.740784
31
-173.20508
0
LINE
8
0
10
-228.0
20
-42.259216
30
-173.20508
11
-226.0
21
-43.963623
31
-173.20508
0
LINE
8
0
10
-228.0
20
57.740784
30
-173.20508
11
-226.0
21
56.036377
31
-173.20508
0
LINE
8
0
10
-226.0
20
-43.963623
30
-173.20508
11
-224.0
21
-47.392273
31
-173.20508
0
LINE
8
0
10
-226.0
20
56.036377
30
-173.20508
11
-224.0
21
52.607727
31
-173.20508
0
LINE
8
0
10
-224.0
20
-47.392273
30
-173.20508
11
-222.0
21
-50.77057
31
-173.20508
0
LINE
8
0
10
-224.0
20
52.607727
30
-173.20508
11
-222.0
21
49.22943
31
-173.20508
0
LINE
8
0
10
-222.0
20
-50.77057
30
-173.20508
11
-220.0
21
-54.74243
31
-173.20508
0
LINE
8
0
10
-222.0
20
49.22943
30
-173.20508
11
-220.0
21
45.25757
31
-173.20508
0
LINE
8
0
10
-220.0
20
-54.74243
30
-173.20508
11
-218.0
21
-56.895447
31
-173.20508
0
LINE
8
0
10
-220.0
20
45.25757
30
-173.20508
11
-218.0
21
43.104553
31
-173.20508
0
LINE
8
0
10
-218.0
20
-56.895447
30
-173.20508
11
-216.0
21
-58.52661
31
-173.20508
0
LINE
8
0
10
-218.0
20
43.104553
30
-173.20508
11
-216.0
21
41.47339
31
-173.20508
0
LINE
8
0
10
-216.0
20
-58.52661
30
-173.20508
11
-214.0
21
-58.106995
31
-173.20508
0
LINE
8
0
10
-216.0
20
41.47339
30
-173.20508
11
-214.0
21
41.893005
31
-173.20508
0
LINE
8
0
10
-214.0
20
-58.106995
30
-173.20508
11
-212.0
21
-56.599426
31
-173.20508
0
LINE
8
0
10
-214.0
20
41.893005
30
-173.20508
11
-212.0
21
43.400574
31
-173.20508
0
LINE
8
0
10
-212.0
20
-56.599426
30
-173.20508
11
-210.0
21
-52.22473
31
-173.20508
0
LINE
8
0
10
-212.0
20
43.400574
30
-173.20508
11
-210.0
21
47.77527
31
-173.20508
0
LINE
8
0
10
-210.0
20
-52.22473
30
-173.20508
11
-208.0
21
-47.46704
31
-173.20508
0
LINE
8
0
10
-210.0
20
47.77527
30
-173.20508
11
-208.0
21
52.53296
31
-173.20508
0
LINE
8
0
10
-208.0
20
-47.46704
30
-173.20508
11
-206.0
21
-44.602966
31
-173.20508
0
LINE
8
0
10
-208.0
20
52.53296
30
-173.20508
11
-206.0
21
55.397034
31
-173.20508
0
LINE
8
0
10
-206.0
20
-44.602966
30
-173.20508
11
-204.0
21
-42.977905
31
-173.20508
0
LINE
8
0
10
-206.0
20
55.397034
30
-173.20508
11
-204.0
21
57.022095
31
-173.20508
0
LINE
8
0
10
-204.0
20
-42.977905
30
-173.20508
11
-202.0
21
-41.31012
31
-173.20508
0
LINE
8
0
10
-204.0
20
57.022095
30
-173.20508
11
-202.0
21
58.68988
31
-173.20508
0
LINE
8
0
10
-202.0
20
-41.31012
30
-173.20508
11
-200.0
21
-41.18042
31
-173.20508
0
LINE
8
0
10
-202.0
20
58.68988
30
-173.20508
11
-200.0
21
58.81958
31
-173.20508
0
LINE
8
0
10
-200.0
20
-41.18042
30
-173.20508
11
-198.0
21
-45.777893
31
-173.20508
0
LINE
8
0
10
-200.0
20
58.81958
30
-173.20508
11
-198.0
21
54.222107
31
-173.20508
0
LINE
8
0
10
-198.0
20
-45.777893
30
-173.20508
11
-196.0
21
-49.59259
31
-173.20508
0
LINE
8
0
10
-198.0
20
54.222107
30
-173.20508
11
-196.0
21
50.40741
31
-173.20508
0
LINE
8
0
10
-196.0
20
-49.59259
30
-173.20508
11
-194.0
21
-52.604675
31
-173.20508
0
LINE
8
0
10
-196.0
20
50.40741
30
-173.20508
11
-194.0
21
47.395325
31
-173.20508
0
LINE
8
0
10
-194.0
20
-52.604675
30
-173.20508
11
-192.0
21
-56.184387
31
-173.20508
0
LINE
8
0
10
-194.0
20
47.395325
30
-173.20508
11
-192.0
21
43.815613
31
-173.20508
0
LINE
8
0
10
-192.0
20
-56.184387
30
-173.20508
11
-190.0
21
-58.86078
31
-173.20508
0
LINE
8
0
10
-192.0
20
43.815613
30
-173.20508
11
-190.0
21
41.13922
31
-173.20508
0
LINE
8
0
10
-190.0
20
-58.86078
30
-173.20508
11
-188.0
21
-58.613586
31
-173.20508
0
LINE
8
0
10
-190.0
20
41.13922
30
-173.20508
11
-188.0
21
41.386414
31
-173.20508
0
LINE
8
0
10
-188.0
20
-58.613586
30
-173.20508
11
-186.0
21
-56.655884
31
-173.20508
0
LINE
8
0
10
-188.0
20
41.386414
30
-173.20508
11
-186.0
21
43.344116
31
-173.20508
0
LINE
8
0
10
-186.0
20
-56.655884
30
-173.20508
11
-184.0
21
-53.637695
31
-173.20508
0
LINE
8
0
10
-186.0
20
43.344116
30
-173.20508
11
-184.0
21
46.362305
31
-173.20508
0
LINE
8
0
10
-184.0
20
-53.637695
30
-173.20508
11
-182.0
21
-49.731445
31
-173.20508
0
LINE
8
0
10
-184.0
20
46.362305
30
-173.20508
11
-182.0
21
50.268555
31
-173.20508
0
LINE
8
0
10
-182.0
20
-49.731445
30
-173.20508
11
-180.0
21
-46.43097
31
-173.20508
0
LINE
8
0
10
-182.0
20
50.268555
30
-173.20508
11
-180.0
21
53.56903
31
-173.20508
0
LINE
8
0
10
-180.0
20
-46.43097
30
-173.20508
11
-178.0
21
-43.35785
31
-173.20508
0
LINE
8
0
10
-180.0
20
53.56903
30
-173.20508
11
-178.0
21
56.64215
31
-173.20508
0
LINE
8
0
10
-178.0
20
-43.35785
30
-173.20508
11
-176.0
21
-41.833496
31
-173.20508
0
LINE
8
0
10
-178.0
20
56.64215
30
-173.20508
11
-176.0
21
58.166504
31
-173.20508
0
LINE
8
0
10
-176.0
20
-41.833496
30
-173.20508
11
-174.0
21
-42.443848
31
-173.20508
0
LINE
8
0
10
-176.0
20
58.166504
30
-173.20508
11
-174.0
21
57.556152
31
-173.20508
0
LINE
8
0
10
-174.0
20
-42.443848
30
-173.20508
11
-172.0
21
-43.862915
31
-173.20508
0
LINE
8
0
10
-174.0
20
57.556152
30
-173.20508
11
-172.0
21
56.137085
31
-173.20508
0
LINE
8
0
10
-172.0
20
-43.862915
30
-173.20508
11
-170.0
21
-46.269226
31
-173.20508
0
LINE
8
0
10
-172.0
20
56.137085
30
-173.20508
11
-170.0
21
53.730774
31
-173.20508
0
LINE
8
0
10
-170.0
20
-46.269226
30
-173.20508
11
-168.0
21
-51.356506
31
-173.20508
0
LINE
8
0
10
-170.0
20
53.730774
30
-173.20508
11
-168.0
21
48.643494
31
-173.20508
0
LINE
8
0
10
-168.0
20
-51.356506
30
-173.20508
11
-166.0
21
-55.195618
31
-173.20508
0
LINE
8
0
10
-168.0
20
48.643494
30
-173.20508
11
-166.0
21
44.804382
31
-173.20508
0
LINE
8
0
10
-166.0
20
-55.195618
30
-173.20508
11
-164.0
21
-57.8125
31
-173.20508
0
LINE
8
0
10
-166.0
20
44.804382
30
-173.20508
11
-164.0
21
42.1875
31
-173.20508
0
LINE
8
0
10
-164.0
20
-57.8125
30
-173.20508
11
-162.0
21
-59.65271
31
-173.20508
0
LINE
8
0
10
-164.0
20
42.1875
30
-173.20508
11
-162.0
21
40.34729
31
-173.20508
0
LINE
8
0
10
-162.0
20
-59.65271
30
-173.20508
11
-160.0
21
-58.372498
31
-173.20508
0
LINE
8
0
10
-162.0
20
40.34729
30
-173.20508
11
-160.0
21
41.627502
31
-173.20508
0
LINE
8
0
10
-160.0
20
-58.372498
30
-173.20508
11
-158.0
21
-55.343628
31
-173.20508
0
LINE
8
0
10
-160.0
20
41.627502
30
-173.20508
11
-158.0
21
44.656372
31
-173.20508
0
LINE
8
0
10
-158.0
20
-55.343628
30
-173.20508
11
-156.0
21
-52.423096
31
-173.20508
0
LINE
8
0
10
-158.0
20
44.656372
30
-173.20508
11
-156.0
21
47.576904
31
-173.20508
0
LINE
8
0
10
-156.0
20
-52.423096
30
-173.20508
11
-154.0
21
-48.181152
31
-173.20508
0
LINE
8
0
10
-156.0
20
47.576904
30
-173.20508
11
-154.0
21
51.818848
31
-173.20508
0
LINE
8
0
10
-154.0
20
-48.181152
30
-173.20508
11
-152.0
21
-44.143677
31
-173.20508
0
LINE
8
0
10
-154.0
20
51.818848
30
-173.20508
11
-152.0
21
55.856323
31
-173.20508
0
LINE
8
0
10
-152.0
20
-44.143677
30
-173.20508
11
-150.0
21
-41.68396
31
-173.20508
0
LINE
8
0
10
-152.0
20
55.856323
30
-173.20508
11
-150.0
21
58.31604
31
-173.20508
0
LINE
8
0
10
-150.0
20
-41.68396
30
-173.20508
11
-148.0
21
-41.65497
31
-173.20508
0
LINE
8
0
10
-150.0
20
58.31604
30
-173.20508
11
-148.0
21
58.34503
31
-173.20508
0
LINE
8
0
10
-148.0
20
-41.65497
30
-173.20508
11
-146.0
21
-43.206787
31
-173.20508
0
LINE
8
0
10
-148.0
20
58.34503
30
-173.20508
11
-146.0
21
56.793213
31
-173.20508
0
LINE
8
0
10
-146.0
20
-43.206787
30
-173.20508
11
-144.0
21
-45.651245
31
-173.20508
0
LINE
8
0
10
-146.0
20
56.793213
30
-173.20508
11
-144.0
21
54.348755
31
-173.20508
0
LINE
8
0
10
-144.0
20
-45.651245
30
-173.20508
11
-142.0
21
-49.246216
31
-173.20508
0
LINE
8
0
10
-144.0
20
54.348755
30
-173.20508
11
-142.0
21
50.753784
31
-173.20508
0
LINE
8
0
10
-142.0
20
-49.246216
30
-173.20508
11
-140.0
21
-52.960205
31
-173.20508
0
LINE
8
0
10
-142.0
20
50.753784
30
-173.20508
11
-140.0
21
47.039795
31
-173.20508
0
LINE
8
0
10
-140.0
20
-52.960205
30
-173.20508
11
-138.0
21
-56.78253
31
-173.20508
0
LINE
8
0
10
-140.0
20
47.039795
30
-173.20508
11
-138.0
21
43.21747
31
-173.20508
0
LINE
8
0
10
-138.0
20
-56.78253
30
-173.20508
11
-136.0
21
-58.366394
31
-173.20508
0
LINE
8
0
10
-138.0
20
43.21747
30
-173.20508
11
-136.0
21
41.633606
31
-173.20508
0
LINE
8
0
10
-136.0
20
-58.366394
30
-173.20508
11
-134.0
21
-58.424377
31
-173.20508
0
LINE
8
0
10
-136.0
20
41.633606
30
-173.20508
11
-134.0
21
41.575623
31
-173.20508
0
LINE
8
0
10
-134.0
20
-58.424377
30
-173.20508
11
-132.0
21
-57.341003
31
-173.20508
0
LINE
8
0
10
-134.0
20
41.575623
30
-173.20508
11
-132.0
21
42.658997
31
-173.20508
0
LINE
8
0
10
-132.0
20
-57.341003
30
-173.20508
11
-130.0
21
-54.296875
31
-173.20508
0
LINE
8
0
10
-132.0
20
42.658997
30
-173.20508
11
-130.0
21
45.703125
31
-173.20508
0
LINE
8
0
10
-130.0
20
-54.296875
30
-173.20508
11
-128.0
21
-50.08087
31
-173.20508
0
LINE
8
0
10
-130.0
20
45.703125
30
-173.20508
11
-128.0
21
49.91913
31
-173.20508
0
LINE
8
0
10
-128.0
20
-50.08087
30
-173.20508
11
-126.0
21
-45.60852
31
-173.20508
0
LINE
8
0
10
-128.0
20
49.91913
30
-173.20508
11
-126.0
21
54.39148
31
-173.20508
0
LINE
8
0
10
-126.0
20
-45.60852
30
-173.20508
11
-124.0
21
-42.411804
31
-173.20508
0
LINE
8
0
10
-126.0
20
54.39148
30
-173.20508
11
-124.0
21
57.588196
31
-173.20508
0
LINE
8
0
10
-124.0
20
-42.411804
30
-173.20508
11
-122.0
21
-41.323853
31
-173.20508
0
LINE
8
0
10
-124.0
20
57.588196
30
-173.20508
11
-122.0
21
58.676147
31
-173.20508
0
LINE
8
0
10
-122.0
20
-41.323853
30
-173.20508
11
-120.0
21
-41.722107
31
-173.20508
0
LINE
8
0
10
-122.0
20
58.676147
30
-173.20508
11
-120.0
21
58.277893
31
-173.20508
0
LINE
8
0
10
-120.0
20
-41.722107
30
-173.20508
11
-118.0
21
-43.815613
31
-173.20508
0
LINE
8
0
10
-120.0
20
58.277893
30
-173.20508
11
-118.0
21
56.184387
31
-173.20508
0
LINE
8
0
10
-118.0
20
-43.815613
30
-173.20508
11
-116.0
21
-47.746277
31
-173.20508
0
LINE
8
0
10
-118.0
20
56.184387
30
-173.20508
11
-116.0
21
52.253723
31
-173.20508
0
LINE
8
0
10
-116.0
20
-47.746277
30
-173.20508
11
-114.0
21
-51.506042
31
-173.20508
0
LINE
8
0
10
-116.0
20
52.253723
30
-173.20508
11
-114.0
21
48.493958
31
-173.20508
0
LINE
8
0
10
-114.0
20
-51.506042
30
-173.20508
11
-112.0
21
-55.27191
31
-173.20508
0
LINE
8
0
10
-114.0
20
48.493958
30
-173.20508
11
-112.0
21
44.72809
31
-173.20508
0
LINE
8
0
10
-112.0
20
-55.27191
30
-173.20508
11
-110.0
21
-57.31201
31
-173.20508
0
LINE
8
0
10
-112.0
20
44.72809
30
-173.20508
11
-110.0
21
42.68799
31
-173.20508
0
LINE
8
0
10
-110.0
20
-57.31201
30
-173.20508
11
-108.0
21
-58.699036
31
-173.20508
0
LINE
8
0
10
-110.0
20
42.68799
30
-173.20508
11
-108.0
21
41.300964
31
-173.20508
0
LINE
8
0
10
-108.0
20
-58.699036
30
-173.20508
11
-106.0
21
-58.51593
31
-173.20508
0
LINE
8
0
10
-108.0
20
41.300964
30
-173.20508
11
-106.0
21
41.48407
31
-173.20508
0
LINE
8
0
10
-106.0
20
-58.51593
30
-173.20508
11
-104.0
21
-55.334473
31
-173.20508
0
LINE
8
0
10
-106.0
20
41.48407
30
-173.20508
11
-104.0
21
44.665527
31
-173.20508
0
LINE
8
0
10
-104.0
20
-55.334473
30
-173.20508
11
-102.0
21
-51.992798
31
-173.20508
0
LINE
8
0
10
-104.0
20
44.665527
30
-173.20508
11
-102.0
21
48.007202
31
-173.20508
0
LINE
8
0
10
-102.0
20
-51.992798
30
-173.20508
11
-100.0
21
-47.576904
31
-173.20508
0
LINE
8
0
10
-102.0
20
48.007202
30
-173.20508
11
-100.0
21
52.423096
31
-173.20508
0
LINE
8
0
10
-100.0
20
-47.576904
30
-173.20508
11
-98.0
21
-43.66913
31
-173.20508
0
LINE
8
0
10
-100.0
20
52.423096
30
-173.20508
11
-98.0
21
56.33087
31
-173.20508
0
LINE
8
0
10
-98.0
20
-43.66913
30
-173.20508
11
-96.0
21
-41.714478
31
-173.20508
0
LINE
8
0
10
-98.0
20
56.33087
30
-173.20508
11
-96.0
21
58.285522
31
-173.20508
0
LINE
8
0
10
-96.0
20
-41.714478
30
-173.20508
11
-94.0
21
-40.84015
31
-173.20508
0
LINE
8
0
10
-96.0
20
58.285522
30
-173.20508
11
-94.0
21
59.15985
31
-173.20508
0
LINE
8
0
10
-94.0
20
-40.84015
30
-173.20508
11
-92.0
21
-42.75818
31
-173.20508
0
LINE
8
0
10
-94.0
20
59.15985
30
-173.20508
11
-92.0
21
57.24182
31
-173.20508
0
LINE
8
0
10
-92.0
20
-42.75818
30
-173.20508
11
-90.0
21
-45.69397
31
-173.20508
0
LINE
8
0
10
-92.0
20
57.24182
30
-173.20508
11
-90.0
21
54.30603
31
-173.20508
0
LINE
8
0
10
-90.0
20
-45.69397
30
-173.20508
11
-88.0
21
-49.143982
31
-173.20508
0
LINE
8
0
10
-90.0
20
54.30603
30
-173.20508
11
-88.0
21
50.856018
31
-173.20508
0
LINE
8
0
10
-88.0
20
-49.143982
30
-173.20508
11
-86.0
21
-53.451538
31
-173.20508
0
LINE
8
0
10
-88.0
20
50.856018
30
-173.20508
11
-86.0
21
46.548462
31
-173.20508
0
LINE
8
0
10
-86.0
20
-53.451538
30
-173.20508
11
-84.0
21
-56.874084
31
-173.20508
0
LINE
8
0
10
-86.0
20
46.548462
30
-173.20508
11
-84.0
21
43.125916
31
-173.20508
0
LINE
8
0
10
-84.0
20
-56.874084
30
-173.20508
11
-82.0
21
-58.268738
31
-173.20508
0
LINE
8
0
10
-84.0
20
43.125916
30
-173.20508
11
-82.0
21
41.731262
31
-173.20508
0
LINE
8
0
10
-82.0
20
-58.268738
30
-173.20508
11
-80.0
21
-58.82721
31
-173.20508
0
LINE
8
0
10
-82.0
20
41.731262
30
-173.20508
11
-80.0
21
41.17279
31
-173.20508
0
LINE
8
0
10
-80.0
20
-58.82721
30
-173.20508
11
-78.0
21
-57.33185
31
-173.20508
0
LINE
8
0
10
-80.0
20
41.17279
30
-173.20508
11
-78.0
21
42.66815
31
-173.20508
0
LINE
8
0
10
-78.0
20
-57.33185
30
-173.20508
11
-76.0
21
-53.453064
31
-173.20508
0
LINE
8
0
10
-78.0
20
42.66815
30
-173.20508
11
-76.0
21
46.546936
31
-173.20508
0
LINE
8
0
10
-76.0
20
-53.453064
30
-173.20508
11
-74.0
21
-49.71466
31
-173.20508
0
LINE
8
0
10
-76.0
20
46.546936
30
-173.20508
11
-74.0
21
50.28534
31
-173.20508
0
LINE
8
0
10
-74.0
20
-49.71466
30
-173.20508
11
-72.0
21
-45.610046
31
-173.20508
0
LINE
8
0
10
-74.0
20
50.28534
30
-173.20508
11
-72.0
21
54.389954
31
-173.20508
0
LINE
8
0
10
-72.0
20
-45.610046
30
-173.20508
11
-70.0
21
-42.39044
31
-173.20508
0
LINE
8
0
10
-72.0
20
54.389954
30
-173.20508
11
-70.0
21
57.60956
31
-173.20508
0
LINE
8
0
10
-70.0
20
-42.39044
30
-173.20508
11
-68.0
21
-41.20941
31
-173.20508
0
LINE
8
0
10
-70.0
20
57.60956
30
-173.20508
11
-68.0
21
58.79059
31
-173.20508
0
LINE
8
0
10
-68.0
20
-41.20941
30
-173.20508
11
-66.0
21
-41.142273
31
-173.20508
0
LINE
8
0
10
-68.0
20
58.79059
30
-173.20508
11
-66.0
21
58.857727
31
-173.20508
0
LINE
8
0
10
-66.0
20
-41.142273
30
-173.20508
11
-64.0
21
-43.704224
31
-173.20508
0
LINE
8
0
10
-66.0
20
58.857727
30
-173.20508
11
-64.0
21
56.295776
31
-173.20508
0
LINE
8
0
10
-64.0
20
-43.704224
30
-173.20508
11
-62.0
21
-47.436523
31
-173.20508
0
LINE
8
0
10
-64.0
20
56.295776
30
-173.20508
11
-62.0
21
52.563477
31
-173.20508
0
LINE
8
0
10
-62.0
20
-47.436523
30
-173.20508
11
-60.0
21
-51.03302
31
-173.20508
0
LINE
8
0
10
-62.0
20
52.563477
30
-173.20508
11
-60.0
21
48.96698
31
-173.20508
0
LINE
8
0
10
-60.0
20
-51.03302
30
-173.20508
11
-58.0
21
-55.44586
31
-173.20508
0
LINE
8
0
10
-60.0
20
48.96698
30
-173.20508
11
-58.0
21
44.55414
31
-173.20508
0
LINE
8
0
10
-58.0
20
-55.44586
30
-173.20508
11
-56.0
21
-58.25348
31
-173.20508
0
LINE
8
0
10
-58.0
20
44.55414
30
-173.20508
11
-56.0
21
41.74652
31
-173.20508
0
LINE
8
0
10
-56.0
20
-58.25348
30
-173.20508
11
-54.0
21
-58.25653
31
-173.20508
0
LINE
8
0
10
-56.0
20
41.74652
30
-173.20508
11
-54.0
21
41.74347
31
-173.20508
0
LINE
8
0
10
-54.0
20
-58.25653
30
-173.20508
11
-52.0
21
-57.40509
31
-173.20508
0
LINE
8
0
10
-54.0
20
41.74347
30
-173.20508
11
-52.0
21
42.59491
31
-173.20508
0
LINE
8
0
10
-52.0
20
-57.40509
30
-173.20508
11
-50.0
21
-55.714417
31
-173.20508
0
LINE
8
0
10
-52.0
20
42.59491
30
-173.20508
11
-50.0
21
44.285583
31
-173.20508
0
LINE
8
0
10
-50.0
20
-55.714417
30
-173.20508
11
-48.0
21
-51.689148
31
-173.20508
0
LINE
8
0
10
-50.0
20
44.285583
30
-173.20508
11
-48.0
21
48.310852
31
-173.20508
0
LINE
8
0
10
-48.0
20
-51.689148
30
-173.20508
11
-46.0
21
-47.148132
31
-173.20508
0
LINE
8
0
10
-48.0
20
48.310852
30
-173.20508
11
-46.0
21
52.851868
31
-173.20508
0
LINE
8
0
10
-46.0
20
-47.148132
30
-173.20508
11
-44.0
21
-43.618774
31
-173.20508
0
LINE
8
0
10
-46.0
20
52.851868
30
-173.20508
11
-44.0
21
56.381226
31
-173.20508
0
LINE
8
0
10
-44.0
20
-43.618774
30
-173.20508
11
-42.0
21
-40.979004
31
-173.20508
0
LINE
8
0
10
-44.0
20
56.381226
30
-173.20508
11
-42.0
21
59.020996
31
-173.20508
0
LINE
8
0
10
-42.0
20
-40.979004
30
-173.20508
11
-40.0
21
-40.64331
31
-173.20508
0
LINE
8
0
10
-42.0
20
59.020996
30
-173.20508
11
-40.0
21
59.35669
31
-173.20508
0
LINE
8
0
10
-40.0
20
-40.64331
30
-173.20508
11
-38.0
21
-41.860962
31
-173.20508
0
LINE
8
0
10
-40.0
20
59.35669
30
-173.20508
11
-38.0
21
58.139038
31
-173.20508
0
LINE
8
0
10
-38.0
20
-41.860962
30
-173.20508
11
-36.0
21
-45.344543
31
-173.20508
0
LINE
8
0
10
-38.0
20
58.139038
30
-173.20508
11
-36.0
21
54.655457
31
-173.20508
0
LINE
8
0
10
-36.0
20
-45.344543
30
-173.20508
11
-34.0
21
-49.217224
31
-173.20508
0
LINE
8
0
10
-36.0
20
54.655457
30
-173.20508
11
-34.0
21
50.782776
31
-173.20508
0
LINE
8
0
10
-34.0
20
-49.217224
30
-173.20508
11
-32.0
21
-53.27301
31
-173.20508
0
LINE
8
0
10
-34.0
20
50.782776
30
-173.20508
11
-32.0
21
46.72699
31
-173.20508
0
LINE
8
0
10
-32.0
20
-53.27301
30
-173.20508
11
-30.0
21
-56.910706
31
-173.20508
0
LINE
8
0
10
-32.0
20
46.72699
30
-173.20508
11
-30.0
21
43.089294
31
-173.20508
0
LINE
8
0
10
-30.0
20
-56.910706
30
-173.20508
11
-28.0
21
-58.525085
31
-173.20508
0
LINE
8
0
10
-30.0
20
43.089294
30
-173.20508
11
-28.0
21
41.474915
31
-173.20508
0
LINE
8
0
10
-28.0
20
-58.525085
30
-173.20508
11
-26.0
21
-57.795715
31
-173.20508
0
LINE
8
0
10
-28.0
20
41.474915
30
-173.20508
11
-26.0
21
42.204285
31
-173.20508
0
LINE
8
0
10
-26.0
20
-57.795715
30
-173.20508
11
-24.0
21
-56.503296
31
-173.20508
0
LINE
8
0
10
-26.0
20
42.204285
30
-173.20508
11
-24.0
21
43.496704
31
-173.20508
0
LINE
8
0
10
-24.0
20
-56.503296
30
-173.20508
11
-22.0
21
-53.60565
31
-173.20508
0
LINE
8
0
10
-24.0
20
43.496704
30
-173.20508
11
-22.0
21
46.39435
31
-173.20508
0
LINE
8
0
10
-22.0
20
-53.60565
30
-173.20508
11
-20.0
21
-49.327087
31
-173.20508
0
LINE
8
0
10
-22.0
20
46.39435
30
-173.20508
11
-20.0
21
50.672913
31
-173.20508
0
LINE
8
0
10
-20.0
20
-49.327087
30
-173.20508
11
-18.0
21
-45.298767
31
-173.20508
0
LINE
8
0
10
-20.0
20
50.672913
30
-173.20508
11
-18.0
21
54.701233
31
-173.20508
0
LINE
8
0
10
-18.0
20
-45.298767
30
-173.20508
11
-16.0
21
-41.70227
31
-173.20508
0
LINE
8
0
10
-18.0
20
54.701233
30
-173.20508
11
-16.0
21
58.29773
31
-173.20508
0
LINE
8
0
10
-16.0
20
-41.70227
30
-173.20508
11
-14.0
21
-41.036987
31
-173.20508
0
LINE
8
0
10
-16.0
20
58.29773
30
-173.20508
11
-14.0
21
58.963013
31
-173.20508
0
LINE
8
0
10
-14.0
20
-41.036987
30
-173.20508
11
-12.0
21
-41.244507
31
-173.20508
0
LINE
8
0
10
-14.0
20
58.963013
30
-173.20508
11
-12.0
21
58.755493
31
-173.20508
0
LINE
8
0
10
-12.0
20
-41.244507
30
-173.20508
11
-10.0
21
-43.67981
31
-173.20508
0
LINE
8
0
10
-12.0
20
58.755493
30
-173.20508
11
-10.0
21
56.32019
31
-173.20508
0
LINE
8
0
10
-10.0
20
-43.67981
30
-173.20508
11
-8.0
21
-47.724915
31
-173.20508
0
LINE
8
0
10
-10.0
20
56.32019
30
-173.20508
11
-8.0
21
52.275085
31
-173.20508
0
LINE
8
0
10
-8.0
20
-47.724915
30
-173.20508
11
-6.0
21
-51.23291
31
-173.20508
0
LINE
8
0
10
-8.0
20
52.275085
30
-173.20508
11
-6.0
21
48.76709
31
-173.20508
0
LINE
8
0
10
-6.0
20
-51.23291
30
-173.20508
11
-4.0
21
-55.12848
31
-173.20508
0
LINE
8
0
10
-6.0
20
48.76709
30
-173.20508
11
-4.0
21
44.87152
31
-173.20508
0
LINE
8
0
10
-4.0
20
-55.12848
30
-173.20508
11
-2.0
21
-57.84607
31
-173.20508
0
LINE
8
0
10
-4.0
20
44.87152
30
-173.20508
11
-2.0
21
42.15393
31
-173.20508
0
LINE
8
0
10
-2.0
20
-57.84607
30
-173.20508
11
0.0
21
-58.15277
31
-173.20508
0
LINE
8
0
10
-2.0
20
42.15393
30
-173.20508
11
0.0
21
41.84723
31
-173.20508
0
LINE
8
0
10
0.0
20
-58.15277
30
-173.20508
11
2.0
21
-57.644653
31
-173.20508
0
LINE
8
0
10
0.0
20
41.84723
30
-173.20508
11
2.0
21
42.355347
31
-173.20508
0
LINE
8
0
10
2.0
20
-57.644653
30
-173.20508
11
4.0
21
-55.412292
31
-173.20508
0
LINE
8
0
10
2.0
20
42.355347
30
-173.20508
11
4.0
21
44.587708
31
-173.20508
0
LINE
8
0
10
4.0
20
-55.412292
30
-173.20508
11
6.0
21
-51.005554
31
-173.20508
0
LINE
8
0
10
4.0
20
44.587708
30
-173.20508
11
6.0
21
48.994446
31
-173.20508
0
LINE
8
0
10
6.0
20
-51.005554
30
-173.20508
11
8.0
21
-46.82617
31
-173.20508
0
LINE
8
0
10
6.0
20
48.994446
30
-173.20508
11
8.0
21
53.17383
31
-173.20508
0
LINE
8
0
10
8.0
20
-46.82617
30
-173.20508
11
10.0
21
-43.90869
31
-173.20508
0
LINE
8
0
10
8.0
20
53.17383
30
-173.20508
11
10.0
21
56.09131
31
-173.20508
0
LINE
8
0
10
10.0
20
-43.90869
30
-173.20508
11
12.0
21
-41.49475
31
-173.20508
0
LINE
8
0
10
10.0
20
56.09131
30
-173.20508
11
12.0
21
58.50525
31
-173.20508
0
LINE
8
0
10
12.0
20
-41.49475
30
-173.20508
11
14.0
21
-40.55786
31
-173.20508
0
LINE
8
0
10
12.0
20
58.50525
30
-173.20508
11
14.0
21
59.44214
31
-173.20508
0
LINE
8
0
10
14.0
20
-40.55786
30
-173.20508
11
16.0
21
-42.137146
31
-173.20508
0
LINE
8
0
10
14.0
20
59.44214
30
-173.20508
11
16.0
21
57.862854
31
-173.20508
0
LINE
8
0
10
16.0
20
-42.137146
30
-173.20508
11
18.0
21
-45.828247
31
-173.20508
0
LINE
8
0
10
16.0
20
57.862854
30
-173.20508
11
18.0
21
54.171753
31
-173.20508
0
LINE
8
0
10
18.0
20
-45.828247
30
-173.20508
11
20.0
21
-49.591064
31
-173.20508
0
LINE
8
0
10
18.0
20
54.171753
30
-173.20508
11
20.0
21
50.408936
31
-173.20508
0
LINE
8
0
10
20.0
20
-49.591064
30
-173.20508
11
22.0
21
-53.485107
31
-173.20508
0
LINE
8
0
10
20.0
20
50.408936
30
-173.20508
11
22.0
21
46.514893
31
-173.20508
0
LINE
8
0
10
22.0
20
-53.485107
30
-173.20508
11
24.0
21
-56.90918
31
-173.20508
0
LINE
8
0
10
22.0
20
46.514893
30
-173.20508
11
24.0
21
43.09082
31
-173.20508
0
LINE
8
0
10
24.0
20
-56.90918
30
-173.20508
11
26.0
21
-58.79364
31
-173.20508
0
LINE
8
0
10
24.0
20
43.09082
30
-173.20508
11
26.0
21
41.20636
31
-173.20508
0
LINE
8
0
10
26.0
20
-58.79364
30
-173.20508
11
28.0
21
-57.844543
31
-173.20508
0
LINE
8
0
10
26.0
20
41.20636
30
-173.20508
11
28.0
21
42.155457
31
-173.20508
0
LINE
8
0
10
28.0
20
-57.844543
30
-173.20508
11
30.0
21
-56.2088
31
-173.20508
0
LINE
8
0
10
28.0
20
42.155457
30
-173.20508
11
30.0
21
43.7912
31
-173.20508
0
LINE
8
0
10
30.0
20
-56.2088
30
-173.20508
11
32.0
21
-53.219604
31
-173.20508
0
LINE
8
0
10
30.0
20
43.7912
30
-173.20508
11
32.0
21
46.780396
31
-173.20508
0
LINE
8
0
10
32.0
20
-53.219604
30
-173.20508
11
34.0
21
-49.017334
31
-173.20508
0
LINE
8
0
10
32.0
20
46.780396
30
-173.20508
11
34.0
21
50.982666
31
-173.20508
0
LINE
8
0
10
34.0
20
-49.017334
30
-173.20508
11
36.0
21
-44.955444
31
-173.20508
0
LINE
8
0
10
34.0
20
50.982666
30
-173.20508
11
36.0
21
55.044556
31
-173.20508
0
LINE
8
0
10
36.0
20
-44.955444
30
-173.20508
11
38.0
21
-41.796875
31
-173.20508
0
LINE
8
0
10
36.0
20
55.044556
30
-173.20508
11
38.0
21
58.203125
31
-173.20508
0
LINE
8
0
10
38.0
20
-41.796875
30
-173.20508
11
40.0
21
-41.296387
31
-173.20508
0
LINE
8
0
10
38.0
20
58.203125
30
-173.20508
11
40.0
21
58.703613
31
-173.20508
0
LINE
8
0
10
40.0
20
-41.296387
30
-173.20508
11
42.0
21
-41.581726
31
-173.20508
0
LINE
8
0
10
40.0
20
58.703613
30
-173.20508
11
42.0
21
58.418274
31
-173.20508
0
LINE
8
0
10
42.0
20
-41.581726
30
-173.20508
11
44.0
21
-43.484497
31
-173.20508
0
LINE
8
0
10
42.0
20
58.418274
30
-173.20508
11
44.0
21
56.515503
31
-173.20508
0
LINE
8
0
10
44.0
20
-43.484497
30
-173.20508
11
46.0
21
-46.943665
31
-173.20508
0
LINE
8
0
10
44.0
20
56.515503
30
-173.20508
11
46.0
21
53.056335
31
-173.20508
0
LINE
8
0
10
46.0
20
-46.943665
30
-173.20508
11
48.0
21
-51.330566
31
-173.20508
0
LINE
8
0
10
46.0
20
53.056335
30
-173.20508
11
48.0
21
48.669434
31
-173.20508
0
LINE
8
0
10
48.0
20
-51.330566
30
-173.20508
11
50.0
21
-56.07605
31
-173.20508
0
LINE
8
0
10
48.0
20
48.669434
30
-173.20508
11
50.0
21
43.92395
31
-173.20508
0
LINE
8
0
10
50.0
20
-56.07605
30
-173.20508
11
52.0
21
-57.33185
31
-173.20508
0
LINE
8
0
10
50.0
20
43.92395
30
-173.20508
11
52.0
21
42.66815
31
-173.20508
0
LINE
8
0
10
52.0
20
-57.33185
30
-173.20508
11
54.0
21
-58.750916
31
-173.20508
0
LINE
8
0
10
52.0
20
42.66815
30
-173.20508
11
54.0
21
41.249084
31
-173.20508
0
LINE
8
0
10
54.0
20
-58.750916
30
-173.20508
11
56.0
21
-57.685852
31
-173.20508
0
LINE
8
0
10
54.0
20
41.249084
30
-173.20508
11
56.0
21
42.314148
31
-173.20508
0
LINE
8
0
10
56.0
20
-57.685852
30
-173.20508
11
58.0
21
-54.925537
31
-173.20508
0
LINE
8
0
10
56.0
20
42.314148
30
-173.20508
11
58.0
21
45.074463
31
-173.20508
0
LINE
8
0
10
58.0
20
-54.925537
30
-173.20508
11
60.0
21
-50.92621
31
-173.20508
0
LINE
8
0
10
58.0
20
45.074463
30
-173.20508
11
60.0
21
49.07379
31
-173.20508
0
LINE
8
0
10
60.0
20
-50.92621
30
-173.20508
11
62.0
21
-47.59369
31
-173.20508
0
LINE
8
0
10
60.0
20
49.07379
30
-173.20508
11
62.0
21
52.40631
31
-173.20508
0
LINE
8
0
10
62.0
20
-47.59369
30
-173.20508
11
64.0
21
-43.344116
31
-173.20508
0
LINE
8
0
10
62.0
20
52.40631
30
-173.20508
11
64.0
21
56.655884
31
-173.20508
0
LINE
8
0
10
64.0
20
-43.344116
30
-173.20508
11
66.0
21
-40.914917
31
-173.20508
0
LINE
8
0
10
64.0
20
56.655884
30
-173.20508
11
66.0
21
59.085083
31
-173.20508
0
LINE
8
0
10
66.0
20
-40.914917
30
-173.20508
11
68.0
21
-40.652466
31
-173.20508
0
LINE
8
0
10
66.0
20
59.085083
30
-173.20508
11
68.0
21
59.347534
31
-173.20508
0
LINE
8
0
10
68.0
20
-40.652466
30
-173.20508
11
70.0
21
-42.355347
31
-173.20508
0
LINE
8
0
10
68.0
20
59.347534
30
-173.20508
11
70.0
21
57.644653
31
-173.20508
0
LINE
8
0
10
70.0
20
-42.355347
30
-173.20508
11
72.0
21
-45.594788
31
-173.20508
0
LINE
8
0
10
70.0
20
57.644653
30
-173.20508
11
72.0
21
54.405212
31
-173.20508
0
LINE
8
0
10
72.0
20
-45.594788
30
-173.20508
11
74.0
21
-49.91455
31
-173.20508
0
LINE
8
0
10
72.0
20
54.405212
30
-173.20508
11
74.0
21
50.08545
31
-173.20508
0
LINE
8
0
10
74.0
20
-49.91455
30
-173.20508
11
76.0
21
-53.614807
31
-173.20508
0
LINE
8
0
10
74.0
20
50.08545
30
-173.20508
11
76.0
21
46.385193
31
-173.20508
0
LINE
8
0
10
76.0
20
-53.614807
30
-173.20508
11
78.0
21
-56.652832
31
-173.20508
0
LINE
8
0
10
76.0
20
46.385193
30
-173.20508
11
78.0
21
43.347168
31
-173.20508
0
LINE
8
0
10
78.0
20
-56.652832
30
-173.20508
11
80.0
21
-59.375
31
-173.20508
0
LINE
8
0
10
78.0
20
43.347168
30
-173.20508
11
80.0
21
40.625
31
-173.20508
0
LINE
8
0
10
80.0
20
-59.375
30
-173.20508
11
82.0
21
-58.680725
31
-173.20508
0
LINE
8
0
10
80.0
20
40.625
30
-173.20508
11
82.0
21
41.319275
31
-173.20508
0
LINE
8
0
10
82.0
20
-58.680725
30
-173.20508
11
84.0
21
-56.251526
31
-173.20508
0
LINE
8
0
10
82.0
20
41.319275
30
-173.20508
11
84.0
21
43.748474
31
-173.20508
0
LINE
8
0
10
84.0
20
-56.251526
30
-173.20508
11
86.0
21
-53.538513
31
-173.20508
0
LINE
8
0
10
84.0
20
43.748474
30
-173.20508
11
86.0
21
46.461487
31
-173.20508
0
LINE
8
0
10
86.0
20
-53.538513
30
-173.20508
11
88.0
21
-49.572754
31
-173.20508
0
LINE
8
0
10
86.0
20
46.461487
30
-173.20508
11
88.0
21
50.427246
31
-173.20508
0
LINE
8
0
10
88.0
20
-49.572754
30
-173.20508
11
90.0
21
-44.992065
31
-173.20508
0
LINE
8
0
10
88.0
20
50.427246
30
-173.20508
11
90.0
21
55.007935
31
-173.20508
0
LINE
8
0
10
90.0
20
-44.992065
30
-173.20508
11
92.0
21
-42.50946
31
-173.20508
0
LINE
8
0
10
90.0
20
55.007935
30
-173.20508
11
92.0
21
57.49054
31
-173.20508
0
LINE
8
0
10
92.0
20
-42.50946
30
-173.20508
11
94.0
21
-41.244507
31
-173.20508
0
LINE
8
0
10
92.0
20
57.49054
30
-173.20508
11
94.0
21
58.755493
31
-173.20508
0
LINE
8
0
10
94.0
20
-41.244507
30
-173.20508
11
96.0
21
-42.237854
31
-173.20508
0
LINE
8
0
10
94.0
20
58.755493
30
-173.20508
11
96.0
21
57.762146
31
-173.20508
0
LINE
8
0
10
96.0
20
-42.237854
30
-173.20508
11
98.0
21
-43.84308
31
-173.20508
0
LINE
8
0
10
96.0
20
57.762146
30
-173.20508
11
98.0
21
56.15692
31
-173.20508
0
LINE
8
0
10
98.0
20
-43.84308
30
-173.20508
11
100.0
21
-47.39685
31
-173.20508
0
LINE
8
0
10
98.0
20
56.15692
30
-173.20508
11
100.0
21
52.60315
31
-173.20508
0
LINE
8
0
10
100.0
20
-47.39685
30
-173.20508
11
102.0
21
-51.690674
31
-173.20508
0
LINE
8
0
10
100.0
20
52.60315
30
-173.20508
11
102.0
21
48.309326
31
-173.20508
0
LINE
8
0
10
102.0
20
-51.690674
30
-173.20508
11
104.0
21
-56.19812
31
-173.20508
0
LINE
8
0
10
102.0
20
48.309326
30
-173.20508
11
104.0
21
43.80188
31
-173.20508
0
LINE
8
0
10
104.0
20
-56.19812
30
-173.20508
11
106.0
21
-60.031128
31
-173.20508
0
LINE
8
0
10
104.0
20
43.80188
30
-173.20508
11
106.0
21
39.968872
31
-173.20508
0
LINE
8
0
10
106.0
20
-60.031128
30
-173.20508
11
108.0
21
-58.01544
31
-173.20508
0
LINE
8
0
10
106.0
20
39.968872
30
-173.20508
11
108.0
21
41.98456
31
-173.20508
0
LINE
8
0
10
108.0
20
-58.01544
30
-173.20508
11
110.0
21
-58.296204
31
-173.20508
0
LINE
8
0
10
108.0
20
41.98456
30
-173.20508
11
110.0
21
41.703796
31
-173.20508
0
LINE
8
0
10
110.0
20
-58.296204
30
-173.20508
11
112.0
21
-53.92151
31
-173.20508
0
LINE
8
0
10
110.0
20
41.703796
30
-173.20508
11
112.0
21
46.07849
31
-173.20508
0
LINE
8
0
10
112.0
20
-53.92151
30
-173.20508
11
114.0
21
-52.1698
31
-173.20508
0
LINE
8
0
10
112.0
20
46.07849
30
-173.20508
11
114.0
21
47.8302
31
-173.20508
0
LINE
8
0
10
114.0
20
-52.1698
30
-173.20508
11
116.0
21
-47.636414
31
-173.20508
0
LINE
8
0
10
114.0
20
47.8302
30
-173.20508
11
116.0
21
52.363586
31
-173.20508
0
LINE
8
0
10
116.0
20
-47.636414
30
-173.20508
11
118.0
21
-44.458008
31
-173.20508
0
LINE
8
0
10
116.0
20
52.363586
30
-173.20508
11
118.0
21
55.541992
31
-173.20508
0
LINE
8
0
10
118.0
20
-44.458008
30
-173.20508
11
120.0
21
-39.35547
31
-173.20508
0
LINE
8
0
10
118.0
20
55.541992
30
-173.20508
11
120.0
21
60.64453
31
-173.20508
0
LINE
8
0
10
120.0
20
-39.35547
30
-173.20508
11
122.0
21
-40.71808
31
-173.20508
0
LINE
8
0
10
120.0
20
60.64453
30
-173.20508
11
122.0
21
59.28192
31
-173.20508
0
LINE
8
0
10
122.0
20
-40.71808
30
-173.20508
11
124.0
21
-43.03589
31
-173.20508
0
LINE
8
0
10
122.0
20
59.28192
30
-173.20508
11
124.0
21
56.96411
31
-173.20508
0
LINE
8
0
10
124.0
20
-43.03589
30
-173.20508
11
126.0
21
-48.79608
31
-173.20508
0
LINE
8
0
10
124.0
20
56.96411
30
-173.20508
11
126.0
21
51.20392
31
-173.20508
0
LINE
8
0
10
126.0
20
-48.79608
30
-173.20508
11
128.0
21
-49.13788
31
-173.20508
0
LINE
8
0
10
126.0
20
51.20392
30
-173.20508
11
128.0
21
50.86212
31
-173.20508
0
LINE
8
0
10
128.0
20
-49.13788
30
-173.20508
11
130.0
21
-53.660583
31
-173.20508
0
LINE
8
0
10
128.0
20
50.86212
30
-173.20508
11
130.0
21
46.339417
31
-173.20508
0
LINE
8
0
10
130.0
20
-53.660583
30
-173.20508
11
132.0
21
-56.99768
31
-173.20508
0
LINE
8
0
10
130.0
20
46.339417
30
-173.20508
11
132.0
21
43.00232
31
-173.20508
0
LINE
8
0
10
132.0
20
-56.99768
30
-173.20508
11
134.0
21
-60.48889
31
-173.20508
0
LINE
8
0
10
132.0
20
43.00232
30
-173.20508
11
134.0
21
39.51111
31
-173.20508
0
LINE
8
0
10
134.0
20
-60.48889
30
-173.20508
11
136.0
21
-58.192444
31
-173.20508
0
LINE
8
0
10
134.0
20
39.51111
30
-173.20508
11
136.0
21
41.807556
31
-173.20508
0
LINE
8
0
10
136.0
20
-58.192444
30
-173.20508
11
138.0
21
-55.41992
31
-173.20508
0
LINE
8
0
10
136.0
20
41.807556
30
-173.20508
11
138.0
21
44.58008
31
-173.20508
0
LINE
8
0
10
138.0
20
-55.41992
30
-173.20508
11
140.0
21
-56.274414
31
-173.20508
0
LINE
8
0
10
138.0
20
44.58008
30
-173.20508
11
140.0
21
43.725586
31
-173.20508
0
LINE
8
0
10
140.0
20
-56.274414
30
-173.20508
11
142.0
21
-50.639343
31
-173.20508
0
LINE
8
0
10
140.0
20
43.725586
30
-173.20508
11
142.0
21
49.360657
31
-173.20508
0
LINE
8
0
10
142.0
20
-50.639343
30
-173.20508
11
144.0
21
-41.297913
31
-173.20508
0
LINE
8
0
10
142.0
20
49.360657
30
-173.20508
11
144.0
21
58.702087
31
-173.20508
0
LINE
8
0
10
144.0
20
-41.297913
30
-173.20508
11
146.0
21
-43.115234
31
-173.20508
0
LINE
8
0
10
144.0
20
58.702087
30
-173.20508
11
146.0
21
56.884766
31
-173.20508
0
LINE
8
0
10
146.0
20
-43.115234
30
-173.20508
11
148.0
21
-42.269897
31
-173.20508
0
LINE
8
0
10
146.0
20
56.884766
30
-173.20508
11
148.0
21
57.730103
31
-173.20508
0
LINE
8
0
10
148.0
20
-42.269897
30
-173.20508
11
150.0
21
-45.16754
31
-173.20508
0
LINE
8
0
10
148.0
20
57.730103
30
-173.20508
11
150.0
21
54.83246
31
-173.20508
0
LINE
8
0
10
150.0
20
-45.16754
30
-173.20508
11
152.0
21
-43.955994
31
-173.20508
0
LINE
8
0
10
150.0
20
54.83246
30
-173.20508
11
152.0
21
56.044006
31
-173.20508
0
LINE
8
0
10
152.0
20
-43.955994
30
-173.20508
11
154.0
21
-46.643066
31
-173.20508
0
LINE
8
0
10
152.0
20
56.044006
30
-173.20508
11
154.0
21
53.356934
31
-173.20508
0
LINE
8
0
10
154.0
20
-46.643066
30
-173.20508
11
156.0
21
-51.62201
31
-173.20508
0
LINE
8
0
10
154.0
20
53.356934
30
-173.20508
11
156.0
21
48.37799
31
-173.20508
0
LINE
8
0
10
156.0
20
-51.62201
30
-173.20508
11
158.0
21
-57.969666
31
-173.20508
0
LINE
8
0
10
156.0
20
48.37799
30
-173.20508
11
158.0
21
42.030334
31
-173.20508
0
LINE
8
0
10
158.0
20
-57.969666
30
-173.20508
11
160.0
21
-59.025574
31
-173.20508
0
LINE
8
0
10
158.0
20
42.030334
30
-173.20508
11
160.0
21
40.974426
31
-173.20508
0
LINE
8
0
10
160.0
20
-59.025574
30
-173.20508
11
162.0
21
-56.62079
31
-173.20508
0
LINE
8
0
10
160.0
20
40.974426
30
-173.20508
11
162.0
21
43.37921
31
-173.20508
0
LINE
8
0
10
162.0
20
-56.62079
30
-173.20508
11
164.0
21
-60.00824
31
-173.20508
0
LINE
8
0
10
162.0
20
43.37921
30
-173.20508
11
164.0
21
39.99176
31
-173.20508
0
LINE
8
0
10
164.0
20
-60.00824
30
-173.20508
11
166.0
21
-55.99823
31
-173.20508
0
LINE
8
0
10
164.0
20
39.99176
30
-173.20508
11
166.0
21
44.00177
31
-173.20508
0
LINE
8
0
10
166.0
20
-55.99823
30
-173.20508
11
168.0
21
-52.282715
31
-173.20508
0
LINE
8
0
10
166.0
20
44.00177
30
-173.20508
11
168.0
21
47.717285
31
-173.20508
0
LINE
8
0
10
168.0
20
-52.282715
30
-173.20508
11
170.0
21
-48.446655
31
-173.20508
0
LINE
8
0
10
168.0
20
47.717285
30
-173.20508
11
170.0
21
51.553345
31
-173.20508
0
LINE
8
0
10
170.0
20
-48.446655
30
-173.20508
11
172.0
21
-41.101074
31
-173.20508
0
LINE
8
0
10
170.0
20
51.553345
30
-173.20508
11
172.0
21
58.898926
31
-173.20508
0
LINE
8
0
10
172.0
20
-41.101074
30
-173.20508
11
174.0
21
-41.641235
31
-173.20508
0
LINE
8
0
10
172.0
20
58.898926
30
-173.20508
11
174.0
21
58.358765
31
-173.20508
0
LINE
8
0
10
174.0
20
-41.641235
30
-173.20508
11
176.0
21
-43.666077
31
-173.20508
0
LINE
8
0
10
174.0
20
58.358765
30
-173.20508
11
176.0
21
56.333923
31
-173.20508
0
LINE
8
0
10
176.0
20
-43.666077
30
-173.20508
11
178.0
21
-41.992188
31
-173.20508
0
LINE
8
0
10
176.0
20
56.333923
30
-173.20508
11
178.0
21
58.007812
31
-173.20508
0
LINE
8
0
10
178.0
20
-41.992188
30
-173.20508
11
180.0
21
-46.11664
31
-173.20508
0
LINE
8
0
10
178.0
20
58.007812
30
-173.20508
11
180.0
21
53.88336
31
-173.20508
0
LINE
8
0
10
180.0
20
-46.11664
30
-173.20508
11
182.0
21
-50.634766
31
-173.20508
0
LINE
8
0
10
180.0
20
53.88336
30
-173.20508
11
182.0
21
49.365234
31
-173.20508
0
LINE
8
0
10
182.0
20
-50.634766
30
-173.20508
11
184.0
21
-54.28009
31
-173.20508
0
LINE
8
0
10
182.0
20
49.365234
30
-173.20508
11
184.0
21
45.71991
31
-173.20508
0
LINE
8
0
10
184.0
20
-54.28009
30
-173.20508
11
186.0
21
-57.03888
31
-173.20508
0
LINE
8
0
10
184.0
20
45.71991
30
-173.20508
11
186.0
21
42.96112
31
-173.20508
0
LINE
8
0
10
186.0
20
-57.03888
30
-173.20508
11
188.0
21
-58.60138
31
-173.20508
0
LINE
8
0
10
186.0
20
42.96112
30
-173.20508
11
188.0
21
41.39862
31
-173.20508
0
LINE
8
0
10
188.0
20
-58.60138
30
-173.20508
11
190.0
21
-58.60443
31
-173.20508
0
LINE
8
0
10
188.0
20
41.39862
30
-173.20508
11
190.0
21
41.39557
31
-173.20508
0
LINE
8
0
10
190.0
20
-58.60443
30
-173.20508
11
192.0
21
-56.59485
31
-173.20508
0
LINE
8
0
10
190.0
20
41.39557
30
-173.20508
11
192.0
21
43.40515
31
-173.20508
0
LINE
8
0
10
192.0
20
-56.59485
30
-173.20508
11
194.0
21
-54.948425
31
-173.20508
0
LINE
8
0
10
192.0
20
43.40515
30
-173.20508
11
194.0
21
45.051575
31
-173.20508
0
LINE
8
0
10
194.0
20
-54.948425
30
-173.20508
11
196.0
21
-48.371887
31
-173.20508
0
LINE
8
0
10
194.0
20
45.051575
30
-173.20508
11
196.0
21
51.628113
31
-173.20508
0
LINE
8
0
10
196.0
20
-48.371887
30
-173.20508
11
198.0
21
-46.50421
31
-173.20508
0
LINE
8
0
10
196.0
20
51.628113
30
-173.20508
11
198.0
21
53.49579
31
-173.20508
0
LINE
8
0
10
198.0
20
-46.50421
30
-173.20508
11
200.0
21
-42.318726
31
-173.20508
0
LINE
8
0
10
198.0
20
53.49579
30
-173.20508
11
200.0
21
57.681274
31
-173.20508
0
LINE
8
0
10
200.0
20
-42.318726
30
-173.20508
11
202.0
21
-39.682007
31
-173.20508
0
LINE
8
0
10
200.0
20
57.681274
30
-173.20508
11
202.0
21
60.317993
31
-173.20508
0
LINE
8
0
10
202.0
20
-39.682007
30
-173.20508
11
204.0
21
-40.618896
31
-173.20508
0
LINE
8
0
10
202.0
20
60.317993
30
-173.20508
11
204.0
21
59.381104
31
-173.20508
0
LINE
8
0
10
204.0
20
-40.618896
30
-173.20508
11
206.0
21
-46.49353
31
-173.20508
0
LINE
8
0
10
204.0
20
59.381104
30
-173.20508
11
206.0
21
53.50647
31
-173.20508
0
LINE
8
0
10
206.0
20
-46.49353
30
-173.20508
11
208.0
21
-48.184204
31
-173.20508
0
LINE
8
0
10
206.0
20
53.50647
30
-173.20508
11
208.0
21
51.815796
31
-173.20508
0
LINE
8
0
10
208.0
20
-48.184204
30
-173.20508
11
210.0
21
-50.17395
31
-173.20508
0
LINE
8
0
10
208.0
20
51.815796
30
-173.20508
11
210.0
21
49.82605
31
-173.20508
0
LINE
8
0
10
210.0
20
-50.17395
30
-173.20508
11
212.0
21
-55.426025
31
-173.20508
0
LINE
8
0
10
210.0
20
49.82605
30
-173.20508
11
212.0
21
44.573975
31
-173.20508
0
LINE
8
0
10
212.0
20
-55.426025
30
-173.20508
11
214.0
21
-58.439636
31
-173.20508
0
LINE
8
0
10
212.0
20
44.573975
30
-173.20508
11
214.0
21
41.560364
31
-173.20508
0
LINE
8
0
10
214.0
20
-58.439636
30
-173.20508
11
216.0
21
-60.638428
31
-173.20508
0
LINE
8
0
10
214.0
20
41.560364
30
-173.20508
11
216.0
21
39.361572
31
-173.20508
0
LINE
8
0
10
216.0
20
-60.638428
30
-173.20508
11
218.0
21
-58.589172
31
-173.20508
0
LINE
8
0
10
216.0
20
39.361572
30
-173.20508
11
218.0
21
41.410828
31
-173.20508
0
LINE
8
0
10
218.0
20
-58.589172
30
-173.20508
11
220.0
21
-53.326416
31
-173.20508
0
LINE
8
0
10
218.0
20
41.410828
30
-173.20508
11
220.0
21
46.673584
31
-173.20508
0
LINE
8
0
10
220.0
20
-53.326416
30
-173.20508
11
222.0
21
-50.515747
31
-173.20508
0
LINE
8
0
10
220.0
20
46.673584
30
-173.20508
11
222.0
21
49.484253
31
-173.20508
0
LINE
8
0
10
222.0
20
-50.515747
30
-173.20508
11
224.0
21
-48.612976
31
-173.20508
0
LINE
8
0
10
222.0
20
49.484253
30
-173.20508
11
224.0
21
51.387024
31
-173.20508
0
LINE
8
0
10
224.0
20
-48.612976
30
-173.20508
11
226.0
21
-43.267822
31
-173.20508
0
LINE
8
0
10
224.0
20
51.387024
30
-173.20508
11
226.0
21
56.732178
31
-173.20508
0
LINE
8
0
10
226.0
20
-43.267822
30
-173.20508
11
228.0
21
-40.87982
31
-173.20508
0
LINE
8
0
10
226.0
20
56.732178
30
-173.20508
11
228.0
21
59.12018
31
-173.20508
0
LINE
8
0
10
228.0
20
-40.87982
30
-173.20508
11
230.0
21
-41.731262
31
-173.20508
0
LINE
8
0
10
228.0
20
59.12018
30
-173.20508
11
230.0
21
58.268738
31
-173.20508
0
LINE
8
0
10
230.0
20
-41.731262
30
-173.20508
11
232.0
21
-43.655396
31
-173.20508
0
LINE
8
0
10
230.0
20
58.268738
30
-173.20508
11
232.0
21
56.344604
31
-173.20508
0
LINE
8
0
10
232.0
20
-43.655396
30
-173.20508
11
234.0
21
-45.59326
31
-173.20508
0
LINE
8
0
10
232.0
20
56.344604
30
-173.20508
11
234.0
21
54.40674
31
-173.20508
0
LINE
8
0
10
234.0
20
-45.59326
30
-173.20508
11
236.0
21
-49.73755
31
-173.20508
0
LINE
8
0
10
234.0
20
54.40674
30
-173.20508
11
236.0
21
50.26245
31
-173.20508
0
LINE
8
0
10
236.0
20
-49.73755
30
-173.20508
11
238.0
21
-52.026367
31
-173.20508
0
LINE
8
0
10
236.0
20
50.26245
30
-173.20508
11
238.0
21
47.973633
31
-173.20508
0
LINE
8
0
10
238.0
20
-52.026367
30
-173.20508
11
240.0
21
-58.48236
31
-173.20508
0
LINE
8
0
10
238.0
20
47.973633
30
-173.20508
11
240.0
21
41.51764
31
-173.20508
0
LINE
8
0
10
240.0
20
-58.48236
30
-173.20508
11
242.0
21
-59.3338
31
-173.20508
0
LINE
8
0
10
240.0
20
41.51764
30
-173.20508
11
242.0
21
40.6662
31
-173.20508
0
LINE
8
0
10
242.0
20
-59.3338
30
-173.20508
11
244.0
21
-57.380676
31
-173.20508
0
LINE
8
0
10
242.0
20
40.6662
30
-173.20508
11
244.0
21
42.619324
31
-173.20508
0
LINE
8
0
10
244.0
20
-57.380676
30
-173.20508
11
246.0
21
-57.299805
31
-173.20508
0
LINE
8
0
10
244.0
20
42.619324
30
-173.20508
11
246.0
21
42.700195
31
-173.20508
0
LINE
8
0
10
246.0
20
-57.299805
30
-173.20508
11
248.0
21
-54.260254
31
-173.20508
0
LINE
8
0
10
246.0
20
42.700195
30
-173.20508
11
248.0
21
45.739746
31
-173.20508
0
LINE
8
0
10
248.0
20
-54.260254
30
-173.20508
11
250.0
21
-47.636414
31
-173.20508
0
LINE
8
0
10
248.0
20
45.739746
30
-173.20508
11
250.0
21
52.363586
31
-173.20508
0
LINE
8
0
10
250.0
20
-47.636414
30
-173.20508
11
252.0
21
-44.04297
31
-173.20508
0
LINE
8
0
10
250.0
20
52.363586
30
-173.20508
11
252.0
21
55.95703
31
-173.20508
0
LINE
8
0
10
252.0
20
-44.04297
30
-173.20508
11
254.0
21
-41.992188
31
-173.20508
0
LINE
8
0
10
252.0
20
55.95703
30
-173.20508
11
254.0
21
58.007812
31
-173.20508
0
ENDSEC
0
EOF
