0
SECTION
2
ENTITIES
0
LINE
8
0
10
-256.0
20
-46.243286
30
-173.20508
11
-254.0
21
-53.09601
31
-173.20508
0
LINE
8
0
10
-256.0
20
53.756714
30
-173.20508
11
-254.0
21
46.90399
31
-173.20508
0
LINE
8
0
10
-254.0
20
-53.09601
30
-173.20508
11
-252.0
21
-59.747314
31
-173.20508
0
LINE
8
0
10
-254.0
20
46.90399
30
-173.20508
11
-252.0
21
40.252686
31
-173.20508
0
LINE
8
0
10
-252.0
20
-59.747314
30
-173.20508
11
-250.0
21
-64.382935
31
-173.20508
0
LINE
8
0
10
-252.0
20
40.252686
30
-173.20508
11
-250.0
21
35.617065
31
-173.20508
0
LINE
8
0
10
-250.0
20
-64.382935
30
-173.20508
11
-248.0
21
-66.2735
31
-173.20508
0
LINE
8
0
10
-250.0
20
35.617065
30
-173.20508
11
-248.0
21
33.7265
31
-173.20508
0
LINE
8
0
10
-248.0
20
-66.2735
30
-173.20508
11
-246.0
21
-65.25574
31
-173.20508
0
LINE
8
0
10
-248.0
20
33.7265
30
-173.20508
11
-246.0
21
34.744263
31
-173.20508
0
LINE
8
0
10
-246.0
20
-65.25574
30
-173.20508
11
-244.0
21
-61.009216
31
-173.20508
0
LINE
8
0
10
-246.0
20
34.744263
30
-173.20508
11
-244.0
21
38.990784
31
-173.20508
0
LINE
8
0
10
-244.0
20
-61.009216
30
-173.20508
11
-242.0
21
-54.751587
31
-173.20508
0
LINE
8
0
10
-244.0
20
38.990784
30
-173.20508
11
-242.0
21
45.248413
31
-173.20508
0
LINE
8
0
10
-242.0
20
-54.751587
30
-173.20508
11
-240.0
21
-47.52655
31
-173.20508
0
LINE
8
0
10
-242.0
20
45.248413
30
-173.20508
11
-240.0
21
52.47345
31
-173.20508
0
LINE
8
0
10
-240.0
20
-47.52655
30
-173.20508
11
-238.0
21
-40.283203
31
-173.20508
0
LINE
8
0
10
-240.0
20
52.47345
30
-173.20508
11
-238.0
21
59.716797
31
-173.20508
0
LINE
8
0
10
-238.0
20
-40.283203
30
-173.20508
11
-236.0
21
-35.116577
31
-173.20508
0
LINE
8
0
10
-238.0
20
59.716797
30
-173.20508
11
-236.0
21
64.88342
31
-173.20508
0
LINE
8
0
10
-236.0
20
-35.116577
30
-173.20508
11
-234.0
21
-33.40912
31
-173.20508
0
LINE
8
0
10
-236.0
20
64.88342
30
-173.20508
11
-234.0
21
66.59088
31
-173.20508
0
LINE
8
0
10
-234.0
20
-33.40912
30
-173.20508
11
-232.0
21
-34.84955
31
-173.20508
0
LINE
8
0
10
-234.0
20
66.59088
30
-173.20508
11
-232.0
21
65.15045
31
-173.20508
0
LINE
8
0
10
-232.0
20
-34.84955
30
-173.20508
11
-230.0
21
-39.305115
31
-173.20508
0
LINE
8
0
10
-232.0
20
65.15045
30
-173.20508
11
-230.0
21
60.694885
31
-173.20508
0
LINE
8
0
10
-230.0
20
-39.305115
30
-173.20508
11
-228.0
21
-45.817566
31
-173.20508
0
LINE
8
0
10
-230.0
20
60.694885
30
-173.20508
11
-228.0
21
54.182434
31
-173.20508
0
LINE
8
0
10
-228.0
20
-45.817566
30
-173.20508
11
-226.0
21
-52.789307
31
-173.20508
0
LINE
8
0
10
-228.0
20
54.182434
30
-173.20508
11
-226.0
21
47.210693
31
-173.20508
0
LINE
8
0
10
-226.0
20
-52.789307
30
-173.20508
11
-224.0
21
-59.20105
31
-173.20508
0
LINE
8
0
10
-226.0
20
47.210693
30
-173.20508
11
-224.0
21
40.79895
31
-173.20508
0
LINE
8
0
10
-224.0
20
-59.20105
30
-173.20508
11
-222.0
21
-64.09149
31
-173.20508
0
LINE
8
0
10
-224.0
20
40.79895
30
-173.20508
11
-222.0
21
35.90851
31
-173.20508
0
LINE
8
0
10
-222.0
20
-64.09149
30
-173.20508
11
-220.0
21
-66.093445
31
-173.20508
0
LINE
8
0
10
-222.0
20
35.90851
30
-173.20508
11
-220.0
21
33.906555
31
-173.20508
0
LINE
8
0
10
-220.0
20
-66.093445
30
-173.20508
11
-218.0
21
-65.39917
31
-173.20508
0
LINE
8
0
10
-220.0
20
33.906555
30
-173.20508
11
-218.0
21
34.60083
31
-173.20508
0
LINE
8
0
10
-218.0
20
-65.39917
30
-173.20508
11
-216.0
21
-61.512756
31
-173.20508
0
LINE
8
0
10
-218.0
20
34.60083
30
-173.20508
11
-216.0
21
38.487244
31
-173.20508
0
LINE
8
0
10
-216.0
20
-61.512756
30
-173.20508
11
-214.0
21
-55.122375
31
-173.20508
0
LINE
8
0
10
-216.0
20
38.487244
30
-173.20508
11
-214.0
21
44.877625
31
-173.20508
0
LINE
8
0
10
-214.0
20
-55.122375
30
-173.20508
11
-212.0
21
-47.839355
31
-173.20508
0
LINE
8
0
10
-214.0
20
44.877625
30
-173.20508
11
-212.0
21
52.160645
31
-173.20508
0
LINE
8
0
10
-212.0
20
-47.839355
30
-173.20508
11
-210.0
21
-40.60669
31
-173.20508
0
LINE
8
0
10
-212.0
20
52.160645
30
-173.20508
11
-210.0
21
59.39331
31
-173.20508
0
LINE
8
0
10
-210.0
20
-40.60669
30
-173.20508
11
-208.0
21
-35.084534
31
-173.20508
0
LINE
8
0
10
-210.0
20
59.39331
30
-173.20508
11
-208.0
21
64.91547
31
-173.20508
0
LINE
8
0
10
-208.0
20
-35.084534
30
-173.20508
11
-206.0
21
-33.258057
31
-173.20508
0
LINE
8
0
10
-208.0
20
64.91547
30
-173.20508
11
-206.0
21
66.74194
31
-173.20508
0
LINE
8
0
10
-206.0
20
-33.258057
30
-173.20508
11
-204.0
21
-34.584045
31
-173.20508
0
LINE
8
0
10
-206.0
20
66.74194
30
-173.20508
11
-204.0
21
65.415955
31
-173.20508
0
LINE
8
0
10
-204.0
20
-34.584045
30
-173.20508
11
-202.0
21
-38.82141
31
-173.20508
0
LINE
8
0
10
-204.0
20
65.415955
30
-173.20508
11
-202.0
21
61.17859
31
-173.20508
0
LINE
8
0
10
-202.0
20
-38.82141
30
-173.20508
11
-200.0
21
-45.277405
31
-173.20508
0
LINE
8
0
10
-202.0
20
61.17859
30
-173.20508
11
-200.0
21
54.722595
31
-173.20508
0
LINE
8
0
10
-200.0
20
-45.277405
30
-173.20508
11
-198.0
21
-52.48413
31
-173.20508
0
LINE
8
0
10
-200.0
20
54.722595
30
-173.20508
11
-198.0
21
47.51587
31
-173.20508
0
LINE
8
0
10
-198.0
20
-52.48413
30
-173.20508
11
-196.0
21
-59.13849
31
-173.20508
0
LINE
8
0
10
-198.0
20
47.51587
30
-173.20508
11
-196.0
21
40.86151
31
-173.20508
0
LINE
8
0
10
-196.0
20
-59.13849
30
-173.20508
11
-194.0
21
-64.201355
31
-173.20508
0
LINE
8
0
10
-196.0
20
40.86151
30
-173.20508
11
-194.0
21
35.798645
31
-173.20508
0
LINE
8
0
10
-194.0
20
-64.201355
30
-173.20508
11
-192.0
21
-66.44287
31
-173.20508
0
LINE
8
0
10
-194.0
20
35.798645
30
-173.20508
11
-192.0
21
33.55713
31
-173.20508
0
LINE
8
0
10
-192.0
20
-66.44287
30
-173.20508
11
-190.0
21
-65.727234
31
-173.20508
0
LINE
8
0
10
-192.0
20
33.55713
30
-173.20508
11
-190.0
21
34.272766
31
-173.20508
0
LINE
8
0
10
-190.0
20
-65.727234
30
-173.20508
11
-188.0
21
-61.95526
31
-173.20508
0
LINE
8
0
10
-190.0
20
34.272766
30
-173.20508
11
-188.0
21
38.04474
31
-173.20508
0
LINE
8
0
10
-188.0
20
-61.95526
30
-173.20508
11
-186.0
21
-55.27191
31
-173.20508
0
LINE
8
0
10
-188.0
20
38.04474
30
-173.20508
11
-186.0
21
44.72809
31
-173.20508
0
LINE
8
0
10
-186.0
20
-55.27191
30
-173.20508
11
-184.0
21
-47.7417
31
-173.20508
0
LINE
8
0
10
-186.0
20
44.72809
30
-173.20508
11
-184.0
21
52.2583
31
-173.20508
0
LINE
8
0
10
-184.0
20
-47.7417
30
-173.20508
11
-182.0
21
-40.582275
31
-173.20508
0
LINE
8
0
10
-184.0
20
52.2583
30
-173.20508
11
-182.0
21
59.417725
31
-173.20508
0
LINE
8
0
10
-182.0
20
-40.582275
30
-173.20508
11
-180.0
21
-34.90448
31
-173.20508
0
LINE
8
0
10
-182.0
20
59.417725
30
-173.20508
11
-180.0
21
65.09552
31
-173.20508
0
LINE
8
0
10
-180.0
20
-34.90448
30
-173.20508
11
-178.0
21
-32.540894
31
-173.20508
0
LINE
8
0
10
-180.0
20
65.09552
30
-173.20508
11
-178.0
21
67.45911
31
-173.20508
0
LINE
8
0
10
-178.0
20
-32.540894
30
-173.20508
11
-176.0
21
-34.007263
31
-173.20508
0
LINE
8
0
10
-178.0
20
67.45911
30
-173.20508
11
-176.0
21
65.99274
31
-173.20508
0
LINE
8
0
10
-176.0
20
-34.007263
30
-173.20508
11
-174.0
21
-38.243103
31
-173.20508
0
LINE
8
0
10
-176.0
20
65.99274
30
-173.20508
11
-174.0
21
61.756897
31
-173.20508
0
LINE
8
0
10
-174.0
20
-38.243103
30
-173.20508
11
-172.0
21
-45.2713
31
-173.20508
0
LINE
8
0
10
-174.0
20
61.756897
30
-173.20508
11
-172.0
21
54.7287
31
-173.20508
0
LINE
8
0
10
-172.0
20
-45.2713
30
-173.20508
11
-170.0
21
-51.768494
31
-173.20508
0
LINE
8
0
10
-172.0
20
54.7287
30
-173.20508
11
-170.0
21
48.231506
31
-173.20508
0
LINE
8
0
10
-170.0
20
-51.768494
30
-173.20508
11
-168.0
21
-58.911133
31
-173.20508
0
LINE
8
0
10
-170.0
20
48.231506
30
-173.20508
11
-168.0
21
41.088867
31
-173.20508
0
LINE
8
0
10
-168.0
20
-58.911133
30
-173.20508
11
-166.0
21
-65.46478
31
-173.20508
0
LINE
8
0
10
-168.0
20
41.088867
30
-173.20508
11
-166.0
21
34.535217
31
-173.20508
0
LINE
8
0
10
-166.0
20
-65.46478
30
-173.20508
11
-164.0
21
-66.11328
31
-173.20508
0
LINE
8
0
10
-166.0
20
34.535217
30
-173.20508
11
-164.0
21
33.88672
31
-173.20508
0
LINE
8
0
10
-164.0
20
-66.11328
30
-173.20508
11
-162.0
21
-65.72571
31
-173.20508
0
LINE
8
0
10
-164.0
20
33.88672
30
-173.20508
11
-162.0
21
34.274292
31
-173.20508
0
LINE
8
0
10
-162.0
20
-65.72571
30
-173.20508
11
-160.0
21
-63.62152
31
-173.20508
0
LINE
8
0
10
-162.0
20
34.274292
30
-173.20508
11
-160.0
21
36.37848
31
-173.20508
0
LINE
8
0
10
-160.0
20
-63.62152
30
-173.20508
11
-158.0
21
-54.841614
31
-173.20508
0
LINE
8
0
10
-160.0
20
36.37848
30
-173.20508
11
-158.0
21
45.158386
31
-173.20508
0
LINE
8
0
10
-158.0
20
-54.841614
30
-173.20508
11
-156.0
21
-47.67914
31
-173.20508
0
LINE
8
0
10
-158.0
20
45.158386
30
-173.20508
11
-156.0
21
52.32086
31
-173.20508
0
LINE
8
0
10
-156.0
20
-47.67914
30
-173.20508
11
-154.0
21
-41.97998
31
-173.20508
0
LINE
8
0
10
-156.0
20
52.32086
30
-173.20508
11
-154.0
21
58.02002
31
-173.20508
0
LINE
8
0
10
-154.0
20
-41.97998
30
-173.20508
11
-152.0
21
-34.309387
31
-173.20508
0
LINE
8
0
10
-154.0
20
58.02002
30
-173.20508
11
-152.0
21
65.69061
31
-173.20508
0
LINE
8
0
10
-152.0
20
-34.309387
30
-173.20508
11
-150.0
21
-31.92749
31
-173.20508
0
LINE
8
0
10
-152.0
20
65.69061
30
-173.20508
11
-150.0
21
68.07251
31
-173.20508
0
LINE
8
0
10
-150.0
20
-31.92749
30
-173.20508
11
-148.0
21
-34.6756
31
-173.20508
0
LINE
8
0
10
-150.0
20
68.07251
30
-173.20508
11
-148.0
21
65.3244
31
-173.20508
0
LINE
8
0
10
-148.0
20
-34.6756
30
-173.20508
11
-146.0
21
-37.13684
31
-173.20508
0
LINE
8
0
10
-148.0
20
65.3244
30
-173.20508
11
-146.0
21
62.86316
31
-173.20508
0
LINE
8
0
10
-146.0
20
-37.13684
30
-173.20508
11
-144.0
21
-44.180298
31
-173.20508
0
LINE
8
0
10
-146.0
20
62.86316
30
-173.20508
11
-144.0
21
55.819702
31
-173.20508
0
LINE
8
0
10
-144.0
20
-44.180298
30
-173.20508
11
-142.0
21
-53.485107
31
-173.20508
0
LINE
8
0
10
-144.0
20
55.819702
30
-173.20508
11
-142.0
21
46.514893
31
-173.20508
0
LINE
8
0
10
-142.0
20
-53.485107
30
-173.20508
11
-140.0
21
-58.016968
31
-173.20508
0
LINE
8
0
10
-142.0
20
46.514893
30
-173.20508
11
-140.0
21
41.983032
31
-173.20508
0
LINE
8
0
10
-140.0
20
-58.016968
30
-173.20508
11
-138.0
21
-63.397217
31
-173.20508
0
LINE
8
0
10
-140.0
20
41.983032
30
-173.20508
11
-138.0
21
36.602783
31
-173.20508
0
LINE
8
0
10
-138.0
20
-63.397217
30
-173.20508
11
-136.0
21
-69.1803
31
-173.20508
0
LINE
8
0
10
-138.0
20
36.602783
30
-173.20508
11
-136.0
21
30.819702
31
-173.20508
0
LINE
8
0
10
-136.0
20
-69.1803
30
-173.20508
11
-134.0
21
-65.097046
31
-173.20508
0
LINE
8
0
10
-136.0
20
30.819702
30
-173.20508
11
-134.0
21
34.902954
31
-173.20508
0
LINE
8
0
10
-134.0
20
-65.097046
30
-173.20508
11
-132.0
21
-61.413574
31
-173.20508
0
LINE
8
0
10
-134.0
20
34.902954
30
-173.20508
11
-132.0
21
38.586426
31
-173.20508
0
LINE
8
0
10
-132.0
20
-61.413574
30
-173.20508
11
-130.0
21
-58.50067
31
-173.20508
0
LINE
8
0
10
-132.0
20
38.586426
30
-173.20508
11
-130.0
21
41.49933
31
-173.20508
0
LINE
8
0
10
-130.0
20
-58.50067
30
-173.20508
11
-128.0
21
-48.184204
31
-173.20508
0
LINE
8
0
10
-130.0
20
41.49933
30
-173.20508
11
-128.0
21
51.815796
31
-173.20508
0
LINE
8
0
10
-128.0
20
-48.184204
30
-173.20508
11
-126.0
21
-39.790344
31
-173.20508
0
LINE
8
0
10
-128.0
20
51.815796
30
-173.20508
11
-126.0
21
60.209656
31
-173.20508
0
LINE
8
0
10
-126.0
20
-39.790344
30
-173.20508
11
-124.0
21
-37.017822
31
-173.20508
0
LINE
8
0
10
-126.0
20
60.209656
30
-173.20508
11
-124.0
21
62.982178
31
-173.20508
0
LINE
8
0
10
-124.0
20
-37.017822
30
-173.20508
11
-122.0
21
-32.029724
31
-173.20508
0
LINE
8
0
10
-124.0
20
62.982178
30
-173.20508
11
-122.0
21
67.970276
31
-173.20508
0
LINE
8
0
10
-122.0
20
-32.029724
30
-173.20508
11
-120.0
21
-32.29828
31
-173.20508
0
LINE
8
0
10
-122.0
20
67.970276
30
-173.20508
11
-120.0
21
67.70172
31
-173.20508
0
LINE
8
0
10
-120.0
20
-32.29828
30
-173.20508
11
-118.0
21
-38.796997
31
-173.20508
0
LINE
8
0
10
-120.0
20
67.70172
30
-173.20508
11
-118.0
21
61.203003
31
-173.20508
0
LINE
8
0
10
-118.0
20
-38.796997
30
-173.20508
11
-116.0
21
-43.910217
31
-173.20508
0
LINE
8
0
10
-118.0
20
61.203003
30
-173.20508
11
-116.0
21
56.089783
31
-173.20508
0
LINE
8
0
10
-116.0
20
-43.910217
30
-173.20508
11
-114.0
21
-50.993347
31
-173.20508
0
LINE
8
0
10
-116.0
20
56.089783
30
-173.20508
11
-114.0
21
49.006653
31
-173.20508
0
LINE
8
0
10
-114.0
20
-50.993347
30
-173.20508
11
-112.0
21
-59.370422
31
-173.20508
0
LINE
8
0
10
-114.0
20
49.006653
30
-173.20508
11
-112.0
21
40.629578
31
-173.20508
0
LINE
8
0
10
-112.0
20
-59.370422
30
-173.20508
11
-110.0
21
-63.13629
31
-173.20508
0
LINE
8
0
10
-112.0
20
40.629578
30
-173.20508
11
-110.0
21
36.86371
31
-173.20508
0
LINE
8
0
10
-110.0
20
-63.13629
30
-173.20508
11
-108.0
21
-66.46271
31
-173.20508
0
LINE
8
0
10
-110.0
20
36.86371
30
-173.20508
11
-108.0
21
33.537292
31
-173.20508
0
LINE
8
0
10
-108.0
20
-66.46271
30
-173.20508
11
-106.0
21
-67.666626
31
-173.20508
0
LINE
8
0
10
-108.0
20
33.537292
30
-173.20508
11
-106.0
21
32.333374
31
-173.20508
0
LINE
8
0
10
-106.0
20
-67.666626
30
-173.20508
11
-104.0
21
-62.423706
31
-173.20508
0
LINE
8
0
10
-106.0
20
32.333374
30
-173.20508
11
-104.0
21
37.576294
31
-173.20508
0
LINE
8
0
10
-104.0
20
-62.423706
30
-173.20508
11
-102.0
21
-55.98755
31
-173.20508
0
LINE
8
0
10
-104.0
20
37.576294
30
-173.20508
11
-102.0
21
44.01245
31
-173.20508
0
LINE
8
0
10
-102.0
20
-55.98755
30
-173.20508
11
-100.0
21
-50.323486
31
-173.20508
0
LINE
8
0
10
-102.0
20
44.01245
30
-173.20508
11
-100.0
21
49.676514
31
-173.20508
0
LINE
8
0
10
-100.0
20
-50.323486
30
-173.20508
11
-98.0
21
-41.09192
31
-173.20508
0
LINE
8
0
10
-100.0
20
49.676514
30
-173.20508
11
-98.0
21
58.90808
31
-173.20508
0
LINE
8
0
10
-98.0
20
-41.09192
30
-173.20508
11
-96.0
21
-34.6817
31
-173.20508
0
LINE
8
0
10
-98.0
20
58.90808
30
-173.20508
11
-96.0
21
65.3183
31
-173.20508
0
LINE
8
0
10
-96.0
20
-34.6817
30
-173.20508
11
-94.0
21
-32.69806
31
-173.20508
0
LINE
8
0
10
-96.0
20
65.3183
30
-173.20508
11
-94.0
21
67.30194
31
-173.20508
0
LINE
8
0
10
-94.0
20
-32.69806
30
-173.20508
11
-92.0
21
-33.779907
31
-173.20508
0
LINE
8
0
10
-94.0
20
67.30194
30
-173.20508
11
-92.0
21
66.22009
31
-173.20508
0
LINE
8
0
10
-92.0
20
-33.779907
30
-173.20508
11
-90.0
21
-37.294006
31
-173.20508
0
LINE
8
0
10
-92.0
20
66.22009
30
-173.20508
11
-90.0
21
62.705994
31
-173.20508
0
LINE
8
0
10
-90.0
20
-37.294006
30
-173.20508
11
-88.0
21
-43.70575
31
-173.20508
0
LINE
8
0
10
-90.0
20
62.705994
30
-173.20508
11
-88.0
21
56.29425
31
-173.20508
0
LINE
8
0
10
-88.0
20
-43.70575
30
-173.20508
11
-86.0
21
-51.330566
31
-173.20508
0
LINE
8
0
10
-88.0
20
56.29425
30
-173.20508
11
-86.0
21
48.669434
31
-173.20508
0
LINE
8
0
10
-86.0
20
-51.330566
30
-173.20508
11
-84.0
21
-58.294678
31
-173.20508
0
LINE
8
0
10
-86.0
20
48.669434
30
-173.20508
11
-84.0
21
41.705322
31
-173.20508
0
LINE
8
0
10
-84.0
20
-58.294678
30
-173.20508
11
-82.0
21
-63.227844
31
-173.20508
0
LINE
8
0
10
-84.0
20
41.705322
30
-173.20508
11
-82.0
21
36.772156
31
-173.20508
0
LINE
8
0
10
-82.0
20
-63.227844
30
-173.20508
11
-80.0
21
-66.84265
31
-173.20508
0
LINE
8
0
10
-82.0
20
36.772156
30
-173.20508
11
-80.0
21
33.15735
31
-173.20508
0
LINE
8
0
10
-80.0
20
-66.84265
30
-173.20508
11
-78.0
21
-67.25006
31
-173.20508
0
LINE
8
0
10
-80.0
20
33.15735
30
-173.20508
11
-78.0
21
32.74994
31
-173.20508
0
LINE
8
0
10
-78.0
20
-67.25006
30
-173.20508
11
-76.0
21
-63.064575
31
-173.20508
0
LINE
8
0
10
-78.0
20
32.74994
30
-173.20508
11
-76.0
21
36.935425
31
-173.20508
0
LINE
8
0
10
-76.0
20
-63.064575
30
-173.20508
11
-74.0
21
-56.94275
31
-173.20508
0
LINE
8
0
10
-76.0
20
36.935425
30
-173.20508
11
-74.0
21
43.05725
31
-173.20508
0
LINE
8
0
10
-74.0
20
-56.94275
30
-173.20508
11
-72.0
21
-48.85559
31
-173.20508
0
LINE
8
0
10
-74.0
20
43.05725
30
-173.20508
11
-72.0
21
51.14441
31
-173.20508
0
LINE
8
0
10
-72.0
20
-48.85559
30
-173.20508
11
-70.0
21
-41.490173
31
-173.20508
0
LINE
8
0
10
-72.0
20
51.14441
30
-173.20508
11
-70.0
21
58.509827
31
-173.20508
0
LINE
8
0
10
-70.0
20
-41.490173
30
-173.20508
11
-68.0
21
-35.51941
31
-173.20508
0
LINE
8
0
10
-70.0
20
58.509827
30
-173.20508
11
-68.0
21
64.48059
31
-173.20508
0
LINE
8
0
10
-68.0
20
-35.51941
30
-173.20508
11
-66.0
21
-32.725525
31
-173.20508
0
LINE
8
0
10
-68.0
20
64.48059
30
-173.20508
11
-66.0
21
67.274475
31
-173.20508
0
LINE
8
0
10
-66.0
20
-32.725525
30
-173.20508
11
-64.0
21
-33.563232
31
-173.20508
0
LINE
8
0
10
-66.0
20
67.274475
30
-173.20508
11
-64.0
21
66.43677
31
-173.20508
0
LINE
8
0
10
-64.0
20
-33.563232
30
-173.20508
11
-62.0
21
-37.680054
31
-173.20508
0
LINE
8
0
10
-64.0
20
66.43677
30
-173.20508
11
-62.0
21
62.319946
31
-173.20508
0
LINE
8
0
10
-62.0
20
-37.680054
30
-173.20508
11
-60.0
21
-43.922424
31
-173.20508
0
LINE
8
0
10
-62.0
20
62.319946
30
-173.20508
11
-60.0
21
56.077576
31
-173.20508
0
LINE
8
0
10
-60.0
20
-43.922424
30
-173.20508
11
-58.0
21
-50.776672
31
-173.20508
0
LINE
8
0
10
-60.0
20
56.077576
30
-173.20508
11
-58.0
21
49.223328
31
-173.20508
0
LINE
8
0
10
-58.0
20
-50.776672
30
-173.20508
11
-56.0
21
-57.862854
31
-173.20508
0
LINE
8
0
10
-58.0
20
49.223328
30
-173.20508
11
-56.0
21
42.137146
31
-173.20508
0
LINE
8
0
10
-56.0
20
-57.862854
30
-173.20508
11
-54.0
21
-63.079834
31
-173.20508
0
LINE
8
0
10
-56.0
20
42.137146
30
-173.20508
11
-54.0
21
36.920166
31
-173.20508
0
LINE
8
0
10
-54.0
20
-63.079834
30
-173.20508
11
-52.0
21
-66.54663
31
-173.20508
0
LINE
8
0
10
-54.0
20
36.920166
30
-173.20508
11
-52.0
21
33.45337
31
-173.20508
0
LINE
8
0
10
-52.0
20
-66.54663
30
-173.20508
11
-50.0
21
-66.970825
31
-173.20508
0
LINE
8
0
10
-52.0
20
33.45337
30
-173.20508
11
-50.0
21
33.029175
31
-173.20508
0
LINE
8
0
10
-50.0
20
-66.970825
30
-173.20508
11
-48.0
21
-63.020325
31
-173.20508
0
LINE
8
0
10
-50.0
20
33.029175
30
-173.20508
11
-48.0
21
36.979675
31
-173.20508
0
LINE
8
0
10
-48.0
20
-63.020325
30
-173.20508
11
-46.0
21
-56.854248
31
-173.20508
0
LINE
8
0
10
-48.0
20
36.979675
30
-173.20508
11
-46.0
21
43.145752
31
-173.20508
0
LINE
8
0
10
-46.0
20
-56.854248
30
-173.20508
11
-44.0
21
-49.94507
31
-173.20508
0
LINE
8
0
10
-46.0
20
43.145752
30
-173.20508
11
-44.0
21
50.05493
31
-173.20508
0
LINE
8
0
10
-44.0
20
-49.94507
30
-173.20508
11
-42.0
21
-41.604614
31
-173.20508
0
LINE
8
0
10
-44.0
20
50.05493
30
-173.20508
11
-42.0
21
58.395386
31
-173.20508
0
LINE
8
0
10
-42.0
20
-41.604614
30
-173.20508
11
-40.0
21
-35.53772
31
-173.20508
0
LINE
8
0
10
-42.0
20
58.395386
30
-173.20508
11
-40.0
21
64.46228
31
-173.20508
0
LINE
8
0
10
-40.0
20
-35.53772
30
-173.20508
11
-38.0
21
-33.062744
31
-173.20508
0
LINE
8
0
10
-40.0
20
64.46228
30
-173.20508
11
-38.0
21
66.937256
31
-173.20508
0
LINE
8
0
10
-38.0
20
-33.062744
30
-173.20508
11
-36.0
21
-33.607483
31
-173.20508
0
LINE
8
0
10
-38.0
20
66.937256
30
-173.20508
11
-36.0
21
66.39252
31
-173.20508
0
LINE
8
0
10
-36.0
20
-33.607483
30
-173.20508
11
-34.0
21
-37.11853
31
-173.20508
0
LINE
8
0
10
-36.0
20
66.39252
30
-173.20508
11
-34.0
21
62.88147
31
-173.20508
0
LINE
8
0
10
-34.0
20
-37.11853
30
-173.20508
11
-32.0
21
-44.29779
31
-173.20508
0
LINE
8
0
10
-34.0
20
62.88147
30
-173.20508
11
-32.0
21
55.70221
31
-173.20508
0
LINE
8
0
10
-32.0
20
-44.29779
30
-173.20508
11
-30.0
21
-50.68512
31
-173.20508
0
LINE
8
0
10
-32.0
20
55.70221
30
-173.20508
11
-30.0
21
49.31488
31
-173.20508
0
LINE
8
0
10
-30.0
20
-50.68512
30
-173.20508
11
-28.0
21
-56.874084
31
-173.20508
0
LINE
8
0
10
-30.0
20
49.31488
30
-173.20508
11
-28.0
21
43.125916
31
-173.20508
0
LINE
8
0
10
-28.0
20
-56.874084
30
-173.20508
11
-26.0
21
-63.51471
31
-173.20508
0
LINE
8
0
10
-28.0
20
43.125916
30
-173.20508
11
-26.0
21
36.48529
31
-173.20508
0
LINE
8
0
10
-26.0
20
-63.51471
30
-173.20508
11
-24.0
21
-66.11023
31
-173.20508
0
LINE
8
0
10
-26.0
20
36.48529
30
-173.20508
11
-24.0
21
33.88977
31
-173.20508
0
LINE
8
0
10
-24.0
20
-66.11023
30
-173.20508
11
-22.0
21
-66.01257
31
-173.20508
0
LINE
8
0
10
-24.0
20
33.88977
30
-173.20508
11
-22.0
21
33.987427
31
-173.20508
0
LINE
8
0
10
-22.0
20
-66.01257
30
-173.20508
11
-20.0
21
-64.02435
31
-173.20508
0
LINE
8
0
10
-22.0
20
33.987427
30
-173.20508
11
-20.0
21
35.975647
31
-173.20508
0
LINE
8
0
10
-20.0
20
-64.02435
30
-173.20508
11
-18.0
21
-57.261658
31
-173.20508
0
LINE
8
0
10
-20.0
20
35.975647
30
-173.20508
11
-18.0
21
42.738342
31
-173.20508
0
LINE
8
0
10
-18.0
20
-57.261658
30
-173.20508
11
-16.0
21
-49.49341
31
-173.20508
0
LINE
8
0
10
-18.0
20
42.738342
30
-173.20508
11
-16.0
21
50.50659
31
-173.20508
0
LINE
8
0
10
-16.0
20
-49.49341
30
-173.20508
11
-14.0
21
-42.285156
31
-173.20508
0
LINE
8
0
10
-16.0
20
50.50659
30
-173.20508
11
-14.0
21
57.714844
31
-173.20508
0
LINE
8
0
10
-14.0
20
-42.285156
30
-173.20508
11
-12.0
21
-35.679626
31
-173.20508
0
LINE
8
0
10
-14.0
20
57.714844
30
-173.20508
11
-12.0
21
64.32037
31
-173.20508
0
LINE
8
0
10
-12.0
20
-35.679626
30
-173.20508
11
-10.0
21
-32.266235
31
-173.20508
0
LINE
8
0
10
-12.0
20
64.32037
30
-173.20508
11
-10.0
21
67.733765
31
-173.20508
0
LINE
8
0
10
-10.0
20
-32.266235
30
-173.20508
11
-8.0
21
-33.273315
31
-173.20508
0
LINE
8
0
10
-10.0
20
67.733765
30
-173.20508
11
-8.0
21
66.726685
31
-173.20508
0
LINE
8
0
10
-8.0
20
-33.273315
30
-173.20508
11
-6.0
21
-37.675476
31
-173.20508
0
LINE
8
0
10
-8.0
20
66.726685
30
-173.20508
11
-6.0
21
62.324524
31
-173.20508
0
LINE
8
0
10
-6.0
20
-37.675476
30
-173.20508
11
-4.0
21
-42.878723
31
-173.20508
0
LINE
8
0
10
-6.0
20
62.324524
30
-173.20508
11
-4.0
21
57.121277
31
-173.20508
0
LINE
8
0
10
-4.0
20
-42.878723
30
-173.20508
11
-2.0
21
-50.878906
31
-173.20508
0
LINE
8
0
10
-4.0
20
57.121277
30
-173.20508
11
-2.0
21
49.121094
31
-173.20508
0
LINE
8
0
10
-2.0
20
-50.878906
30
-173.20508
11
0.0
21
-57.536316
31
-173.20508
0
LINE
8
0
10
-2.0
20
49.121094
30
-173.20508
11
0.0
21
42.463684
31
-173.20508
0
LINE
8
0
10
0.0
20
-57.536316
30
-173.20508
11
2.0
21
-62.928772
31
-173.20508
0
LINE
8
0
10
0.0
20
42.463684
30
-173.20508
11
2.0
21
37.071228
31
-173.20508
0
LINE
8
0
10
2.0
20
-62.928772
30
-173.20508
11
4.0
21
-66.918945
31
-173.20508
0
LINE
8
0
10
2.0
20
37.071228
30
-173.20508
11
4.0
21
33.081055
31
-173.20508
0
LINE
8
0
10
4.0
20
-66.918945
30
-173.20508
11
6.0
21
-66.56799
31
-173.20508
0
LINE
8
0
10
4.0
20
33.081055
30
-173.20508
11
6.0
21
33.432007
31
-173.20508
0
LINE
8
0
10
6.0
20
-66.56799
30
-173.20508
11
8.0
21
-63.520813
31
-173.20508
0
LINE
8
0
10
6.0
20
33.432007
30
-173.20508
11
8.0
21
36.479187
31
-173.20508
0
LINE
8
0
10
8.0
20
-63.520813
30
-173.20508
11
10.0
21
-58.363342
31
-173.20508
0
LINE
8
0
10
8.0
20
36.479187
30
-173.20508
11
10.0
21
41.636658
31
-173.20508
0
LINE
8
0
10
10.0
20
-58.363342
30
-173.20508
11
12.0
21
-49.983215
31
-173.20508
0
LINE
8
0
10
10.0
20
41.636658
30
-173.20508
11
12.0
21
50.016785
31
-173.20508
0
LINE
8
0
10
12.0
20
-49.983215
30
-173.20508
11
14.0
21
-41.55121
31
-173.20508
0
LINE
8
0
10
12.0
20
50.016785
30
-173.20508
11
14.0
21
58.44879
31
-173.20508
0
LINE
8
0
10
14.0
20
-41.55121
30
-173.20508
11
16.0
21
-37.364197
31
-173.20508
0
LINE
8
0
10
14.0
20
58.44879
30
-173.20508
11
16.0
21
62.635803
31
-173.20508
0
LINE
8
0
10
16.0
20
-37.364197
30
-173.20508
11
18.0
21
-33.192444
31
-173.20508
0
LINE
8
0
10
16.0
20
62.635803
30
-173.20508
11
18.0
21
66.807556
31
-173.20508
0
LINE
8
0
10
18.0
20
-33.192444
30
-173.20508
11
20.0
21
-29.594421
31
-173.20508
0
LINE
8
0
10
18.0
20
66.807556
30
-173.20508
11
20.0
21
70.40558
31
-173.20508
0
LINE
8
0
10
20.0
20
-29.594421
30
-173.20508
11
22.0
21
-35.969543
31
-173.20508
0
LINE
8
0
10
20.0
20
70.40558
30
-173.20508
11
22.0
21
64.03046
31
-173.20508
0
LINE
8
0
10
22.0
20
-35.969543
30
-173.20508
11
24.0
21
-45.39795
31
-173.20508
0
LINE
8
0
10
22.0
20
64.03046
30
-173.20508
11
24.0
21
54.60205
31
-173.20508
0
LINE
8
0
10
24.0
20
-45.39795
30
-173.20508
11
26.0
21
-49.33777
31
-173.20508
0
LINE
8
0
10
24.0
20
54.60205
30
-173.20508
11
26.0
21
50.66223
31
-173.20508
0
LINE
8
0
10
26.0
20
-49.33777
30
-173.20508
11
28.0
21
-56.341553
31
-173.20508
0
LINE
8
0
10
26.0
20
50.66223
30
-173.20508
11
28.0
21
43.658447
31
-173.20508
0
LINE
8
0
10
28.0
20
-56.341553
30
-173.20508
11
30.0
21
-64.20746
31
-173.20508
0
LINE
8
0
10
28.0
20
43.658447
30
-173.20508
11
30.0
21
35.79254
31
-173.20508
0
LINE
8
0
10
30.0
20
-64.20746
30
-173.20508
11
32.0
21
-68.89191
31
-173.20508
0
LINE
8
0
10
30.0
20
35.79254
30
-173.20508
11
32.0
21
31.108093
31
-173.20508
0
LINE
8
0
10
32.0
20
-68.89191
30
-173.20508
11
34.0
21
-66.19568
31
-173.20508
0
LINE
8
0
10
32.0
20
31.108093
30
-173.20508
11
34.0
21
33.80432
31
-173.20508
0
LINE
8
0
10
34.0
20
-66.19568
30
-173.20508
11
36.0
21
-62.165833
31
-173.20508
0
LINE
8
0
10
34.0
20
33.80432
30
-173.20508
11
36.0
21
37.834167
31
-173.20508
0
LINE
8
0
10
36.0
20
-62.165833
30
-173.20508
11
38.0
21
-58.247375
31
-173.20508
0
LINE
8
0
10
36.0
20
37.834167
30
-173.20508
11
38.0
21
41.752625
31
-173.20508
0
LINE
8
0
10
38.0
20
-58.247375
30
-173.20508
11
40.0
21
-51.679993
31
-173.20508
0
LINE
8
0
10
38.0
20
41.752625
30
-173.20508
11
40.0
21
48.320007
31
-173.20508
0
LINE
8
0
10
40.0
20
-51.679993
30
-173.20508
11
42.0
21
-44.932556
31
-173.20508
0
LINE
8
0
10
40.0
20
48.320007
30
-173.20508
11
42.0
21
55.067444
31
-173.20508
0
LINE
8
0
10
42.0
20
-44.932556
30
-173.20508
11
44.0
21
-33.26111
31
-173.20508
0
LINE
8
0
10
42.0
20
55.067444
30
-173.20508
11
44.0
21
66.73889
31
-173.20508
0
LINE
8
0
10
44.0
20
-33.26111
30
-173.20508
11
46.0
21
-30.71289
31
-173.20508
0
LINE
8
0
10
44.0
20
66.73889
30
-173.20508
11
46.0
21
69.28711
31
-173.20508
0
LINE
8
0
10
46.0
20
-30.71289
30
-173.20508
11
48.0
21
-35.847473
31
-173.20508
0
LINE
8
0
10
46.0
20
69.28711
30
-173.20508
11
48.0
21
64.15253
31
-173.20508
0
LINE
8
0
10
48.0
20
-35.847473
30
-173.20508
11
50.0
21
-35.406494
31
-173.20508
0
LINE
8
0
10
48.0
20
64.15253
30
-173.20508
11
50.0
21
64.593506
31
-173.20508
0
LINE
8
0
10
50.0
20
-35.406494
30
-173.20508
11
52.0
21
-37.797546
31
-173.20508
0
LINE
8
0
10
50.0
20
64.593506
30
-173.20508
11
52.0
21
62.202454
31
-173.20508
0
LINE
8
0
10
52.0
20
-37.797546
30
-173.20508
11
54.0
21
-53.330994
31
-173.20508
0
LINE
8
0
10
52.0
20
62.202454
30
-173.20508
11
54.0
21
46.669006
31
-173.20508
0
LINE
8
0
10
54.0
20
-53.330994
30
-173.20508
11
56.0
21
-60.983276
31
-173.20508
0
LINE
8
0
10
54.0
20
46.669006
30
-173.20508
11
56.0
21
39.016724
31
-173.20508
0
LINE
8
0
10
56.0
20
-60.983276
30
-173.20508
11
58.0
21
-57.96051
31
-173.20508
0
LINE
8
0
10
56.0
20
39.016724
30
-173.20508
11
58.0
21
42.03949
31
-173.20508
0
LINE
8
0
10
58.0
20
-57.96051
30
-173.20508
11
60.0
21
-66.482544
31
-173.20508
0
LINE
8
0
10
58.0
20
42.03949
30
-173.20508
11
60.0
21
33.517456
31
-173.20508
0
LINE
8
0
10
60.0
20
-66.482544
30
-173.20508
11
62.0
21
-69.69147
31
-173.20508
0
LINE
8
0
10
60.0
20
33.517456
30
-173.20508
11
62.0
21
30.308533
31
-173.20508
0
LINE
8
0
10
62.0
20
-69.69147
30
-173.20508
11
64.0
21
-63.624573
31
-173.20508
0
LINE
8
0
10
62.0
20
30.308533
30
-173.20508
11
64.0
21
36.375427
31
-173.20508
0
LINE
8
0
10
64.0
20
-63.624573
30
-173.20508
11
66.0
21
-58.59375
31
-173.20508
0
LINE
8
0
10
64.0
20
36.375427
30
-173.20508
11
66.0
21
41.40625
31
-173.20508
0
LINE
8
0
10
66.0
20
-58.59375
30
-173.20508
11
68.0
21
-50.382996
31
-173.20508
0
LINE
8
0
10
66.0
20
41.40625
30
-173.20508
11
68.0
21
49.617004
31
-173.20508
0
LINE
8
0
10
68.0
20
-50.382996
30
-173.20508
11
70.0
21
-43.19458
31
-173.20508
0
LINE
8
0
10
68.0
20
49.617004
30
-173.20508
11
70.0
21
56.80542
31
-173.20508
0
LINE
8
0
10
70.0
20
-43.19458
30
-173.20508
11
72.0
21
-38.07373
31
-173.20508
0
LINE
8
0
10
70.0
20
56.80542
30
-173.20508
11
72.0
21
61.92627
31
-173.20508
0
LINE
8
0
10
72.0
20
-38.07373
30
-173.20508
11
74.0
21
-31.690979
31
-173.20508
0
LINE
8
0
10
72.0
20
61.92627
30
-173.20508
11
74.0
21
68.30902
31
-173.20508
0
LINE
8
0
10
74.0
20
-31.690979
30
-173.20508
11
76.0
21
-28.981018
31
-173.20508
0
LINE
8
0
10
74.0
20
68.30902
30
-173.20508
11
76.0
21
71.01898
31
-173.20508
0
LINE
8
0
10
76.0
20
-28.981018
30
-173.20508
11
78.0
21
-37.010193
31
-173.20508
0
LINE
8
0
10
76.0
20
71.01898
30
-173.20508
11
78.0
21
62.989807
31
-173.20508
0
LINE
8
0
10
78.0
20
-37.010193
30
-173.20508
11
80.0
21
-44.989014
31
-173.20508
0
LINE
8
0
10
78.0
20
62.989807
30
-173.20508
11
80.0
21
55.010986
31
-173.20508
0
LINE
8
0
10
80.0
20
-44.989014
30
-173.20508
11
82.0
21
-47.579956
31
-173.20508
0
LINE
8
0
10
80.0
20
55.010986
30
-173.20508
11
82.0
21
52.420044
31
-173.20508
0
LINE
8
0
10
82.0
20
-47.579956
30
-173.20508
11
84.0
21
-54.960632
31
-173.20508
0
LINE
8
0
10
82.0
20
52.420044
30
-173.20508
11
84.0
21
45.039368
31
-173.20508
0
LINE
8
0
10
84.0
20
-54.960632
30
-173.20508
11
86.0
21
-65.43121
31
-173.20508
0
LINE
8
0
10
84.0
20
45.039368
30
-173.20508
11
86.0
21
34.568787
31
-173.20508
0
LINE
8
0
10
86.0
20
-65.43121
30
-173.20508
11
88.0
21
-66.29486
31
-173.20508
0
LINE
8
0
10
86.0
20
34.568787
30
-173.20508
11
88.0
21
33.70514
31
-173.20508
0
LINE
8
0
10
88.0
20
-66.29486
30
-173.20508
11
90.0
21
-67.00287
31
-173.20508
0
LINE
8
0
10
88.0
20
33.70514
30
-173.20508
11
90.0
21
32.99713
31
-173.20508
0
LINE
8
0
10
90.0
20
-67.00287
30
-173.20508
11
92.0
21
-66.3208
31
-173.20508
0
LINE
8
0
10
90.0
20
32.99713
30
-173.20508
11
92.0
21
33.6792
31
-173.20508
0
LINE
8
0
10
92.0
20
-66.3208
30
-173.20508
11
94.0
21
-58.374023
31
-173.20508
0
LINE
8
0
10
92.0
20
33.6792
30
-173.20508
11
94.0
21
41.625977
31
-173.20508
0
LINE
8
0
10
94.0
20
-58.374023
30
-173.20508
11
96.0
21
-51.29242
31
-173.20508
0
LINE
8
0
10
94.0
20
41.625977
30
-173.20508
11
96.0
21
48.70758
31
-173.20508
0
LINE
8
0
10
96.0
20
-51.29242
30
-173.20508
11
98.0
21
-43.22052
31
-173.20508
0
LINE
8
0
10
96.0
20
48.70758
30
-173.20508
11
98.0
21
56.77948
31
-173.20508
0
LINE
8
0
10
98.0
20
-43.22052
30
-173.20508
11
100.0
21
-34.78546
31
-173.20508
0
LINE
8
0
10
98.0
20
56.77948
30
-173.20508
11
100.0
21
65.21454
31
-173.20508
0
LINE
8
0
10
100.0
20
-34.78546
30
-173.20508
11
102.0
21
-31.762695
31
-173.20508
0
LINE
8
0
10
100.0
20
65.21454
30
-173.20508
11
102.0
21
68.237305
31
-173.20508
0
LINE
8
0
10
102.0
20
-31.762695
30
-173.20508
11
104.0
21
-32.99408
31
-173.20508
0
LINE
8
0
10
102.0
20
68.237305
30
-173.20508
11
104.0
21
67.00592
31
-173.20508
0
LINE
8
0
10
104.0
20
-32.99408
30
-173.20508
11
106.0
21
-35.443115
31
-173.20508
0
LINE
8
0
10
104.0
20
67.00592
30
-173.20508
11
106.0
21
64.556885
31
-173.20508
0
LINE
8
0
10
106.0
20
-35.443115
30
-173.20508
11
108.0
21
-41.789246
31
-173.20508
0
LINE
8
0
10
106.0
20
64.556885
30
-173.20508
11
108.0
21
58.210754
31
-173.20508
0
LINE
8
0
10
108.0
20
-41.789246
30
-173.20508
11
110.0
21
-50.11139
31
-173.20508
0
LINE
8
0
10
108.0
20
58.210754
30
-173.20508
11
110.0
21
49.88861
31
-173.20508
0
LINE
8
0
10
110.0
20
-50.11139
30
-173.20508
11
112.0
21
-57.954407
31
-173.20508
0
LINE
8
0
10
110.0
20
49.88861
30
-173.20508
11
112.0
21
42.045593
31
-173.20508
0
LINE
8
0
10
112.0
20
-57.954407
30
-173.20508
11
114.0
21
-62.17804
31
-173.20508
0
LINE
8
0
10
112.0
20
42.045593
30
-173.20508
11
114.0
21
37.82196
31
-173.20508
0
LINE
8
0
10
114.0
20
-62.17804
30
-173.20508
11
116.0
21
-65.82031
31
-173.20508
0
LINE
8
0
10
114.0
20
37.82196
30
-173.20508
11
116.0
21
34.179688
31
-173.20508
0
LINE
8
0
10
116.0
20
-65.82031
30
-173.20508
11
118.0
21
-70.24689
31
-173.20508
0
LINE
8
0
10
116.0
20
34.179688
30
-173.20508
11
118.0
21
29.753113
31
-173.20508
0
LINE
8
0
10
118.0
20
-70.24689
30
-173.20508
11
120.0
21
-65.62805
31
-173.20508
0
LINE
8
0
10
118.0
20
29.753113
30
-173.20508
11
120.0
21
34.37195
31
-173.20508
0
LINE
8
0
10
120.0
20
-65.62805
30
-173.20508
11
122.0
21
-57.82013
31
-173.20508
0
LINE
8
0
10
120.0
20
34.37195
30
-173.20508
11
122.0
21
42.17987
31
-173.20508
0
LINE
8
0
10
122.0
20
-57.82013
30
-173.20508
11
124.0
21
-50.68817
31
-173.20508
0
LINE
8
0
10
122.0
20
42.17987
30
-173.20508
11
124.0
21
49.31183
31
-173.20508
0
LINE
8
0
10
124.0
20
-50.68817
30
-173.20508
11
126.0
21
-43.215942
31
-173.20508
0
LINE
8
0
10
124.0
20
49.31183
30
-173.20508
11
126.0
21
56.784058
31
-173.20508
0
LINE
8
0
10
126.0
20
-43.215942
30
-173.20508
11
128.0
21
-35.30426
31
-173.20508
0
LINE
8
0
10
126.0
20
56.784058
30
-173.20508
11
128.0
21
64.69574
31
-173.20508
0
LINE
8
0
10
128.0
20
-35.30426
30
-173.20508
11
130.0
21
-31.211853
31
-173.20508
0
LINE
8
0
10
128.0
20
64.69574
30
-173.20508
11
130.0
21
68.78815
31
-173.20508
0
LINE
8
0
10
130.0
20
-31.211853
30
-173.20508
11
132.0
21
-33.43506
31
-173.20508
0
LINE
8
0
10
130.0
20
68.78815
30
-173.20508
11
132.0
21
66.56494
31
-173.20508
0
LINE
8
0
10
132.0
20
-33.43506
30
-173.20508
11
134.0
21
-36.34491
31
-173.20508
0
LINE
8
0
10
132.0
20
66.56494
30
-173.20508
11
134.0
21
63.65509
31
-173.20508
0
LINE
8
0
10
134.0
20
-36.34491
30
-173.20508
11
136.0
21
-39.953613
31
-173.20508
0
LINE
8
0
10
134.0
20
63.65509
30
-173.20508
11
136.0
21
60.046387
31
-173.20508
0
LINE
8
0
10
136.0
20
-39.953613
30
-173.20508
11
138.0
21
-50.831604
31
-173.20508
0
LINE
8
0
10
136.0
20
60.046387
30
-173.20508
11
138.0
21
49.168396
31
-173.20508
0
LINE
8
0
10
138.0
20
-50.831604
30
-173.20508
11
140.0
21
-58.1192
31
-173.20508
0
LINE
8
0
10
138.0
20
49.168396
30
-173.20508
11
140.0
21
41.8808
31
-173.20508
0
LINE
8
0
10
140.0
20
-58.1192
30
-173.20508
11
142.0
21
-60.70404
31
-173.20508
0
LINE
8
0
10
140.0
20
41.8808
30
-173.20508
11
142.0
21
39.29596
31
-173.20508
0
LINE
8
0
10
142.0
20
-60.70404
30
-173.20508
11
144.0
21
-66.45813
31
-173.20508
0
LINE
8
0
10
142.0
20
39.29596
30
-173.20508
11
144.0
21
33.54187
31
-173.20508
0
LINE
8
0
10
144.0
20
-66.45813
30
-173.20508
11
146.0
21
-69.14368
31
-173.20508
0
LINE
8
0
10
144.0
20
33.54187
30
-173.20508
11
146.0
21
30.856323
31
-173.20508
0
LINE
8
0
10
146.0
20
-69.14368
30
-173.20508
11
148.0
21
-65.519714
31
-173.20508
0
LINE
8
0
10
146.0
20
30.856323
30
-173.20508
11
148.0
21
34.480286
31
-173.20508
0
LINE
8
0
10
148.0
20
-65.519714
30
-173.20508
11
150.0
21
-59.303284
31
-173.20508
0
LINE
8
0
10
148.0
20
34.480286
30
-173.20508
11
150.0
21
40.696716
31
-173.20508
0
LINE
8
0
10
150.0
20
-59.303284
30
-173.20508
11
152.0
21
-50.772095
31
-173.20508
0
LINE
8
0
10
150.0
20
40.696716
30
-173.20508
11
152.0
21
49.227905
31
-173.20508
0
LINE
8
0
10
152.0
20
-50.772095
30
-173.20508
11
154.0
21
-42.69867
31
-173.20508
0
LINE
8
0
10
152.0
20
49.227905
30
-173.20508
11
154.0
21
57.30133
31
-173.20508
0
LINE
8
0
10
154.0
20
-42.69867
30
-173.20508
11
156.0
21
-37.77771
31
-173.20508
0
LINE
8
0
10
154.0
20
57.30133
30
-173.20508
11
156.0
21
62.22229
31
-173.20508
0
LINE
8
0
10
156.0
20
-37.77771
30
-173.20508
11
158.0
21
-32.658386
31
-173.20508
0
LINE
8
0
10
156.0
20
62.22229
30
-173.20508
11
158.0
21
67.34161
31
-173.20508
0
LINE
8
0
10
158.0
20
-32.658386
30
-173.20508
11
160.0
21
-30.641174
31
-173.20508
0
LINE
8
0
10
158.0
20
67.34161
30
-173.20508
11
160.0
21
69.358826
31
-173.20508
0
LINE
8
0
10
160.0
20
-30.641174
30
-173.20508
11
162.0
21
-35.206604
31
-173.20508
0
LINE
8
0
10
160.0
20
69.358826
30
-173.20508
11
162.0
21
64.793396
31
-173.20508
0
LINE
8
0
10
162.0
20
-35.206604
30
-173.20508
11
164.0
21
-43.30902
31
-173.20508
0
LINE
8
0
10
162.0
20
64.793396
30
-173.20508
11
164.0
21
56.69098
31
-173.20508
0
LINE
8
0
10
164.0
20
-43.30902
30
-173.20508
11
166.0
21
-48.03772
31
-173.20508
0
LINE
8
0
10
164.0
20
56.69098
30
-173.20508
11
166.0
21
51.96228
31
-173.20508
0
LINE
8
0
10
166.0
20
-48.03772
30
-173.20508
11
168.0
21
-54.756165
31
-173.20508
0
LINE
8
0
10
166.0
20
51.96228
30
-173.20508
11
168.0
21
45.243835
31
-173.20508
0
LINE
8
0
10
168.0
20
-54.756165
30
-173.20508
11
170.0
21
-63.757324
31
-173.20508
0
LINE
8
0
10
168.0
20
45.243835
30
-173.20508
11
170.0
21
36.242676
31
-173.20508
0
LINE
8
0
10
170.0
20
-63.757324
30
-173.20508
11
172.0
21
-66.20941
31
-173.20508
0
LINE
8
0
10
170.0
20
36.242676
30
-173.20508
11
172.0
21
33.79059
31
-173.20508
0
LINE
8
0
10
172.0
20
-66.20941
30
-173.20508
11
174.0
21
-67.25159
31
-173.20508
0
LINE
8
0
10
172.0
20
33.79059
30
-173.20508
11
174.0
21
32.748413
31
-173.20508
0
LINE
8
0
10
174.0
20
-67.25159
30
-173.20508
11
176.0
21
-65.71655
31
-173.20508
0
LINE
8
0
10
174.0
20
32.748413
30
-173.20508
11
176.0
21
34.283447
31
-173.20508
0
LINE
8
0
10
176.0
20
-65.71655
30
-173.20508
11
178.0
21
-59.13391
31
-173.20508
0
LINE
8
0
10
176.0
20
34.283447
30
-173.20508
11
178.0
21
40.86609
31
-173.20508
0
LINE
8
0
10
178.0
20
-59.13391
30
-173.20508
11
180.0
21
-52.363586
31
-173.20508
0
LINE
8
0
10
178.0
20
40.86609
30
-173.20508
11
180.0
21
47.636414
31
-173.20508
0
LINE
8
0
10
180.0
20
-52.363586
30
-173.20508
11
182.0
21
-44.92035
31
-173.20508
0
LINE
8
0
10
180.0
20
47.636414
30
-173.20508
11
182.0
21
55.07965
31
-173.20508
0
LINE
8
0
10
182.0
20
-44.92035
30
-173.20508
11
184.0
21
-36.60431
31
-173.20508
0
LINE
8
0
10
182.0
20
55.07965
30
-173.20508
11
184.0
21
63.39569
31
-173.20508
0
LINE
8
0
10
184.0
20
-36.60431
30
-173.20508
11
186.0
21
-32.733154
31
-173.20508
0
LINE
8
0
10
184.0
20
63.39569
30
-173.20508
11
186.0
21
67.266846
31
-173.20508
0
LINE
8
0
10
186.0
20
-32.733154
30
-173.20508
11
188.0
21
-31.500244
31
-173.20508
0
LINE
8
0
10
186.0
20
67.266846
30
-173.20508
11
188.0
21
68.499756
31
-173.20508
0
LINE
8
0
10
188.0
20
-31.500244
30
-173.20508
11
190.0
21
-34.535217
31
-173.20508
0
LINE
8
0
10
188.0
20
68.499756
30
-173.20508
11
190.0
21
65.46478
31
-173.20508
0
LINE
8
0
10
190.0
20
-34.535217
30
-173.20508
11
192.0
21
-41.485596
31
-173.20508
0
LINE
8
0
10
190.0
20
65.46478
30
-173.20508
11
192.0
21
58.514404
31
-173.20508
0
LINE
8
0
10
192.0
20
-41.485596
30
-173.20508
11
194.0
21
-48.077393
31
-173.20508
0
LINE
8
0
10
192.0
20
58.514404
30
-173.20508
11
194.0
21
51.922607
31
-173.20508
0
LINE
8
0
10
194.0
20
-48.077393
30
-173.20508
11
196.0
21
-55.802917
31
-173.20508
0
LINE
8
0
10
194.0
20
51.922607
30
-173.20508
11
196.0
21
44.197083
31
-173.20508
0
LINE
8
0
10
196.0
20
-55.802917
30
-173.20508
11
198.0
21
-62.26349
31
-173.20508
0
LINE
8
0
10
196.0
20
44.197083
30
-173.20508
11
198.0
21
37.73651
31
-173.20508
0
LINE
8
0
10
198.0
20
-62.26349
30
-173.20508
11
200.0
21
-65.62195
31
-173.20508
0
LINE
8
0
10
198.0
20
37.73651
30
-173.20508
11
200.0
21
34.37805
31
-173.20508
0
LINE
8
0
10
200.0
20
-65.62195
30
-173.20508
11
202.0
21
-67.35535
31
-173.20508
0
LINE
8
0
10
200.0
20
34.37805
30
-173.20508
11
202.0
21
32.644653
31
-173.20508
0
LINE
8
0
10
202.0
20
-67.35535
30
-173.20508
11
204.0
21
-65.563965
31
-173.20508
0
LINE
8
0
10
202.0
20
32.644653
30
-173.20508
11
204.0
21
34.436035
31
-173.20508
0
LINE
8
0
10
204.0
20
-65.563965
30
-173.20508
11
206.0
21
-59.181213
31
-173.20508
0
LINE
8
0
10
204.0
20
34.436035
30
-173.20508
11
206.0
21
40.818787
31
-173.20508
0
LINE
8
0
10
206.0
20
-59.181213
30
-173.20508
11
208.0
21
-52.46277
31
-173.20508
0
LINE
8
0
10
206.0
20
40.818787
30
-173.20508
11
208.0
21
47.53723
31
-173.20508
0
LINE
8
0
10
208.0
20
-52.46277
30
-173.20508
11
210.0
21
-44.978333
31
-173.20508
0
LINE
8
0
10
208.0
20
47.53723
30
-173.20508
11
210.0
21
55.021667
31
-173.20508
0
LINE
8
0
10
210.0
20
-44.978333
30
-173.20508
11
212.0
21
-36.801147
31
-173.20508
0
LINE
8
0
10
210.0
20
55.021667
30
-173.20508
11
212.0
21
63.198853
31
-173.20508
0
LINE
8
0
10
212.0
20
-36.801147
30
-173.20508
11
214.0
21
-32.554626
31
-173.20508
0
LINE
8
0
10
212.0
20
63.198853
30
-173.20508
11
214.0
21
67.44537
31
-173.20508
0
LINE
8
0
10
214.0
20
-32.554626
30
-173.20508
11
216.0
21
-32.304382
31
-173.20508
0
LINE
8
0
10
214.0
20
67.44537
30
-173.20508
11
216.0
21
67.69562
31
-173.20508
0
LINE
8
0
10
216.0
20
-32.304382
30
-173.20508
11
218.0
21
-35.30121
31
-173.20508
0
LINE
8
0
10
216.0
20
67.69562
30
-173.20508
11
218.0
21
64.69879
31
-173.20508
0
LINE
8
0
10
218.0
20
-35.30121
30
-173.20508
11
220.0
21
-41.378784
31
-173.20508
0
LINE
8
0
10
218.0
20
64.69879
30
-173.20508
11
220.0
21
58.621216
31
-173.20508
0
LINE
8
0
10
220.0
20
-41.378784
30
-173.20508
11
222.0
21
-48.417664
31
-173.20508
0
LINE
8
0
10
220.0
20
58.621216
30
-173.20508
11
222.0
21
51.582336
31
-173.20508
0
LINE
8
0
10
222.0
20
-48.417664
30
-173.20508
11
224.0
21
-55.73883
31
-173.20508
0
LINE
8
0
10
222.0
20
51.582336
30
-173.20508
11
224.0
21
44.26117
31
-173.20508
0
LINE
8
0
10
224.0
20
-55.73883
30
-173.20508
11
226.0
21
-62.24518
31
-173.20508
0
LINE
8
0
10
224.0
20
44.26117
30
-173.20508
11
226.0
21
37.75482
31
-173.20508
0
LINE
8
0
10
226.0
20
-62.24518
30
-173.20508
11
228.0
21
-65.63568
31
-173.20508
0
LINE
8
0
10
226.0
20
37.75482
30
-173.20508
11
228.0
21
34.36432
31
-173.20508
0
LINE
8
0
10
228.0
20
-65.63568
30
-173.20508
11
230.0
21
-67.44385
31
-173.20508
0
LINE
8
0
10
228.0
20
34.36432
30
-173.20508
11
230.0
21
32.556152
31
-173.20508
0
LINE
8
0
10
230.0
20
-67.44385
30
-173.20508
11
232.0
21
-65.901184
31
-173.20508
0
LINE
8
0
10
230.0
20
32.556152
30
-173.20508
11
232.0
21
34.098816
31
-173.20508
0
LINE
8
0
10
232.0
20
-65.901184
30
-173.20508
11
234.0
21
-59.8938
31
-173.20508
0
LINE
8
0
10
232.0
20
34.098816
30
-173.20508
11
234.0
21
40.1062
31
-173.20508
0
LINE
8
0
10
234.0
20
-59.8938
30
-173.20508
11
236.0
21
-52.70691
31
-173.20508
0
LINE
8
0
10
234.0
20
40.1062
30
-173.20508
11
236.0
21
47.29309
31
-173.20508
0
LINE
8
0
10
236.0
20
-52.70691
30
-173.20508
11
238.0
21
-45.048523
31
-173.20508
0
LINE
8
0
10
236.0
20
47.29309
30
-173.20508
11
238.0
21
54.951477
31
-173.20508
0
LINE
8
0
10
238.0
20
-45.048523
30
-173.20508
11
240.0
21
-37.34436
31
-173.20508
0
LINE
8
0
10
238.0
20
54.951477
30
-173.20508
11
240.0
21
62.65564
31
-173.20508
0
LINE
8
0
10
240.0
20
-37.34436
30
-173.20508
11
242.0
21
-32.911682
31
-173.20508
0
LINE
8
0
10
240.0
20
62.65564
30
-173.20508
11
242.0
21
67.08832
31
-173.20508
0
LINE
8
0
10
242.0
20
-32.911682
30
-173.20508
11
244.0
21
-32.240295
31
-173.20508
0
LINE
8
0
10
242.0
20
67.08832
30
-173.20508
11
244.0
21
67.759705
31
-173.20508
0
LINE
8
0
10
244.0
20
-32.240295
30
-173.20508
11
246.0
21
-34.83429
31
-173.20508
0
LINE
8
0
10
244.0
20
67.759705
30
-173.20508
11
246.0
21
65.16571
31
-173.20508
0
LINE
8
0
10
246.0
20
-34.83429
30
-173.20508
11
248.0
21
-41.29181
31
-173.20508
0
LINE
8
0
10
246.0
20
65.16571
30
-173.20508
11
248.0
21
58.70819
31
-173.20508
0
LINE
8
0
10
248.0
20
-41.29181
30
-173.20508
11
250.0
21
-48.16742
31
-173.20508
0
LINE
8
0
10
248.0
20
58.70819
30
-173.20508
11
250.0
21
51.83258
31
-173.20508
0
LINE
8
0
10
250.0
20
-48.16742
30
-173.20508
11
252.0
21
-54.934692
31
-173.20508
0
LINE
8
0
10
250.0
20
51.83258
30
-173.20508
11
252.0
21
45.065308
31
-173.20508
0
LINE
8
0
10
252.0
20
-54.934692
30
-173.20508
11
254.0
21
-61.91864
31
-173.20508
0
LINE
8
0
10
252.0
20
45.065308
30
-173.20508
11
254.0
21
38.08136
31
-173.20508
0
ENDSEC
0
EOF
