0
SECTION
2
ENTITIES
0
LINE
8
0
10
-256.0
20
-48.66028
30
-173.20508
11
-254.0
21
-46.32263
31
-173.20508
0
LINE
8
0
10
-256.0
20
51.33972
30
-173.20508
11
-254.0
21
53.67737
31
-173.20508
0
LINE
8
0
10
-254.0
20
-46.32263
30
-173.20508
11
-252.0
21
-44.413757
31
-173.20508
0
LINE
8
0
10
-254.0
20
53.67737
30
-173.20508
11
-252.0
21
55.586243
31
-173.20508
0
LINE
8
0
10
-252.0
20
-44.413757
30
-173.20508
11
-250.0
21
-43.115234
31
-173.20508
0
LINE
8
0
10
-252.0
20
55.586243
30
-173.20508
11
-250.0
21
56.884766
31
-173.20508
0
LINE
8
0
10
-250.0
20
-43.115234
30
-173.20508
11
-248.0
21
-42.585754
31
-173.20508
0
LINE
8
0
10
-250.0
20
56.884766
30
-173.20508
11
-248.0
21
57.414246
31
-173.20508
0
LINE
8
0
10
-248.0
20
-42.585754
30
-173.20508
11
-246.0
21
-42.843628
31
-173.20508
0
LINE
8
0
10
-248.0
20
57.414246
30
-173.20508
11
-246.0
21
57.156372
31
-173.20508
0
LINE
8
0
10
-246.0
20
-42.843628
30
-173.20508
11
-244.0
21
-43.824768
31
-173.20508
0
LINE
8
0
10
-246.0
20
57.156372
30
-173.20508
11
-244.0
21
56.175232
31
-173.20508
0
LINE
8
0
10
-244.0
20
-43.824768
30
-173.20508
11
-242.0
21
-45.59326
31
-173.20508
0
LINE
8
0
10
-244.0
20
56.175232
30
-173.20508
11
-242.0
21
54.40674
31
-173.20508
0
LINE
8
0
10
-242.0
20
-45.59326
30
-173.20508
11
-240.0
21
-47.90802
31
-173.20508
0
LINE
8
0
10
-242.0
20
54.40674
30
-173.20508
11
-240.0
21
52.09198
31
-173.20508
0
LINE
8
0
10
-240.0
20
-47.90802
30
-173.20508
11
-238.0
21
-50.49591
31
-173.20508
0
LINE
8
0
10
-240.0
20
52.09198
30
-173.20508
11
-238.0
21
49.50409
31
-173.20508
0
LINE
8
0
10
-238.0
20
-50.49591
30
-173.20508
11
-236.0
21
-53.07007
31
-173.20508
0
LINE
8
0
10
-238.0
20
49.50409
30
-173.20508
11
-236.0
21
46.92993
31
-173.20508
0
LINE
8
0
10
-236.0
20
-53.07007
30
-173.20508
11
-234.0
21
-55.303955
31
-173.20508
0
LINE
8
0
10
-236.0
20
46.92993
30
-173.20508
11
-234.0
21
44.696045
31
-173.20508
0
LINE
8
0
10
-234.0
20
-55.303955
30
-173.20508
11
-232.0
21
-56.84967
31
-173.20508
0
LINE
8
0
10
-234.0
20
44.696045
30
-173.20508
11
-232.0
21
43.15033
31
-173.20508
0
LINE
8
0
10
-232.0
20
-56.84967
30
-173.20508
11
-230.0
21
-57.632446
31
-173.20508
0
LINE
8
0
10
-232.0
20
43.15033
30
-173.20508
11
-230.0
21
42.367554
31
-173.20508
0
LINE
8
0
10
-230.0
20
-57.632446
30
-173.20508
11
-228.0
21
-57.507324
31
-173.20508
0
LINE
8
0
10
-230.0
20
42.367554
30
-173.20508
11
-228.0
21
42.492676
31
-173.20508
0
LINE
8
0
10
-228.0
20
-57.507324
30
-173.20508
11
-226.0
21
-56.47888
31
-173.20508
0
LINE
8
0
10
-228.0
20
42.492676
30
-173.20508
11
-226.0
21
43.52112
31
-173.20508
0
LINE
8
0
10
-226.0
20
-56.47888
30
-173.20508
11
-224.0
21
-54.756165
31
-173.20508
0
LINE
8
0
10
-226.0
20
43.52112
30
-173.20508
11
-224.0
21
45.243835
31
-173.20508
0
LINE
8
0
10
-224.0
20
-54.756165
30
-173.20508
11
-222.0
21
-52.51007
31
-173.20508
0
LINE
8
0
10
-224.0
20
45.243835
30
-173.20508
11
-222.0
21
47.48993
31
-173.20508
0
LINE
8
0
10
-222.0
20
-52.51007
30
-173.20508
11
-220.0
21
-49.97711
31
-173.20508
0
LINE
8
0
10
-222.0
20
47.48993
30
-173.20508
11
-220.0
21
50.02289
31
-173.20508
0
LINE
8
0
10
-220.0
20
-49.97711
30
-173.20508
11
-218.0
21
-47.583008
31
-173.20508
0
LINE
8
0
10
-220.0
20
50.02289
30
-173.20508
11
-218.0
21
52.416992
31
-173.20508
0
LINE
8
0
10
-218.0
20
-47.583008
30
-173.20508
11
-216.0
21
-45.45746
31
-173.20508
0
LINE
8
0
10
-218.0
20
52.416992
30
-173.20508
11
-216.0
21
54.54254
31
-173.20508
0
LINE
8
0
10
-216.0
20
-45.45746
30
-173.20508
11
-214.0
21
-43.86444
31
-173.20508
0
LINE
8
0
10
-216.0
20
54.54254
30
-173.20508
11
-214.0
21
56.13556
31
-173.20508
0
LINE
8
0
10
-214.0
20
-43.86444
30
-173.20508
11
-212.0
21
-42.970276
31
-173.20508
0
LINE
8
0
10
-214.0
20
56.13556
30
-173.20508
11
-212.0
21
57.029724
31
-173.20508
0
LINE
8
0
10
-212.0
20
-42.970276
30
-173.20508
11
-210.0
21
-42.7536
31
-173.20508
0
LINE
8
0
10
-212.0
20
57.029724
30
-173.20508
11
-210.0
21
57.2464
31
-173.20508
0
LINE
8
0
10
-210.0
20
-42.7536
30
-173.20508
11
-208.0
21
-43.292236
31
-173.20508
0
LINE
8
0
10
-210.0
20
57.2464
30
-173.20508
11
-208.0
21
56.707764
31
-173.20508
0
LINE
8
0
10
-208.0
20
-43.292236
30
-173.20508
11
-206.0
21
-44.622803
31
-173.20508
0
LINE
8
0
10
-208.0
20
56.707764
30
-173.20508
11
-206.0
21
55.377197
31
-173.20508
0
LINE
8
0
10
-206.0
20
-44.622803
30
-173.20508
11
-204.0
21
-46.546936
31
-173.20508
0
LINE
8
0
10
-206.0
20
55.377197
30
-173.20508
11
-204.0
21
53.453064
31
-173.20508
0
LINE
8
0
10
-204.0
20
-46.546936
30
-173.20508
11
-202.0
21
-48.927307
31
-173.20508
0
LINE
8
0
10
-204.0
20
53.453064
30
-173.20508
11
-202.0
21
51.072693
31
-173.20508
0
LINE
8
0
10
-202.0
20
-48.927307
30
-173.20508
11
-200.0
21
-51.515198
31
-173.20508
0
LINE
8
0
10
-202.0
20
51.072693
30
-173.20508
11
-200.0
21
48.484802
31
-173.20508
0
LINE
8
0
10
-200.0
20
-51.515198
30
-173.20508
11
-198.0
21
-53.89862
31
-173.20508
0
LINE
8
0
10
-200.0
20
48.484802
30
-173.20508
11
-198.0
21
46.10138
31
-173.20508
0
LINE
8
0
10
-198.0
20
-53.89862
30
-173.20508
11
-196.0
21
-55.848694
31
-173.20508
0
LINE
8
0
10
-198.0
20
46.10138
30
-173.20508
11
-196.0
21
44.151306
31
-173.20508
0
LINE
8
0
10
-196.0
20
-55.848694
30
-173.20508
11
-194.0
21
-57.104492
31
-173.20508
0
LINE
8
0
10
-196.0
20
44.151306
30
-173.20508
11
-194.0
21
42.895508
31
-173.20508
0
LINE
8
0
10
-194.0
20
-57.104492
30
-173.20508
11
-192.0
21
-57.513428
31
-173.20508
0
LINE
8
0
10
-194.0
20
42.895508
30
-173.20508
11
-192.0
21
42.486572
31
-173.20508
0
LINE
8
0
10
-192.0
20
-57.513428
30
-173.20508
11
-190.0
21
-57.04193
31
-173.20508
0
LINE
8
0
10
-192.0
20
42.486572
30
-173.20508
11
-190.0
21
42.95807
31
-173.20508
0
LINE
8
0
10
-190.0
20
-57.04193
30
-173.20508
11
-188.0
21
-55.792236
31
-173.20508
0
LINE
8
0
10
-190.0
20
42.95807
30
-173.20508
11
-188.0
21
44.207764
31
-173.20508
0
LINE
8
0
10
-188.0
20
-55.792236
30
-173.20508
11
-186.0
21
-53.85132
31
-173.20508
0
LINE
8
0
10
-188.0
20
44.207764
30
-173.20508
11
-186.0
21
46.14868
31
-173.20508
0
LINE
8
0
10
-186.0
20
-53.85132
30
-173.20508
11
-184.0
21
-51.49536
31
-173.20508
0
LINE
8
0
10
-186.0
20
46.14868
30
-173.20508
11
-184.0
21
48.50464
31
-173.20508
0
LINE
8
0
10
-184.0
20
-51.49536
30
-173.20508
11
-182.0
21
-49.02649
31
-173.20508
0
LINE
8
0
10
-184.0
20
48.50464
30
-173.20508
11
-182.0
21
50.97351
31
-173.20508
0
LINE
8
0
10
-182.0
20
-49.02649
30
-173.20508
11
-180.0
21
-46.64612
31
-173.20508
0
LINE
8
0
10
-182.0
20
50.97351
30
-173.20508
11
-180.0
21
53.35388
31
-173.20508
0
LINE
8
0
10
-180.0
20
-46.64612
30
-173.20508
11
-178.0
21
-44.717407
31
-173.20508
0
LINE
8
0
10
-180.0
20
53.35388
30
-173.20508
11
-178.0
21
55.282593
31
-173.20508
0
LINE
8
0
10
-178.0
20
-44.717407
30
-173.20508
11
-176.0
21
-43.40973
31
-173.20508
0
LINE
8
0
10
-178.0
20
55.282593
30
-173.20508
11
-176.0
21
56.59027
31
-173.20508
0
LINE
8
0
10
-176.0
20
-43.40973
30
-173.20508
11
-174.0
21
-42.697144
31
-173.20508
0
LINE
8
0
10
-176.0
20
56.59027
30
-173.20508
11
-174.0
21
57.302856
31
-173.20508
0
LINE
8
0
10
-174.0
20
-42.697144
30
-173.20508
11
-172.0
21
-42.837524
31
-173.20508
0
LINE
8
0
10
-174.0
20
57.302856
30
-173.20508
11
-172.0
21
57.162476
31
-173.20508
0
LINE
8
0
10
-172.0
20
-42.837524
30
-173.20508
11
-170.0
21
-43.756104
31
-173.20508
0
LINE
8
0
10
-172.0
20
57.162476
30
-173.20508
11
-170.0
21
56.243896
31
-173.20508
0
LINE
8
0
10
-170.0
20
-43.756104
30
-173.20508
11
-168.0
21
-45.28656
31
-173.20508
0
LINE
8
0
10
-170.0
20
56.243896
30
-173.20508
11
-168.0
21
54.71344
31
-173.20508
0
LINE
8
0
10
-168.0
20
-45.28656
30
-173.20508
11
-166.0
21
-47.468567
31
-173.20508
0
LINE
8
0
10
-168.0
20
54.71344
30
-173.20508
11
-166.0
21
52.531433
31
-173.20508
0
LINE
8
0
10
-166.0
20
-47.468567
30
-173.20508
11
-164.0
21
-50.02594
31
-173.20508
0
LINE
8
0
10
-166.0
20
52.531433
30
-173.20508
11
-164.0
21
49.97406
31
-173.20508
0
LINE
8
0
10
-164.0
20
-50.02594
30
-173.20508
11
-162.0
21
-52.45819
31
-173.20508
0
LINE
8
0
10
-164.0
20
49.97406
30
-173.20508
11
-162.0
21
47.54181
31
-173.20508
0
LINE
8
0
10
-162.0
20
-52.45819
30
-173.20508
11
-160.0
21
-54.73938
31
-173.20508
0
LINE
8
0
10
-162.0
20
47.54181
30
-173.20508
11
-160.0
21
45.26062
31
-173.20508
0
LINE
8
0
10
-160.0
20
-54.73938
30
-173.20508
11
-158.0
21
-56.43463
31
-173.20508
0
LINE
8
0
10
-160.0
20
45.26062
30
-173.20508
11
-158.0
21
43.56537
31
-173.20508
0
LINE
8
0
10
-158.0
20
-56.43463
30
-173.20508
11
-156.0
21
-57.302856
31
-173.20508
0
LINE
8
0
10
-158.0
20
43.56537
30
-173.20508
11
-156.0
21
42.697144
31
-173.20508
0
LINE
8
0
10
-156.0
20
-57.302856
30
-173.20508
11
-154.0
21
-57.426453
31
-173.20508
0
LINE
8
0
10
-156.0
20
42.697144
30
-173.20508
11
-154.0
21
42.573547
31
-173.20508
0
LINE
8
0
10
-154.0
20
-57.426453
30
-173.20508
11
-152.0
21
-56.661987
31
-173.20508
0
LINE
8
0
10
-154.0
20
42.573547
30
-173.20508
11
-152.0
21
43.338013
31
-173.20508
0
LINE
8
0
10
-152.0
20
-56.661987
30
-173.20508
11
-150.0
21
-55.075073
31
-173.20508
0
LINE
8
0
10
-152.0
20
43.338013
30
-173.20508
11
-150.0
21
44.924927
31
-173.20508
0
LINE
8
0
10
-150.0
20
-55.075073
30
-173.20508
11
-148.0
21
-53.01056
31
-173.20508
0
LINE
8
0
10
-150.0
20
44.924927
30
-173.20508
11
-148.0
21
46.98944
31
-173.20508
0
LINE
8
0
10
-148.0
20
-53.01056
30
-173.20508
11
-146.0
21
-50.505066
31
-173.20508
0
LINE
8
0
10
-148.0
20
46.98944
30
-173.20508
11
-146.0
21
49.494934
31
-173.20508
0
LINE
8
0
10
-146.0
20
-50.505066
30
-173.20508
11
-144.0
21
-47.990417
31
-173.20508
0
LINE
8
0
10
-146.0
20
49.494934
30
-173.20508
11
-144.0
21
52.009583
31
-173.20508
0
LINE
8
0
10
-144.0
20
-47.990417
30
-173.20508
11
-142.0
21
-45.820618
31
-173.20508
0
LINE
8
0
10
-144.0
20
52.009583
30
-173.20508
11
-142.0
21
54.179382
31
-173.20508
0
LINE
8
0
10
-142.0
20
-45.820618
30
-173.20508
11
-140.0
21
-44.02466
31
-173.20508
0
LINE
8
0
10
-142.0
20
54.179382
30
-173.20508
11
-140.0
21
55.97534
31
-173.20508
0
LINE
8
0
10
-140.0
20
-44.02466
30
-173.20508
11
-138.0
21
-42.93976
31
-173.20508
0
LINE
8
0
10
-140.0
20
55.97534
30
-173.20508
11
-138.0
21
57.06024
31
-173.20508
0
LINE
8
0
10
-138.0
20
-42.93976
30
-173.20508
11
-136.0
21
-42.655945
31
-173.20508
0
LINE
8
0
10
-138.0
20
57.06024
30
-173.20508
11
-136.0
21
57.344055
31
-173.20508
0
LINE
8
0
10
-136.0
20
-42.655945
30
-173.20508
11
-134.0
21
-43.01758
31
-173.20508
0
LINE
8
0
10
-136.0
20
57.344055
30
-173.20508
11
-134.0
21
56.98242
31
-173.20508
0
LINE
8
0
10
-134.0
20
-43.01758
30
-173.20508
11
-132.0
21
-44.2276
31
-173.20508
0
LINE
8
0
10
-134.0
20
56.98242
30
-173.20508
11
-132.0
21
55.7724
31
-173.20508
0
LINE
8
0
10
-132.0
20
-44.2276
30
-173.20508
11
-130.0
21
-46.124268
31
-173.20508
0
LINE
8
0
10
-132.0
20
55.7724
30
-173.20508
11
-130.0
21
53.875732
31
-173.20508
0
LINE
8
0
10
-130.0
20
-46.124268
30
-173.20508
11
-128.0
21
-48.387146
31
-173.20508
0
LINE
8
0
10
-130.0
20
53.875732
30
-173.20508
11
-128.0
21
51.612854
31
-173.20508
0
LINE
8
0
10
-128.0
20
-48.387146
30
-173.20508
11
-126.0
21
-50.975037
31
-173.20508
0
LINE
8
0
10
-128.0
20
51.612854
30
-173.20508
11
-126.0
21
49.024963
31
-173.20508
0
LINE
8
0
10
-126.0
20
-50.975037
30
-173.20508
11
-124.0
21
-53.486633
31
-173.20508
0
LINE
8
0
10
-126.0
20
49.024963
30
-173.20508
11
-124.0
21
46.513367
31
-173.20508
0
LINE
8
0
10
-124.0
20
-53.486633
30
-173.20508
11
-122.0
21
-55.511475
31
-173.20508
0
LINE
8
0
10
-124.0
20
46.513367
30
-173.20508
11
-122.0
21
44.488525
31
-173.20508
0
LINE
8
0
10
-122.0
20
-55.511475
30
-173.20508
11
-120.0
21
-56.95343
31
-173.20508
0
LINE
8
0
10
-122.0
20
44.488525
30
-173.20508
11
-120.0
21
43.04657
31
-173.20508
0
LINE
8
0
10
-120.0
20
-56.95343
30
-173.20508
11
-118.0
21
-57.603455
31
-173.20508
0
LINE
8
0
10
-120.0
20
43.04657
30
-173.20508
11
-118.0
21
42.396545
31
-173.20508
0
LINE
8
0
10
-118.0
20
-57.603455
30
-173.20508
11
-116.0
21
-57.287598
31
-173.20508
0
LINE
8
0
10
-118.0
20
42.396545
30
-173.20508
11
-116.0
21
42.712402
31
-173.20508
0
LINE
8
0
10
-116.0
20
-57.287598
30
-173.20508
11
-114.0
21
-56.16913
31
-173.20508
0
LINE
8
0
10
-116.0
20
42.712402
30
-173.20508
11
-114.0
21
43.83087
31
-173.20508
0
LINE
8
0
10
-114.0
20
-56.16913
30
-173.20508
11
-112.0
21
-54.356384
31
-173.20508
0
LINE
8
0
10
-114.0
20
43.83087
30
-173.20508
11
-112.0
21
45.643616
31
-173.20508
0
LINE
8
0
10
-112.0
20
-54.356384
30
-173.20508
11
-110.0
21
-52.00653
31
-173.20508
0
LINE
8
0
10
-112.0
20
45.643616
30
-173.20508
11
-110.0
21
47.99347
31
-173.20508
0
LINE
8
0
10
-110.0
20
-52.00653
30
-173.20508
11
-108.0
21
-49.510193
31
-173.20508
0
LINE
8
0
10
-110.0
20
47.99347
30
-173.20508
11
-108.0
21
50.489807
31
-173.20508
0
LINE
8
0
10
-108.0
20
-49.510193
30
-173.20508
11
-106.0
21
-47.096252
31
-173.20508
0
LINE
8
0
10
-108.0
20
50.489807
30
-173.20508
11
-106.0
21
52.903748
31
-173.20508
0
LINE
8
0
10
-106.0
20
-47.096252
30
-173.20508
11
-104.0
21
-44.995117
31
-173.20508
0
LINE
8
0
10
-106.0
20
52.903748
30
-173.20508
11
-104.0
21
55.004883
31
-173.20508
0
LINE
8
0
10
-104.0
20
-44.995117
30
-173.20508
11
-102.0
21
-43.489075
31
-173.20508
0
LINE
8
0
10
-104.0
20
55.004883
30
-173.20508
11
-102.0
21
56.510925
31
-173.20508
0
LINE
8
0
10
-102.0
20
-43.489075
30
-173.20508
11
-100.0
21
-42.64984
31
-173.20508
0
LINE
8
0
10
-102.0
20
56.510925
30
-173.20508
11
-100.0
21
57.35016
31
-173.20508
0
LINE
8
0
10
-100.0
20
-42.64984
30
-173.20508
11
-98.0
21
-42.57965
31
-173.20508
0
LINE
8
0
10
-100.0
20
57.35016
30
-173.20508
11
-98.0
21
57.42035
31
-173.20508
0
LINE
8
0
10
-98.0
20
-42.57965
30
-173.20508
11
-96.0
21
-43.385315
31
-173.20508
0
LINE
8
0
10
-98.0
20
57.42035
30
-173.20508
11
-96.0
21
56.614685
31
-173.20508
0
LINE
8
0
10
-96.0
20
-43.385315
30
-173.20508
11
-94.0
21
-44.89441
31
-173.20508
0
LINE
8
0
10
-96.0
20
56.614685
30
-173.20508
11
-94.0
21
55.10559
31
-173.20508
0
LINE
8
0
10
-94.0
20
-44.89441
30
-173.20508
11
-92.0
21
-47.009277
31
-173.20508
0
LINE
8
0
10
-94.0
20
55.10559
30
-173.20508
11
-92.0
21
52.990723
31
-173.20508
0
LINE
8
0
10
-92.0
20
-47.009277
30
-173.20508
11
-90.0
21
-49.595642
31
-173.20508
0
LINE
8
0
10
-92.0
20
52.990723
30
-173.20508
11
-90.0
21
50.404358
31
-173.20508
0
LINE
8
0
10
-90.0
20
-49.595642
30
-173.20508
11
-88.0
21
-52.212524
31
-173.20508
0
LINE
8
0
10
-90.0
20
50.404358
30
-173.20508
11
-88.0
21
47.787476
31
-173.20508
0
LINE
8
0
10
-88.0
20
-52.212524
30
-173.20508
11
-86.0
21
-54.62799
31
-173.20508
0
LINE
8
0
10
-88.0
20
47.787476
30
-173.20508
11
-86.0
21
45.37201
31
-173.20508
0
LINE
8
0
10
-86.0
20
-54.62799
30
-173.20508
11
-84.0
21
-56.549072
31
-173.20508
0
LINE
8
0
10
-86.0
20
45.37201
30
-173.20508
11
-84.0
21
43.450928
31
-173.20508
0
LINE
8
0
10
-84.0
20
-56.549072
30
-173.20508
11
-82.0
21
-57.565308
31
-173.20508
0
LINE
8
0
10
-84.0
20
43.450928
30
-173.20508
11
-82.0
21
42.434692
31
-173.20508
0
LINE
8
0
10
-82.0
20
-57.565308
30
-173.20508
11
-80.0
21
-57.652283
31
-173.20508
0
LINE
8
0
10
-82.0
20
42.434692
30
-173.20508
11
-80.0
21
42.347717
31
-173.20508
0
LINE
8
0
10
-80.0
20
-57.652283
30
-173.20508
11
-78.0
21
-56.90918
31
-173.20508
0
LINE
8
0
10
-80.0
20
42.347717
30
-173.20508
11
-78.0
21
43.09082
31
-173.20508
0
LINE
8
0
10
-78.0
20
-56.90918
30
-173.20508
11
-76.0
21
-55.32379
31
-173.20508
0
LINE
8
0
10
-78.0
20
43.09082
30
-173.20508
11
-76.0
21
44.67621
31
-173.20508
0
LINE
8
0
10
-76.0
20
-55.32379
30
-173.20508
11
-74.0
21
-53.245544
31
-173.20508
0
LINE
8
0
10
-76.0
20
44.67621
30
-173.20508
11
-74.0
21
46.754456
31
-173.20508
0
LINE
8
0
10
-74.0
20
-53.245544
30
-173.20508
11
-72.0
21
-50.860596
31
-173.20508
0
LINE
8
0
10
-74.0
20
46.754456
30
-173.20508
11
-72.0
21
49.139404
31
-173.20508
0
LINE
8
0
10
-72.0
20
-50.860596
30
-173.20508
11
-70.0
21
-48.32306
31
-173.20508
0
LINE
8
0
10
-72.0
20
49.139404
30
-173.20508
11
-70.0
21
51.67694
31
-173.20508
0
LINE
8
0
10
-70.0
20
-48.32306
30
-173.20508
11
-68.0
21
-46.011353
31
-173.20508
0
LINE
8
0
10
-70.0
20
51.67694
30
-173.20508
11
-68.0
21
53.988647
31
-173.20508
0
LINE
8
0
10
-68.0
20
-46.011353
30
-173.20508
11
-66.0
21
-44.11316
31
-173.20508
0
LINE
8
0
10
-68.0
20
53.988647
30
-173.20508
11
-66.0
21
55.88684
31
-173.20508
0
LINE
8
0
10
-66.0
20
-44.11316
30
-173.20508
11
-64.0
21
-42.832947
31
-173.20508
0
LINE
8
0
10
-66.0
20
55.88684
30
-173.20508
11
-64.0
21
57.167053
31
-173.20508
0
LINE
8
0
10
-64.0
20
-42.832947
30
-173.20508
11
-62.0
21
-42.349243
31
-173.20508
0
LINE
8
0
10
-64.0
20
57.167053
30
-173.20508
11
-62.0
21
57.650757
31
-173.20508
0
LINE
8
0
10
-62.0
20
-42.349243
30
-173.20508
11
-60.0
21
-42.7063
31
-173.20508
0
LINE
8
0
10
-62.0
20
57.650757
30
-173.20508
11
-60.0
21
57.2937
31
-173.20508
0
LINE
8
0
10
-60.0
20
-42.7063
30
-173.20508
11
-58.0
21
-43.80951
31
-173.20508
0
LINE
8
0
10
-60.0
20
57.2937
30
-173.20508
11
-58.0
21
56.19049
31
-173.20508
0
LINE
8
0
10
-58.0
20
-43.80951
30
-173.20508
11
-56.0
21
-45.703125
31
-173.20508
0
LINE
8
0
10
-58.0
20
56.19049
30
-173.20508
11
-56.0
21
54.296875
31
-173.20508
0
LINE
8
0
10
-56.0
20
-45.703125
30
-173.20508
11
-54.0
21
-48.147583
31
-173.20508
0
LINE
8
0
10
-56.0
20
54.296875
30
-173.20508
11
-54.0
21
51.852417
31
-173.20508
0
LINE
8
0
10
-54.0
20
-48.147583
30
-173.20508
11
-52.0
21
-50.86975
31
-173.20508
0
LINE
8
0
10
-54.0
20
51.852417
30
-173.20508
11
-52.0
21
49.13025
31
-173.20508
0
LINE
8
0
10
-52.0
20
-50.86975
30
-173.20508
11
-50.0
21
-53.5614
31
-173.20508
0
LINE
8
0
10
-52.0
20
49.13025
30
-173.20508
11
-50.0
21
46.4386
31
-173.20508
0
LINE
8
0
10
-50.0
20
-53.5614
30
-173.20508
11
-48.0
21
-55.789185
31
-173.20508
0
LINE
8
0
10
-50.0
20
46.4386
30
-173.20508
11
-48.0
21
44.210815
31
-173.20508
0
LINE
8
0
10
-48.0
20
-55.789185
30
-173.20508
11
-46.0
21
-57.240295
31
-173.20508
0
LINE
8
0
10
-48.0
20
44.210815
30
-173.20508
11
-46.0
21
42.759705
31
-173.20508
0
LINE
8
0
10
-46.0
20
-57.240295
30
-173.20508
11
-44.0
21
-57.83844
31
-173.20508
0
LINE
8
0
10
-46.0
20
42.759705
30
-173.20508
11
-44.0
21
42.16156
31
-173.20508
0
LINE
8
0
10
-44.0
20
-57.83844
30
-173.20508
11
-42.0
21
-57.47986
31
-173.20508
0
LINE
8
0
10
-44.0
20
42.16156
30
-173.20508
11
-42.0
21
42.52014
31
-173.20508
0
LINE
8
0
10
-42.0
20
-57.47986
30
-173.20508
11
-40.0
21
-56.300354
31
-173.20508
0
LINE
8
0
10
-42.0
20
42.52014
30
-173.20508
11
-40.0
21
43.699646
31
-173.20508
0
LINE
8
0
10
-40.0
20
-56.300354
30
-173.20508
11
-38.0
21
-54.48456
31
-173.20508
0
LINE
8
0
10
-40.0
20
43.699646
30
-173.20508
11
-38.0
21
45.51544
31
-173.20508
0
LINE
8
0
10
-38.0
20
-54.48456
30
-173.20508
11
-36.0
21
-52.19879
31
-173.20508
0
LINE
8
0
10
-38.0
20
45.51544
30
-173.20508
11
-36.0
21
47.80121
31
-173.20508
0
LINE
8
0
10
-36.0
20
-52.19879
30
-173.20508
11
-34.0
21
-49.645996
31
-173.20508
0
LINE
8
0
10
-36.0
20
47.80121
30
-173.20508
11
-34.0
21
50.354004
31
-173.20508
0
LINE
8
0
10
-34.0
20
-49.645996
30
-173.20508
11
-32.0
21
-47.148132
31
-173.20508
0
LINE
8
0
10
-34.0
20
50.354004
30
-173.20508
11
-32.0
21
52.851868
31
-173.20508
0
LINE
8
0
10
-32.0
20
-47.148132
30
-173.20508
11
-30.0
21
-44.989014
31
-173.20508
0
LINE
8
0
10
-32.0
20
52.851868
30
-173.20508
11
-30.0
21
55.010986
31
-173.20508
0
LINE
8
0
10
-30.0
20
-44.989014
30
-173.20508
11
-28.0
21
-43.38379
31
-173.20508
0
LINE
8
0
10
-30.0
20
55.010986
30
-173.20508
11
-28.0
21
56.61621
31
-173.20508
0
LINE
8
0
10
-28.0
20
-43.38379
30
-173.20508
11
-26.0
21
-42.485046
31
-173.20508
0
LINE
8
0
10
-28.0
20
56.61621
30
-173.20508
11
-26.0
21
57.514954
31
-173.20508
0
LINE
8
0
10
-26.0
20
-42.485046
30
-173.20508
11
-24.0
21
-42.39044
31
-173.20508
0
LINE
8
0
10
-26.0
20
57.514954
30
-173.20508
11
-24.0
21
57.60956
31
-173.20508
0
LINE
8
0
10
-24.0
20
-42.39044
30
-173.20508
11
-22.0
21
-43.145752
31
-173.20508
0
LINE
8
0
10
-24.0
20
57.60956
30
-173.20508
11
-22.0
21
56.854248
31
-173.20508
0
LINE
8
0
10
-22.0
20
-43.145752
30
-173.20508
11
-20.0
21
-44.67926
31
-173.20508
0
LINE
8
0
10
-22.0
20
56.854248
30
-173.20508
11
-20.0
21
55.32074
31
-173.20508
0
LINE
8
0
10
-20.0
20
-44.67926
30
-173.20508
11
-18.0
21
-46.85974
31
-173.20508
0
LINE
8
0
10
-20.0
20
55.32074
30
-173.20508
11
-18.0
21
53.14026
31
-173.20508
0
LINE
8
0
10
-18.0
20
-46.85974
30
-173.20508
11
-16.0
21
-49.5224
31
-173.20508
0
LINE
8
0
10
-18.0
20
53.14026
30
-173.20508
11
-16.0
21
50.4776
31
-173.20508
0
LINE
8
0
10
-16.0
20
-49.5224
30
-173.20508
11
-14.0
21
-52.29187
31
-173.20508
0
LINE
8
0
10
-16.0
20
50.4776
30
-173.20508
11
-14.0
21
47.70813
31
-173.20508
0
LINE
8
0
10
-14.0
20
-52.29187
30
-173.20508
11
-12.0
21
-54.74701
31
-173.20508
0
LINE
8
0
10
-14.0
20
47.70813
30
-173.20508
11
-12.0
21
45.25299
31
-173.20508
0
LINE
8
0
10
-12.0
20
-54.74701
30
-173.20508
11
-10.0
21
-56.617737
31
-173.20508
0
LINE
8
0
10
-12.0
20
45.25299
30
-173.20508
11
-10.0
21
43.382263
31
-173.20508
0
LINE
8
0
10
-10.0
20
-56.617737
30
-173.20508
11
-8.0
21
-57.688904
31
-173.20508
0
LINE
8
0
10
-10.0
20
43.382263
30
-173.20508
11
-8.0
21
42.311096
31
-173.20508
0
LINE
8
0
10
-8.0
20
-57.688904
30
-173.20508
11
-6.0
21
-57.806396
31
-173.20508
0
LINE
8
0
10
-8.0
20
42.311096
30
-173.20508
11
-6.0
21
42.193604
31
-173.20508
0
LINE
8
0
10
-6.0
20
-57.806396
30
-173.20508
11
-4.0
21
-57.081604
31
-173.20508
0
LINE
8
0
10
-6.0
20
42.193604
30
-173.20508
11
-4.0
21
42.918396
31
-173.20508
0
LINE
8
0
10
-4.0
20
-57.081604
30
-173.20508
11
-2.0
21
-55.636597
31
-173.20508
0
LINE
8
0
10
-4.0
20
42.918396
30
-173.20508
11
-2.0
21
44.363403
31
-173.20508
0
LINE
8
0
10
-2.0
20
-55.636597
30
-173.20508
11
0.0
21
-53.530884
31
-173.20508
0
LINE
8
0
10
-2.0
20
44.363403
30
-173.20508
11
0.0
21
46.469116
31
-173.20508
0
LINE
8
0
10
0.0
20
-53.530884
30
-173.20508
11
2.0
21
-51.075745
31
-173.20508
0
LINE
8
0
10
0.0
20
46.469116
30
-173.20508
11
2.0
21
48.924255
31
-173.20508
0
LINE
8
0
10
2.0
20
-51.075745
30
-173.20508
11
4.0
21
-48.509216
31
-173.20508
0
LINE
8
0
10
2.0
20
48.924255
30
-173.20508
11
4.0
21
51.490784
31
-173.20508
0
LINE
8
0
10
4.0
20
-48.509216
30
-173.20508
11
6.0
21
-46.10138
31
-173.20508
0
LINE
8
0
10
4.0
20
51.490784
30
-173.20508
11
6.0
21
53.89862
31
-173.20508
0
LINE
8
0
10
6.0
20
-46.10138
30
-173.20508
11
8.0
21
-44.15741
31
-173.20508
0
LINE
8
0
10
6.0
20
53.89862
30
-173.20508
11
8.0
21
55.84259
31
-173.20508
0
LINE
8
0
10
8.0
20
-44.15741
30
-173.20508
11
10.0
21
-42.8833
31
-173.20508
0
LINE
8
0
10
8.0
20
55.84259
30
-173.20508
11
10.0
21
57.1167
31
-173.20508
0
LINE
8
0
10
10.0
20
-42.8833
30
-173.20508
11
12.0
21
-42.366028
31
-173.20508
0
LINE
8
0
10
10.0
20
57.1167
30
-173.20508
11
12.0
21
57.633972
31
-173.20508
0
LINE
8
0
10
12.0
20
-42.366028
30
-173.20508
11
14.0
21
-42.677307
31
-173.20508
0
LINE
8
0
10
12.0
20
57.633972
30
-173.20508
11
14.0
21
57.322693
31
-173.20508
0
LINE
8
0
10
14.0
20
-42.677307
30
-173.20508
11
16.0
21
-43.774414
31
-173.20508
0
LINE
8
0
10
14.0
20
57.322693
30
-173.20508
11
16.0
21
56.225586
31
-173.20508
0
LINE
8
0
10
16.0
20
-43.774414
30
-173.20508
11
18.0
21
-45.562744
31
-173.20508
0
LINE
8
0
10
16.0
20
56.225586
30
-173.20508
11
18.0
21
54.437256
31
-173.20508
0
LINE
8
0
10
18.0
20
-45.562744
30
-173.20508
11
20.0
21
-47.98889
31
-173.20508
0
LINE
8
0
10
18.0
20
54.437256
30
-173.20508
11
20.0
21
52.01111
31
-173.20508
0
LINE
8
0
10
20.0
20
-47.98889
30
-173.20508
11
22.0
21
-50.71411
31
-173.20508
0
LINE
8
0
10
20.0
20
52.01111
30
-173.20508
11
22.0
21
49.28589
31
-173.20508
0
LINE
8
0
10
22.0
20
-50.71411
30
-173.20508
11
24.0
21
-53.367615
31
-173.20508
0
LINE
8
0
10
22.0
20
49.28589
30
-173.20508
11
24.0
21
46.632385
31
-173.20508
0
LINE
8
0
10
24.0
20
-53.367615
30
-173.20508
11
26.0
21
-55.621338
31
-173.20508
0
LINE
8
0
10
24.0
20
46.632385
30
-173.20508
11
26.0
21
44.378662
31
-173.20508
0
LINE
8
0
10
26.0
20
-55.621338
30
-173.20508
11
28.0
21
-57.154846
31
-173.20508
0
LINE
8
0
10
26.0
20
44.378662
30
-173.20508
11
28.0
21
42.845154
31
-173.20508
0
LINE
8
0
10
28.0
20
-57.154846
30
-173.20508
11
30.0
21
-57.824707
31
-173.20508
0
LINE
8
0
10
28.0
20
42.845154
30
-173.20508
11
30.0
21
42.175293
31
-173.20508
0
LINE
8
0
10
30.0
20
-57.824707
30
-173.20508
11
32.0
21
-57.637024
31
-173.20508
0
LINE
8
0
10
30.0
20
42.175293
30
-173.20508
11
32.0
21
42.362976
31
-173.20508
0
LINE
8
0
10
32.0
20
-57.637024
30
-173.20508
11
34.0
21
-56.610107
31
-173.20508
0
LINE
8
0
10
32.0
20
42.362976
30
-173.20508
11
34.0
21
43.389893
31
-173.20508
0
LINE
8
0
10
34.0
20
-56.610107
30
-173.20508
11
36.0
21
-54.866028
31
-173.20508
0
LINE
8
0
10
34.0
20
43.389893
30
-173.20508
11
36.0
21
45.133972
31
-173.20508
0
LINE
8
0
10
36.0
20
-54.866028
30
-173.20508
11
38.0
21
-52.604675
31
-173.20508
0
LINE
8
0
10
36.0
20
45.133972
30
-173.20508
11
38.0
21
47.395325
31
-173.20508
0
LINE
8
0
10
38.0
20
-52.604675
30
-173.20508
11
40.0
21
-49.978638
31
-173.20508
0
LINE
8
0
10
38.0
20
47.395325
30
-173.20508
11
40.0
21
50.021362
31
-173.20508
0
LINE
8
0
10
40.0
20
-49.978638
30
-173.20508
11
42.0
21
-47.37549
31
-173.20508
0
LINE
8
0
10
40.0
20
50.021362
30
-173.20508
11
42.0
21
52.62451
31
-173.20508
0
LINE
8
0
10
42.0
20
-47.37549
30
-173.20508
11
44.0
21
-45.161438
31
-173.20508
0
LINE
8
0
10
42.0
20
52.62451
30
-173.20508
11
44.0
21
54.838562
31
-173.20508
0
LINE
8
0
10
44.0
20
-45.161438
30
-173.20508
11
46.0
21
-43.466187
31
-173.20508
0
LINE
8
0
10
44.0
20
54.838562
30
-173.20508
11
46.0
21
56.533813
31
-173.20508
0
LINE
8
0
10
46.0
20
-43.466187
30
-173.20508
11
48.0
21
-42.50183
31
-173.20508
0
LINE
8
0
10
46.0
20
56.533813
30
-173.20508
11
48.0
21
57.49817
31
-173.20508
0
LINE
8
0
10
48.0
20
-42.50183
30
-173.20508
11
50.0
21
-42.366028
31
-173.20508
0
LINE
8
0
10
48.0
20
57.49817
30
-173.20508
11
50.0
21
57.633972
31
-173.20508
0
LINE
8
0
10
50.0
20
-42.366028
30
-173.20508
11
52.0
21
-42.99469
31
-173.20508
0
LINE
8
0
10
50.0
20
57.633972
30
-173.20508
11
52.0
21
57.00531
31
-173.20508
0
LINE
8
0
10
52.0
20
-42.99469
30
-173.20508
11
54.0
21
-44.421387
31
-173.20508
0
LINE
8
0
10
52.0
20
57.00531
30
-173.20508
11
54.0
21
55.578613
31
-173.20508
0
LINE
8
0
10
54.0
20
-44.421387
30
-173.20508
11
56.0
21
-46.554565
31
-173.20508
0
LINE
8
0
10
54.0
20
55.578613
30
-173.20508
11
56.0
21
53.445435
31
-173.20508
0
LINE
8
0
10
56.0
20
-46.554565
30
-173.20508
11
58.0
21
-49.121094
31
-173.20508
0
LINE
8
0
10
56.0
20
53.445435
30
-173.20508
11
58.0
21
50.878906
31
-173.20508
0
LINE
8
0
10
58.0
20
-49.121094
30
-173.20508
11
60.0
21
-51.852417
31
-173.20508
0
LINE
8
0
10
58.0
20
50.878906
30
-173.20508
11
60.0
21
48.147583
31
-173.20508
0
LINE
8
0
10
60.0
20
-51.852417
30
-173.20508
11
62.0
21
-54.370117
31
-173.20508
0
LINE
8
0
10
60.0
20
48.147583
30
-173.20508
11
62.0
21
45.629883
31
-173.20508
0
LINE
8
0
10
62.0
20
-54.370117
30
-173.20508
11
64.0
21
-56.341553
31
-173.20508
0
LINE
8
0
10
62.0
20
45.629883
30
-173.20508
11
64.0
21
43.658447
31
-173.20508
0
LINE
8
0
10
64.0
20
-56.341553
30
-173.20508
11
66.0
21
-57.569885
31
-173.20508
0
LINE
8
0
10
64.0
20
43.658447
30
-173.20508
11
66.0
21
42.430115
31
-173.20508
0
LINE
8
0
10
66.0
20
-57.569885
30
-173.20508
11
68.0
21
-57.894897
31
-173.20508
0
LINE
8
0
10
66.0
20
42.430115
30
-173.20508
11
68.0
21
42.105103
31
-173.20508
0
LINE
8
0
10
68.0
20
-57.894897
30
-173.20508
11
70.0
21
-57.344055
31
-173.20508
0
LINE
8
0
10
68.0
20
42.105103
30
-173.20508
11
70.0
21
42.655945
31
-173.20508
0
LINE
8
0
10
70.0
20
-57.344055
30
-173.20508
11
72.0
21
-56.002808
31
-173.20508
0
LINE
8
0
10
70.0
20
42.655945
30
-173.20508
11
72.0
21
43.997192
31
-173.20508
0
LINE
8
0
10
72.0
20
-56.002808
30
-173.20508
11
74.0
21
-53.93219
31
-173.20508
0
LINE
8
0
10
72.0
20
43.997192
30
-173.20508
11
74.0
21
46.06781
31
-173.20508
0
LINE
8
0
10
74.0
20
-53.93219
30
-173.20508
11
76.0
21
-51.435852
31
-173.20508
0
LINE
8
0
10
74.0
20
46.06781
30
-173.20508
11
76.0
21
48.564148
31
-173.20508
0
LINE
8
0
10
76.0
20
-51.435852
30
-173.20508
11
78.0
21
-48.791504
31
-173.20508
0
LINE
8
0
10
76.0
20
48.564148
30
-173.20508
11
78.0
21
51.208496
31
-173.20508
0
LINE
8
0
10
78.0
20
-48.791504
30
-173.20508
11
80.0
21
-46.31653
31
-173.20508
0
LINE
8
0
10
78.0
20
51.208496
30
-173.20508
11
80.0
21
53.68347
31
-173.20508
0
LINE
8
0
10
80.0
20
-46.31653
30
-173.20508
11
82.0
21
-44.258118
31
-173.20508
0
LINE
8
0
10
80.0
20
53.68347
30
-173.20508
11
82.0
21
55.741882
31
-173.20508
0
LINE
8
0
10
82.0
20
-44.258118
30
-173.20508
11
84.0
21
-42.878723
31
-173.20508
0
LINE
8
0
10
82.0
20
55.741882
30
-173.20508
11
84.0
21
57.121277
31
-173.20508
0
LINE
8
0
10
84.0
20
-42.878723
30
-173.20508
11
86.0
21
-42.248535
31
-173.20508
0
LINE
8
0
10
84.0
20
57.121277
30
-173.20508
11
86.0
21
57.751465
31
-173.20508
0
LINE
8
0
10
86.0
20
-42.248535
30
-173.20508
11
88.0
21
-42.443848
31
-173.20508
0
LINE
8
0
10
86.0
20
57.751465
30
-173.20508
11
88.0
21
57.556152
31
-173.20508
0
LINE
8
0
10
88.0
20
-42.443848
30
-173.20508
11
90.0
21
-43.429565
31
-173.20508
0
LINE
8
0
10
88.0
20
57.556152
30
-173.20508
11
90.0
21
56.570435
31
-173.20508
0
LINE
8
0
10
90.0
20
-43.429565
30
-173.20508
11
92.0
21
-45.187378
31
-173.20508
0
LINE
8
0
10
90.0
20
56.570435
30
-173.20508
11
92.0
21
54.812622
31
-173.20508
0
LINE
8
0
10
92.0
20
-45.187378
30
-173.20508
11
94.0
21
-47.555542
31
-173.20508
0
LINE
8
0
10
92.0
20
54.812622
30
-173.20508
11
94.0
21
52.444458
31
-173.20508
0
LINE
8
0
10
94.0
20
-47.555542
30
-173.20508
11
96.0
21
-50.291443
31
-173.20508
0
LINE
8
0
10
94.0
20
52.444458
30
-173.20508
11
96.0
21
49.708557
31
-173.20508
0
LINE
8
0
10
96.0
20
-50.291443
30
-173.20508
11
98.0
21
-52.993774
31
-173.20508
0
LINE
8
0
10
96.0
20
49.708557
30
-173.20508
11
98.0
21
47.006226
31
-173.20508
0
LINE
8
0
10
98.0
20
-52.993774
30
-173.20508
11
100.0
21
-55.374146
31
-173.20508
0
LINE
8
0
10
98.0
20
47.006226
30
-173.20508
11
100.0
21
44.625854
31
-173.20508
0
LINE
8
0
10
100.0
20
-55.374146
30
-173.20508
11
102.0
21
-57.078552
31
-173.20508
0
LINE
8
0
10
100.0
20
44.625854
30
-173.20508
11
102.0
21
42.921448
31
-173.20508
0
LINE
8
0
10
102.0
20
-57.078552
30
-173.20508
11
104.0
21
-57.958984
31
-173.20508
0
LINE
8
0
10
102.0
20
42.921448
30
-173.20508
11
104.0
21
42.041016
31
-173.20508
0
LINE
8
0
10
104.0
20
-57.958984
30
-173.20508
11
106.0
21
-57.86743
31
-173.20508
0
LINE
8
0
10
104.0
20
42.041016
30
-173.20508
11
106.0
21
42.13257
31
-173.20508
0
LINE
8
0
10
106.0
20
-57.86743
30
-173.20508
11
108.0
21
-56.91681
31
-173.20508
0
LINE
8
0
10
106.0
20
42.13257
30
-173.20508
11
108.0
21
43.08319
31
-173.20508
0
LINE
8
0
10
108.0
20
-56.91681
30
-173.20508
11
110.0
21
-55.130005
31
-173.20508
0
LINE
8
0
10
108.0
20
43.08319
30
-173.20508
11
110.0
21
44.869995
31
-173.20508
0
LINE
8
0
10
110.0
20
-55.130005
30
-173.20508
11
112.0
21
-52.75879
31
-173.20508
0
LINE
8
0
10
110.0
20
44.869995
30
-173.20508
11
112.0
21
47.24121
31
-173.20508
0
LINE
8
0
10
112.0
20
-52.75879
30
-173.20508
11
114.0
21
-50.100708
31
-173.20508
0
LINE
8
0
10
112.0
20
47.24121
30
-173.20508
11
114.0
21
49.899292
31
-173.20508
0
LINE
8
0
10
114.0
20
-50.100708
30
-173.20508
11
116.0
21
-47.46399
31
-173.20508
0
LINE
8
0
10
114.0
20
49.899292
30
-173.20508
11
116.0
21
52.53601
31
-173.20508
0
LINE
8
0
10
116.0
20
-47.46399
30
-173.20508
11
118.0
21
-45.150757
31
-173.20508
0
LINE
8
0
10
116.0
20
52.53601
30
-173.20508
11
118.0
21
54.849243
31
-173.20508
0
LINE
8
0
10
118.0
20
-45.150757
30
-173.20508
11
120.0
21
-43.377686
31
-173.20508
0
LINE
8
0
10
118.0
20
54.849243
30
-173.20508
11
120.0
21
56.622314
31
-173.20508
0
LINE
8
0
10
120.0
20
-43.377686
30
-173.20508
11
122.0
21
-42.312622
31
-173.20508
0
LINE
8
0
10
120.0
20
56.622314
30
-173.20508
11
122.0
21
57.687378
31
-173.20508
0
LINE
8
0
10
122.0
20
-42.312622
30
-173.20508
11
124.0
21
-42.079163
31
-173.20508
0
LINE
8
0
10
122.0
20
57.687378
30
-173.20508
11
124.0
21
57.920837
31
-173.20508
0
LINE
8
0
10
124.0
20
-42.079163
30
-173.20508
11
126.0
21
-42.689514
31
-173.20508
0
LINE
8
0
10
124.0
20
57.920837
30
-173.20508
11
126.0
21
57.310486
31
-173.20508
0
LINE
8
0
10
126.0
20
-42.689514
30
-173.20508
11
128.0
21
-44.111633
31
-173.20508
0
LINE
8
0
10
126.0
20
57.310486
30
-173.20508
11
128.0
21
55.888367
31
-173.20508
0
LINE
8
0
10
128.0
20
-44.111633
30
-173.20508
11
130.0
21
-46.250916
31
-173.20508
0
LINE
8
0
10
128.0
20
55.888367
30
-173.20508
11
130.0
21
53.749084
31
-173.20508
0
LINE
8
0
10
130.0
20
-46.250916
30
-173.20508
11
132.0
21
-48.86322
31
-173.20508
0
LINE
8
0
10
130.0
20
53.749084
30
-173.20508
11
132.0
21
51.13678
31
-173.20508
0
LINE
8
0
10
132.0
20
-48.86322
30
-173.20508
11
134.0
21
-51.652527
31
-173.20508
0
LINE
8
0
10
132.0
20
51.13678
30
-173.20508
11
134.0
21
48.347473
31
-173.20508
0
LINE
8
0
10
134.0
20
-51.652527
30
-173.20508
11
136.0
21
-54.293823
31
-173.20508
0
LINE
8
0
10
134.0
20
48.347473
30
-173.20508
11
136.0
21
45.706177
31
-173.20508
0
LINE
8
0
10
136.0
20
-54.293823
30
-173.20508
11
138.0
21
-56.388855
31
-173.20508
0
LINE
8
0
10
136.0
20
45.706177
30
-173.20508
11
138.0
21
43.611145
31
-173.20508
0
LINE
8
0
10
138.0
20
-56.388855
30
-173.20508
11
140.0
21
-57.702637
31
-173.20508
0
LINE
8
0
10
138.0
20
43.611145
30
-173.20508
11
140.0
21
42.297363
31
-173.20508
0
LINE
8
0
10
140.0
20
-57.702637
30
-173.20508
11
142.0
21
-58.12378
31
-173.20508
0
LINE
8
0
10
140.0
20
42.297363
30
-173.20508
11
142.0
21
41.87622
31
-173.20508
0
LINE
8
0
10
142.0
20
-58.12378
30
-173.20508
11
144.0
21
-57.543945
31
-173.20508
0
LINE
8
0
10
142.0
20
41.87622
30
-173.20508
11
144.0
21
42.456055
31
-173.20508
0
LINE
8
0
10
144.0
20
-57.543945
30
-173.20508
11
146.0
21
-56.158447
31
-173.20508
0
LINE
8
0
10
144.0
20
42.456055
30
-173.20508
11
146.0
21
43.841553
31
-173.20508
0
LINE
8
0
10
146.0
20
-56.158447
30
-173.20508
11
148.0
21
-54.06952
31
-173.20508
0
LINE
8
0
10
146.0
20
43.841553
30
-173.20508
11
148.0
21
45.93048
31
-173.20508
0
LINE
8
0
10
148.0
20
-54.06952
30
-173.20508
11
150.0
21
-51.52893
31
-173.20508
0
LINE
8
0
10
148.0
20
45.93048
30
-173.20508
11
150.0
21
48.47107
31
-173.20508
0
LINE
8
0
10
150.0
20
-51.52893
30
-173.20508
11
152.0
21
-48.910522
31
-173.20508
0
LINE
8
0
10
150.0
20
48.47107
30
-173.20508
11
152.0
21
51.089478
31
-173.20508
0
LINE
8
0
10
152.0
20
-48.910522
30
-173.20508
11
154.0
21
-46.3974
31
-173.20508
0
LINE
8
0
10
152.0
20
51.089478
30
-173.20508
11
154.0
21
53.6026
31
-173.20508
0
LINE
8
0
10
154.0
20
-46.3974
30
-173.20508
11
156.0
21
-44.274902
31
-173.20508
0
LINE
8
0
10
154.0
20
53.6026
30
-173.20508
11
156.0
21
55.725098
31
-173.20508
0
LINE
8
0
10
156.0
20
-44.274902
30
-173.20508
11
158.0
21
-42.86499
31
-173.20508
0
LINE
8
0
10
156.0
20
55.725098
30
-173.20508
11
158.0
21
57.13501
31
-173.20508
0
LINE
8
0
10
158.0
20
-42.86499
30
-173.20508
11
160.0
21
-42.160034
31
-173.20508
0
LINE
8
0
10
158.0
20
57.13501
30
-173.20508
11
160.0
21
57.839966
31
-173.20508
0
LINE
8
0
10
160.0
20
-42.160034
30
-173.20508
11
162.0
21
-42.289734
31
-173.20508
0
LINE
8
0
10
160.0
20
57.839966
30
-173.20508
11
162.0
21
57.710266
31
-173.20508
0
LINE
8
0
10
162.0
20
-42.289734
30
-173.20508
11
164.0
21
-43.284607
31
-173.20508
0
LINE
8
0
10
162.0
20
57.710266
30
-173.20508
11
164.0
21
56.715393
31
-173.20508
0
LINE
8
0
10
164.0
20
-43.284607
30
-173.20508
11
166.0
21
-45.03784
31
-173.20508
0
LINE
8
0
10
164.0
20
56.715393
30
-173.20508
11
166.0
21
54.96216
31
-173.20508
0
LINE
8
0
10
166.0
20
-45.03784
30
-173.20508
11
168.0
21
-47.387695
31
-173.20508
0
LINE
8
0
10
166.0
20
54.96216
30
-173.20508
11
168.0
21
52.612305
31
-173.20508
0
LINE
8
0
10
168.0
20
-47.387695
30
-173.20508
11
170.0
21
-50.11139
31
-173.20508
0
LINE
8
0
10
168.0
20
52.612305
30
-173.20508
11
170.0
21
49.88861
31
-173.20508
0
LINE
8
0
10
170.0
20
-50.11139
30
-173.20508
11
172.0
21
-52.842712
31
-173.20508
0
LINE
8
0
10
170.0
20
49.88861
30
-173.20508
11
172.0
21
47.157288
31
-173.20508
0
LINE
8
0
10
172.0
20
-52.842712
30
-173.20508
11
174.0
21
-55.27191
31
-173.20508
0
LINE
8
0
10
172.0
20
47.157288
30
-173.20508
11
174.0
21
44.72809
31
-173.20508
0
LINE
8
0
10
174.0
20
-55.27191
30
-173.20508
11
176.0
21
-57.05414
31
-173.20508
0
LINE
8
0
10
174.0
20
44.72809
30
-173.20508
11
176.0
21
42.94586
31
-173.20508
0
LINE
8
0
10
176.0
20
-57.05414
30
-173.20508
11
178.0
21
-57.9422
31
-173.20508
0
LINE
8
0
10
176.0
20
42.94586
30
-173.20508
11
178.0
21
42.0578
31
-173.20508
0
LINE
8
0
10
178.0
20
-57.9422
30
-173.20508
11
180.0
21
-57.96051
31
-173.20508
0
LINE
8
0
10
178.0
20
42.0578
30
-173.20508
11
180.0
21
42.03949
31
-173.20508
0
LINE
8
0
10
180.0
20
-57.96051
30
-173.20508
11
182.0
21
-57.01599
31
-173.20508
0
LINE
8
0
10
180.0
20
42.03949
30
-173.20508
11
182.0
21
42.98401
31
-173.20508
0
LINE
8
0
10
182.0
20
-57.01599
30
-173.20508
11
184.0
21
-55.311584
31
-173.20508
0
LINE
8
0
10
182.0
20
42.98401
30
-173.20508
11
184.0
21
44.688416
31
-173.20508
0
LINE
8
0
10
184.0
20
-55.311584
30
-173.20508
11
186.0
21
-53.02887
31
-173.20508
0
LINE
8
0
10
184.0
20
44.688416
30
-173.20508
11
186.0
21
46.97113
31
-173.20508
0
LINE
8
0
10
186.0
20
-53.02887
30
-173.20508
11
188.0
21
-50.42267
31
-173.20508
0
LINE
8
0
10
186.0
20
46.97113
30
-173.20508
11
188.0
21
49.57733
31
-173.20508
0
LINE
8
0
10
188.0
20
-50.42267
30
-173.20508
11
190.0
21
-47.74933
31
-173.20508
0
LINE
8
0
10
188.0
20
49.57733
30
-173.20508
11
190.0
21
52.25067
31
-173.20508
0
LINE
8
0
10
190.0
20
-47.74933
30
-173.20508
11
192.0
21
-45.41626
31
-173.20508
0
LINE
8
0
10
190.0
20
52.25067
30
-173.20508
11
192.0
21
54.58374
31
-173.20508
0
LINE
8
0
10
192.0
20
-45.41626
30
-173.20508
11
194.0
21
-43.582153
31
-173.20508
0
LINE
8
0
10
192.0
20
54.58374
30
-173.20508
11
194.0
21
56.417847
31
-173.20508
0
LINE
8
0
10
194.0
20
-43.582153
30
-173.20508
11
196.0
21
-42.478943
31
-173.20508
0
LINE
8
0
10
194.0
20
56.417847
30
-173.20508
11
196.0
21
57.521057
31
-173.20508
0
LINE
8
0
10
196.0
20
-42.478943
30
-173.20508
11
198.0
21
-42.19055
31
-173.20508
0
LINE
8
0
10
196.0
20
57.521057
30
-173.20508
11
198.0
21
57.80945
31
-173.20508
0
LINE
8
0
10
198.0
20
-42.19055
30
-173.20508
11
200.0
21
-42.723083
31
-173.20508
0
LINE
8
0
10
198.0
20
57.80945
30
-173.20508
11
200.0
21
57.276917
31
-173.20508
0
LINE
8
0
10
200.0
20
-42.723083
30
-173.20508
11
202.0
21
-44.07196
31
-173.20508
0
LINE
8
0
10
200.0
20
57.276917
30
-173.20508
11
202.0
21
55.92804
31
-173.20508
0
LINE
8
0
10
202.0
20
-44.07196
30
-173.20508
11
204.0
21
-46.159363
31
-173.20508
0
LINE
8
0
10
202.0
20
55.92804
30
-173.20508
11
204.0
21
53.840637
31
-173.20508
0
LINE
8
0
10
204.0
20
-46.159363
30
-173.20508
11
206.0
21
-48.654175
31
-173.20508
0
LINE
8
0
10
204.0
20
53.840637
30
-173.20508
11
206.0
21
51.345825
31
-173.20508
0
LINE
8
0
10
206.0
20
-48.654175
30
-173.20508
11
208.0
21
-51.420593
31
-173.20508
0
LINE
8
0
10
206.0
20
51.345825
30
-173.20508
11
208.0
21
48.579407
31
-173.20508
0
LINE
8
0
10
208.0
20
-51.420593
30
-173.20508
11
210.0
21
-54.05121
31
-173.20508
0
LINE
8
0
10
208.0
20
48.579407
30
-173.20508
11
210.0
21
45.94879
31
-173.20508
0
LINE
8
0
10
210.0
20
-54.05121
30
-173.20508
11
212.0
21
-56.170654
31
-173.20508
0
LINE
8
0
10
210.0
20
45.94879
30
-173.20508
11
212.0
21
43.829346
31
-173.20508
0
LINE
8
0
10
212.0
20
-56.170654
30
-173.20508
11
214.0
21
-57.57141
31
-173.20508
0
LINE
8
0
10
212.0
20
43.829346
30
-173.20508
11
214.0
21
42.42859
31
-173.20508
0
LINE
8
0
10
214.0
20
-57.57141
30
-173.20508
11
216.0
21
-58.039856
31
-173.20508
0
LINE
8
0
10
214.0
20
42.42859
30
-173.20508
11
216.0
21
41.960144
31
-173.20508
0
LINE
8
0
10
216.0
20
-58.039856
30
-173.20508
11
218.0
21
-57.551575
31
-173.20508
0
LINE
8
0
10
216.0
20
41.960144
30
-173.20508
11
218.0
21
42.448425
31
-173.20508
0
LINE
8
0
10
218.0
20
-57.551575
30
-173.20508
11
220.0
21
-56.26526
31
-173.20508
0
LINE
8
0
10
218.0
20
42.448425
30
-173.20508
11
220.0
21
43.73474
31
-173.20508
0
LINE
8
0
10
220.0
20
-56.26526
30
-173.20508
11
222.0
21
-54.28772
31
-173.20508
0
LINE
8
0
10
220.0
20
43.73474
30
-173.20508
11
222.0
21
45.71228
31
-173.20508
0
LINE
8
0
10
222.0
20
-54.28772
30
-173.20508
11
224.0
21
-51.853943
31
-173.20508
0
LINE
8
0
10
222.0
20
45.71228
30
-173.20508
11
224.0
21
48.146057
31
-173.20508
0
LINE
8
0
10
224.0
20
-51.853943
30
-173.20508
11
226.0
21
-49.261475
31
-173.20508
0
LINE
8
0
10
224.0
20
48.146057
30
-173.20508
11
226.0
21
50.738525
31
-173.20508
0
LINE
8
0
10
226.0
20
-49.261475
30
-173.20508
11
228.0
21
-46.748352
31
-173.20508
0
LINE
8
0
10
226.0
20
50.738525
30
-173.20508
11
228.0
21
53.251648
31
-173.20508
0
LINE
8
0
10
228.0
20
-46.748352
30
-173.20508
11
230.0
21
-44.589233
31
-173.20508
0
LINE
8
0
10
228.0
20
53.251648
30
-173.20508
11
230.0
21
55.410767
31
-173.20508
0
LINE
8
0
10
230.0
20
-44.589233
30
-173.20508
11
232.0
21
-43.08014
31
-173.20508
0
LINE
8
0
10
230.0
20
55.410767
30
-173.20508
11
232.0
21
56.91986
31
-173.20508
0
LINE
8
0
10
232.0
20
-43.08014
30
-173.20508
11
234.0
21
-42.29431
31
-173.20508
0
LINE
8
0
10
232.0
20
56.91986
30
-173.20508
11
234.0
21
57.70569
31
-173.20508
0
LINE
8
0
10
234.0
20
-42.29431
30
-173.20508
11
236.0
21
-42.352295
31
-173.20508
0
LINE
8
0
10
234.0
20
57.70569
30
-173.20508
11
236.0
21
57.647705
31
-173.20508
0
LINE
8
0
10
236.0
20
-42.352295
30
-173.20508
11
238.0
21
-43.273926
31
-173.20508
0
LINE
8
0
10
236.0
20
57.647705
30
-173.20508
11
238.0
21
56.726074
31
-173.20508
0
LINE
8
0
10
238.0
20
-43.273926
30
-173.20508
11
240.0
21
-44.898987
31
-173.20508
0
LINE
8
0
10
238.0
20
56.726074
30
-173.20508
11
240.0
21
55.101013
31
-173.20508
0
LINE
8
0
10
240.0
20
-44.898987
30
-173.20508
11
242.0
21
-47.148132
31
-173.20508
0
LINE
8
0
10
240.0
20
55.101013
30
-173.20508
11
242.0
21
52.851868
31
-173.20508
0
LINE
8
0
10
242.0
20
-47.148132
30
-173.20508
11
244.0
21
-49.838257
31
-173.20508
0
LINE
8
0
10
242.0
20
52.851868
30
-173.20508
11
244.0
21
50.161743
31
-173.20508
0
LINE
8
0
10
244.0
20
-49.838257
30
-173.20508
11
246.0
21
-52.500916
31
-173.20508
0
LINE
8
0
10
244.0
20
50.161743
30
-173.20508
11
246.0
21
47.499084
31
-173.20508
0
LINE
8
0
10
246.0
20
-52.500916
30
-173.20508
11
248.0
21
-54.91638
31
-173.20508
0
LINE
8
0
10
246.0
20
47.499084
30
-173.20508
11
248.0
21
45.08362
31
-173.20508
0
LINE
8
0
10
248.0
20
-54.91638
30
-173.20508
11
250.0
21
-56.723022
31
-173.20508
0
LINE
8
0
10
248.0
20
45.08362
30
-173.20508
11
250.0
21
43.276978
31
-173.20508
0
LINE
8
0
10
250.0
20
-56.723022
30
-173.20508
11
252.0
21
-57.707214
31
-173.20508
0
LINE
8
0
10
250.0
20
43.276978
30
-173.20508
11
252.0
21
42.292786
31
-173.20508
0
LINE
8
0
10
252.0
20
-57.707214
30
-173.20508
11
254.0
21
-57.858276
31
-173.20508
0
LINE
8
0
10
252.0
20
42.292786
30
-173.20508
11
254.0
21
42.141724
31
-173.20508
0
ENDSEC
0
EOF
