0
SECTION
2
ENTITIES
0
LINE
8
0
10
-256.0
20
-50.59662
30
-173.20508
11
-254.0
21
-50.01068
31
-173.20508
0
LINE
8
0
10
-256.0
20
49.40338
30
-173.20508
11
-254.0
21
49.98932
31
-173.20508
0
LINE
8
0
10
-254.0
20
-50.01068
30
-173.20508
11
-252.0
21
-49.3042
31
-173.20508
0
LINE
8
0
10
-254.0
20
49.98932
30
-173.20508
11
-252.0
21
50.6958
31
-173.20508
0
LINE
8
0
10
-252.0
20
-49.3042
30
-173.20508
11
-250.0
21
-48.84796
31
-173.20508
0
LINE
8
0
10
-252.0
20
50.6958
30
-173.20508
11
-250.0
21
51.15204
31
-173.20508
0
LINE
8
0
10
-250.0
20
-48.84796
30
-173.20508
11
-248.0
21
-48.954773
31
-173.20508
0
LINE
8
0
10
-250.0
20
51.15204
30
-173.20508
11
-248.0
21
51.045227
31
-173.20508
0
LINE
8
0
10
-248.0
20
-48.954773
30
-173.20508
11
-246.0
21
-49.012756
31
-173.20508
0
LINE
8
0
10
-248.0
20
51.045227
30
-173.20508
11
-246.0
21
50.987244
31
-173.20508
0
LINE
8
0
10
-246.0
20
-49.012756
30
-173.20508
11
-244.0
21
-49.082947
31
-173.20508
0
LINE
8
0
10
-246.0
20
50.987244
30
-173.20508
11
-244.0
21
50.917053
31
-173.20508
0
LINE
8
0
10
-244.0
20
-49.082947
30
-173.20508
11
-242.0
21
-49.639893
31
-173.20508
0
LINE
8
0
10
-244.0
20
50.917053
30
-173.20508
11
-242.0
21
50.360107
31
-173.20508
0
LINE
8
0
10
-242.0
20
-49.639893
30
-173.20508
11
-240.0
21
-50.21515
31
-173.20508
0
LINE
8
0
10
-242.0
20
50.360107
30
-173.20508
11
-240.0
21
49.78485
31
-173.20508
0
LINE
8
0
10
-240.0
20
-50.21515
30
-173.20508
11
-238.0
21
-50.675964
31
-173.20508
0
LINE
8
0
10
-240.0
20
49.78485
30
-173.20508
11
-238.0
21
49.324036
31
-173.20508
0
LINE
8
0
10
-238.0
20
-50.675964
30
-173.20508
11
-236.0
21
-51.298523
31
-173.20508
0
LINE
8
0
10
-238.0
20
49.324036
30
-173.20508
11
-236.0
21
48.701477
31
-173.20508
0
LINE
8
0
10
-236.0
20
-51.298523
30
-173.20508
11
-234.0
21
-51.530457
31
-173.20508
0
LINE
8
0
10
-236.0
20
48.701477
30
-173.20508
11
-234.0
21
48.469543
31
-173.20508
0
LINE
8
0
10
-234.0
20
-51.530457
30
-173.20508
11
-232.0
21
-51.15204
31
-173.20508
0
LINE
8
0
10
-234.0
20
48.469543
30
-173.20508
11
-232.0
21
48.84796
31
-173.20508
0
LINE
8
0
10
-232.0
20
-51.15204
30
-173.20508
11
-230.0
21
-50.775146
31
-173.20508
0
LINE
8
0
10
-232.0
20
48.84796
30
-173.20508
11
-230.0
21
49.224854
31
-173.20508
0
LINE
8
0
10
-230.0
20
-50.775146
30
-173.20508
11
-228.0
21
-50.07782
31
-173.20508
0
LINE
8
0
10
-230.0
20
49.224854
30
-173.20508
11
-228.0
21
49.92218
31
-173.20508
0
LINE
8
0
10
-228.0
20
-50.07782
30
-173.20508
11
-226.0
21
-49.29657
31
-173.20508
0
LINE
8
0
10
-228.0
20
49.92218
30
-173.20508
11
-226.0
21
50.70343
31
-173.20508
0
LINE
8
0
10
-226.0
20
-49.29657
30
-173.20508
11
-224.0
21
-48.67859
31
-173.20508
0
LINE
8
0
10
-226.0
20
50.70343
30
-173.20508
11
-224.0
21
51.32141
31
-173.20508
0
LINE
8
0
10
-224.0
20
-48.67859
30
-173.20508
11
-222.0
21
-48.487854
31
-173.20508
0
LINE
8
0
10
-224.0
20
51.32141
30
-173.20508
11
-222.0
21
51.512146
31
-173.20508
0
LINE
8
0
10
-222.0
20
-48.487854
30
-173.20508
11
-220.0
21
-48.658752
31
-173.20508
0
LINE
8
0
10
-222.0
20
51.512146
30
-173.20508
11
-220.0
21
51.341248
31
-173.20508
0
LINE
8
0
10
-220.0
20
-48.658752
30
-173.20508
11
-218.0
21
-49.08905
31
-173.20508
0
LINE
8
0
10
-220.0
20
51.341248
30
-173.20508
11
-218.0
21
50.91095
31
-173.20508
0
LINE
8
0
10
-218.0
20
-49.08905
30
-173.20508
11
-216.0
21
-49.650574
31
-173.20508
0
LINE
8
0
10
-218.0
20
50.91095
30
-173.20508
11
-216.0
21
50.349426
31
-173.20508
0
LINE
8
0
10
-216.0
20
-49.650574
30
-173.20508
11
-214.0
21
-50.3067
31
-173.20508
0
LINE
8
0
10
-216.0
20
50.349426
30
-173.20508
11
-214.0
21
49.6933
31
-173.20508
0
LINE
8
0
10
-214.0
20
-50.3067
30
-173.20508
11
-212.0
21
-50.878906
31
-173.20508
0
LINE
8
0
10
-214.0
20
49.6933
30
-173.20508
11
-212.0
21
49.121094
31
-173.20508
0
LINE
8
0
10
-212.0
20
-50.878906
30
-173.20508
11
-210.0
21
-51.106262
31
-173.20508
0
LINE
8
0
10
-212.0
20
49.121094
30
-173.20508
11
-210.0
21
48.893738
31
-173.20508
0
LINE
8
0
10
-210.0
20
-51.106262
30
-173.20508
11
-208.0
21
-51.628113
31
-173.20508
0
LINE
8
0
10
-210.0
20
48.893738
30
-173.20508
11
-208.0
21
48.371887
31
-173.20508
0
LINE
8
0
10
-208.0
20
-51.628113
30
-173.20508
11
-206.0
21
-51.741028
31
-173.20508
0
LINE
8
0
10
-208.0
20
48.371887
30
-173.20508
11
-206.0
21
48.258972
31
-173.20508
0
LINE
8
0
10
-206.0
20
-51.741028
30
-173.20508
11
-204.0
21
-51.18103
31
-173.20508
0
LINE
8
0
10
-206.0
20
48.258972
30
-173.20508
11
-204.0
21
48.81897
31
-173.20508
0
LINE
8
0
10
-204.0
20
-51.18103
30
-173.20508
11
-202.0
21
-50.4364
31
-173.20508
0
LINE
8
0
10
-204.0
20
48.81897
30
-173.20508
11
-202.0
21
49.5636
31
-173.20508
0
LINE
8
0
10
-202.0
20
-50.4364
30
-173.20508
11
-200.0
21
-49.264526
31
-173.20508
0
LINE
8
0
10
-202.0
20
49.5636
30
-173.20508
11
-200.0
21
50.735474
31
-173.20508
0
LINE
8
0
10
-200.0
20
-49.264526
30
-173.20508
11
-198.0
21
-48.42987
31
-173.20508
0
LINE
8
0
10
-200.0
20
50.735474
30
-173.20508
11
-198.0
21
51.57013
31
-173.20508
0
LINE
8
0
10
-198.0
20
-48.42987
30
-173.20508
11
-196.0
21
-48.25592
31
-173.20508
0
LINE
8
0
10
-198.0
20
51.57013
30
-173.20508
11
-196.0
21
51.74408
31
-173.20508
0
LINE
8
0
10
-196.0
20
-48.25592
30
-173.20508
11
-194.0
21
-48.468018
31
-173.20508
0
LINE
8
0
10
-196.0
20
51.74408
30
-173.20508
11
-194.0
21
51.531982
31
-173.20508
0
LINE
8
0
10
-194.0
20
-48.468018
30
-173.20508
11
-192.0
21
-48.79608
31
-173.20508
0
LINE
8
0
10
-194.0
20
51.531982
30
-173.20508
11
-192.0
21
51.20392
31
-173.20508
0
LINE
8
0
10
-192.0
20
-48.79608
30
-173.20508
11
-190.0
21
-49.42627
31
-173.20508
0
LINE
8
0
10
-192.0
20
51.20392
30
-173.20508
11
-190.0
21
50.57373
31
-173.20508
0
LINE
8
0
10
-190.0
20
-49.42627
30
-173.20508
11
-188.0
21
-50.071716
31
-173.20508
0
LINE
8
0
10
-190.0
20
50.57373
30
-173.20508
11
-188.0
21
49.928284
31
-173.20508
0
LINE
8
0
10
-188.0
20
-50.071716
30
-173.20508
11
-186.0
21
-50.59967
31
-173.20508
0
LINE
8
0
10
-188.0
20
49.928284
30
-173.20508
11
-186.0
21
49.40033
31
-173.20508
0
LINE
8
0
10
-186.0
20
-50.59967
30
-173.20508
11
-184.0
21
-51.338196
31
-173.20508
0
LINE
8
0
10
-186.0
20
49.40033
30
-173.20508
11
-184.0
21
48.661804
31
-173.20508
0
LINE
8
0
10
-184.0
20
-51.338196
30
-173.20508
11
-182.0
21
-51.826477
31
-173.20508
0
LINE
8
0
10
-184.0
20
48.661804
30
-173.20508
11
-182.0
21
48.173523
31
-173.20508
0
LINE
8
0
10
-182.0
20
-51.826477
30
-173.20508
11
-180.0
21
-51.800537
31
-173.20508
0
LINE
8
0
10
-182.0
20
48.173523
30
-173.20508
11
-180.0
21
48.199463
31
-173.20508
0
LINE
8
0
10
-180.0
20
-51.800537
30
-173.20508
11
-178.0
21
-51.545715
31
-173.20508
0
LINE
8
0
10
-180.0
20
48.199463
30
-173.20508
11
-178.0
21
48.454285
31
-173.20508
0
LINE
8
0
10
-178.0
20
-51.545715
30
-173.20508
11
-176.0
21
-50.927734
31
-173.20508
0
LINE
8
0
10
-178.0
20
48.454285
30
-173.20508
11
-176.0
21
49.072266
31
-173.20508
0
LINE
8
0
10
-176.0
20
-50.927734
30
-173.20508
11
-174.0
21
-49.73297
31
-173.20508
0
LINE
8
0
10
-176.0
20
49.072266
30
-173.20508
11
-174.0
21
50.26703
31
-173.20508
0
LINE
8
0
10
-174.0
20
-49.73297
30
-173.20508
11
-172.0
21
-48.789978
31
-173.20508
0
LINE
8
0
10
-174.0
20
50.26703
30
-173.20508
11
-172.0
21
51.210022
31
-173.20508
0
LINE
8
0
10
-172.0
20
-48.789978
30
-173.20508
11
-170.0
21
-48.213196
31
-173.20508
0
LINE
8
0
10
-172.0
20
51.210022
30
-173.20508
11
-170.0
21
51.786804
31
-173.20508
0
LINE
8
0
10
-170.0
20
-48.213196
30
-173.20508
11
-168.0
21
-48.057556
31
-173.20508
0
LINE
8
0
10
-170.0
20
51.786804
30
-173.20508
11
-168.0
21
51.942444
31
-173.20508
0
LINE
8
0
10
-168.0
20
-48.057556
30
-173.20508
11
-166.0
21
-48.461914
31
-173.20508
0
LINE
8
0
10
-168.0
20
51.942444
30
-173.20508
11
-166.0
21
51.538086
31
-173.20508
0
LINE
8
0
10
-166.0
20
-48.461914
30
-173.20508
11
-164.0
21
-49.07837
31
-173.20508
0
LINE
8
0
10
-166.0
20
51.538086
30
-173.20508
11
-164.0
21
50.92163
31
-173.20508
0
LINE
8
0
10
-164.0
20
-49.07837
30
-173.20508
11
-162.0
21
-49.801636
31
-173.20508
0
LINE
8
0
10
-164.0
20
50.92163
30
-173.20508
11
-162.0
21
50.198364
31
-173.20508
0
LINE
8
0
10
-162.0
20
-49.801636
30
-173.20508
11
-160.0
21
-50.357056
31
-173.20508
0
LINE
8
0
10
-162.0
20
50.198364
30
-173.20508
11
-160.0
21
49.642944
31
-173.20508
0
LINE
8
0
10
-160.0
20
-50.357056
30
-173.20508
11
-158.0
21
-51.023865
31
-173.20508
0
LINE
8
0
10
-160.0
20
49.642944
30
-173.20508
11
-158.0
21
48.976135
31
-173.20508
0
LINE
8
0
10
-158.0
20
-51.023865
30
-173.20508
11
-156.0
21
-51.608276
31
-173.20508
0
LINE
8
0
10
-158.0
20
48.976135
30
-173.20508
11
-156.0
21
48.391724
31
-173.20508
0
LINE
8
0
10
-156.0
20
-51.608276
30
-173.20508
11
-154.0
21
-52.056885
31
-173.20508
0
LINE
8
0
10
-156.0
20
48.391724
30
-173.20508
11
-154.0
21
47.943115
31
-173.20508
0
LINE
8
0
10
-154.0
20
-52.056885
30
-173.20508
11
-152.0
21
-51.9516
31
-173.20508
0
LINE
8
0
10
-154.0
20
47.943115
30
-173.20508
11
-152.0
21
48.0484
31
-173.20508
0
LINE
8
0
10
-152.0
20
-51.9516
30
-173.20508
11
-150.0
21
-51.315308
31
-173.20508
0
LINE
8
0
10
-152.0
20
48.0484
30
-173.20508
11
-150.0
21
48.684692
31
-173.20508
0
LINE
8
0
10
-150.0
20
-51.315308
30
-173.20508
11
-148.0
21
-50.27008
31
-173.20508
0
LINE
8
0
10
-150.0
20
48.684692
30
-173.20508
11
-148.0
21
49.72992
31
-173.20508
0
LINE
8
0
10
-148.0
20
-50.27008
30
-173.20508
11
-146.0
21
-48.98224
31
-173.20508
0
LINE
8
0
10
-148.0
20
49.72992
30
-173.20508
11
-146.0
21
51.01776
31
-173.20508
0
LINE
8
0
10
-146.0
20
-48.98224
30
-173.20508
11
-144.0
21
-48.33374
31
-173.20508
0
LINE
8
0
10
-146.0
20
51.01776
30
-173.20508
11
-144.0
21
51.66626
31
-173.20508
0
LINE
8
0
10
-144.0
20
-48.33374
30
-173.20508
11
-142.0
21
-48.147583
31
-173.20508
0
LINE
8
0
10
-144.0
20
51.66626
30
-173.20508
11
-142.0
21
51.852417
31
-173.20508
0
LINE
8
0
10
-142.0
20
-48.147583
30
-173.20508
11
-140.0
21
-48.30475
31
-173.20508
0
LINE
8
0
10
-142.0
20
51.852417
30
-173.20508
11
-140.0
21
51.69525
31
-173.20508
0
LINE
8
0
10
-140.0
20
-48.30475
30
-173.20508
11
-138.0
21
-48.945618
31
-173.20508
0
LINE
8
0
10
-140.0
20
51.69525
30
-173.20508
11
-138.0
21
51.054382
31
-173.20508
0
LINE
8
0
10
-138.0
20
-48.945618
30
-173.20508
11
-136.0
21
-49.362183
31
-173.20508
0
LINE
8
0
10
-138.0
20
51.054382
30
-173.20508
11
-136.0
21
50.637817
31
-173.20508
0
LINE
8
0
10
-136.0
20
-49.362183
30
-173.20508
11
-134.0
21
-49.91913
31
-173.20508
0
LINE
8
0
10
-136.0
20
50.637817
30
-173.20508
11
-134.0
21
50.08087
31
-173.20508
0
LINE
8
0
10
-134.0
20
-49.91913
30
-173.20508
11
-132.0
21
-50.856018
31
-173.20508
0
LINE
8
0
10
-134.0
20
50.08087
30
-173.20508
11
-132.0
21
49.143982
31
-173.20508
0
LINE
8
0
10
-132.0
20
-50.856018
30
-173.20508
11
-130.0
21
-51.564026
31
-173.20508
0
LINE
8
0
10
-132.0
20
49.143982
30
-173.20508
11
-130.0
21
48.435974
31
-173.20508
0
LINE
8
0
10
-130.0
20
-51.564026
30
-173.20508
11
-128.0
21
-52.06909
31
-173.20508
0
LINE
8
0
10
-130.0
20
48.435974
30
-173.20508
11
-128.0
21
47.93091
31
-173.20508
0
LINE
8
0
10
-128.0
20
-52.06909
30
-173.20508
11
-126.0
21
-52.104187
31
-173.20508
0
LINE
8
0
10
-128.0
20
47.93091
30
-173.20508
11
-126.0
21
47.895813
31
-173.20508
0
LINE
8
0
10
-126.0
20
-52.104187
30
-173.20508
11
-124.0
21
-51.472473
31
-173.20508
0
LINE
8
0
10
-126.0
20
47.895813
30
-173.20508
11
-124.0
21
48.527527
31
-173.20508
0
LINE
8
0
10
-124.0
20
-51.472473
30
-173.20508
11
-122.0
21
-50.639343
31
-173.20508
0
LINE
8
0
10
-124.0
20
48.527527
30
-173.20508
11
-122.0
21
49.360657
31
-173.20508
0
LINE
8
0
10
-122.0
20
-50.639343
30
-173.20508
11
-120.0
21
-49.74518
31
-173.20508
0
LINE
8
0
10
-122.0
20
49.360657
30
-173.20508
11
-120.0
21
50.25482
31
-173.20508
0
LINE
8
0
10
-120.0
20
-49.74518
30
-173.20508
11
-118.0
21
-48.892212
31
-173.20508
0
LINE
8
0
10
-120.0
20
50.25482
30
-173.20508
11
-118.0
21
51.107788
31
-173.20508
0
LINE
8
0
10
-118.0
20
-48.892212
30
-173.20508
11
-116.0
21
-48.3078
31
-173.20508
0
LINE
8
0
10
-118.0
20
51.107788
30
-173.20508
11
-116.0
21
51.6922
31
-173.20508
0
LINE
8
0
10
-116.0
20
-48.3078
30
-173.20508
11
-114.0
21
-48.10486
31
-173.20508
0
LINE
8
0
10
-116.0
20
51.6922
30
-173.20508
11
-114.0
21
51.89514
31
-173.20508
0
LINE
8
0
10
-114.0
20
-48.10486
30
-173.20508
11
-112.0
21
-48.181152
31
-173.20508
0
LINE
8
0
10
-114.0
20
51.89514
30
-173.20508
11
-112.0
21
51.818848
31
-173.20508
0
LINE
8
0
10
-112.0
20
-48.181152
30
-173.20508
11
-110.0
21
-48.693848
31
-173.20508
0
LINE
8
0
10
-112.0
20
51.818848
30
-173.20508
11
-110.0
21
51.306152
31
-173.20508
0
LINE
8
0
10
-110.0
20
-48.693848
30
-173.20508
11
-108.0
21
-49.635315
31
-173.20508
0
LINE
8
0
10
-110.0
20
51.306152
30
-173.20508
11
-108.0
21
50.364685
31
-173.20508
0
LINE
8
0
10
-108.0
20
-49.635315
30
-173.20508
11
-106.0
21
-50.5661
31
-173.20508
0
LINE
8
0
10
-108.0
20
50.364685
30
-173.20508
11
-106.0
21
49.4339
31
-173.20508
0
LINE
8
0
10
-106.0
20
-50.5661
30
-173.20508
11
-104.0
21
-51.41754
31
-173.20508
0
LINE
8
0
10
-106.0
20
49.4339
30
-173.20508
11
-104.0
21
48.58246
31
-173.20508
0
LINE
8
0
10
-104.0
20
-51.41754
30
-173.20508
11
-102.0
21
-51.997375
31
-173.20508
0
LINE
8
0
10
-104.0
20
48.58246
30
-173.20508
11
-102.0
21
48.002625
31
-173.20508
0
LINE
8
0
10
-102.0
20
-51.997375
30
-173.20508
11
-100.0
21
-52.082825
31
-173.20508
0
LINE
8
0
10
-102.0
20
48.002625
30
-173.20508
11
-100.0
21
47.917175
31
-173.20508
0
LINE
8
0
10
-100.0
20
-52.082825
30
-173.20508
11
-98.0
21
-51.890564
31
-173.20508
0
LINE
8
0
10
-100.0
20
47.917175
30
-173.20508
11
-98.0
21
48.109436
31
-173.20508
0
LINE
8
0
10
-98.0
20
-51.890564
30
-173.20508
11
-96.0
21
-51.119995
31
-173.20508
0
LINE
8
0
10
-98.0
20
48.109436
30
-173.20508
11
-96.0
21
48.880005
31
-173.20508
0
LINE
8
0
10
-96.0
20
-51.119995
30
-173.20508
11
-94.0
21
-50.143433
31
-173.20508
0
LINE
8
0
10
-96.0
20
48.880005
30
-173.20508
11
-94.0
21
49.856567
31
-173.20508
0
LINE
8
0
10
-94.0
20
-50.143433
30
-173.20508
11
-92.0
21
-49.143982
31
-173.20508
0
LINE
8
0
10
-94.0
20
49.856567
30
-173.20508
11
-92.0
21
50.856018
31
-173.20508
0
LINE
8
0
10
-92.0
20
-49.143982
30
-173.20508
11
-90.0
21
-48.309326
31
-173.20508
0
LINE
8
0
10
-92.0
20
50.856018
30
-173.20508
11
-90.0
21
51.690674
31
-173.20508
0
LINE
8
0
10
-90.0
20
-48.309326
30
-173.20508
11
-88.0
21
-47.991943
31
-173.20508
0
LINE
8
0
10
-90.0
20
51.690674
30
-173.20508
11
-88.0
21
52.008057
31
-173.20508
0
LINE
8
0
10
-88.0
20
-47.991943
30
-173.20508
11
-86.0
21
-48.010254
31
-173.20508
0
LINE
8
0
10
-88.0
20
52.008057
30
-173.20508
11
-86.0
21
51.989746
31
-173.20508
0
LINE
8
0
10
-86.0
20
-48.010254
30
-173.20508
11
-84.0
21
-48.49701
31
-173.20508
0
LINE
8
0
10
-86.0
20
51.989746
30
-173.20508
11
-84.0
21
51.50299
31
-173.20508
0
LINE
8
0
10
-84.0
20
-48.49701
30
-173.20508
11
-82.0
21
-49.13788
31
-173.20508
0
LINE
8
0
10
-84.0
20
51.50299
30
-173.20508
11
-82.0
21
50.86212
31
-173.20508
0
LINE
8
0
10
-82.0
20
-49.13788
30
-173.20508
11
-80.0
21
-49.946594
31
-173.20508
0
LINE
8
0
10
-82.0
20
50.86212
30
-173.20508
11
-80.0
21
50.053406
31
-173.20508
0
LINE
8
0
10
-80.0
20
-49.946594
30
-173.20508
11
-78.0
21
-50.86212
31
-173.20508
0
LINE
8
0
10
-80.0
20
50.053406
30
-173.20508
11
-78.0
21
49.13788
31
-173.20508
0
LINE
8
0
10
-78.0
20
-50.86212
30
-173.20508
11
-76.0
21
-51.722717
31
-173.20508
0
LINE
8
0
10
-78.0
20
49.13788
30
-173.20508
11
-76.0
21
48.277283
31
-173.20508
0
LINE
8
0
10
-76.0
20
-51.722717
30
-173.20508
11
-74.0
21
-52.33307
31
-173.20508
0
LINE
8
0
10
-76.0
20
48.277283
30
-173.20508
11
-74.0
21
47.66693
31
-173.20508
0
LINE
8
0
10
-74.0
20
-52.33307
30
-173.20508
11
-72.0
21
-52.418518
31
-173.20508
0
LINE
8
0
10
-74.0
20
47.66693
30
-173.20508
11
-72.0
21
47.581482
31
-173.20508
0
LINE
8
0
10
-72.0
20
-52.418518
30
-173.20508
11
-70.0
21
-51.70746
31
-173.20508
0
LINE
8
0
10
-72.0
20
47.581482
30
-173.20508
11
-70.0
21
48.29254
31
-173.20508
0
LINE
8
0
10
-70.0
20
-51.70746
30
-173.20508
11
-68.0
21
-50.55847
31
-173.20508
0
LINE
8
0
10
-70.0
20
48.29254
30
-173.20508
11
-68.0
21
49.44153
31
-173.20508
0
LINE
8
0
10
-68.0
20
-50.55847
30
-173.20508
11
-66.0
21
-49.224854
31
-173.20508
0
LINE
8
0
10
-68.0
20
49.44153
30
-173.20508
11
-66.0
21
50.775146
31
-173.20508
0
LINE
8
0
10
-66.0
20
-49.224854
30
-173.20508
11
-64.0
21
-48.10028
31
-173.20508
0
LINE
8
0
10
-66.0
20
50.775146
30
-173.20508
11
-64.0
21
51.89972
31
-173.20508
0
LINE
8
0
10
-64.0
20
-48.10028
30
-173.20508
11
-62.0
21
-47.65625
31
-173.20508
0
LINE
8
0
10
-64.0
20
51.89972
30
-173.20508
11
-62.0
21
52.34375
31
-173.20508
0
LINE
8
0
10
-62.0
20
-47.65625
30
-173.20508
11
-60.0
21
-47.789
31
-173.20508
0
LINE
8
0
10
-62.0
20
52.34375
30
-173.20508
11
-60.0
21
52.211
31
-173.20508
0
LINE
8
0
10
-60.0
20
-47.789
30
-173.20508
11
-58.0
21
-48.24829
31
-173.20508
0
LINE
8
0
10
-60.0
20
52.211
30
-173.20508
11
-58.0
21
51.75171
31
-173.20508
0
LINE
8
0
10
-58.0
20
-48.24829
30
-173.20508
11
-56.0
21
-48.866272
31
-173.20508
0
LINE
8
0
10
-58.0
20
51.75171
30
-173.20508
11
-56.0
21
51.133728
31
-173.20508
0
LINE
8
0
10
-56.0
20
-48.866272
30
-173.20508
11
-54.0
21
-49.598694
31
-173.20508
0
LINE
8
0
10
-56.0
20
51.133728
30
-173.20508
11
-54.0
21
50.401306
31
-173.20508
0
LINE
8
0
10
-54.0
20
-49.598694
30
-173.20508
11
-52.0
21
-50.645447
31
-173.20508
0
LINE
8
0
10
-54.0
20
50.401306
30
-173.20508
11
-52.0
21
49.354553
31
-173.20508
0
LINE
8
0
10
-52.0
20
-50.645447
30
-173.20508
11
-50.0
21
-51.689148
31
-173.20508
0
LINE
8
0
10
-52.0
20
49.354553
30
-173.20508
11
-50.0
21
48.310852
31
-173.20508
0
LINE
8
0
10
-50.0
20
-51.689148
30
-173.20508
11
-48.0
21
-52.619934
31
-173.20508
0
LINE
8
0
10
-50.0
20
48.310852
30
-173.20508
11
-48.0
21
47.380066
31
-173.20508
0
LINE
8
0
10
-48.0
20
-52.619934
30
-173.20508
11
-46.0
21
-52.94342
31
-173.20508
0
LINE
8
0
10
-48.0
20
47.380066
30
-173.20508
11
-46.0
21
47.05658
31
-173.20508
0
LINE
8
0
10
-46.0
20
-52.94342
30
-173.20508
11
-44.0
21
-52.29187
31
-173.20508
0
LINE
8
0
10
-46.0
20
47.05658
30
-173.20508
11
-44.0
21
47.70813
31
-173.20508
0
LINE
8
0
10
-44.0
20
-52.29187
30
-173.20508
11
-42.0
21
-50.75226
31
-173.20508
0
LINE
8
0
10
-44.0
20
47.70813
30
-173.20508
11
-42.0
21
49.24774
31
-173.20508
0
LINE
8
0
10
-42.0
20
-50.75226
30
-173.20508
11
-40.0
21
-49.279785
31
-173.20508
0
LINE
8
0
10
-42.0
20
49.24774
30
-173.20508
11
-40.0
21
50.720215
31
-173.20508
0
LINE
8
0
10
-40.0
20
-49.279785
30
-173.20508
11
-38.0
21
-48.028564
31
-173.20508
0
LINE
8
0
10
-40.0
20
50.720215
30
-173.20508
11
-38.0
21
51.971436
31
-173.20508
0
LINE
8
0
10
-38.0
20
-48.028564
30
-173.20508
11
-36.0
21
-47.486877
31
-173.20508
0
LINE
8
0
10
-38.0
20
51.971436
30
-173.20508
11
-36.0
21
52.513123
31
-173.20508
0
LINE
8
0
10
-36.0
20
-47.486877
30
-173.20508
11
-34.0
21
-47.576904
31
-173.20508
0
LINE
8
0
10
-36.0
20
52.513123
30
-173.20508
11
-34.0
21
52.423096
31
-173.20508
0
LINE
8
0
10
-34.0
20
-47.576904
30
-173.20508
11
-32.0
21
-47.808838
31
-173.20508
0
LINE
8
0
10
-34.0
20
52.423096
30
-173.20508
11
-32.0
21
52.191162
31
-173.20508
0
LINE
8
0
10
-32.0
20
-47.808838
30
-173.20508
11
-30.0
21
-48.432922
31
-173.20508
0
LINE
8
0
10
-32.0
20
52.191162
30
-173.20508
11
-30.0
21
51.567078
31
-173.20508
0
LINE
8
0
10
-30.0
20
-48.432922
30
-173.20508
11
-28.0
21
-49.464417
31
-173.20508
0
LINE
8
0
10
-30.0
20
51.567078
30
-173.20508
11
-28.0
21
50.535583
31
-173.20508
0
LINE
8
0
10
-28.0
20
-49.464417
30
-173.20508
11
-26.0
21
-50.782776
31
-173.20508
0
LINE
8
0
10
-28.0
20
50.535583
30
-173.20508
11
-26.0
21
49.217224
31
-173.20508
0
LINE
8
0
10
-26.0
20
-50.782776
30
-173.20508
11
-24.0
21
-52.075195
31
-173.20508
0
LINE
8
0
10
-26.0
20
49.217224
30
-173.20508
11
-24.0
21
47.924805
31
-173.20508
0
LINE
8
0
10
-24.0
20
-52.075195
30
-173.20508
11
-22.0
21
-52.915955
31
-173.20508
0
LINE
8
0
10
-24.0
20
47.924805
30
-173.20508
11
-22.0
21
47.084045
31
-173.20508
0
LINE
8
0
10
-22.0
20
-52.915955
30
-173.20508
11
-20.0
21
-53.086853
31
-173.20508
0
LINE
8
0
10
-22.0
20
47.084045
30
-173.20508
11
-20.0
21
46.913147
31
-173.20508
0
LINE
8
0
10
-20.0
20
-53.086853
30
-173.20508
11
-18.0
21
-52.287292
31
-173.20508
0
LINE
8
0
10
-20.0
20
46.913147
30
-173.20508
11
-18.0
21
47.712708
31
-173.20508
0
LINE
8
0
10
-18.0
20
-52.287292
30
-173.20508
11
-16.0
21
-51.037598
31
-173.20508
0
LINE
8
0
10
-18.0
20
47.712708
30
-173.20508
11
-16.0
21
48.962402
31
-173.20508
0
LINE
8
0
10
-16.0
20
-51.037598
30
-173.20508
11
-14.0
21
-49.554443
31
-173.20508
0
LINE
8
0
10
-16.0
20
48.962402
30
-173.20508
11
-14.0
21
50.445557
31
-173.20508
0
LINE
8
0
10
-14.0
20
-49.554443
30
-173.20508
11
-12.0
21
-48.371887
31
-173.20508
0
LINE
8
0
10
-14.0
20
50.445557
30
-173.20508
11
-12.0
21
51.628113
31
-173.20508
0
LINE
8
0
10
-12.0
20
-48.371887
30
-173.20508
11
-10.0
21
-47.372437
31
-173.20508
0
LINE
8
0
10
-12.0
20
51.628113
30
-173.20508
11
-10.0
21
52.627563
31
-173.20508
0
LINE
8
0
10
-10.0
20
-47.372437
30
-173.20508
11
-8.0
21
-46.868896
31
-173.20508
0
LINE
8
0
10
-10.0
20
52.627563
30
-173.20508
11
-8.0
21
53.131104
31
-173.20508
0
LINE
8
0
10
-8.0
20
-46.868896
30
-173.20508
11
-6.0
21
-47.109985
31
-173.20508
0
LINE
8
0
10
-8.0
20
53.131104
30
-173.20508
11
-6.0
21
52.890015
31
-173.20508
0
LINE
8
0
10
-6.0
20
-47.109985
30
-173.20508
11
-4.0
21
-47.927856
31
-173.20508
0
LINE
8
0
10
-6.0
20
52.890015
30
-173.20508
11
-4.0
21
52.072144
31
-173.20508
0
LINE
8
0
10
-4.0
20
-47.927856
30
-173.20508
11
-2.0
21
-49.20349
31
-173.20508
0
LINE
8
0
10
-4.0
20
52.072144
30
-173.20508
11
-2.0
21
50.79651
31
-173.20508
0
LINE
8
0
10
-2.0
20
-49.20349
30
-173.20508
11
0.0
21
-50.77057
31
-173.20508
0
LINE
8
0
10
-2.0
20
50.79651
30
-173.20508
11
0.0
21
49.22943
31
-173.20508
0
LINE
8
0
10
0.0
20
-50.77057
30
-173.20508
11
2.0
21
-52.078247
31
-173.20508
0
LINE
8
0
10
0.0
20
49.22943
30
-173.20508
11
2.0
21
47.921753
31
-173.20508
0
LINE
8
0
10
2.0
20
-52.078247
30
-173.20508
11
4.0
21
-53.10974
31
-173.20508
0
LINE
8
0
10
2.0
20
47.921753
30
-173.20508
11
4.0
21
46.89026
31
-173.20508
0
LINE
8
0
10
4.0
20
-53.10974
30
-173.20508
11
6.0
21
-53.503418
31
-173.20508
0
LINE
8
0
10
4.0
20
46.89026
30
-173.20508
11
6.0
21
46.496582
31
-173.20508
0
LINE
8
0
10
6.0
20
-53.503418
30
-173.20508
11
8.0
21
-53.15399
31
-173.20508
0
LINE
8
0
10
6.0
20
46.496582
30
-173.20508
11
8.0
21
46.84601
31
-173.20508
0
LINE
8
0
10
8.0
20
-53.15399
30
-173.20508
11
10.0
21
-51.76544
31
-173.20508
0
LINE
8
0
10
8.0
20
46.84601
30
-173.20508
11
10.0
21
48.23456
31
-173.20508
0
LINE
8
0
10
10.0
20
-51.76544
30
-173.20508
11
12.0
21
-49.7818
31
-173.20508
0
LINE
8
0
10
10.0
20
48.23456
30
-173.20508
11
12.0
21
50.2182
31
-173.20508
0
LINE
8
0
10
12.0
20
-49.7818
30
-173.20508
11
14.0
21
-48.03772
31
-173.20508
0
LINE
8
0
10
12.0
20
50.2182
30
-173.20508
11
14.0
21
51.96228
31
-173.20508
0
LINE
8
0
10
14.0
20
-48.03772
30
-173.20508
11
16.0
21
-46.943665
31
-173.20508
0
LINE
8
0
10
14.0
20
51.96228
30
-173.20508
11
16.0
21
53.056335
31
-173.20508
0
LINE
8
0
10
16.0
20
-46.943665
30
-173.20508
11
18.0
21
-46.435547
31
-173.20508
0
LINE
8
0
10
16.0
20
53.056335
30
-173.20508
11
18.0
21
53.564453
31
-173.20508
0
LINE
8
0
10
18.0
20
-46.435547
30
-173.20508
11
20.0
21
-46.81549
31
-173.20508
0
LINE
8
0
10
18.0
20
53.564453
30
-173.20508
11
20.0
21
53.18451
31
-173.20508
0
LINE
8
0
10
20.0
20
-46.81549
30
-173.20508
11
22.0
21
-47.613525
31
-173.20508
0
LINE
8
0
10
20.0
20
53.18451
30
-173.20508
11
22.0
21
52.386475
31
-173.20508
0
LINE
8
0
10
22.0
20
-47.613525
30
-173.20508
11
24.0
21
-48.754883
31
-173.20508
0
LINE
8
0
10
22.0
20
52.386475
30
-173.20508
11
24.0
21
51.245117
31
-173.20508
0
LINE
8
0
10
24.0
20
-48.754883
30
-173.20508
11
26.0
21
-50.27008
31
-173.20508
0
LINE
8
0
10
24.0
20
51.245117
30
-173.20508
11
26.0
21
49.72992
31
-173.20508
0
LINE
8
0
10
26.0
20
-50.27008
30
-173.20508
11
28.0
21
-51.8631
31
-173.20508
0
LINE
8
0
10
26.0
20
49.72992
30
-173.20508
11
28.0
21
48.1369
31
-173.20508
0
LINE
8
0
10
28.0
20
-51.8631
30
-173.20508
11
30.0
21
-53.11737
31
-173.20508
0
LINE
8
0
10
28.0
20
48.1369
30
-173.20508
11
30.0
21
46.88263
31
-173.20508
0
LINE
8
0
10
30.0
20
-53.11737
30
-173.20508
11
32.0
21
-53.648376
31
-173.20508
0
LINE
8
0
10
30.0
20
46.88263
30
-173.20508
11
32.0
21
46.351624
31
-173.20508
0
LINE
8
0
10
32.0
20
-53.648376
30
-173.20508
11
34.0
21
-53.49121
31
-173.20508
0
LINE
8
0
10
32.0
20
46.351624
30
-173.20508
11
34.0
21
46.50879
31
-173.20508
0
LINE
8
0
10
34.0
20
-53.49121
30
-173.20508
11
36.0
21
-52.497864
31
-173.20508
0
LINE
8
0
10
34.0
20
46.50879
30
-173.20508
11
36.0
21
47.502136
31
-173.20508
0
LINE
8
0
10
36.0
20
-52.497864
30
-173.20508
11
38.0
21
-50.77362
31
-173.20508
0
LINE
8
0
10
36.0
20
47.502136
30
-173.20508
11
38.0
21
49.22638
31
-173.20508
0
LINE
8
0
10
38.0
20
-50.77362
30
-173.20508
11
40.0
21
-48.931885
31
-173.20508
0
LINE
8
0
10
38.0
20
49.22638
30
-173.20508
11
40.0
21
51.068115
31
-173.20508
0
LINE
8
0
10
40.0
20
-48.931885
30
-173.20508
11
42.0
21
-47.225952
31
-173.20508
0
LINE
8
0
10
40.0
20
51.068115
30
-173.20508
11
42.0
21
52.774048
31
-173.20508
0
LINE
8
0
10
42.0
20
-47.225952
30
-173.20508
11
44.0
21
-46.18988
31
-173.20508
0
LINE
8
0
10
42.0
20
52.774048
30
-173.20508
11
44.0
21
53.81012
31
-173.20508
0
LINE
8
0
10
44.0
20
-46.18988
30
-173.20508
11
46.0
21
-46.0968
31
-173.20508
0
LINE
8
0
10
44.0
20
53.81012
30
-173.20508
11
46.0
21
53.9032
31
-173.20508
0
LINE
8
0
10
46.0
20
-46.0968
30
-173.20508
11
48.0
21
-46.806335
31
-173.20508
0
LINE
8
0
10
46.0
20
53.9032
30
-173.20508
11
48.0
21
53.193665
31
-173.20508
0
LINE
8
0
10
48.0
20
-46.806335
30
-173.20508
11
50.0
21
-48.114014
31
-173.20508
0
LINE
8
0
10
48.0
20
53.193665
30
-173.20508
11
50.0
21
51.885986
31
-173.20508
0
LINE
8
0
10
50.0
20
-48.114014
30
-173.20508
11
52.0
21
-49.801636
31
-173.20508
0
LINE
8
0
10
50.0
20
51.885986
30
-173.20508
11
52.0
21
50.198364
31
-173.20508
0
LINE
8
0
10
52.0
20
-49.801636
30
-173.20508
11
54.0
21
-51.385498
31
-173.20508
0
LINE
8
0
10
52.0
20
50.198364
30
-173.20508
11
54.0
21
48.614502
31
-173.20508
0
LINE
8
0
10
54.0
20
-51.385498
30
-173.20508
11
56.0
21
-52.91748
31
-173.20508
0
LINE
8
0
10
54.0
20
48.614502
30
-173.20508
11
56.0
21
47.08252
31
-173.20508
0
LINE
8
0
10
56.0
20
-52.91748
30
-173.20508
11
58.0
21
-53.967285
31
-173.20508
0
LINE
8
0
10
56.0
20
47.08252
30
-173.20508
11
58.0
21
46.032715
31
-173.20508
0
LINE
8
0
10
58.0
20
-53.967285
30
-173.20508
11
60.0
21
-54.1214
31
-173.20508
0
LINE
8
0
10
58.0
20
46.032715
30
-173.20508
11
60.0
21
45.8786
31
-173.20508
0
LINE
8
0
10
60.0
20
-54.1214
30
-173.20508
11
62.0
21
-53.302002
31
-173.20508
0
LINE
8
0
10
60.0
20
45.8786
30
-173.20508
11
62.0
21
46.697998
31
-173.20508
0
LINE
8
0
10
62.0
20
-53.302002
30
-173.20508
11
64.0
21
-51.51825
31
-173.20508
0
LINE
8
0
10
62.0
20
46.697998
30
-173.20508
11
64.0
21
48.48175
31
-173.20508
0
LINE
8
0
10
64.0
20
-51.51825
30
-173.20508
11
66.0
21
-49.365234
31
-173.20508
0
LINE
8
0
10
64.0
20
48.48175
30
-173.20508
11
66.0
21
50.634766
31
-173.20508
0
LINE
8
0
10
66.0
20
-49.365234
30
-173.20508
11
68.0
21
-47.428894
31
-173.20508
0
LINE
8
0
10
66.0
20
50.634766
30
-173.20508
11
68.0
21
52.571106
31
-173.20508
0
LINE
8
0
10
68.0
20
-47.428894
30
-173.20508
11
70.0
21
-46.14258
31
-173.20508
0
LINE
8
0
10
68.0
20
52.571106
30
-173.20508
11
70.0
21
53.85742
31
-173.20508
0
LINE
8
0
10
70.0
20
-46.14258
30
-173.20508
11
72.0
21
-45.811462
31
-173.20508
0
LINE
8
0
10
70.0
20
53.85742
30
-173.20508
11
72.0
21
54.188538
31
-173.20508
0
LINE
8
0
10
72.0
20
-45.811462
30
-173.20508
11
74.0
21
-46.40045
31
-173.20508
0
LINE
8
0
10
72.0
20
54.188538
30
-173.20508
11
74.0
21
53.59955
31
-173.20508
0
LINE
8
0
10
74.0
20
-46.40045
30
-173.20508
11
76.0
21
-47.358704
31
-173.20508
0
LINE
8
0
10
74.0
20
53.59955
30
-173.20508
11
76.0
21
52.641296
31
-173.20508
0
LINE
8
0
10
76.0
20
-47.358704
30
-173.20508
11
78.0
21
-49.009705
31
-173.20508
0
LINE
8
0
10
76.0
20
52.641296
30
-173.20508
11
78.0
21
50.990295
31
-173.20508
0
LINE
8
0
10
78.0
20
-49.009705
30
-173.20508
11
80.0
21
-50.93689
31
-173.20508
0
LINE
8
0
10
78.0
20
50.990295
30
-173.20508
11
80.0
21
49.06311
31
-173.20508
0
LINE
8
0
10
80.0
20
-50.93689
30
-173.20508
11
82.0
21
-52.641296
31
-173.20508
0
LINE
8
0
10
80.0
20
49.06311
30
-173.20508
11
82.0
21
47.358704
31
-173.20508
0
LINE
8
0
10
82.0
20
-52.641296
30
-173.20508
11
84.0
21
-54.03595
31
-173.20508
0
LINE
8
0
10
82.0
20
47.358704
30
-173.20508
11
84.0
21
45.96405
31
-173.20508
0
LINE
8
0
10
84.0
20
-54.03595
30
-173.20508
11
86.0
21
-54.48456
31
-173.20508
0
LINE
8
0
10
84.0
20
45.96405
30
-173.20508
11
86.0
21
45.51544
31
-173.20508
0
LINE
8
0
10
86.0
20
-54.48456
30
-173.20508
11
88.0
21
-53.775024
31
-173.20508
0
LINE
8
0
10
86.0
20
45.51544
30
-173.20508
11
88.0
21
46.224976
31
-173.20508
0
LINE
8
0
10
88.0
20
-53.775024
30
-173.20508
11
90.0
21
-52.15149
31
-173.20508
0
LINE
8
0
10
88.0
20
46.224976
30
-173.20508
11
90.0
21
47.84851
31
-173.20508
0
LINE
8
0
10
90.0
20
-52.15149
30
-173.20508
11
92.0
21
-49.98474
31
-173.20508
0
LINE
8
0
10
90.0
20
47.84851
30
-173.20508
11
92.0
21
50.01526
31
-173.20508
0
LINE
8
0
10
92.0
20
-49.98474
30
-173.20508
11
94.0
21
-48.05603
31
-173.20508
0
LINE
8
0
10
92.0
20
50.01526
30
-173.20508
11
94.0
21
51.94397
31
-173.20508
0
LINE
8
0
10
94.0
20
-48.05603
30
-173.20508
11
96.0
21
-46.661377
31
-173.20508
0
LINE
8
0
10
94.0
20
51.94397
30
-173.20508
11
96.0
21
53.338623
31
-173.20508
0
LINE
8
0
10
96.0
20
-46.661377
30
-173.20508
11
98.0
21
-45.93048
31
-173.20508
0
LINE
8
0
10
96.0
20
53.338623
30
-173.20508
11
98.0
21
54.06952
31
-173.20508
0
LINE
8
0
10
98.0
20
-45.93048
30
-173.20508
11
100.0
21
-45.90149
31
-173.20508
0
LINE
8
0
10
98.0
20
54.06952
30
-173.20508
11
100.0
21
54.09851
31
-173.20508
0
LINE
8
0
10
100.0
20
-45.90149
30
-173.20508
11
102.0
21
-46.64154
31
-173.20508
0
LINE
8
0
10
100.0
20
54.09851
30
-173.20508
11
102.0
21
53.35846
31
-173.20508
0
LINE
8
0
10
102.0
20
-46.64154
30
-173.20508
11
104.0
21
-48.02704
31
-173.20508
0
LINE
8
0
10
102.0
20
53.35846
30
-173.20508
11
104.0
21
51.97296
31
-173.20508
0
LINE
8
0
10
104.0
20
-48.02704
30
-173.20508
11
106.0
21
-50.097656
31
-173.20508
0
LINE
8
0
10
104.0
20
51.97296
30
-173.20508
11
106.0
21
49.902344
31
-173.20508
0
LINE
8
0
10
106.0
20
-50.097656
30
-173.20508
11
108.0
21
-52.192688
31
-173.20508
0
LINE
8
0
10
106.0
20
49.902344
30
-173.20508
11
108.0
21
47.807312
31
-173.20508
0
LINE
8
0
10
108.0
20
-52.192688
30
-173.20508
11
110.0
21
-53.86505
31
-173.20508
0
LINE
8
0
10
108.0
20
47.807312
30
-173.20508
11
110.0
21
46.13495
31
-173.20508
0
LINE
8
0
10
110.0
20
-53.86505
30
-173.20508
11
112.0
21
-54.867554
31
-173.20508
0
LINE
8
0
10
110.0
20
46.13495
30
-173.20508
11
112.0
21
45.132446
31
-173.20508
0
LINE
8
0
10
112.0
20
-54.867554
30
-173.20508
11
114.0
21
-54.65851
31
-173.20508
0
LINE
8
0
10
112.0
20
45.132446
30
-173.20508
11
114.0
21
45.34149
31
-173.20508
0
LINE
8
0
10
114.0
20
-54.65851
30
-173.20508
11
116.0
21
-53.12195
31
-173.20508
0
LINE
8
0
10
114.0
20
45.34149
30
-173.20508
11
116.0
21
46.87805
31
-173.20508
0
LINE
8
0
10
116.0
20
-53.12195
30
-173.20508
11
118.0
21
-51.046753
31
-173.20508
0
LINE
8
0
10
116.0
20
46.87805
30
-173.20508
11
118.0
21
48.953247
31
-173.20508
0
LINE
8
0
10
118.0
20
-51.046753
30
-173.20508
11
120.0
21
-48.86322
31
-173.20508
0
LINE
8
0
10
118.0
20
48.953247
30
-173.20508
11
120.0
21
51.13678
31
-173.20508
0
LINE
8
0
10
120.0
20
-48.86322
30
-173.20508
11
122.0
21
-46.847534
31
-173.20508
0
LINE
8
0
10
120.0
20
51.13678
30
-173.20508
11
122.0
21
53.152466
31
-173.20508
0
LINE
8
0
10
122.0
20
-46.847534
30
-173.20508
11
124.0
21
-45.610046
31
-173.20508
0
LINE
8
0
10
122.0
20
53.152466
30
-173.20508
11
124.0
21
54.389954
31
-173.20508
0
LINE
8
0
10
124.0
20
-45.610046
30
-173.20508
11
126.0
21
-45.36133
31
-173.20508
0
LINE
8
0
10
124.0
20
54.389954
30
-173.20508
11
126.0
21
54.63867
31
-173.20508
0
LINE
8
0
10
126.0
20
-45.36133
30
-173.20508
11
128.0
21
-45.957947
31
-173.20508
0
LINE
8
0
10
126.0
20
54.63867
30
-173.20508
11
128.0
21
54.042053
31
-173.20508
0
LINE
8
0
10
128.0
20
-45.957947
30
-173.20508
11
130.0
21
-47.572327
31
-173.20508
0
LINE
8
0
10
128.0
20
54.042053
30
-173.20508
11
130.0
21
52.427673
31
-173.20508
0
LINE
8
0
10
130.0
20
-47.572327
30
-173.20508
11
132.0
21
-49.58191
31
-173.20508
0
LINE
8
0
10
130.0
20
52.427673
30
-173.20508
11
132.0
21
50.41809
31
-173.20508
0
LINE
8
0
10
132.0
20
-49.58191
30
-173.20508
11
134.0
21
-51.774597
31
-173.20508
0
LINE
8
0
10
132.0
20
50.41809
30
-173.20508
11
134.0
21
48.225403
31
-173.20508
0
LINE
8
0
10
134.0
20
-51.774597
30
-173.20508
11
136.0
21
-53.82843
31
-173.20508
0
LINE
8
0
10
134.0
20
48.225403
30
-173.20508
11
136.0
21
46.17157
31
-173.20508
0
LINE
8
0
10
136.0
20
-53.82843
30
-173.20508
11
138.0
21
-54.870605
31
-173.20508
0
LINE
8
0
10
136.0
20
46.17157
30
-173.20508
11
138.0
21
45.129395
31
-173.20508
0
LINE
8
0
10
138.0
20
-54.870605
30
-173.20508
11
140.0
21
-54.978943
31
-173.20508
0
LINE
8
0
10
138.0
20
45.129395
30
-173.20508
11
140.0
21
45.021057
31
-173.20508
0
LINE
8
0
10
140.0
20
-54.978943
30
-173.20508
11
142.0
21
-54.01001
31
-173.20508
0
LINE
8
0
10
140.0
20
45.021057
30
-173.20508
11
142.0
21
45.98999
31
-173.20508
0
LINE
8
0
10
142.0
20
-54.01001
30
-173.20508
11
144.0
21
-51.85089
31
-173.20508
0
LINE
8
0
10
142.0
20
45.98999
30
-173.20508
11
144.0
21
48.14911
31
-173.20508
0
LINE
8
0
10
144.0
20
-51.85089
30
-173.20508
11
146.0
21
-49.372864
31
-173.20508
0
LINE
8
0
10
144.0
20
48.14911
30
-173.20508
11
146.0
21
50.627136
31
-173.20508
0
LINE
8
0
10
146.0
20
-49.372864
30
-173.20508
11
148.0
21
-47.247314
31
-173.20508
0
LINE
8
0
10
146.0
20
50.627136
30
-173.20508
11
148.0
21
52.752686
31
-173.20508
0
LINE
8
0
10
148.0
20
-47.247314
30
-173.20508
11
150.0
21
-45.67566
31
-173.20508
0
LINE
8
0
10
148.0
20
52.752686
30
-173.20508
11
150.0
21
54.32434
31
-173.20508
0
LINE
8
0
10
150.0
20
-45.67566
30
-173.20508
11
152.0
21
-45.224
31
-173.20508
0
LINE
8
0
10
150.0
20
54.32434
30
-173.20508
11
152.0
21
54.776
31
-173.20508
0
LINE
8
0
10
152.0
20
-45.224
30
-173.20508
11
154.0
21
-45.67108
31
-173.20508
0
LINE
8
0
10
152.0
20
54.776
30
-173.20508
11
154.0
21
54.32892
31
-173.20508
0
LINE
8
0
10
154.0
20
-45.67108
30
-173.20508
11
156.0
21
-46.74225
31
-173.20508
0
LINE
8
0
10
154.0
20
54.32892
30
-173.20508
11
156.0
21
53.25775
31
-173.20508
0
LINE
8
0
10
156.0
20
-46.74225
30
-173.20508
11
158.0
21
-48.77472
31
-173.20508
0
LINE
8
0
10
156.0
20
53.25775
30
-173.20508
11
158.0
21
51.22528
31
-173.20508
0
LINE
8
0
10
158.0
20
-48.77472
30
-173.20508
11
160.0
21
-50.99182
31
-173.20508
0
LINE
8
0
10
158.0
20
51.22528
30
-173.20508
11
160.0
21
49.00818
31
-173.20508
0
LINE
8
0
10
160.0
20
-50.99182
30
-173.20508
11
162.0
21
-53.138733
31
-173.20508
0
LINE
8
0
10
160.0
20
49.00818
30
-173.20508
11
162.0
21
46.861267
31
-173.20508
0
LINE
8
0
10
162.0
20
-53.138733
30
-173.20508
11
164.0
21
-54.844666
31
-173.20508
0
LINE
8
0
10
162.0
20
46.861267
30
-173.20508
11
164.0
21
45.155334
31
-173.20508
0
LINE
8
0
10
164.0
20
-54.844666
30
-173.20508
11
166.0
21
-55.40161
31
-173.20508
0
LINE
8
0
10
164.0
20
45.155334
30
-173.20508
11
166.0
21
44.59839
31
-173.20508
0
LINE
8
0
10
166.0
20
-55.40161
30
-173.20508
11
168.0
21
-54.707336
31
-173.20508
0
LINE
8
0
10
166.0
20
44.59839
30
-173.20508
11
168.0
21
45.292664
31
-173.20508
0
LINE
8
0
10
168.0
20
-54.707336
30
-173.20508
11
170.0
21
-52.874756
31
-173.20508
0
LINE
8
0
10
168.0
20
45.292664
30
-173.20508
11
170.0
21
47.125244
31
-173.20508
0
LINE
8
0
10
170.0
20
-52.874756
30
-173.20508
11
172.0
21
-50.282288
31
-173.20508
0
LINE
8
0
10
170.0
20
47.125244
30
-173.20508
11
172.0
21
49.717712
31
-173.20508
0
LINE
8
0
10
172.0
20
-50.282288
30
-173.20508
11
174.0
21
-47.546387
31
-173.20508
0
LINE
8
0
10
172.0
20
49.717712
30
-173.20508
11
174.0
21
52.453613
31
-173.20508
0
LINE
8
0
10
174.0
20
-47.546387
30
-173.20508
11
176.0
21
-45.907593
31
-173.20508
0
LINE
8
0
10
174.0
20
52.453613
30
-173.20508
11
176.0
21
54.092407
31
-173.20508
0
LINE
8
0
10
176.0
20
-45.907593
30
-173.20508
11
178.0
21
-45.10956
31
-173.20508
0
LINE
8
0
10
176.0
20
54.092407
30
-173.20508
11
178.0
21
54.89044
31
-173.20508
0
LINE
8
0
10
178.0
20
-45.10956
30
-173.20508
11
180.0
21
-45.161438
31
-173.20508
0
LINE
8
0
10
178.0
20
54.89044
30
-173.20508
11
180.0
21
54.838562
31
-173.20508
0
LINE
8
0
10
180.0
20
-45.161438
30
-173.20508
11
182.0
21
-46.055603
31
-173.20508
0
LINE
8
0
10
180.0
20
54.838562
30
-173.20508
11
182.0
21
53.944397
31
-173.20508
0
LINE
8
0
10
182.0
20
-46.055603
30
-173.20508
11
184.0
21
-47.950745
31
-173.20508
0
LINE
8
0
10
182.0
20
53.944397
30
-173.20508
11
184.0
21
52.049255
31
-173.20508
0
LINE
8
0
10
184.0
20
-47.950745
30
-173.20508
11
186.0
21
-50.154114
31
-173.20508
0
LINE
8
0
10
184.0
20
52.049255
30
-173.20508
11
186.0
21
49.845886
31
-173.20508
0
LINE
8
0
10
186.0
20
-50.154114
30
-173.20508
11
188.0
21
-52.67639
31
-173.20508
0
LINE
8
0
10
186.0
20
49.845886
30
-173.20508
11
188.0
21
47.32361
31
-173.20508
0
LINE
8
0
10
188.0
20
-52.67639
30
-173.20508
11
190.0
21
-54.74701
31
-173.20508
0
LINE
8
0
10
188.0
20
47.32361
30
-173.20508
11
190.0
21
45.25299
31
-173.20508
0
LINE
8
0
10
190.0
20
-54.74701
30
-173.20508
11
192.0
21
-55.529785
31
-173.20508
0
LINE
8
0
10
190.0
20
45.25299
30
-173.20508
11
192.0
21
44.470215
31
-173.20508
0
LINE
8
0
10
192.0
20
-55.529785
30
-173.20508
11
194.0
21
-55.282593
31
-173.20508
0
LINE
8
0
10
192.0
20
44.470215
30
-173.20508
11
194.0
21
44.717407
31
-173.20508
0
LINE
8
0
10
194.0
20
-55.282593
30
-173.20508
11
196.0
21
-53.57361
31
-173.20508
0
LINE
8
0
10
194.0
20
44.717407
30
-173.20508
11
196.0
21
46.42639
31
-173.20508
0
LINE
8
0
10
196.0
20
-53.57361
30
-173.20508
11
198.0
21
-51.18866
31
-173.20508
0
LINE
8
0
10
196.0
20
46.42639
30
-173.20508
11
198.0
21
48.81134
31
-173.20508
0
LINE
8
0
10
198.0
20
-51.18866
30
-173.20508
11
200.0
21
-48.583984
31
-173.20508
0
LINE
8
0
10
198.0
20
48.81134
30
-173.20508
11
200.0
21
51.416016
31
-173.20508
0
LINE
8
0
10
200.0
20
-48.583984
30
-173.20508
11
202.0
21
-46.25702
31
-173.20508
0
LINE
8
0
10
200.0
20
51.416016
30
-173.20508
11
202.0
21
53.74298
31
-173.20508
0
LINE
8
0
10
202.0
20
-46.25702
30
-173.20508
11
204.0
21
-45.082092
31
-173.20508
0
LINE
8
0
10
202.0
20
53.74298
30
-173.20508
11
204.0
21
54.917908
31
-173.20508
0
LINE
8
0
10
204.0
20
-45.082092
30
-173.20508
11
206.0
21
-44.900513
31
-173.20508
0
LINE
8
0
10
204.0
20
54.917908
30
-173.20508
11
206.0
21
55.099487
31
-173.20508
0
LINE
8
0
10
206.0
20
-44.900513
30
-173.20508
11
208.0
21
-45.437622
31
-173.20508
0
LINE
8
0
10
206.0
20
55.099487
30
-173.20508
11
208.0
21
54.562378
31
-173.20508
0
LINE
8
0
10
208.0
20
-45.437622
30
-173.20508
11
210.0
21
-47.039795
31
-173.20508
0
LINE
8
0
10
208.0
20
54.562378
30
-173.20508
11
210.0
21
52.960205
31
-173.20508
0
LINE
8
0
10
210.0
20
-47.039795
30
-173.20508
11
212.0
21
-49.388123
31
-173.20508
0
LINE
8
0
10
210.0
20
52.960205
30
-173.20508
11
212.0
21
50.611877
31
-173.20508
0
LINE
8
0
10
212.0
20
-49.388123
30
-173.20508
11
214.0
21
-51.66931
31
-173.20508
0
LINE
8
0
10
212.0
20
50.611877
30
-173.20508
11
214.0
21
48.33069
31
-173.20508
0
LINE
8
0
10
214.0
20
-51.66931
30
-173.20508
11
216.0
21
-54.333496
31
-173.20508
0
LINE
8
0
10
214.0
20
48.33069
30
-173.20508
11
216.0
21
45.666504
31
-173.20508
0
LINE
8
0
10
216.0
20
-54.333496
30
-173.20508
11
218.0
21
-55.807495
31
-173.20508
0
LINE
8
0
10
216.0
20
45.666504
30
-173.20508
11
218.0
21
44.192505
31
-173.20508
0
LINE
8
0
10
218.0
20
-55.807495
30
-173.20508
11
220.0
21
-55.625916
31
-173.20508
0
LINE
8
0
10
218.0
20
44.192505
30
-173.20508
11
220.0
21
44.374084
31
-173.20508
0
LINE
8
0
10
220.0
20
-55.625916
30
-173.20508
11
222.0
21
-54.292297
31
-173.20508
0
LINE
8
0
10
220.0
20
44.374084
30
-173.20508
11
222.0
21
45.707703
31
-173.20508
0
LINE
8
0
10
222.0
20
-54.292297
30
-173.20508
11
224.0
21
-51.994324
31
-173.20508
0
LINE
8
0
10
222.0
20
45.707703
30
-173.20508
11
224.0
21
48.005676
31
-173.20508
0
LINE
8
0
10
224.0
20
-51.994324
30
-173.20508
11
226.0
21
-49.194336
31
-173.20508
0
LINE
8
0
10
224.0
20
48.005676
30
-173.20508
11
226.0
21
50.805664
31
-173.20508
0
LINE
8
0
10
226.0
20
-49.194336
30
-173.20508
11
228.0
21
-47.036743
31
-173.20508
0
LINE
8
0
10
226.0
20
50.805664
30
-173.20508
11
228.0
21
52.963257
31
-173.20508
0
LINE
8
0
10
228.0
20
-47.036743
30
-173.20508
11
230.0
21
-45.49408
31
-173.20508
0
LINE
8
0
10
228.0
20
52.963257
30
-173.20508
11
230.0
21
54.50592
31
-173.20508
0
LINE
8
0
10
230.0
20
-45.49408
30
-173.20508
11
232.0
21
-44.750977
31
-173.20508
0
LINE
8
0
10
230.0
20
54.50592
30
-173.20508
11
232.0
21
55.249023
31
-173.20508
0
LINE
8
0
10
232.0
20
-44.750977
30
-173.20508
11
234.0
21
-45.0058
31
-173.20508
0
LINE
8
0
10
232.0
20
55.249023
30
-173.20508
11
234.0
21
54.9942
31
-173.20508
0
LINE
8
0
10
234.0
20
-45.0058
30
-173.20508
11
236.0
21
-46.255493
31
-173.20508
0
LINE
8
0
10
234.0
20
54.9942
30
-173.20508
11
236.0
21
53.744507
31
-173.20508
0
LINE
8
0
10
236.0
20
-46.255493
30
-173.20508
11
238.0
21
-48.35205
31
-173.20508
0
LINE
8
0
10
236.0
20
53.744507
30
-173.20508
11
238.0
21
51.64795
31
-173.20508
0
LINE
8
0
10
238.0
20
-48.35205
30
-173.20508
11
240.0
21
-51.09253
31
-173.20508
0
LINE
8
0
10
238.0
20
51.64795
30
-173.20508
11
240.0
21
48.90747
31
-173.20508
0
LINE
8
0
10
240.0
20
-51.09253
30
-173.20508
11
242.0
21
-53.570557
31
-173.20508
0
LINE
8
0
10
240.0
20
48.90747
30
-173.20508
11
242.0
21
46.429443
31
-173.20508
0
LINE
8
0
10
242.0
20
-53.570557
30
-173.20508
11
244.0
21
-55.366516
31
-173.20508
0
LINE
8
0
10
242.0
20
46.429443
30
-173.20508
11
244.0
21
44.633484
31
-173.20508
0
LINE
8
0
10
244.0
20
-55.366516
30
-173.20508
11
246.0
21
-55.8609
31
-173.20508
0
LINE
8
0
10
244.0
20
44.633484
30
-173.20508
11
246.0
21
44.1391
31
-173.20508
0
LINE
8
0
10
246.0
20
-55.8609
30
-173.20508
11
248.0
21
-54.862976
31
-173.20508
0
LINE
8
0
10
246.0
20
44.1391
30
-173.20508
11
248.0
21
45.137024
31
-173.20508
0
LINE
8
0
10
248.0
20
-54.862976
30
-173.20508
11
250.0
21
-52.746582
31
-173.20508
0
LINE
8
0
10
248.0
20
45.137024
30
-173.20508
11
250.0
21
47.253418
31
-173.20508
0
LINE
8
0
10
250.0
20
-52.746582
30
-173.20508
11
252.0
21
-50.26703
31
-173.20508
0
LINE
8
0
10
250.0
20
47.253418
30
-173.20508
11
252.0
21
49.73297
31
-173.20508
0
LINE
8
0
10
252.0
20
-50.26703
30
-173.20508
11
254.0
21
-47.732544
31
-173.20508
0
LINE
8
0
10
252.0
20
49.73297
30
-173.20508
11
254.0
21
52.267456
31
-173.20508
0
ENDSEC
0
EOF
