0
SECTION
2
ENTITIES
0
LINE
8
0
10
-256.0
20
-47.2641
30
-173.20508
11
-254.0
21
-47.079468
31
-173.20508
0
LINE
8
0
10
-256.0
20
52.7359
30
-173.20508
11
-254.0
21
52.920532
31
-173.20508
0
LINE
8
0
10
-254.0
20
-47.079468
30
-173.20508
11
-252.0
21
-47.138977
31
-173.20508
0
LINE
8
0
10
-254.0
20
52.920532
30
-173.20508
11
-252.0
21
52.861023
31
-173.20508
0
LINE
8
0
10
-252.0
20
-47.138977
30
-173.20508
11
-250.0
21
-47.42737
31
-173.20508
0
LINE
8
0
10
-252.0
20
52.861023
30
-173.20508
11
-250.0
21
52.57263
31
-173.20508
0
LINE
8
0
10
-250.0
20
-47.42737
30
-173.20508
11
-248.0
21
-47.932434
31
-173.20508
0
LINE
8
0
10
-250.0
20
52.57263
30
-173.20508
11
-248.0
21
52.067566
31
-173.20508
0
LINE
8
0
10
-248.0
20
-47.932434
30
-173.20508
11
-246.0
21
-48.606873
31
-173.20508
0
LINE
8
0
10
-248.0
20
52.067566
30
-173.20508
11
-246.0
21
51.393127
31
-173.20508
0
LINE
8
0
10
-246.0
20
-48.606873
30
-173.20508
11
-244.0
21
-49.401855
31
-173.20508
0
LINE
8
0
10
-246.0
20
51.393127
30
-173.20508
11
-244.0
21
50.598145
31
-173.20508
0
LINE
8
0
10
-244.0
20
-49.401855
30
-173.20508
11
-242.0
21
-50.257874
31
-173.20508
0
LINE
8
0
10
-244.0
20
50.598145
30
-173.20508
11
-242.0
21
49.742126
31
-173.20508
0
LINE
8
0
10
-242.0
20
-50.257874
30
-173.20508
11
-240.0
21
-51.123047
31
-173.20508
0
LINE
8
0
10
-242.0
20
49.742126
30
-173.20508
11
-240.0
21
48.876953
31
-173.20508
0
LINE
8
0
10
-240.0
20
-51.123047
30
-173.20508
11
-238.0
21
-51.89972
31
-173.20508
0
LINE
8
0
10
-240.0
20
48.876953
30
-173.20508
11
-238.0
21
48.10028
31
-173.20508
0
LINE
8
0
10
-238.0
20
-51.89972
30
-173.20508
11
-236.0
21
-52.519226
31
-173.20508
0
LINE
8
0
10
-238.0
20
48.10028
30
-173.20508
11
-236.0
21
47.480774
31
-173.20508
0
LINE
8
0
10
-236.0
20
-52.519226
30
-173.20508
11
-234.0
21
-52.92206
31
-173.20508
0
LINE
8
0
10
-236.0
20
47.480774
30
-173.20508
11
-234.0
21
47.07794
31
-173.20508
0
LINE
8
0
10
-234.0
20
-52.92206
30
-173.20508
11
-232.0
21
-53.045654
31
-173.20508
0
LINE
8
0
10
-234.0
20
47.07794
30
-173.20508
11
-232.0
21
46.954346
31
-173.20508
0
LINE
8
0
10
-232.0
20
-53.045654
30
-173.20508
11
-230.0
21
-52.890015
31
-173.20508
0
LINE
8
0
10
-232.0
20
46.954346
30
-173.20508
11
-230.0
21
47.109985
31
-173.20508
0
LINE
8
0
10
-230.0
20
-52.890015
30
-173.20508
11
-228.0
21
-52.461243
31
-173.20508
0
LINE
8
0
10
-230.0
20
47.109985
30
-173.20508
11
-228.0
21
47.538757
31
-173.20508
0
LINE
8
0
10
-228.0
20
-52.461243
30
-173.20508
11
-226.0
21
-51.802063
31
-173.20508
0
LINE
8
0
10
-228.0
20
47.538757
30
-173.20508
11
-226.0
21
48.197937
31
-173.20508
0
LINE
8
0
10
-226.0
20
-51.802063
30
-173.20508
11
-224.0
21
-50.985718
31
-173.20508
0
LINE
8
0
10
-226.0
20
48.197937
30
-173.20508
11
-224.0
21
49.014282
31
-173.20508
0
LINE
8
0
10
-224.0
20
-50.985718
30
-173.20508
11
-222.0
21
-50.079346
31
-173.20508
0
LINE
8
0
10
-224.0
20
49.014282
30
-173.20508
11
-222.0
21
49.920654
31
-173.20508
0
LINE
8
0
10
-222.0
20
-50.079346
30
-173.20508
11
-220.0
21
-49.15619
31
-173.20508
0
LINE
8
0
10
-222.0
20
49.920654
30
-173.20508
11
-220.0
21
50.84381
31
-173.20508
0
LINE
8
0
10
-220.0
20
-49.15619
30
-173.20508
11
-218.0
21
-48.338318
31
-173.20508
0
LINE
8
0
10
-220.0
20
50.84381
30
-173.20508
11
-218.0
21
51.661682
31
-173.20508
0
LINE
8
0
10
-218.0
20
-48.338318
30
-173.20508
11
-216.0
21
-47.694397
31
-173.20508
0
LINE
8
0
10
-218.0
20
51.661682
30
-173.20508
11
-216.0
21
52.305603
31
-173.20508
0
LINE
8
0
10
-216.0
20
-47.694397
30
-173.20508
11
-214.0
21
-47.247314
31
-173.20508
0
LINE
8
0
10
-216.0
20
52.305603
30
-173.20508
11
-214.0
21
52.752686
31
-173.20508
0
LINE
8
0
10
-214.0
20
-47.247314
30
-173.20508
11
-212.0
21
-47.044373
31
-173.20508
0
LINE
8
0
10
-214.0
20
52.752686
30
-173.20508
11
-212.0
21
52.955627
31
-173.20508
0
LINE
8
0
10
-212.0
20
-47.044373
30
-173.20508
11
-210.0
21
-47.088623
31
-173.20508
0
LINE
8
0
10
-212.0
20
52.955627
30
-173.20508
11
-210.0
21
52.911377
31
-173.20508
0
LINE
8
0
10
-210.0
20
-47.088623
30
-173.20508
11
-208.0
21
-47.3526
31
-173.20508
0
LINE
8
0
10
-210.0
20
52.911377
30
-173.20508
11
-208.0
21
52.6474
31
-173.20508
0
LINE
8
0
10
-208.0
20
-47.3526
30
-173.20508
11
-206.0
21
-47.834778
31
-173.20508
0
LINE
8
0
10
-208.0
20
52.6474
30
-173.20508
11
-206.0
21
52.165222
31
-173.20508
0
LINE
8
0
10
-206.0
20
-47.834778
30
-173.20508
11
-204.0
21
-48.53058
31
-173.20508
0
LINE
8
0
10
-206.0
20
52.165222
30
-173.20508
11
-204.0
21
51.46942
31
-173.20508
0
LINE
8
0
10
-204.0
20
-48.53058
30
-173.20508
11
-202.0
21
-49.343872
31
-173.20508
0
LINE
8
0
10
-204.0
20
51.46942
30
-173.20508
11
-202.0
21
50.656128
31
-173.20508
0
LINE
8
0
10
-202.0
20
-49.343872
30
-173.20508
11
-200.0
21
-50.22278
31
-173.20508
0
LINE
8
0
10
-202.0
20
50.656128
30
-173.20508
11
-200.0
21
49.77722
31
-173.20508
0
LINE
8
0
10
-200.0
20
-50.22278
30
-173.20508
11
-198.0
21
-51.091003
31
-173.20508
0
LINE
8
0
10
-200.0
20
49.77722
30
-173.20508
11
-198.0
21
48.908997
31
-173.20508
0
LINE
8
0
10
-198.0
20
-51.091003
30
-173.20508
11
-196.0
21
-51.88141
31
-173.20508
0
LINE
8
0
10
-198.0
20
48.908997
30
-173.20508
11
-196.0
21
48.11859
31
-173.20508
0
LINE
8
0
10
-196.0
20
-51.88141
30
-173.20508
11
-194.0
21
-52.545166
31
-173.20508
0
LINE
8
0
10
-196.0
20
48.11859
30
-173.20508
11
-194.0
21
47.454834
31
-173.20508
0
LINE
8
0
10
-194.0
20
-52.545166
30
-173.20508
11
-192.0
21
-52.981567
31
-173.20508
0
LINE
8
0
10
-194.0
20
47.454834
30
-173.20508
11
-192.0
21
47.018433
31
-173.20508
0
LINE
8
0
10
-192.0
20
-52.981567
30
-173.20508
11
-190.0
21
-53.13568
31
-173.20508
0
LINE
8
0
10
-192.0
20
47.018433
30
-173.20508
11
-190.0
21
46.86432
31
-173.20508
0
LINE
8
0
10
-190.0
20
-53.13568
30
-173.20508
11
-188.0
21
-52.978516
31
-173.20508
0
LINE
8
0
10
-190.0
20
46.86432
30
-173.20508
11
-188.0
21
47.021484
31
-173.20508
0
LINE
8
0
10
-188.0
20
-52.978516
30
-173.20508
11
-186.0
21
-52.5589
31
-173.20508
0
LINE
8
0
10
-188.0
20
47.021484
30
-173.20508
11
-186.0
21
47.4411
31
-173.20508
0
LINE
8
0
10
-186.0
20
-52.5589
30
-173.20508
11
-184.0
21
-51.89514
31
-173.20508
0
LINE
8
0
10
-186.0
20
47.4411
30
-173.20508
11
-184.0
21
48.10486
31
-173.20508
0
LINE
8
0
10
-184.0
20
-51.89514
30
-173.20508
11
-182.0
21
-51.054382
31
-173.20508
0
LINE
8
0
10
-184.0
20
48.10486
30
-173.20508
11
-182.0
21
48.945618
31
-173.20508
0
LINE
8
0
10
-182.0
20
-51.054382
30
-173.20508
11
-180.0
21
-50.134277
31
-173.20508
0
LINE
8
0
10
-182.0
20
48.945618
30
-173.20508
11
-180.0
21
49.865723
31
-173.20508
0
LINE
8
0
10
-180.0
20
-50.134277
30
-173.20508
11
-178.0
21
-49.21112
31
-173.20508
0
LINE
8
0
10
-180.0
20
49.865723
30
-173.20508
11
-178.0
21
50.78888
31
-173.20508
0
LINE
8
0
10
-178.0
20
-49.21112
30
-173.20508
11
-176.0
21
-48.361206
31
-173.20508
0
LINE
8
0
10
-178.0
20
50.78888
30
-173.20508
11
-176.0
21
51.638794
31
-173.20508
0
LINE
8
0
10
-176.0
20
-48.361206
30
-173.20508
11
-174.0
21
-47.67456
31
-173.20508
0
LINE
8
0
10
-176.0
20
51.638794
30
-173.20508
11
-174.0
21
52.32544
31
-173.20508
0
LINE
8
0
10
-174.0
20
-47.67456
30
-173.20508
11
-172.0
21
-47.221375
31
-173.20508
0
LINE
8
0
10
-174.0
20
52.32544
30
-173.20508
11
-172.0
21
52.778625
31
-173.20508
0
LINE
8
0
10
-172.0
20
-47.221375
30
-173.20508
11
-170.0
21
-47.009277
31
-173.20508
0
LINE
8
0
10
-172.0
20
52.778625
30
-173.20508
11
-170.0
21
52.990723
31
-173.20508
0
LINE
8
0
10
-170.0
20
-47.009277
30
-173.20508
11
-168.0
21
-47.039795
31
-173.20508
0
LINE
8
0
10
-170.0
20
52.990723
30
-173.20508
11
-168.0
21
52.960205
31
-173.20508
0
LINE
8
0
10
-168.0
20
-47.039795
30
-173.20508
11
-166.0
21
-47.320557
31
-173.20508
0
LINE
8
0
10
-168.0
20
52.960205
30
-173.20508
11
-166.0
21
52.679443
31
-173.20508
0
LINE
8
0
10
-166.0
20
-47.320557
30
-173.20508
11
-164.0
21
-47.816467
31
-173.20508
0
LINE
8
0
10
-166.0
20
52.679443
30
-173.20508
11
-164.0
21
52.183533
31
-173.20508
0
LINE
8
0
10
-164.0
20
-47.816467
30
-173.20508
11
-162.0
21
-48.484802
31
-173.20508
0
LINE
8
0
10
-164.0
20
52.183533
30
-173.20508
11
-162.0
21
51.515198
31
-173.20508
0
LINE
8
0
10
-162.0
20
-48.484802
30
-173.20508
11
-160.0
21
-49.287415
31
-173.20508
0
LINE
8
0
10
-162.0
20
51.515198
30
-173.20508
11
-160.0
21
50.712585
31
-173.20508
0
LINE
8
0
10
-160.0
20
-49.287415
30
-173.20508
11
-158.0
21
-50.1297
31
-173.20508
0
LINE
8
0
10
-160.0
20
50.712585
30
-173.20508
11
-158.0
21
49.8703
31
-173.20508
0
LINE
8
0
10
-158.0
20
-50.1297
30
-173.20508
11
-156.0
21
-51.023865
31
-173.20508
0
LINE
8
0
10
-158.0
20
49.8703
30
-173.20508
11
-156.0
21
48.976135
31
-173.20508
0
LINE
8
0
10
-156.0
20
-51.023865
30
-173.20508
11
-154.0
21
-51.85852
31
-173.20508
0
LINE
8
0
10
-156.0
20
48.976135
30
-173.20508
11
-154.0
21
48.14148
31
-173.20508
0
LINE
8
0
10
-154.0
20
-51.85852
30
-173.20508
11
-152.0
21
-52.526855
31
-173.20508
0
LINE
8
0
10
-154.0
20
48.14148
30
-173.20508
11
-152.0
21
47.473145
31
-173.20508
0
LINE
8
0
10
-152.0
20
-52.526855
30
-173.20508
11
-150.0
21
-52.95868
31
-173.20508
0
LINE
8
0
10
-152.0
20
47.473145
30
-173.20508
11
-150.0
21
47.04132
31
-173.20508
0
LINE
8
0
10
-150.0
20
-52.95868
30
-173.20508
11
-148.0
21
-53.204346
31
-173.20508
0
LINE
8
0
10
-150.0
20
47.04132
30
-173.20508
11
-148.0
21
46.795654
31
-173.20508
0
LINE
8
0
10
-148.0
20
-53.204346
30
-173.20508
11
-146.0
21
-53.0838
31
-173.20508
0
LINE
8
0
10
-148.0
20
46.795654
30
-173.20508
11
-146.0
21
46.9162
31
-173.20508
0
LINE
8
0
10
-146.0
20
-53.0838
30
-173.20508
11
-144.0
21
-52.641296
31
-173.20508
0
LINE
8
0
10
-146.0
20
46.9162
30
-173.20508
11
-144.0
21
47.358704
31
-173.20508
0
LINE
8
0
10
-144.0
20
-52.641296
30
-173.20508
11
-142.0
21
-52.01111
31
-173.20508
0
LINE
8
0
10
-144.0
20
47.358704
30
-173.20508
11
-142.0
21
47.98889
31
-173.20508
0
LINE
8
0
10
-142.0
20
-52.01111
30
-173.20508
11
-140.0
21
-51.19171
31
-173.20508
0
LINE
8
0
10
-142.0
20
47.98889
30
-173.20508
11
-140.0
21
48.80829
31
-173.20508
0
LINE
8
0
10
-140.0
20
-51.19171
30
-173.20508
11
-138.0
21
-50.256348
31
-173.20508
0
LINE
8
0
10
-140.0
20
48.80829
30
-173.20508
11
-138.0
21
49.743652
31
-173.20508
0
LINE
8
0
10
-138.0
20
-50.256348
30
-173.20508
11
-136.0
21
-49.34845
31
-173.20508
0
LINE
8
0
10
-138.0
20
49.743652
30
-173.20508
11
-136.0
21
50.65155
31
-173.20508
0
LINE
8
0
10
-136.0
20
-49.34845
30
-173.20508
11
-134.0
21
-48.458862
31
-173.20508
0
LINE
8
0
10
-136.0
20
50.65155
30
-173.20508
11
-134.0
21
51.541138
31
-173.20508
0
LINE
8
0
10
-134.0
20
-48.458862
30
-173.20508
11
-132.0
21
-47.721863
31
-173.20508
0
LINE
8
0
10
-134.0
20
51.541138
30
-173.20508
11
-132.0
21
52.278137
31
-173.20508
0
LINE
8
0
10
-132.0
20
-47.721863
30
-173.20508
11
-130.0
21
-47.21527
31
-173.20508
0
LINE
8
0
10
-132.0
20
52.278137
30
-173.20508
11
-130.0
21
52.78473
31
-173.20508
0
LINE
8
0
10
-130.0
20
-47.21527
30
-173.20508
11
-128.0
21
-46.954346
31
-173.20508
0
LINE
8
0
10
-130.0
20
52.78473
30
-173.20508
11
-128.0
21
53.045654
31
-173.20508
0
LINE
8
0
10
-128.0
20
-46.954346
30
-173.20508
11
-126.0
21
-46.93451
31
-173.20508
0
LINE
8
0
10
-128.0
20
53.045654
30
-173.20508
11
-126.0
21
53.06549
31
-173.20508
0
LINE
8
0
10
-126.0
20
-46.93451
30
-173.20508
11
-124.0
21
-47.23816
31
-173.20508
0
LINE
8
0
10
-126.0
20
53.06549
30
-173.20508
11
-124.0
21
52.76184
31
-173.20508
0
LINE
8
0
10
-124.0
20
-47.23816
30
-173.20508
11
-122.0
21
-47.70813
31
-173.20508
0
LINE
8
0
10
-124.0
20
52.76184
30
-173.20508
11
-122.0
21
52.29187
31
-173.20508
0
LINE
8
0
10
-122.0
20
-47.70813
30
-173.20508
11
-120.0
21
-48.37494
31
-173.20508
0
LINE
8
0
10
-122.0
20
52.29187
30
-173.20508
11
-120.0
21
51.62506
31
-173.20508
0
LINE
8
0
10
-120.0
20
-48.37494
30
-173.20508
11
-118.0
21
-49.209595
31
-173.20508
0
LINE
8
0
10
-120.0
20
51.62506
30
-173.20508
11
-118.0
21
50.790405
31
-173.20508
0
LINE
8
0
10
-118.0
20
-49.209595
30
-173.20508
11
-116.0
21
-50.100708
31
-173.20508
0
LINE
8
0
10
-118.0
20
50.790405
30
-173.20508
11
-116.0
21
49.899292
31
-173.20508
0
LINE
8
0
10
-116.0
20
-50.100708
30
-173.20508
11
-114.0
21
-50.976562
31
-173.20508
0
LINE
8
0
10
-116.0
20
49.899292
30
-173.20508
11
-114.0
21
49.023438
31
-173.20508
0
LINE
8
0
10
-114.0
20
-50.976562
30
-173.20508
11
-112.0
21
-51.818848
31
-173.20508
0
LINE
8
0
10
-114.0
20
49.023438
30
-173.20508
11
-112.0
21
48.181152
31
-173.20508
0
LINE
8
0
10
-112.0
20
-51.818848
30
-173.20508
11
-110.0
21
-52.505493
31
-173.20508
0
LINE
8
0
10
-112.0
20
48.181152
30
-173.20508
11
-110.0
21
47.494507
31
-173.20508
0
LINE
8
0
10
-110.0
20
-52.505493
30
-173.20508
11
-108.0
21
-52.972412
31
-173.20508
0
LINE
8
0
10
-110.0
20
47.494507
30
-173.20508
11
-108.0
21
47.027588
31
-173.20508
0
LINE
8
0
10
-108.0
20
-52.972412
30
-173.20508
11
-106.0
21
-53.242493
31
-173.20508
0
LINE
8
0
10
-108.0
20
47.027588
30
-173.20508
11
-106.0
21
46.757507
31
-173.20508
0
LINE
8
0
10
-106.0
20
-53.242493
30
-173.20508
11
-104.0
21
-53.125
31
-173.20508
0
LINE
8
0
10
-106.0
20
46.757507
30
-173.20508
11
-104.0
21
46.875
31
-173.20508
0
LINE
8
0
10
-104.0
20
-53.125
30
-173.20508
11
-102.0
21
-52.70691
31
-173.20508
0
LINE
8
0
10
-104.0
20
46.875
30
-173.20508
11
-102.0
21
47.29309
31
-173.20508
0
LINE
8
0
10
-102.0
20
-52.70691
30
-173.20508
11
-100.0
21
-52.10266
31
-173.20508
0
LINE
8
0
10
-102.0
20
47.29309
30
-173.20508
11
-100.0
21
47.89734
31
-173.20508
0
LINE
8
0
10
-100.0
20
-52.10266
30
-173.20508
11
-98.0
21
-51.290894
31
-173.20508
0
LINE
8
0
10
-100.0
20
47.89734
30
-173.20508
11
-98.0
21
48.709106
31
-173.20508
0
LINE
8
0
10
-98.0
20
-51.290894
30
-173.20508
11
-96.0
21
-50.328064
31
-173.20508
0
LINE
8
0
10
-98.0
20
48.709106
30
-173.20508
11
-96.0
21
49.671936
31
-173.20508
0
LINE
8
0
10
-96.0
20
-50.328064
30
-173.20508
11
-94.0
21
-49.37439
31
-173.20508
0
LINE
8
0
10
-96.0
20
49.671936
30
-173.20508
11
-94.0
21
50.62561
31
-173.20508
0
LINE
8
0
10
-94.0
20
-49.37439
30
-173.20508
11
-92.0
21
-48.468018
31
-173.20508
0
LINE
8
0
10
-94.0
20
50.62561
30
-173.20508
11
-92.0
21
51.531982
31
-173.20508
0
LINE
8
0
10
-92.0
20
-48.468018
30
-173.20508
11
-90.0
21
-47.686768
31
-173.20508
0
LINE
8
0
10
-92.0
20
51.531982
30
-173.20508
11
-90.0
21
52.313232
31
-173.20508
0
LINE
8
0
10
-90.0
20
-47.686768
30
-173.20508
11
-88.0
21
-47.20764
31
-173.20508
0
LINE
8
0
10
-90.0
20
52.313232
30
-173.20508
11
-88.0
21
52.79236
31
-173.20508
0
LINE
8
0
10
-88.0
20
-47.20764
30
-173.20508
11
-86.0
21
-46.954346
31
-173.20508
0
LINE
8
0
10
-88.0
20
52.79236
30
-173.20508
11
-86.0
21
53.045654
31
-173.20508
0
LINE
8
0
10
-86.0
20
-46.954346
30
-173.20508
11
-84.0
21
-46.928406
31
-173.20508
0
LINE
8
0
10
-86.0
20
53.045654
30
-173.20508
11
-84.0
21
53.071594
31
-173.20508
0
LINE
8
0
10
-84.0
20
-46.928406
30
-173.20508
11
-82.0
21
-47.164917
31
-173.20508
0
LINE
8
0
10
-84.0
20
53.071594
30
-173.20508
11
-82.0
21
52.835083
31
-173.20508
0
LINE
8
0
10
-82.0
20
-47.164917
30
-173.20508
11
-80.0
21
-47.616577
31
-173.20508
0
LINE
8
0
10
-82.0
20
52.835083
30
-173.20508
11
-80.0
21
52.383423
31
-173.20508
0
LINE
8
0
10
-80.0
20
-47.616577
30
-173.20508
11
-78.0
21
-48.254395
31
-173.20508
0
LINE
8
0
10
-80.0
20
52.383423
30
-173.20508
11
-78.0
21
51.745605
31
-173.20508
0
LINE
8
0
10
-78.0
20
-48.254395
30
-173.20508
11
-76.0
21
-49.09973
31
-173.20508
0
LINE
8
0
10
-78.0
20
51.745605
30
-173.20508
11
-76.0
21
50.90027
31
-173.20508
0
LINE
8
0
10
-76.0
20
-49.09973
30
-173.20508
11
-74.0
21
-49.9588
31
-173.20508
0
LINE
8
0
10
-76.0
20
50.90027
30
-173.20508
11
-74.0
21
50.0412
31
-173.20508
0
LINE
8
0
10
-74.0
20
-49.9588
30
-173.20508
11
-72.0
21
-50.87433
31
-173.20508
0
LINE
8
0
10
-74.0
20
50.0412
30
-173.20508
11
-72.0
21
49.12567
31
-173.20508
0
LINE
8
0
10
-72.0
20
-50.87433
30
-173.20508
11
-70.0
21
-51.737976
31
-173.20508
0
LINE
8
0
10
-72.0
20
49.12567
30
-173.20508
11
-70.0
21
48.262024
31
-173.20508
0
LINE
8
0
10
-70.0
20
-51.737976
30
-173.20508
11
-68.0
21
-52.513123
31
-173.20508
0
LINE
8
0
10
-70.0
20
48.262024
30
-173.20508
11
-68.0
21
47.486877
31
-173.20508
0
LINE
8
0
10
-68.0
20
-52.513123
30
-173.20508
11
-66.0
21
-52.97699
31
-173.20508
0
LINE
8
0
10
-68.0
20
47.486877
30
-173.20508
11
-66.0
21
47.02301
31
-173.20508
0
LINE
8
0
10
-66.0
20
-52.97699
30
-173.20508
11
-64.0
21
-53.22113
31
-173.20508
0
LINE
8
0
10
-66.0
20
47.02301
30
-173.20508
11
-64.0
21
46.77887
31
-173.20508
0
LINE
8
0
10
-64.0
20
-53.22113
30
-173.20508
11
-62.0
21
-53.16162
31
-173.20508
0
LINE
8
0
10
-64.0
20
46.77887
30
-173.20508
11
-62.0
21
46.83838
31
-173.20508
0
LINE
8
0
10
-62.0
20
-53.16162
30
-173.20508
11
-60.0
21
-52.80609
31
-173.20508
0
LINE
8
0
10
-62.0
20
46.83838
30
-173.20508
11
-60.0
21
47.19391
31
-173.20508
0
LINE
8
0
10
-60.0
20
-52.80609
30
-173.20508
11
-58.0
21
-52.17743
31
-173.20508
0
LINE
8
0
10
-60.0
20
47.19391
30
-173.20508
11
-58.0
21
47.82257
31
-173.20508
0
LINE
8
0
10
-58.0
20
-52.17743
30
-173.20508
11
-56.0
21
-51.36261
31
-173.20508
0
LINE
8
0
10
-58.0
20
47.82257
30
-173.20508
11
-56.0
21
48.63739
31
-173.20508
0
LINE
8
0
10
-56.0
20
-51.36261
30
-173.20508
11
-54.0
21
-50.41809
31
-173.20508
0
LINE
8
0
10
-56.0
20
48.63739
30
-173.20508
11
-54.0
21
49.58191
31
-173.20508
0
LINE
8
0
10
-54.0
20
-50.41809
30
-173.20508
11
-52.0
21
-49.461365
31
-173.20508
0
LINE
8
0
10
-54.0
20
49.58191
30
-173.20508
11
-52.0
21
50.538635
31
-173.20508
0
LINE
8
0
10
-52.0
20
-49.461365
30
-173.20508
11
-50.0
21
-48.580933
31
-173.20508
0
LINE
8
0
10
-52.0
20
50.538635
30
-173.20508
11
-50.0
21
51.419067
31
-173.20508
0
LINE
8
0
10
-50.0
20
-48.580933
30
-173.20508
11
-48.0
21
-47.78595
31
-173.20508
0
LINE
8
0
10
-50.0
20
51.419067
30
-173.20508
11
-48.0
21
52.21405
31
-173.20508
0
LINE
8
0
10
-48.0
20
-47.78595
30
-173.20508
11
-46.0
21
-47.20764
31
-173.20508
0
LINE
8
0
10
-48.0
20
52.21405
30
-173.20508
11
-46.0
21
52.79236
31
-173.20508
0
LINE
8
0
10
-46.0
20
-47.20764
30
-173.20508
11
-44.0
21
-46.92688
31
-173.20508
0
LINE
8
0
10
-46.0
20
52.79236
30
-173.20508
11
-44.0
21
53.07312
31
-173.20508
0
LINE
8
0
10
-44.0
20
-46.92688
30
-173.20508
11
-42.0
21
-46.87805
31
-173.20508
0
LINE
8
0
10
-44.0
20
53.07312
30
-173.20508
11
-42.0
21
53.12195
31
-173.20508
0
LINE
8
0
10
-42.0
20
-46.87805
30
-173.20508
11
-40.0
21
-47.08557
31
-173.20508
0
LINE
8
0
10
-42.0
20
53.12195
30
-173.20508
11
-40.0
21
52.91443
31
-173.20508
0
LINE
8
0
10
-40.0
20
-47.08557
30
-173.20508
11
-38.0
21
-47.538757
31
-173.20508
0
LINE
8
0
10
-40.0
20
52.91443
30
-173.20508
11
-38.0
21
52.461243
31
-173.20508
0
LINE
8
0
10
-38.0
20
-47.538757
30
-173.20508
11
-36.0
21
-48.147583
31
-173.20508
0
LINE
8
0
10
-38.0
20
52.461243
30
-173.20508
11
-36.0
21
51.852417
31
-173.20508
0
LINE
8
0
10
-36.0
20
-48.147583
30
-173.20508
11
-34.0
21
-48.924255
31
-173.20508
0
LINE
8
0
10
-36.0
20
51.852417
30
-173.20508
11
-34.0
21
51.075745
31
-173.20508
0
LINE
8
0
10
-34.0
20
-48.924255
30
-173.20508
11
-32.0
21
-49.790955
31
-173.20508
0
LINE
8
0
10
-34.0
20
51.075745
30
-173.20508
11
-32.0
21
50.209045
31
-173.20508
0
LINE
8
0
10
-32.0
20
-49.790955
30
-173.20508
11
-30.0
21
-50.680542
31
-173.20508
0
LINE
8
0
10
-32.0
20
50.209045
30
-173.20508
11
-30.0
21
49.319458
31
-173.20508
0
LINE
8
0
10
-30.0
20
-50.680542
30
-173.20508
11
-28.0
21
-51.557922
31
-173.20508
0
LINE
8
0
10
-30.0
20
49.319458
30
-173.20508
11
-28.0
21
48.442078
31
-173.20508
0
LINE
8
0
10
-28.0
20
-51.557922
30
-173.20508
11
-26.0
21
-52.37732
31
-173.20508
0
LINE
8
0
10
-28.0
20
48.442078
30
-173.20508
11
-26.0
21
47.62268
31
-173.20508
0
LINE
8
0
10
-26.0
20
-52.37732
30
-173.20508
11
-24.0
21
-52.952576
31
-173.20508
0
LINE
8
0
10
-26.0
20
47.62268
30
-173.20508
11
-24.0
21
47.047424
31
-173.20508
0
LINE
8
0
10
-24.0
20
-52.952576
30
-173.20508
11
-22.0
21
-53.216553
31
-173.20508
0
LINE
8
0
10
-24.0
20
47.047424
30
-173.20508
11
-22.0
21
46.783447
31
-173.20508
0
LINE
8
0
10
-22.0
20
-53.216553
30
-173.20508
11
-20.0
21
-53.23639
31
-173.20508
0
LINE
8
0
10
-22.0
20
46.783447
30
-173.20508
11
-20.0
21
46.76361
31
-173.20508
0
LINE
8
0
10
-20.0
20
-53.23639
30
-173.20508
11
-18.0
21
-52.91748
31
-173.20508
0
LINE
8
0
10
-20.0
20
46.76361
30
-173.20508
11
-18.0
21
47.08252
31
-173.20508
0
LINE
8
0
10
-18.0
20
-52.91748
30
-173.20508
11
-16.0
21
-52.337646
31
-173.20508
0
LINE
8
0
10
-18.0
20
47.08252
30
-173.20508
11
-16.0
21
47.662354
31
-173.20508
0
LINE
8
0
10
-16.0
20
-52.337646
30
-173.20508
11
-14.0
21
-51.52588
31
-173.20508
0
LINE
8
0
10
-16.0
20
47.662354
30
-173.20508
11
-14.0
21
48.47412
31
-173.20508
0
LINE
8
0
10
-14.0
20
-51.52588
30
-173.20508
11
-12.0
21
-50.6073
31
-173.20508
0
LINE
8
0
10
-14.0
20
48.47412
30
-173.20508
11
-12.0
21
49.3927
31
-173.20508
0
LINE
8
0
10
-12.0
20
-50.6073
30
-173.20508
11
-10.0
21
-49.67804
31
-173.20508
0
LINE
8
0
10
-12.0
20
49.3927
30
-173.20508
11
-10.0
21
50.32196
31
-173.20508
0
LINE
8
0
10
-10.0
20
-49.67804
30
-173.20508
11
-8.0
21
-48.794556
31
-173.20508
0
LINE
8
0
10
-10.0
20
50.32196
30
-173.20508
11
-8.0
21
51.205444
31
-173.20508
0
LINE
8
0
10
-8.0
20
-48.794556
30
-173.20508
11
-6.0
21
-47.96753
31
-173.20508
0
LINE
8
0
10
-8.0
20
51.205444
30
-173.20508
11
-6.0
21
52.03247
31
-173.20508
0
LINE
8
0
10
-6.0
20
-47.96753
30
-173.20508
11
-4.0
21
-47.322083
31
-173.20508
0
LINE
8
0
10
-6.0
20
52.03247
30
-173.20508
11
-4.0
21
52.677917
31
-173.20508
0
LINE
8
0
10
-4.0
20
-47.322083
30
-173.20508
11
-2.0
21
-46.984863
31
-173.20508
0
LINE
8
0
10
-4.0
20
52.677917
30
-173.20508
11
-2.0
21
53.015137
31
-173.20508
0
LINE
8
0
10
-2.0
20
-46.984863
30
-173.20508
11
0.0
21
-46.85974
31
-173.20508
0
LINE
8
0
10
-2.0
20
53.015137
30
-173.20508
11
0.0
21
53.14026
31
-173.20508
0
LINE
8
0
10
0.0
20
-46.85974
30
-173.20508
11
2.0
21
-46.998596
31
-173.20508
0
LINE
8
0
10
0.0
20
53.14026
30
-173.20508
11
2.0
21
53.001404
31
-173.20508
0
LINE
8
0
10
2.0
20
-46.998596
30
-173.20508
11
4.0
21
-47.42737
31
-173.20508
0
LINE
8
0
10
2.0
20
53.001404
30
-173.20508
11
4.0
21
52.57263
31
-173.20508
0
LINE
8
0
10
4.0
20
-47.42737
30
-173.20508
11
6.0
21
-48.025513
31
-173.20508
0
LINE
8
0
10
4.0
20
52.57263
30
-173.20508
11
6.0
21
51.974487
31
-173.20508
0
LINE
8
0
10
6.0
20
-48.025513
30
-173.20508
11
8.0
21
-48.788452
31
-173.20508
0
LINE
8
0
10
6.0
20
51.974487
30
-173.20508
11
8.0
21
51.211548
31
-173.20508
0
LINE
8
0
10
8.0
20
-48.788452
30
-173.20508
11
10.0
21
-49.664307
31
-173.20508
0
LINE
8
0
10
8.0
20
51.211548
30
-173.20508
11
10.0
21
50.335693
31
-173.20508
0
LINE
8
0
10
10.0
20
-49.664307
30
-173.20508
11
12.0
21
-50.546265
31
-173.20508
0
LINE
8
0
10
10.0
20
50.335693
30
-173.20508
11
12.0
21
49.453735
31
-173.20508
0
LINE
8
0
10
12.0
20
-50.546265
30
-173.20508
11
14.0
21
-51.42975
31
-173.20508
0
LINE
8
0
10
12.0
20
49.453735
30
-173.20508
11
14.0
21
48.57025
31
-173.20508
0
LINE
8
0
10
14.0
20
-51.42975
30
-173.20508
11
16.0
21
-52.230835
31
-173.20508
0
LINE
8
0
10
14.0
20
48.57025
30
-173.20508
11
16.0
21
47.769165
31
-173.20508
0
LINE
8
0
10
16.0
20
-52.230835
30
-173.20508
11
18.0
21
-52.816772
31
-173.20508
0
LINE
8
0
10
16.0
20
47.769165
30
-173.20508
11
18.0
21
47.183228
31
-173.20508
0
LINE
8
0
10
18.0
20
-52.816772
30
-173.20508
11
20.0
21
-53.149414
31
-173.20508
0
LINE
8
0
10
18.0
20
47.183228
30
-173.20508
11
20.0
21
46.850586
31
-173.20508
0
LINE
8
0
10
20.0
20
-53.149414
30
-173.20508
11
22.0
21
-53.207397
31
-173.20508
0
LINE
8
0
10
20.0
20
46.850586
30
-173.20508
11
22.0
21
46.792603
31
-173.20508
0
LINE
8
0
10
22.0
20
-53.207397
30
-173.20508
11
24.0
21
-52.964783
31
-173.20508
0
LINE
8
0
10
22.0
20
46.792603
30
-173.20508
11
24.0
21
47.035217
31
-173.20508
0
LINE
8
0
10
24.0
20
-52.964783
30
-173.20508
11
26.0
21
-52.415466
31
-173.20508
0
LINE
8
0
10
24.0
20
47.035217
30
-173.20508
11
26.0
21
47.584534
31
-173.20508
0
LINE
8
0
10
26.0
20
-52.415466
30
-173.20508
11
28.0
21
-51.654053
31
-173.20508
0
LINE
8
0
10
26.0
20
47.584534
30
-173.20508
11
28.0
21
48.345947
31
-173.20508
0
LINE
8
0
10
28.0
20
-51.654053
30
-173.20508
11
30.0
21
-50.723267
31
-173.20508
0
LINE
8
0
10
28.0
20
48.345947
30
-173.20508
11
30.0
21
49.276733
31
-173.20508
0
LINE
8
0
10
30.0
20
-50.723267
30
-173.20508
11
32.0
21
-49.76349
31
-173.20508
0
LINE
8
0
10
30.0
20
49.276733
30
-173.20508
11
32.0
21
50.23651
31
-173.20508
0
LINE
8
0
10
32.0
20
-49.76349
30
-173.20508
11
34.0
21
-48.895264
31
-173.20508
0
LINE
8
0
10
32.0
20
50.23651
30
-173.20508
11
34.0
21
51.104736
31
-173.20508
0
LINE
8
0
10
34.0
20
-48.895264
30
-173.20508
11
36.0
21
-48.06671
31
-173.20508
0
LINE
8
0
10
34.0
20
51.104736
30
-173.20508
11
36.0
21
51.93329
31
-173.20508
0
LINE
8
0
10
36.0
20
-48.06671
30
-173.20508
11
38.0
21
-47.48993
31
-173.20508
0
LINE
8
0
10
36.0
20
51.93329
30
-173.20508
11
38.0
21
52.51007
31
-173.20508
0
LINE
8
0
10
38.0
20
-47.48993
30
-173.20508
11
40.0
21
-47.12677
31
-173.20508
0
LINE
8
0
10
38.0
20
52.51007
30
-173.20508
11
40.0
21
52.87323
31
-173.20508
0
LINE
8
0
10
40.0
20
-47.12677
30
-173.20508
11
42.0
21
-47.0047
31
-173.20508
0
LINE
8
0
10
40.0
20
52.87323
30
-173.20508
11
42.0
21
52.9953
31
-173.20508
0
LINE
8
0
10
42.0
20
-47.0047
30
-173.20508
11
44.0
21
-47.11151
31
-173.20508
0
LINE
8
0
10
42.0
20
52.9953
30
-173.20508
11
44.0
21
52.88849
31
-173.20508
0
LINE
8
0
10
44.0
20
-47.11151
30
-173.20508
11
46.0
21
-47.454834
31
-173.20508
0
LINE
8
0
10
44.0
20
52.88849
30
-173.20508
11
46.0
21
52.545166
31
-173.20508
0
LINE
8
0
10
46.0
20
-47.454834
30
-173.20508
11
48.0
21
-48.01483
31
-173.20508
0
LINE
8
0
10
46.0
20
52.545166
30
-173.20508
11
48.0
21
51.98517
31
-173.20508
0
LINE
8
0
10
48.0
20
-48.01483
30
-173.20508
11
50.0
21
-48.762512
31
-173.20508
0
LINE
8
0
10
48.0
20
51.98517
30
-173.20508
11
50.0
21
51.237488
31
-173.20508
0
LINE
8
0
10
50.0
20
-48.762512
30
-173.20508
11
52.0
21
-49.61548
31
-173.20508
0
LINE
8
0
10
50.0
20
51.237488
30
-173.20508
11
52.0
21
50.38452
31
-173.20508
0
LINE
8
0
10
52.0
20
-49.61548
30
-173.20508
11
54.0
21
-50.456238
31
-173.20508
0
LINE
8
0
10
52.0
20
50.38452
30
-173.20508
11
54.0
21
49.543762
31
-173.20508
0
LINE
8
0
10
54.0
20
-50.456238
30
-173.20508
11
56.0
21
-51.33362
31
-173.20508
0
LINE
8
0
10
54.0
20
49.543762
30
-173.20508
11
56.0
21
48.66638
31
-173.20508
0
LINE
8
0
10
56.0
20
-51.33362
30
-173.20508
11
58.0
21
-52.096558
31
-173.20508
0
LINE
8
0
10
56.0
20
48.66638
30
-173.20508
11
58.0
21
47.903442
31
-173.20508
0
LINE
8
0
10
58.0
20
-52.096558
30
-173.20508
11
60.0
21
-52.645874
31
-173.20508
0
LINE
8
0
10
58.0
20
47.903442
30
-173.20508
11
60.0
21
47.354126
31
-173.20508
0
LINE
8
0
10
60.0
20
-52.645874
30
-173.20508
11
62.0
21
-53.015137
31
-173.20508
0
LINE
8
0
10
60.0
20
47.354126
30
-173.20508
11
62.0
21
46.984863
31
-173.20508
0
LINE
8
0
10
62.0
20
-53.015137
30
-173.20508
11
64.0
21
-53.129578
31
-173.20508
0
LINE
8
0
10
62.0
20
46.984863
30
-173.20508
11
64.0
21
46.870422
31
-173.20508
0
LINE
8
0
10
64.0
20
-53.129578
30
-173.20508
11
66.0
21
-52.93274
31
-173.20508
0
LINE
8
0
10
64.0
20
46.870422
30
-173.20508
11
66.0
21
47.06726
31
-173.20508
0
LINE
8
0
10
66.0
20
-52.93274
30
-173.20508
11
68.0
21
-52.467346
31
-173.20508
0
LINE
8
0
10
66.0
20
47.06726
30
-173.20508
11
68.0
21
47.532654
31
-173.20508
0
LINE
8
0
10
68.0
20
-52.467346
30
-173.20508
11
70.0
21
-51.77002
31
-173.20508
0
LINE
8
0
10
68.0
20
47.532654
30
-173.20508
11
70.0
21
48.22998
31
-173.20508
0
LINE
8
0
10
70.0
20
-51.77002
30
-173.20508
11
72.0
21
-50.920105
31
-173.20508
0
LINE
8
0
10
70.0
20
48.22998
30
-173.20508
11
72.0
21
49.079895
31
-173.20508
0
LINE
8
0
10
72.0
20
-50.920105
30
-173.20508
11
74.0
21
-50.012207
31
-173.20508
0
LINE
8
0
10
72.0
20
49.079895
30
-173.20508
11
74.0
21
49.987793
31
-173.20508
0
LINE
8
0
10
74.0
20
-50.012207
30
-173.20508
11
76.0
21
-49.12262
31
-173.20508
0
LINE
8
0
10
74.0
20
49.987793
30
-173.20508
11
76.0
21
50.87738
31
-173.20508
0
LINE
8
0
10
76.0
20
-49.12262
30
-173.20508
11
78.0
21
-48.286438
31
-173.20508
0
LINE
8
0
10
76.0
20
50.87738
30
-173.20508
11
78.0
21
51.713562
31
-173.20508
0
LINE
8
0
10
78.0
20
-48.286438
30
-173.20508
11
80.0
21
-47.634888
31
-173.20508
0
LINE
8
0
10
78.0
20
51.713562
30
-173.20508
11
80.0
21
52.365112
31
-173.20508
0
LINE
8
0
10
80.0
20
-47.634888
30
-173.20508
11
82.0
21
-47.203064
31
-173.20508
0
LINE
8
0
10
80.0
20
52.365112
30
-173.20508
11
82.0
21
52.796936
31
-173.20508
0
LINE
8
0
10
82.0
20
-47.203064
30
-173.20508
11
84.0
21
-47.006226
31
-173.20508
0
LINE
8
0
10
82.0
20
52.796936
30
-173.20508
11
84.0
21
52.993774
31
-173.20508
0
LINE
8
0
10
84.0
20
-47.006226
30
-173.20508
11
86.0
21
-47.070312
31
-173.20508
0
LINE
8
0
10
84.0
20
52.993774
30
-173.20508
11
86.0
21
52.929688
31
-173.20508
0
LINE
8
0
10
86.0
20
-47.070312
30
-173.20508
11
88.0
21
-47.390747
31
-173.20508
0
LINE
8
0
10
86.0
20
52.929688
30
-173.20508
11
88.0
21
52.609253
31
-173.20508
0
LINE
8
0
10
88.0
20
-47.390747
30
-173.20508
11
90.0
21
-47.91565
31
-173.20508
0
LINE
8
0
10
88.0
20
52.609253
30
-173.20508
11
90.0
21
52.08435
31
-173.20508
0
LINE
8
0
10
90.0
20
-47.91565
30
-173.20508
11
92.0
21
-48.62976
31
-173.20508
0
LINE
8
0
10
90.0
20
52.08435
30
-173.20508
11
92.0
21
51.37024
31
-173.20508
0
LINE
8
0
10
92.0
20
-48.62976
30
-173.20508
11
94.0
21
-49.450684
31
-173.20508
0
LINE
8
0
10
92.0
20
51.37024
30
-173.20508
11
94.0
21
50.549316
31
-173.20508
0
LINE
8
0
10
94.0
20
-49.450684
30
-173.20508
11
96.0
21
-50.346375
31
-173.20508
0
LINE
8
0
10
94.0
20
50.549316
30
-173.20508
11
96.0
21
49.653625
31
-173.20508
0
LINE
8
0
10
96.0
20
-50.346375
30
-173.20508
11
98.0
21
-51.237488
31
-173.20508
0
LINE
8
0
10
96.0
20
49.653625
30
-173.20508
11
98.0
21
48.762512
31
-173.20508
0
LINE
8
0
10
98.0
20
-51.237488
30
-173.20508
11
100.0
21
-52.001953
31
-173.20508
0
LINE
8
0
10
98.0
20
48.762512
30
-173.20508
11
100.0
21
47.998047
31
-173.20508
0
LINE
8
0
10
100.0
20
-52.001953
30
-173.20508
11
102.0
21
-52.64435
31
-173.20508
0
LINE
8
0
10
100.0
20
47.998047
30
-173.20508
11
102.0
21
47.35565
31
-173.20508
0
LINE
8
0
10
102.0
20
-52.64435
30
-173.20508
11
104.0
21
-53.045654
31
-173.20508
0
LINE
8
0
10
102.0
20
47.35565
30
-173.20508
11
104.0
21
46.954346
31
-173.20508
0
LINE
8
0
10
104.0
20
-53.045654
30
-173.20508
11
106.0
21
-53.13568
31
-173.20508
0
LINE
8
0
10
104.0
20
46.954346
30
-173.20508
11
106.0
21
46.86432
31
-173.20508
0
LINE
8
0
10
106.0
20
-53.13568
30
-173.20508
11
108.0
21
-52.94037
31
-173.20508
0
LINE
8
0
10
106.0
20
46.86432
30
-173.20508
11
108.0
21
47.05963
31
-173.20508
0
LINE
8
0
10
108.0
20
-52.94037
30
-173.20508
11
110.0
21
-52.487183
31
-173.20508
0
LINE
8
0
10
108.0
20
47.05963
30
-173.20508
11
110.0
21
47.512817
31
-173.20508
0
LINE
8
0
10
110.0
20
-52.487183
30
-173.20508
11
112.0
21
-51.77765
31
-173.20508
0
LINE
8
0
10
110.0
20
47.512817
30
-173.20508
11
112.0
21
48.22235
31
-173.20508
0
LINE
8
0
10
112.0
20
-51.77765
30
-173.20508
11
114.0
21
-50.958252
31
-173.20508
0
LINE
8
0
10
112.0
20
48.22235
30
-173.20508
11
114.0
21
49.041748
31
-173.20508
0
LINE
8
0
10
114.0
20
-50.958252
30
-173.20508
11
116.0
21
-50.042725
31
-173.20508
0
LINE
8
0
10
114.0
20
49.041748
30
-173.20508
11
116.0
21
49.957275
31
-173.20508
0
LINE
8
0
10
116.0
20
-50.042725
30
-173.20508
11
118.0
21
-49.121094
31
-173.20508
0
LINE
8
0
10
116.0
20
49.957275
30
-173.20508
11
118.0
21
50.878906
31
-173.20508
0
LINE
8
0
10
118.0
20
-49.121094
30
-173.20508
11
120.0
21
-48.298645
31
-173.20508
0
LINE
8
0
10
118.0
20
50.878906
30
-173.20508
11
120.0
21
51.701355
31
-173.20508
0
LINE
8
0
10
120.0
20
-48.298645
30
-173.20508
11
122.0
21
-47.647095
31
-173.20508
0
LINE
8
0
10
120.0
20
51.701355
30
-173.20508
11
122.0
21
52.352905
31
-173.20508
0
LINE
8
0
10
122.0
20
-47.647095
30
-173.20508
11
124.0
21
-47.190857
31
-173.20508
0
LINE
8
0
10
122.0
20
52.352905
30
-173.20508
11
124.0
21
52.809143
31
-173.20508
0
LINE
8
0
10
124.0
20
-47.190857
30
-173.20508
11
126.0
21
-46.98639
31
-173.20508
0
LINE
8
0
10
124.0
20
52.809143
30
-173.20508
11
126.0
21
53.01361
31
-173.20508
0
LINE
8
0
10
126.0
20
-46.98639
30
-173.20508
11
128.0
21
-47.058105
31
-173.20508
0
LINE
8
0
10
126.0
20
53.01361
30
-173.20508
11
128.0
21
52.941895
31
-173.20508
0
LINE
8
0
10
128.0
20
-47.058105
30
-173.20508
11
130.0
21
-47.36023
31
-173.20508
0
LINE
8
0
10
128.0
20
52.941895
30
-173.20508
11
130.0
21
52.63977
31
-173.20508
0
LINE
8
0
10
130.0
20
-47.36023
30
-173.20508
11
132.0
21
-47.89734
31
-173.20508
0
LINE
8
0
10
130.0
20
52.63977
30
-173.20508
11
132.0
21
52.10266
31
-173.20508
0
LINE
8
0
10
132.0
20
-47.89734
30
-173.20508
11
134.0
21
-48.612976
31
-173.20508
0
LINE
8
0
10
132.0
20
52.10266
30
-173.20508
11
134.0
21
51.387024
31
-173.20508
0
LINE
8
0
10
134.0
20
-48.612976
30
-173.20508
11
136.0
21
-49.41101
31
-173.20508
0
LINE
8
0
10
134.0
20
51.387024
30
-173.20508
11
136.0
21
50.58899
31
-173.20508
0
LINE
8
0
10
136.0
20
-49.41101
30
-173.20508
11
138.0
21
-50.27466
31
-173.20508
0
LINE
8
0
10
136.0
20
50.58899
30
-173.20508
11
138.0
21
49.72534
31
-173.20508
0
LINE
8
0
10
138.0
20
-50.27466
30
-173.20508
11
140.0
21
-51.150513
31
-173.20508
0
LINE
8
0
10
138.0
20
49.72534
30
-173.20508
11
140.0
21
48.849487
31
-173.20508
0
LINE
8
0
10
140.0
20
-51.150513
30
-173.20508
11
142.0
21
-51.92566
31
-173.20508
0
LINE
8
0
10
140.0
20
48.849487
30
-173.20508
11
142.0
21
48.07434
31
-173.20508
0
LINE
8
0
10
142.0
20
-51.92566
30
-173.20508
11
144.0
21
-52.56653
31
-173.20508
0
LINE
8
0
10
142.0
20
48.07434
30
-173.20508
11
144.0
21
47.43347
31
-173.20508
0
LINE
8
0
10
144.0
20
-52.56653
30
-173.20508
11
146.0
21
-52.989197
31
-173.20508
0
LINE
8
0
10
144.0
20
47.43347
30
-173.20508
11
146.0
21
47.010803
31
-173.20508
0
LINE
8
0
10
146.0
20
-52.989197
30
-173.20508
11
148.0
21
-53.105164
31
-173.20508
0
LINE
8
0
10
146.0
20
47.010803
30
-173.20508
11
148.0
21
46.894836
31
-173.20508
0
LINE
8
0
10
148.0
20
-53.105164
30
-173.20508
11
150.0
21
-52.93579
31
-173.20508
0
LINE
8
0
10
148.0
20
46.894836
30
-173.20508
11
150.0
21
47.06421
31
-173.20508
0
LINE
8
0
10
150.0
20
-52.93579
30
-173.20508
11
152.0
21
-52.513123
31
-173.20508
0
LINE
8
0
10
150.0
20
47.06421
30
-173.20508
11
152.0
21
47.486877
31
-173.20508
0
LINE
8
0
10
152.0
20
-52.513123
30
-173.20508
11
154.0
21
-51.872253
31
-173.20508
0
LINE
8
0
10
152.0
20
47.486877
30
-173.20508
11
154.0
21
48.127747
31
-173.20508
0
LINE
8
0
10
154.0
20
-51.872253
30
-173.20508
11
156.0
21
-51.0437
31
-173.20508
0
LINE
8
0
10
154.0
20
48.127747
30
-173.20508
11
156.0
21
48.9563
31
-173.20508
0
LINE
8
0
10
156.0
20
-51.0437
30
-173.20508
11
158.0
21
-50.14801
31
-173.20508
0
LINE
8
0
10
156.0
20
48.9563
30
-173.20508
11
158.0
21
49.85199
31
-173.20508
0
LINE
8
0
10
158.0
20
-50.14801
30
-173.20508
11
160.0
21
-49.20807
31
-173.20508
0
LINE
8
0
10
158.0
20
49.85199
30
-173.20508
11
160.0
21
50.79193
31
-173.20508
0
LINE
8
0
10
160.0
20
-49.20807
30
-173.20508
11
162.0
21
-48.338318
31
-173.20508
0
LINE
8
0
10
160.0
20
50.79193
30
-173.20508
11
162.0
21
51.661682
31
-173.20508
0
LINE
8
0
10
162.0
20
-48.338318
30
-173.20508
11
164.0
21
-47.657776
31
-173.20508
0
LINE
8
0
10
162.0
20
51.661682
30
-173.20508
11
164.0
21
52.342224
31
-173.20508
0
LINE
8
0
10
164.0
20
-47.657776
30
-173.20508
11
166.0
21
-47.183228
31
-173.20508
0
LINE
8
0
10
164.0
20
52.342224
30
-173.20508
11
166.0
21
52.816772
31
-173.20508
0
LINE
8
0
10
166.0
20
-47.183228
30
-173.20508
11
168.0
21
-46.943665
31
-173.20508
0
LINE
8
0
10
166.0
20
52.816772
30
-173.20508
11
168.0
21
53.056335
31
-173.20508
0
LINE
8
0
10
168.0
20
-46.943665
30
-173.20508
11
170.0
21
-46.987915
31
-173.20508
0
LINE
8
0
10
168.0
20
53.056335
30
-173.20508
11
170.0
21
53.012085
31
-173.20508
0
LINE
8
0
10
170.0
20
-46.987915
30
-173.20508
11
172.0
21
-47.277832
31
-173.20508
0
LINE
8
0
10
170.0
20
53.012085
30
-173.20508
11
172.0
21
52.722168
31
-173.20508
0
LINE
8
0
10
172.0
20
-47.277832
30
-173.20508
11
174.0
21
-47.795105
31
-173.20508
0
LINE
8
0
10
172.0
20
52.722168
30
-173.20508
11
174.0
21
52.204895
31
-173.20508
0
LINE
8
0
10
174.0
20
-47.795105
30
-173.20508
11
176.0
21
-48.49243
31
-173.20508
0
LINE
8
0
10
174.0
20
52.204895
30
-173.20508
11
176.0
21
51.50757
31
-173.20508
0
LINE
8
0
10
176.0
20
-48.49243
30
-173.20508
11
178.0
21
-49.33777
31
-173.20508
0
LINE
8
0
10
176.0
20
51.50757
30
-173.20508
11
178.0
21
50.66223
31
-173.20508
0
LINE
8
0
10
178.0
20
-49.33777
30
-173.20508
11
180.0
21
-50.247192
31
-173.20508
0
LINE
8
0
10
178.0
20
50.66223
30
-173.20508
11
180.0
21
49.752808
31
-173.20508
0
LINE
8
0
10
180.0
20
-50.247192
30
-173.20508
11
182.0
21
-51.133728
31
-173.20508
0
LINE
8
0
10
180.0
20
49.752808
30
-173.20508
11
182.0
21
48.866272
31
-173.20508
0
LINE
8
0
10
182.0
20
-51.133728
30
-173.20508
11
184.0
21
-51.92871
31
-173.20508
0
LINE
8
0
10
182.0
20
48.866272
30
-173.20508
11
184.0
21
48.07129
31
-173.20508
0
LINE
8
0
10
184.0
20
-51.92871
30
-173.20508
11
186.0
21
-52.568054
31
-173.20508
0
LINE
8
0
10
184.0
20
48.07129
30
-173.20508
11
186.0
21
47.431946
31
-173.20508
0
LINE
8
0
10
186.0
20
-52.568054
30
-173.20508
11
188.0
21
-52.98004
31
-173.20508
0
LINE
8
0
10
186.0
20
47.431946
30
-173.20508
11
188.0
21
47.01996
31
-173.20508
0
LINE
8
0
10
188.0
20
-52.98004
30
-173.20508
11
190.0
21
-53.131104
31
-173.20508
0
LINE
8
0
10
188.0
20
47.01996
30
-173.20508
11
190.0
21
46.868896
31
-173.20508
0
LINE
8
0
10
190.0
20
-53.131104
30
-173.20508
11
192.0
21
-52.993774
31
-173.20508
0
LINE
8
0
10
190.0
20
46.868896
30
-173.20508
11
192.0
21
47.006226
31
-173.20508
0
LINE
8
0
10
192.0
20
-52.993774
30
-173.20508
11
194.0
21
-52.571106
31
-173.20508
0
LINE
8
0
10
192.0
20
47.006226
30
-173.20508
11
194.0
21
47.428894
31
-173.20508
0
LINE
8
0
10
194.0
20
-52.571106
30
-173.20508
11
196.0
21
-51.9104
31
-173.20508
0
LINE
8
0
10
194.0
20
47.428894
30
-173.20508
11
196.0
21
48.0896
31
-173.20508
0
LINE
8
0
10
196.0
20
-51.9104
30
-173.20508
11
198.0
21
-51.0849
31
-173.20508
0
LINE
8
0
10
196.0
20
48.0896
30
-173.20508
11
198.0
21
48.9151
31
-173.20508
0
LINE
8
0
10
198.0
20
-51.0849
30
-173.20508
11
200.0
21
-50.1709
31
-173.20508
0
LINE
8
0
10
198.0
20
48.9151
30
-173.20508
11
200.0
21
49.8291
31
-173.20508
0
LINE
8
0
10
200.0
20
-50.1709
30
-173.20508
11
202.0
21
-49.264526
31
-173.20508
0
LINE
8
0
10
200.0
20
49.8291
30
-173.20508
11
202.0
21
50.735474
31
-173.20508
0
LINE
8
0
10
202.0
20
-49.264526
30
-173.20508
11
204.0
21
-48.44818
31
-173.20508
0
LINE
8
0
10
202.0
20
50.735474
30
-173.20508
11
204.0
21
51.55182
31
-173.20508
0
LINE
8
0
10
204.0
20
-48.44818
30
-173.20508
11
206.0
21
-47.746277
31
-173.20508
0
LINE
8
0
10
204.0
20
51.55182
30
-173.20508
11
206.0
21
52.253723
31
-173.20508
0
LINE
8
0
10
206.0
20
-47.746277
30
-173.20508
11
208.0
21
-47.24121
31
-173.20508
0
LINE
8
0
10
206.0
20
52.253723
30
-173.20508
11
208.0
21
52.75879
31
-173.20508
0
LINE
8
0
10
208.0
20
-47.24121
30
-173.20508
11
210.0
21
-46.99707
31
-173.20508
0
LINE
8
0
10
208.0
20
52.75879
30
-173.20508
11
210.0
21
53.00293
31
-173.20508
0
LINE
8
0
10
210.0
20
-46.99707
30
-173.20508
11
212.0
21
-47.01996
31
-173.20508
0
LINE
8
0
10
210.0
20
53.00293
30
-173.20508
11
212.0
21
52.98004
31
-173.20508
0
LINE
8
0
10
212.0
20
-47.01996
30
-173.20508
11
214.0
21
-47.283936
31
-173.20508
0
LINE
8
0
10
212.0
20
52.98004
30
-173.20508
11
214.0
21
52.716064
31
-173.20508
0
LINE
8
0
10
214.0
20
-47.283936
30
-173.20508
11
216.0
21
-47.76764
31
-173.20508
0
LINE
8
0
10
214.0
20
52.716064
30
-173.20508
11
216.0
21
52.23236
31
-173.20508
0
LINE
8
0
10
216.0
20
-47.76764
30
-173.20508
11
218.0
21
-48.44055
31
-173.20508
0
LINE
8
0
10
216.0
20
52.23236
30
-173.20508
11
218.0
21
51.55945
31
-173.20508
0
LINE
8
0
10
218.0
20
-48.44055
30
-173.20508
11
220.0
21
-49.217224
31
-173.20508
0
LINE
8
0
10
218.0
20
51.55945
30
-173.20508
11
220.0
21
50.782776
31
-173.20508
0
LINE
8
0
10
220.0
20
-49.217224
30
-173.20508
11
222.0
21
-50.08087
31
-173.20508
0
LINE
8
0
10
220.0
20
50.782776
30
-173.20508
11
222.0
21
49.91913
31
-173.20508
0
LINE
8
0
10
222.0
20
-50.08087
30
-173.20508
11
224.0
21
-50.942993
31
-173.20508
0
LINE
8
0
10
222.0
20
49.91913
30
-173.20508
11
224.0
21
49.057007
31
-173.20508
0
LINE
8
0
10
224.0
20
-50.942993
30
-173.20508
11
226.0
21
-51.739502
31
-173.20508
0
LINE
8
0
10
224.0
20
49.057007
30
-173.20508
11
226.0
21
48.260498
31
-173.20508
0
LINE
8
0
10
226.0
20
-51.739502
30
-173.20508
11
228.0
21
-52.41394
31
-173.20508
0
LINE
8
0
10
226.0
20
48.260498
30
-173.20508
11
228.0
21
47.58606
31
-173.20508
0
LINE
8
0
10
228.0
20
-52.41394
30
-173.20508
11
230.0
21
-52.882385
31
-173.20508
0
LINE
8
0
10
228.0
20
47.58606
30
-173.20508
11
230.0
21
47.117615
31
-173.20508
0
LINE
8
0
10
230.0
20
-52.882385
30
-173.20508
11
232.0
21
-53.07617
31
-173.20508
0
LINE
8
0
10
230.0
20
47.117615
30
-173.20508
11
232.0
21
46.92383
31
-173.20508
0
LINE
8
0
10
232.0
20
-53.07617
30
-173.20508
11
234.0
21
-53.01361
31
-173.20508
0
LINE
8
0
10
232.0
20
46.92383
30
-173.20508
11
234.0
21
46.98639
31
-173.20508
0
LINE
8
0
10
234.0
20
-53.01361
30
-173.20508
11
236.0
21
-52.67639
31
-173.20508
0
LINE
8
0
10
234.0
20
46.98639
30
-173.20508
11
236.0
21
47.32361
31
-173.20508
0
LINE
8
0
10
236.0
20
-52.67639
30
-173.20508
11
238.0
21
-52.093506
31
-173.20508
0
LINE
8
0
10
236.0
20
47.32361
30
-173.20508
11
238.0
21
47.906494
31
-173.20508
0
LINE
8
0
10
238.0
20
-52.093506
30
-173.20508
11
240.0
21
-51.312256
31
-173.20508
0
LINE
8
0
10
238.0
20
47.906494
30
-173.20508
11
240.0
21
48.687744
31
-173.20508
0
LINE
8
0
10
240.0
20
-51.312256
30
-173.20508
11
242.0
21
-50.442505
31
-173.20508
0
LINE
8
0
10
240.0
20
48.687744
30
-173.20508
11
242.0
21
49.557495
31
-173.20508
0
LINE
8
0
10
242.0
20
-50.442505
30
-173.20508
11
244.0
21
-49.49646
31
-173.20508
0
LINE
8
0
10
242.0
20
49.557495
30
-173.20508
11
244.0
21
50.50354
31
-173.20508
0
LINE
8
0
10
244.0
20
-49.49646
30
-173.20508
11
246.0
21
-48.62976
31
-173.20508
0
LINE
8
0
10
244.0
20
50.50354
30
-173.20508
11
246.0
21
51.37024
31
-173.20508
0
LINE
8
0
10
246.0
20
-48.62976
30
-173.20508
11
248.0
21
-47.90802
31
-173.20508
0
LINE
8
0
10
246.0
20
51.37024
30
-173.20508
11
248.0
21
52.09198
31
-173.20508
0
LINE
8
0
10
248.0
20
-47.90802
30
-173.20508
11
250.0
21
-47.361755
31
-173.20508
0
LINE
8
0
10
248.0
20
52.09198
30
-173.20508
11
250.0
21
52.638245
31
-173.20508
0
LINE
8
0
10
250.0
20
-47.361755
30
-173.20508
11
252.0
21
-47.039795
31
-173.20508
0
LINE
8
0
10
250.0
20
52.638245
30
-173.20508
11
252.0
21
52.960205
31
-173.20508
0
LINE
8
0
10
252.0
20
-47.039795
30
-173.20508
11
254.0
21
-47.00775
31
-173.20508
0
LINE
8
0
10
252.0
20
52.960205
30
-173.20508
11
254.0
21
52.99225
31
-173.20508
0
ENDSEC
0
EOF
