0
SECTION
2
ENTITIES
0
LINE
8
0
10
-256.0
20
-36.71875
30
-173.20508
11
-254.0
21
-41.323853
31
-173.20508
0
LINE
8
0
10
-256.0
20
63.28125
30
-173.20508
11
-254.0
21
58.676147
31
-173.20508
0
LINE
8
0
10
-254.0
20
-41.323853
30
-173.20508
11
-252.0
21
-46.731567
31
-173.20508
0
LINE
8
0
10
-254.0
20
58.676147
30
-173.20508
11
-252.0
21
53.268433
31
-173.20508
0
LINE
8
0
10
-252.0
20
-46.731567
30
-173.20508
11
-250.0
21
-51.994324
31
-173.20508
0
LINE
8
0
10
-252.0
20
53.268433
30
-173.20508
11
-250.0
21
48.005676
31
-173.20508
0
LINE
8
0
10
-250.0
20
-51.994324
30
-173.20508
11
-248.0
21
-54.91028
31
-173.20508
0
LINE
8
0
10
-250.0
20
48.005676
30
-173.20508
11
-248.0
21
45.08972
31
-173.20508
0
LINE
8
0
10
-248.0
20
-54.91028
30
-173.20508
11
-246.0
21
-56.562805
31
-173.20508
0
LINE
8
0
10
-248.0
20
45.08972
30
-173.20508
11
-246.0
21
43.437195
31
-173.20508
0
LINE
8
0
10
-246.0
20
-56.562805
30
-173.20508
11
-244.0
21
-57.003784
31
-173.20508
0
LINE
8
0
10
-246.0
20
43.437195
30
-173.20508
11
-244.0
21
42.996216
31
-173.20508
0
LINE
8
0
10
-244.0
20
-57.003784
30
-173.20508
11
-242.0
21
-53.581238
31
-173.20508
0
LINE
8
0
10
-244.0
20
42.996216
30
-173.20508
11
-242.0
21
46.418762
31
-173.20508
0
LINE
8
0
10
-242.0
20
-53.581238
30
-173.20508
11
-240.0
21
-46.684265
31
-173.20508
0
LINE
8
0
10
-242.0
20
46.418762
30
-173.20508
11
-240.0
21
53.315735
31
-173.20508
0
LINE
8
0
10
-240.0
20
-46.684265
30
-173.20508
11
-238.0
21
-38.090515
31
-173.20508
0
LINE
8
0
10
-240.0
20
53.315735
30
-173.20508
11
-238.0
21
61.909485
31
-173.20508
0
LINE
8
0
10
-238.0
20
-38.090515
30
-173.20508
11
-236.0
21
-28.778076
31
-173.20508
0
LINE
8
0
10
-238.0
20
61.909485
30
-173.20508
11
-236.0
21
71.221924
31
-173.20508
0
LINE
8
0
10
-236.0
20
-28.778076
30
-173.20508
11
-234.0
21
-23.687744
31
-173.20508
0
LINE
8
0
10
-236.0
20
71.221924
30
-173.20508
11
-234.0
21
76.312256
31
-173.20508
0
LINE
8
0
10
-234.0
20
-23.687744
30
-173.20508
11
-232.0
21
-26.652527
31
-173.20508
0
LINE
8
0
10
-234.0
20
76.312256
30
-173.20508
11
-232.0
21
73.34747
31
-173.20508
0
LINE
8
0
10
-232.0
20
-26.652527
30
-173.20508
11
-230.0
21
-35.873413
31
-173.20508
0
LINE
8
0
10
-232.0
20
73.34747
30
-173.20508
11
-230.0
21
64.12659
31
-173.20508
0
LINE
8
0
10
-230.0
20
-35.873413
30
-173.20508
11
-228.0
21
-44.584656
31
-173.20508
0
LINE
8
0
10
-230.0
20
64.12659
30
-173.20508
11
-228.0
21
55.415344
31
-173.20508
0
LINE
8
0
10
-228.0
20
-44.584656
30
-173.20508
11
-226.0
21
-53.726196
31
-173.20508
0
LINE
8
0
10
-228.0
20
55.415344
30
-173.20508
11
-226.0
21
46.273804
31
-173.20508
0
LINE
8
0
10
-226.0
20
-53.726196
30
-173.20508
11
-224.0
21
-61.676025
31
-173.20508
0
LINE
8
0
10
-226.0
20
46.273804
30
-173.20508
11
-224.0
21
38.323975
31
-173.20508
0
LINE
8
0
10
-224.0
20
-61.676025
30
-173.20508
11
-222.0
21
-64.27307
31
-173.20508
0
LINE
8
0
10
-224.0
20
38.323975
30
-173.20508
11
-222.0
21
35.72693
31
-173.20508
0
LINE
8
0
10
-222.0
20
-64.27307
30
-173.20508
11
-220.0
21
-68.940735
31
-173.20508
0
LINE
8
0
10
-222.0
20
35.72693
30
-173.20508
11
-220.0
21
31.059265
31
-173.20508
0
LINE
8
0
10
-220.0
20
-68.940735
30
-173.20508
11
-218.0
21
-73.335266
31
-173.20508
0
LINE
8
0
10
-220.0
20
31.059265
30
-173.20508
11
-218.0
21
26.664734
31
-173.20508
0
LINE
8
0
10
-218.0
20
-73.335266
30
-173.20508
11
-216.0
21
-72.13287
31
-173.20508
0
LINE
8
0
10
-218.0
20
26.664734
30
-173.20508
11
-216.0
21
27.867126
31
-173.20508
0
LINE
8
0
10
-216.0
20
-72.13287
30
-173.20508
11
-214.0
21
-69.01245
31
-173.20508
0
LINE
8
0
10
-216.0
20
27.867126
30
-173.20508
11
-214.0
21
30.987549
31
-173.20508
0
LINE
8
0
10
-214.0
20
-69.01245
30
-173.20508
11
-212.0
21
-61.84845
31
-173.20508
0
LINE
8
0
10
-214.0
20
30.987549
30
-173.20508
11
-212.0
21
38.15155
31
-173.20508
0
LINE
8
0
10
-212.0
20
-61.84845
30
-173.20508
11
-210.0
21
-51.22223
31
-173.20508
0
LINE
8
0
10
-212.0
20
38.15155
30
-173.20508
11
-210.0
21
48.77777
31
-173.20508
0
LINE
8
0
10
-210.0
20
-51.22223
30
-173.20508
11
-208.0
21
-43.50586
31
-173.20508
0
LINE
8
0
10
-210.0
20
48.77777
30
-173.20508
11
-208.0
21
56.49414
31
-173.20508
0
LINE
8
0
10
-208.0
20
-43.50586
30
-173.20508
11
-206.0
21
-42.643738
31
-173.20508
0
LINE
8
0
10
-208.0
20
56.49414
30
-173.20508
11
-206.0
21
57.356262
31
-173.20508
0
LINE
8
0
10
-206.0
20
-42.643738
30
-173.20508
11
-204.0
21
-43.400574
31
-173.20508
0
LINE
8
0
10
-206.0
20
57.356262
30
-173.20508
11
-204.0
21
56.599426
31
-173.20508
0
LINE
8
0
10
-204.0
20
-43.400574
30
-173.20508
11
-202.0
21
-49.88556
31
-173.20508
0
LINE
8
0
10
-204.0
20
56.599426
30
-173.20508
11
-202.0
21
50.11444
31
-173.20508
0
LINE
8
0
10
-202.0
20
-49.88556
30
-173.20508
11
-200.0
21
-56.788635
31
-173.20508
0
LINE
8
0
10
-202.0
20
50.11444
30
-173.20508
11
-200.0
21
43.211365
31
-173.20508
0
LINE
8
0
10
-200.0
20
-56.788635
30
-173.20508
11
-198.0
21
-63.723755
31
-173.20508
0
LINE
8
0
10
-200.0
20
43.211365
30
-173.20508
11
-198.0
21
36.276245
31
-173.20508
0
LINE
8
0
10
-198.0
20
-63.723755
30
-173.20508
11
-196.0
21
-66.5329
31
-173.20508
0
LINE
8
0
10
-198.0
20
36.276245
30
-173.20508
11
-196.0
21
33.467102
31
-173.20508
0
LINE
8
0
10
-196.0
20
-66.5329
30
-173.20508
11
-194.0
21
-67.22107
31
-173.20508
0
LINE
8
0
10
-196.0
20
33.467102
30
-173.20508
11
-194.0
21
32.77893
31
-173.20508
0
LINE
8
0
10
-194.0
20
-67.22107
30
-173.20508
11
-192.0
21
-69.79523
31
-173.20508
0
LINE
8
0
10
-194.0
20
32.77893
30
-173.20508
11
-192.0
21
30.204773
31
-173.20508
0
LINE
8
0
10
-192.0
20
-69.79523
30
-173.20508
11
-190.0
21
-68.01453
31
-173.20508
0
LINE
8
0
10
-192.0
20
30.204773
30
-173.20508
11
-190.0
21
31.985474
31
-173.20508
0
LINE
8
0
10
-190.0
20
-68.01453
30
-173.20508
11
-188.0
21
-65.44647
31
-173.20508
0
LINE
8
0
10
-190.0
20
31.985474
30
-173.20508
11
-188.0
21
34.553528
31
-173.20508
0
LINE
8
0
10
-188.0
20
-65.44647
30
-173.20508
11
-186.0
21
-54.696655
31
-173.20508
0
LINE
8
0
10
-188.0
20
34.553528
30
-173.20508
11
-186.0
21
45.303345
31
-173.20508
0
LINE
8
0
10
-186.0
20
-54.696655
30
-173.20508
11
-184.0
21
-38.983154
31
-173.20508
0
LINE
8
0
10
-186.0
20
45.303345
30
-173.20508
11
-184.0
21
61.016846
31
-173.20508
0
LINE
8
0
10
-184.0
20
-38.983154
30
-173.20508
11
-182.0
21
-30.126953
31
-173.20508
0
LINE
8
0
10
-184.0
20
61.016846
30
-173.20508
11
-182.0
21
69.87305
31
-173.20508
0
LINE
8
0
10
-182.0
20
-30.126953
30
-173.20508
11
-180.0
21
-24.67804
31
-173.20508
0
LINE
8
0
10
-182.0
20
69.87305
30
-173.20508
11
-180.0
21
75.32196
31
-173.20508
0
LINE
8
0
10
-180.0
20
-24.67804
30
-173.20508
11
-178.0
21
-19.694519
31
-173.20508
0
LINE
8
0
10
-180.0
20
75.32196
30
-173.20508
11
-178.0
21
80.30548
31
-173.20508
0
LINE
8
0
10
-178.0
20
-19.694519
30
-173.20508
11
-176.0
21
-22.323608
31
-173.20508
0
LINE
8
0
10
-178.0
20
80.30548
30
-173.20508
11
-176.0
21
77.67639
31
-173.20508
0
LINE
8
0
10
-176.0
20
-22.323608
30
-173.20508
11
-174.0
21
-32.47528
31
-173.20508
0
LINE
8
0
10
-176.0
20
77.67639
30
-173.20508
11
-174.0
21
67.52472
31
-173.20508
0
LINE
8
0
10
-174.0
20
-32.47528
30
-173.20508
11
-172.0
21
-37.283325
31
-173.20508
0
LINE
8
0
10
-174.0
20
67.52472
30
-173.20508
11
-172.0
21
62.716675
31
-173.20508
0
LINE
8
0
10
-172.0
20
-37.283325
30
-173.20508
11
-170.0
21
-42.311096
31
-173.20508
0
LINE
8
0
10
-172.0
20
62.716675
30
-173.20508
11
-170.0
21
57.688904
31
-173.20508
0
LINE
8
0
10
-170.0
20
-42.311096
30
-173.20508
11
-168.0
21
-48.24829
31
-173.20508
0
LINE
8
0
10
-170.0
20
57.688904
30
-173.20508
11
-168.0
21
51.75171
31
-173.20508
0
LINE
8
0
10
-168.0
20
-48.24829
30
-173.20508
11
-166.0
21
-52.511597
31
-173.20508
0
LINE
8
0
10
-168.0
20
51.75171
30
-173.20508
11
-166.0
21
47.488403
31
-173.20508
0
LINE
8
0
10
-166.0
20
-52.511597
30
-173.20508
11
-164.0
21
-54.862976
31
-173.20508
0
LINE
8
0
10
-166.0
20
47.488403
30
-173.20508
11
-164.0
21
45.137024
31
-173.20508
0
LINE
8
0
10
-164.0
20
-54.862976
30
-173.20508
11
-162.0
21
-57.865906
31
-173.20508
0
LINE
8
0
10
-164.0
20
45.137024
30
-173.20508
11
-162.0
21
42.134094
31
-173.20508
0
LINE
8
0
10
-162.0
20
-57.865906
30
-173.20508
11
-160.0
21
-56.68335
31
-173.20508
0
LINE
8
0
10
-162.0
20
42.134094
30
-173.20508
11
-160.0
21
43.31665
31
-173.20508
0
LINE
8
0
10
-160.0
20
-56.68335
30
-173.20508
11
-158.0
21
-48.42987
31
-173.20508
0
LINE
8
0
10
-160.0
20
43.31665
30
-173.20508
11
-158.0
21
51.57013
31
-173.20508
0
LINE
8
0
10
-158.0
20
-48.42987
30
-173.20508
11
-156.0
21
-40.164185
31
-173.20508
0
LINE
8
0
10
-158.0
20
51.57013
30
-173.20508
11
-156.0
21
59.835815
31
-173.20508
0
LINE
8
0
10
-156.0
20
-40.164185
30
-173.20508
11
-154.0
21
-32.720947
31
-173.20508
0
LINE
8
0
10
-156.0
20
59.835815
30
-173.20508
11
-154.0
21
67.27905
31
-173.20508
0
LINE
8
0
10
-154.0
20
-32.720947
30
-173.20508
11
-152.0
21
-27.137756
31
-173.20508
0
LINE
8
0
10
-154.0
20
67.27905
30
-173.20508
11
-152.0
21
72.86224
31
-173.20508
0
LINE
8
0
10
-152.0
20
-27.137756
30
-173.20508
11
-150.0
21
-28.463745
31
-173.20508
0
LINE
8
0
10
-152.0
20
72.86224
30
-173.20508
11
-150.0
21
71.536255
31
-173.20508
0
LINE
8
0
10
-150.0
20
-28.463745
30
-173.20508
11
-148.0
21
-36.67755
31
-173.20508
0
LINE
8
0
10
-150.0
20
71.536255
30
-173.20508
11
-148.0
21
63.32245
31
-173.20508
0
LINE
8
0
10
-148.0
20
-36.67755
30
-173.20508
11
-146.0
21
-45.26062
31
-173.20508
0
LINE
8
0
10
-148.0
20
63.32245
30
-173.20508
11
-146.0
21
54.73938
31
-173.20508
0
LINE
8
0
10
-146.0
20
-45.26062
30
-173.20508
11
-144.0
21
-54.56848
31
-173.20508
0
LINE
8
0
10
-146.0
20
54.73938
30
-173.20508
11
-144.0
21
45.43152
31
-173.20508
0
LINE
8
0
10
-144.0
20
-54.56848
30
-173.20508
11
-142.0
21
-62.034607
31
-173.20508
0
LINE
8
0
10
-144.0
20
45.43152
30
-173.20508
11
-142.0
21
37.965393
31
-173.20508
0
LINE
8
0
10
-142.0
20
-62.034607
30
-173.20508
11
-140.0
21
-65.16266
31
-173.20508
0
LINE
8
0
10
-142.0
20
37.965393
30
-173.20508
11
-140.0
21
34.83734
31
-173.20508
0
LINE
8
0
10
-140.0
20
-65.16266
30
-173.20508
11
-138.0
21
-69.09485
31
-173.20508
0
LINE
8
0
10
-140.0
20
34.83734
30
-173.20508
11
-138.0
21
30.905151
31
-173.20508
0
LINE
8
0
10
-138.0
20
-69.09485
30
-173.20508
11
-136.0
21
-74.394226
31
-173.20508
0
LINE
8
0
10
-138.0
20
30.905151
30
-173.20508
11
-136.0
21
25.605774
31
-173.20508
0
LINE
8
0
10
-136.0
20
-74.394226
30
-173.20508
11
-134.0
21
-74.546814
31
-173.20508
0
LINE
8
0
10
-136.0
20
25.605774
30
-173.20508
11
-134.0
21
25.453186
31
-173.20508
0
LINE
8
0
10
-134.0
20
-74.546814
30
-173.20508
11
-132.0
21
-70.666504
31
-173.20508
0
LINE
8
0
10
-134.0
20
25.453186
30
-173.20508
11
-132.0
21
29.333496
31
-173.20508
0
LINE
8
0
10
-132.0
20
-70.666504
30
-173.20508
11
-130.0
21
-63.043213
31
-173.20508
0
LINE
8
0
10
-132.0
20
29.333496
30
-173.20508
11
-130.0
21
36.956787
31
-173.20508
0
LINE
8
0
10
-130.0
20
-63.043213
30
-173.20508
11
-128.0
21
-51.219177
31
-173.20508
0
LINE
8
0
10
-130.0
20
36.956787
30
-173.20508
11
-128.0
21
48.780823
31
-173.20508
0
LINE
8
0
10
-128.0
20
-51.219177
30
-173.20508
11
-126.0
21
-42.81311
31
-173.20508
0
LINE
8
0
10
-128.0
20
48.780823
30
-173.20508
11
-126.0
21
57.18689
31
-173.20508
0
LINE
8
0
10
-126.0
20
-42.81311
30
-173.20508
11
-124.0
21
-40.83557
31
-173.20508
0
LINE
8
0
10
-126.0
20
57.18689
30
-173.20508
11
-124.0
21
59.16443
31
-173.20508
0
LINE
8
0
10
-124.0
20
-40.83557
30
-173.20508
11
-122.0
21
-44.081116
31
-173.20508
0
LINE
8
0
10
-124.0
20
59.16443
30
-173.20508
11
-122.0
21
55.918884
31
-173.20508
0
LINE
8
0
10
-122.0
20
-44.081116
30
-173.20508
11
-120.0
21
-48.9151
31
-173.20508
0
LINE
8
0
10
-122.0
20
55.918884
30
-173.20508
11
-120.0
21
51.0849
31
-173.20508
0
LINE
8
0
10
-120.0
20
-48.9151
30
-173.20508
11
-118.0
21
-55.152893
31
-173.20508
0
LINE
8
0
10
-120.0
20
51.0849
30
-173.20508
11
-118.0
21
44.847107
31
-173.20508
0
LINE
8
0
10
-118.0
20
-55.152893
30
-173.20508
11
-116.0
21
-62.145996
31
-173.20508
0
LINE
8
0
10
-118.0
20
44.847107
30
-173.20508
11
-116.0
21
37.854004
31
-173.20508
0
LINE
8
0
10
-116.0
20
-62.145996
30
-173.20508
11
-114.0
21
-65.33966
31
-173.20508
0
LINE
8
0
10
-116.0
20
37.854004
30
-173.20508
11
-114.0
21
34.66034
31
-173.20508
0
LINE
8
0
10
-114.0
20
-65.33966
30
-173.20508
11
-112.0
21
-66.48712
31
-173.20508
0
LINE
8
0
10
-114.0
20
34.66034
30
-173.20508
11
-112.0
21
33.51288
31
-173.20508
0
LINE
8
0
10
-112.0
20
-66.48712
30
-173.20508
11
-110.0
21
-68.42499
31
-173.20508
0
LINE
8
0
10
-112.0
20
33.51288
30
-173.20508
11
-110.0
21
31.575012
31
-173.20508
0
LINE
8
0
10
-110.0
20
-68.42499
30
-173.20508
11
-108.0
21
-69.43817
31
-173.20508
0
LINE
8
0
10
-110.0
20
31.575012
30
-173.20508
11
-108.0
21
30.561829
31
-173.20508
0
LINE
8
0
10
-108.0
20
-69.43817
30
-173.20508
11
-106.0
21
-65.8844
31
-173.20508
0
LINE
8
0
10
-108.0
20
30.561829
30
-173.20508
11
-106.0
21
34.1156
31
-173.20508
0
LINE
8
0
10
-106.0
20
-65.8844
30
-173.20508
11
-104.0
21
-56.651306
31
-173.20508
0
LINE
8
0
10
-106.0
20
34.1156
30
-173.20508
11
-104.0
21
43.348694
31
-173.20508
0
LINE
8
0
10
-104.0
20
-56.651306
30
-173.20508
11
-102.0
21
-43.084717
31
-173.20508
0
LINE
8
0
10
-104.0
20
43.348694
30
-173.20508
11
-102.0
21
56.915283
31
-173.20508
0
LINE
8
0
10
-102.0
20
-43.084717
30
-173.20508
11
-100.0
21
-32.17621
31
-173.20508
0
LINE
8
0
10
-102.0
20
56.915283
30
-173.20508
11
-100.0
21
67.82379
31
-173.20508
0
LINE
8
0
10
-100.0
20
-32.17621
30
-173.20508
11
-98.0
21
-27.580261
31
-173.20508
0
LINE
8
0
10
-100.0
20
67.82379
30
-173.20508
11
-98.0
21
72.41974
31
-173.20508
0
LINE
8
0
10
-98.0
20
-27.580261
30
-173.20508
11
-96.0
21
-21.162415
31
-173.20508
0
LINE
8
0
10
-98.0
20
72.41974
30
-173.20508
11
-96.0
21
78.837585
31
-173.20508
0
LINE
8
0
10
-96.0
20
-21.162415
30
-173.20508
11
-94.0
21
-21.90857
31
-173.20508
0
LINE
8
0
10
-96.0
20
78.837585
30
-173.20508
11
-94.0
21
78.09143
31
-173.20508
0
LINE
8
0
10
-94.0
20
-21.90857
30
-173.20508
11
-92.0
21
-32.955933
31
-173.20508
0
LINE
8
0
10
-94.0
20
78.09143
30
-173.20508
11
-92.0
21
67.04407
31
-173.20508
0
LINE
8
0
10
-92.0
20
-32.955933
30
-173.20508
11
-90.0
21
-39.411926
31
-173.20508
0
LINE
8
0
10
-92.0
20
67.04407
30
-173.20508
11
-90.0
21
60.588074
31
-173.20508
0
LINE
8
0
10
-90.0
20
-39.411926
30
-173.20508
11
-88.0
21
-44.392395
31
-173.20508
0
LINE
8
0
10
-90.0
20
60.588074
30
-173.20508
11
-88.0
21
55.607605
31
-173.20508
0
LINE
8
0
10
-88.0
20
-44.392395
30
-173.20508
11
-86.0
21
-50.958252
31
-173.20508
0
LINE
8
0
10
-88.0
20
55.607605
30
-173.20508
11
-86.0
21
49.041748
31
-173.20508
0
LINE
8
0
10
-86.0
20
-50.958252
30
-173.20508
11
-84.0
21
-54.2099
31
-173.20508
0
LINE
8
0
10
-86.0
20
49.041748
30
-173.20508
11
-84.0
21
45.7901
31
-173.20508
0
LINE
8
0
10
-84.0
20
-54.2099
30
-173.20508
11
-82.0
21
-54.841614
31
-173.20508
0
LINE
8
0
10
-84.0
20
45.7901
30
-173.20508
11
-82.0
21
45.158386
31
-173.20508
0
LINE
8
0
10
-82.0
20
-54.841614
30
-173.20508
11
-80.0
21
-55.493164
31
-173.20508
0
LINE
8
0
10
-82.0
20
45.158386
30
-173.20508
11
-80.0
21
44.506836
31
-173.20508
0
LINE
8
0
10
-80.0
20
-55.493164
30
-173.20508
11
-78.0
21
-54.278564
31
-173.20508
0
LINE
8
0
10
-80.0
20
44.506836
30
-173.20508
11
-78.0
21
45.721436
31
-173.20508
0
LINE
8
0
10
-78.0
20
-54.278564
30
-173.20508
11
-76.0
21
-47.473145
31
-173.20508
0
LINE
8
0
10
-78.0
20
45.721436
30
-173.20508
11
-76.0
21
52.526855
31
-173.20508
0
LINE
8
0
10
-76.0
20
-47.473145
30
-173.20508
11
-74.0
21
-38.812256
31
-173.20508
0
LINE
8
0
10
-76.0
20
52.526855
30
-173.20508
11
-74.0
21
61.187744
31
-173.20508
0
LINE
8
0
10
-74.0
20
-38.812256
30
-173.20508
11
-72.0
21
-29.418945
31
-173.20508
0
LINE
8
0
10
-74.0
20
61.187744
30
-173.20508
11
-72.0
21
70.581055
31
-173.20508
0
LINE
8
0
10
-72.0
20
-29.418945
30
-173.20508
11
-70.0
21
-22.776794
31
-173.20508
0
LINE
8
0
10
-72.0
20
70.581055
30
-173.20508
11
-70.0
21
77.223206
31
-173.20508
0
LINE
8
0
10
-70.0
20
-22.776794
30
-173.20508
11
-68.0
21
-20.877075
31
-173.20508
0
LINE
8
0
10
-70.0
20
77.223206
30
-173.20508
11
-68.0
21
79.122925
31
-173.20508
0
LINE
8
0
10
-68.0
20
-20.877075
30
-173.20508
11
-66.0
21
-28.996277
31
-173.20508
0
LINE
8
0
10
-68.0
20
79.122925
30
-173.20508
11
-66.0
21
71.00372
31
-173.20508
0
LINE
8
0
10
-66.0
20
-28.996277
30
-173.20508
11
-64.0
21
-39.535522
31
-173.20508
0
LINE
8
0
10
-66.0
20
71.00372
30
-173.20508
11
-64.0
21
60.464478
31
-173.20508
0
LINE
8
0
10
-64.0
20
-39.535522
30
-173.20508
11
-62.0
21
-51.32141
31
-173.20508
0
LINE
8
0
10
-64.0
20
60.464478
30
-173.20508
11
-62.0
21
48.67859
31
-173.20508
0
LINE
8
0
10
-62.0
20
-51.32141
30
-173.20508
11
-60.0
21
-59.754944
31
-173.20508
0
LINE
8
0
10
-62.0
20
48.67859
30
-173.20508
11
-60.0
21
40.245056
31
-173.20508
0
LINE
8
0
10
-60.0
20
-59.754944
30
-173.20508
11
-58.0
21
-65.21149
31
-173.20508
0
LINE
8
0
10
-60.0
20
40.245056
30
-173.20508
11
-58.0
21
34.788513
31
-173.20508
0
LINE
8
0
10
-58.0
20
-65.21149
30
-173.20508
11
-56.0
21
-70.26672
31
-173.20508
0
LINE
8
0
10
-58.0
20
34.788513
30
-173.20508
11
-56.0
21
29.733276
31
-173.20508
0
LINE
8
0
10
-56.0
20
-70.26672
30
-173.20508
11
-54.0
21
-75.8667
31
-173.20508
0
LINE
8
0
10
-56.0
20
29.733276
30
-173.20508
11
-54.0
21
24.1333
31
-173.20508
0
LINE
8
0
10
-54.0
20
-75.8667
30
-173.20508
11
-52.0
21
-77.29492
31
-173.20508
0
LINE
8
0
10
-54.0
20
24.1333
30
-173.20508
11
-52.0
21
22.705078
31
-173.20508
0
LINE
8
0
10
-52.0
20
-77.29492
30
-173.20508
11
-50.0
21
-74.13483
31
-173.20508
0
LINE
8
0
10
-52.0
20
22.705078
30
-173.20508
11
-50.0
21
25.865173
31
-173.20508
0
LINE
8
0
10
-50.0
20
-74.13483
30
-173.20508
11
-48.0
21
-67.840576
31
-173.20508
0
LINE
8
0
10
-50.0
20
25.865173
30
-173.20508
11
-48.0
21
32.159424
31
-173.20508
0
LINE
8
0
10
-48.0
20
-67.840576
30
-173.20508
11
-46.0
21
-55.488586
31
-173.20508
0
LINE
8
0
10
-48.0
20
32.159424
30
-173.20508
11
-46.0
21
44.511414
31
-173.20508
0
LINE
8
0
10
-46.0
20
-55.488586
30
-173.20508
11
-44.0
21
-43.385315
31
-173.20508
0
LINE
8
0
10
-46.0
20
44.511414
30
-173.20508
11
-44.0
21
56.614685
31
-173.20508
0
LINE
8
0
10
-44.0
20
-43.385315
30
-173.20508
11
-42.0
21
-40.45868
31
-173.20508
0
LINE
8
0
10
-44.0
20
56.614685
30
-173.20508
11
-42.0
21
59.54132
31
-173.20508
0
LINE
8
0
10
-42.0
20
-40.45868
30
-173.20508
11
-40.0
21
-43.070984
31
-173.20508
0
LINE
8
0
10
-42.0
20
59.54132
30
-173.20508
11
-40.0
21
56.929016
31
-173.20508
0
LINE
8
0
10
-40.0
20
-43.070984
30
-173.20508
11
-38.0
21
-48.373413
31
-173.20508
0
LINE
8
0
10
-40.0
20
56.929016
30
-173.20508
11
-38.0
21
51.626587
31
-173.20508
0
LINE
8
0
10
-38.0
20
-48.373413
30
-173.20508
11
-36.0
21
-55.525208
31
-173.20508
0
LINE
8
0
10
-38.0
20
51.626587
30
-173.20508
11
-36.0
21
44.474792
31
-173.20508
0
LINE
8
0
10
-36.0
20
-55.525208
30
-173.20508
11
-34.0
21
-61.13739
31
-173.20508
0
LINE
8
0
10
-36.0
20
44.474792
30
-173.20508
11
-34.0
21
38.86261
31
-173.20508
0
LINE
8
0
10
-34.0
20
-61.13739
30
-173.20508
11
-32.0
21
-63.267517
31
-173.20508
0
LINE
8
0
10
-34.0
20
38.86261
30
-173.20508
11
-32.0
21
36.732483
31
-173.20508
0
LINE
8
0
10
-32.0
20
-63.267517
30
-173.20508
11
-30.0
21
-64.09454
31
-173.20508
0
LINE
8
0
10
-32.0
20
36.732483
30
-173.20508
11
-30.0
21
35.905457
31
-173.20508
0
LINE
8
0
10
-30.0
20
-64.09454
30
-173.20508
11
-28.0
21
-67.55524
31
-173.20508
0
LINE
8
0
10
-30.0
20
35.905457
30
-173.20508
11
-28.0
21
32.444763
31
-173.20508
0
LINE
8
0
10
-28.0
20
-67.55524
30
-173.20508
11
-26.0
21
-70.24078
31
-173.20508
0
LINE
8
0
10
-28.0
20
32.444763
30
-173.20508
11
-26.0
21
29.759216
31
-173.20508
0
LINE
8
0
10
-26.0
20
-70.24078
30
-173.20508
11
-24.0
21
-69.9646
31
-173.20508
0
LINE
8
0
10
-26.0
20
29.759216
30
-173.20508
11
-24.0
21
30.0354
31
-173.20508
0
LINE
8
0
10
-24.0
20
-69.9646
30
-173.20508
11
-22.0
21
-62.142944
31
-173.20508
0
LINE
8
0
10
-24.0
20
30.0354
30
-173.20508
11
-22.0
21
37.857056
31
-173.20508
0
LINE
8
0
10
-22.0
20
-62.142944
30
-173.20508
11
-20.0
21
-45.455933
31
-173.20508
0
LINE
8
0
10
-22.0
20
37.857056
30
-173.20508
11
-20.0
21
54.544067
31
-173.20508
0
LINE
8
0
10
-20.0
20
-45.455933
30
-173.20508
11
-18.0
21
-30.657959
31
-173.20508
0
LINE
8
0
10
-20.0
20
54.544067
30
-173.20508
11
-18.0
21
69.34204
31
-173.20508
0
LINE
8
0
10
-18.0
20
-30.657959
30
-173.20508
11
-16.0
21
-25.326538
31
-173.20508
0
LINE
8
0
10
-18.0
20
69.34204
30
-173.20508
11
-16.0
21
74.67346
31
-173.20508
0
LINE
8
0
10
-16.0
20
-25.326538
30
-173.20508
11
-14.0
21
-19.66858
31
-173.20508
0
LINE
8
0
10
-16.0
20
74.67346
30
-173.20508
11
-14.0
21
80.33142
31
-173.20508
0
LINE
8
0
10
-14.0
20
-19.66858
30
-173.20508
11
-12.0
21
-18.545532
31
-173.20508
0
LINE
8
0
10
-14.0
20
80.33142
30
-173.20508
11
-12.0
21
81.45447
31
-173.20508
0
LINE
8
0
10
-12.0
20
-18.545532
30
-173.20508
11
-10.0
21
-29.04663
31
-173.20508
0
LINE
8
0
10
-12.0
20
81.45447
30
-173.20508
11
-10.0
21
70.95337
31
-173.20508
0
LINE
8
0
10
-10.0
20
-29.04663
30
-173.20508
11
-8.0
21
-37.791443
31
-173.20508
0
LINE
8
0
10
-10.0
20
70.95337
30
-173.20508
11
-8.0
21
62.208557
31
-173.20508
0
LINE
8
0
10
-8.0
20
-37.791443
30
-173.20508
11
-6.0
21
-41.400146
31
-173.20508
0
LINE
8
0
10
-8.0
20
62.208557
30
-173.20508
11
-6.0
21
58.599854
31
-173.20508
0
LINE
8
0
10
-6.0
20
-41.400146
30
-173.20508
11
-4.0
21
-47.09015
31
-173.20508
0
LINE
8
0
10
-6.0
20
58.599854
30
-173.20508
11
-4.0
21
52.90985
31
-173.20508
0
LINE
8
0
10
-4.0
20
-47.09015
30
-173.20508
11
-2.0
21
-52.072144
31
-173.20508
0
LINE
8
0
10
-4.0
20
52.90985
30
-173.20508
11
-2.0
21
47.927856
31
-173.20508
0
LINE
8
0
10
-2.0
20
-52.072144
30
-173.20508
11
0.0
21
-53.678894
31
-173.20508
0
LINE
8
0
10
-2.0
20
47.927856
30
-173.20508
11
0.0
21
46.321106
31
-173.20508
0
LINE
8
0
10
0.0
20
-53.678894
30
-173.20508
11
2.0
21
-56.16455
31
-173.20508
0
LINE
8
0
10
0.0
20
46.321106
30
-173.20508
11
2.0
21
43.83545
31
-173.20508
0
LINE
8
0
10
2.0
20
-56.16455
30
-173.20508
11
4.0
21
-56.9458
31
-173.20508
0
LINE
8
0
10
2.0
20
43.83545
30
-173.20508
11
4.0
21
43.0542
31
-173.20508
0
LINE
8
0
10
4.0
20
-56.9458
30
-173.20508
11
6.0
21
-52.801514
31
-173.20508
0
LINE
8
0
10
4.0
20
43.0542
30
-173.20508
11
6.0
21
47.198486
31
-173.20508
0
LINE
8
0
10
6.0
20
-52.801514
30
-173.20508
11
8.0
21
-45.729065
31
-173.20508
0
LINE
8
0
10
6.0
20
47.198486
30
-173.20508
11
8.0
21
54.270935
31
-173.20508
0
LINE
8
0
10
8.0
20
-45.729065
30
-173.20508
11
10.0
21
-36.375427
31
-173.20508
0
LINE
8
0
10
8.0
20
54.270935
30
-173.20508
11
10.0
21
63.624573
31
-173.20508
0
LINE
8
0
10
10.0
20
-36.375427
30
-173.20508
11
12.0
21
-28.004456
31
-173.20508
0
LINE
8
0
10
10.0
20
63.624573
30
-173.20508
11
12.0
21
71.995544
31
-173.20508
0
LINE
8
0
10
12.0
20
-28.004456
30
-173.20508
11
14.0
21
-25.25177
31
-173.20508
0
LINE
8
0
10
12.0
20
71.995544
30
-173.20508
11
14.0
21
74.74823
31
-173.20508
0
LINE
8
0
10
14.0
20
-25.25177
30
-173.20508
11
16.0
21
-31.082153
31
-173.20508
0
LINE
8
0
10
14.0
20
74.74823
30
-173.20508
11
16.0
21
68.91785
31
-173.20508
0
LINE
8
0
10
16.0
20
-31.082153
30
-173.20508
11
18.0
21
-40.02838
31
-173.20508
0
LINE
8
0
10
16.0
20
68.91785
30
-173.20508
11
18.0
21
59.97162
31
-173.20508
0
LINE
8
0
10
18.0
20
-40.02838
30
-173.20508
11
20.0
21
-48.99597
31
-173.20508
0
LINE
8
0
10
18.0
20
59.97162
30
-173.20508
11
20.0
21
51.00403
31
-173.20508
0
LINE
8
0
10
20.0
20
-48.99597
30
-173.20508
11
22.0
21
-60.058594
31
-173.20508
0
LINE
8
0
10
20.0
20
51.00403
30
-173.20508
11
22.0
21
39.941406
31
-173.20508
0
LINE
8
0
10
22.0
20
-60.058594
30
-173.20508
11
24.0
21
-66.40167
31
-173.20508
0
LINE
8
0
10
22.0
20
39.941406
30
-173.20508
11
24.0
21
33.598328
31
-173.20508
0
LINE
8
0
10
24.0
20
-66.40167
30
-173.20508
11
26.0
21
-68.637085
31
-173.20508
0
LINE
8
0
10
24.0
20
33.598328
30
-173.20508
11
26.0
21
31.362915
31
-173.20508
0
LINE
8
0
10
26.0
20
-68.637085
30
-173.20508
11
28.0
21
-72.27936
31
-173.20508
0
LINE
8
0
10
26.0
20
31.362915
30
-173.20508
11
28.0
21
27.720642
31
-173.20508
0
LINE
8
0
10
28.0
20
-72.27936
30
-173.20508
11
30.0
21
-74.157715
31
-173.20508
0
LINE
8
0
10
28.0
20
27.720642
30
-173.20508
11
30.0
21
25.842285
31
-173.20508
0
LINE
8
0
10
30.0
20
-74.157715
30
-173.20508
11
32.0
21
-72.98126
31
-173.20508
0
LINE
8
0
10
30.0
20
25.842285
30
-173.20508
11
32.0
21
27.018738
31
-173.20508
0
LINE
8
0
10
32.0
20
-72.98126
30
-173.20508
11
34.0
21
-70.71228
31
-173.20508
0
LINE
8
0
10
32.0
20
27.018738
30
-173.20508
11
34.0
21
29.28772
31
-173.20508
0
LINE
8
0
10
34.0
20
-70.71228
30
-173.20508
11
36.0
21
-59.66034
31
-173.20508
0
LINE
8
0
10
34.0
20
29.28772
30
-173.20508
11
36.0
21
40.33966
31
-173.20508
0
LINE
8
0
10
36.0
20
-59.66034
30
-173.20508
11
38.0
21
-50.47455
31
-173.20508
0
LINE
8
0
10
36.0
20
40.33966
30
-173.20508
11
38.0
21
49.52545
31
-173.20508
0
LINE
8
0
10
38.0
20
-50.47455
30
-173.20508
11
40.0
21
-47.477722
31
-173.20508
0
LINE
8
0
10
38.0
20
49.52545
30
-173.20508
11
40.0
21
52.522278
31
-173.20508
0
LINE
8
0
10
40.0
20
-47.477722
30
-173.20508
11
42.0
21
-49.30725
31
-173.20508
0
LINE
8
0
10
40.0
20
52.522278
30
-173.20508
11
42.0
21
50.69275
31
-173.20508
0
LINE
8
0
10
42.0
20
-49.30725
30
-173.20508
11
44.0
21
-54.19159
31
-173.20508
0
LINE
8
0
10
42.0
20
50.69275
30
-173.20508
11
44.0
21
45.80841
31
-173.20508
0
LINE
8
0
10
44.0
20
-54.19159
30
-173.20508
11
46.0
21
-60.321045
31
-173.20508
0
LINE
8
0
10
44.0
20
45.80841
30
-173.20508
11
46.0
21
39.678955
31
-173.20508
0
LINE
8
0
10
46.0
20
-60.321045
30
-173.20508
11
48.0
21
-65.019226
31
-173.20508
0
LINE
8
0
10
46.0
20
39.678955
30
-173.20508
11
48.0
21
34.980774
31
-173.20508
0
LINE
8
0
10
48.0
20
-65.019226
30
-173.20508
11
50.0
21
-67.237854
31
-173.20508
0
LINE
8
0
10
48.0
20
34.980774
30
-173.20508
11
50.0
21
32.762146
31
-173.20508
0
LINE
8
0
10
50.0
20
-67.237854
30
-173.20508
11
52.0
21
-67.526245
31
-173.20508
0
LINE
8
0
10
50.0
20
32.762146
30
-173.20508
11
52.0
21
32.473755
31
-173.20508
0
LINE
8
0
10
52.0
20
-67.526245
30
-173.20508
11
54.0
21
-69.05975
31
-173.20508
0
LINE
8
0
10
52.0
20
32.473755
30
-173.20508
11
54.0
21
30.940247
31
-173.20508
0
LINE
8
0
10
54.0
20
-69.05975
30
-173.20508
11
56.0
21
-69.41986
31
-173.20508
0
LINE
8
0
10
54.0
20
30.940247
30
-173.20508
11
56.0
21
30.58014
31
-173.20508
0
LINE
8
0
10
56.0
20
-69.41986
30
-173.20508
11
58.0
21
-68.30292
31
-173.20508
0
LINE
8
0
10
56.0
20
30.58014
30
-173.20508
11
58.0
21
31.697083
31
-173.20508
0
LINE
8
0
10
58.0
20
-68.30292
30
-173.20508
11
60.0
21
-60.150146
31
-173.20508
0
LINE
8
0
10
58.0
20
31.697083
30
-173.20508
11
60.0
21
39.849854
31
-173.20508
0
LINE
8
0
10
60.0
20
-60.150146
30
-173.20508
11
62.0
21
-42.11731
31
-173.20508
0
LINE
8
0
10
60.0
20
39.849854
30
-173.20508
11
62.0
21
57.88269
31
-173.20508
0
LINE
8
0
10
62.0
20
-42.11731
30
-173.20508
11
64.0
21
-27.055359
31
-173.20508
0
LINE
8
0
10
62.0
20
57.88269
30
-173.20508
11
64.0
21
72.94464
31
-173.20508
0
LINE
8
0
10
64.0
20
-27.055359
30
-173.20508
11
66.0
21
-21.852112
31
-173.20508
0
LINE
8
0
10
64.0
20
72.94464
30
-173.20508
11
66.0
21
78.14789
31
-173.20508
0
LINE
8
0
10
66.0
20
-21.852112
30
-173.20508
11
68.0
21
-17.060852
31
-173.20508
0
LINE
8
0
10
66.0
20
78.14789
30
-173.20508
11
68.0
21
82.93915
31
-173.20508
0
LINE
8
0
10
68.0
20
-17.060852
30
-173.20508
11
70.0
21
-15.496826
31
-173.20508
0
LINE
8
0
10
68.0
20
82.93915
30
-173.20508
11
70.0
21
84.503174
31
-173.20508
0
LINE
8
0
10
70.0
20
-15.496826
30
-173.20508
11
72.0
21
-23.596191
31
-173.20508
0
LINE
8
0
10
70.0
20
84.503174
30
-173.20508
11
72.0
21
76.40381
31
-173.20508
0
LINE
8
0
10
72.0
20
-23.596191
30
-173.20508
11
74.0
21
-32.74231
31
-173.20508
0
LINE
8
0
10
72.0
20
76.40381
30
-173.20508
11
74.0
21
67.25769
31
-173.20508
0
LINE
8
0
10
74.0
20
-32.74231
30
-173.20508
11
76.0
21
-37.39624
31
-173.20508
0
LINE
8
0
10
74.0
20
67.25769
30
-173.20508
11
76.0
21
62.60376
31
-173.20508
0
LINE
8
0
10
76.0
20
-37.39624
30
-173.20508
11
78.0
21
-42.956543
31
-173.20508
0
LINE
8
0
10
76.0
20
62.60376
30
-173.20508
11
78.0
21
57.043457
31
-173.20508
0
LINE
8
0
10
78.0
20
-42.956543
30
-173.20508
11
80.0
21
-49.24469
31
-173.20508
0
LINE
8
0
10
78.0
20
57.043457
30
-173.20508
11
80.0
21
50.75531
31
-173.20508
0
LINE
8
0
10
80.0
20
-49.24469
30
-173.20508
11
82.0
21
-53.48358
31
-173.20508
0
LINE
8
0
10
80.0
20
50.75531
30
-173.20508
11
82.0
21
46.51642
31
-173.20508
0
LINE
8
0
10
82.0
20
-53.48358
30
-173.20508
11
84.0
21
-56.60553
31
-173.20508
0
LINE
8
0
10
82.0
20
46.51642
30
-173.20508
11
84.0
21
43.39447
31
-173.20508
0
LINE
8
0
10
84.0
20
-56.60553
30
-173.20508
11
86.0
21
-56.474304
31
-173.20508
0
LINE
8
0
10
84.0
20
43.39447
30
-173.20508
11
86.0
21
43.525696
31
-173.20508
0
LINE
8
0
10
86.0
20
-56.474304
30
-173.20508
11
88.0
21
-50.798035
31
-173.20508
0
LINE
8
0
10
86.0
20
43.525696
30
-173.20508
11
88.0
21
49.201965
31
-173.20508
0
LINE
8
0
10
88.0
20
-50.798035
30
-173.20508
11
90.0
21
-44.021606
31
-173.20508
0
LINE
8
0
10
88.0
20
49.201965
30
-173.20508
11
90.0
21
55.978394
31
-173.20508
0
LINE
8
0
10
90.0
20
-44.021606
30
-173.20508
11
92.0
21
-37.142944
31
-173.20508
0
LINE
8
0
10
90.0
20
55.978394
30
-173.20508
11
92.0
21
62.857056
31
-173.20508
0
LINE
8
0
10
92.0
20
-37.142944
30
-173.20508
11
94.0
21
-29.994202
31
-173.20508
0
LINE
8
0
10
92.0
20
62.857056
30
-173.20508
11
94.0
21
70.0058
31
-173.20508
0
LINE
8
0
10
94.0
20
-29.994202
30
-173.20508
11
96.0
21
-27.316284
31
-173.20508
0
LINE
8
0
10
94.0
20
70.0058
30
-173.20508
11
96.0
21
72.683716
31
-173.20508
0
LINE
8
0
10
96.0
20
-27.316284
30
-173.20508
11
98.0
21
-32.463074
31
-173.20508
0
LINE
8
0
10
96.0
20
72.683716
30
-173.20508
11
98.0
21
67.53693
31
-173.20508
0
LINE
8
0
10
98.0
20
-32.463074
30
-173.20508
11
100.0
21
-41.996765
31
-173.20508
0
LINE
8
0
10
98.0
20
67.53693
30
-173.20508
11
100.0
21
58.003235
31
-173.20508
0
LINE
8
0
10
100.0
20
-41.996765
30
-173.20508
11
102.0
21
-50.379944
31
-173.20508
0
LINE
8
0
10
100.0
20
58.003235
30
-173.20508
11
102.0
21
49.620056
31
-173.20508
0
LINE
8
0
10
102.0
20
-50.379944
30
-173.20508
11
104.0
21
-59.092712
31
-173.20508
0
LINE
8
0
10
102.0
20
49.620056
30
-173.20508
11
104.0
21
40.907288
31
-173.20508
0
LINE
8
0
10
104.0
20
-59.092712
30
-173.20508
11
106.0
21
-65.42816
31
-173.20508
0
LINE
8
0
10
104.0
20
40.907288
30
-173.20508
11
106.0
21
34.57184
31
-173.20508
0
LINE
8
0
10
106.0
20
-65.42816
30
-173.20508
11
108.0
21
-68.099976
31
-173.20508
0
LINE
8
0
10
106.0
20
34.57184
30
-173.20508
11
108.0
21
31.900024
31
-173.20508
0
LINE
8
0
10
108.0
20
-68.099976
30
-173.20508
11
110.0
21
-71.30432
31
-173.20508
0
LINE
8
0
10
108.0
20
31.900024
30
-173.20508
11
110.0
21
28.695679
31
-173.20508
0
LINE
8
0
10
110.0
20
-71.30432
30
-173.20508
11
112.0
21
-73.24524
31
-173.20508
0
LINE
8
0
10
110.0
20
28.695679
30
-173.20508
11
112.0
21
26.75476
31
-173.20508
0
LINE
8
0
10
112.0
20
-73.24524
30
-173.20508
11
114.0
21
-71.37756
31
-173.20508
0
LINE
8
0
10
112.0
20
26.75476
30
-173.20508
11
114.0
21
28.622437
31
-173.20508
0
LINE
8
0
10
114.0
20
-71.37756
30
-173.20508
11
116.0
21
-67.13562
31
-173.20508
0
LINE
8
0
10
114.0
20
28.622437
30
-173.20508
11
116.0
21
32.86438
31
-173.20508
0
LINE
8
0
10
116.0
20
-67.13562
30
-173.20508
11
118.0
21
-57.5531
31
-173.20508
0
LINE
8
0
10
116.0
20
32.86438
30
-173.20508
11
118.0
21
42.4469
31
-173.20508
0
LINE
8
0
10
118.0
20
-57.5531
30
-173.20508
11
120.0
21
-45.3537
31
-173.20508
0
LINE
8
0
10
118.0
20
42.4469
30
-173.20508
11
120.0
21
54.6463
31
-173.20508
0
LINE
8
0
10
120.0
20
-45.3537
30
-173.20508
11
122.0
21
-38.102722
31
-173.20508
0
LINE
8
0
10
120.0
20
54.6463
30
-173.20508
11
122.0
21
61.897278
31
-173.20508
0
LINE
8
0
10
122.0
20
-38.102722
30
-173.20508
11
124.0
21
-39.826965
31
-173.20508
0
LINE
8
0
10
122.0
20
61.897278
30
-173.20508
11
124.0
21
60.173035
31
-173.20508
0
LINE
8
0
10
124.0
20
-39.826965
30
-173.20508
11
126.0
21
-43.50891
31
-173.20508
0
LINE
8
0
10
124.0
20
60.173035
30
-173.20508
11
126.0
21
56.49109
31
-173.20508
0
LINE
8
0
10
126.0
20
-43.50891
30
-173.20508
11
128.0
21
-50.27466
31
-173.20508
0
LINE
8
0
10
126.0
20
56.49109
30
-173.20508
11
128.0
21
49.72534
31
-173.20508
0
LINE
8
0
10
128.0
20
-50.27466
30
-173.20508
11
130.0
21
-59.38263
31
-173.20508
0
LINE
8
0
10
128.0
20
49.72534
30
-173.20508
11
130.0
21
40.61737
31
-173.20508
0
LINE
8
0
10
130.0
20
-59.38263
30
-173.20508
11
132.0
21
-65.17639
31
-173.20508
0
LINE
8
0
10
130.0
20
40.61737
30
-173.20508
11
132.0
21
34.82361
31
-173.20508
0
LINE
8
0
10
132.0
20
-65.17639
30
-173.20508
11
134.0
21
-66.900635
31
-173.20508
0
LINE
8
0
10
132.0
20
34.82361
30
-173.20508
11
134.0
21
33.099365
31
-173.20508
0
LINE
8
0
10
134.0
20
-66.900635
30
-173.20508
11
136.0
21
-67.89093
31
-173.20508
0
LINE
8
0
10
134.0
20
33.099365
30
-173.20508
11
136.0
21
32.10907
31
-173.20508
0
LINE
8
0
10
136.0
20
-67.89093
30
-173.20508
11
138.0
21
-68.16101
31
-173.20508
0
LINE
8
0
10
136.0
20
32.10907
30
-173.20508
11
138.0
21
31.83899
31
-173.20508
0
LINE
8
0
10
138.0
20
-68.16101
30
-173.20508
11
140.0
21
-67.93671
31
-173.20508
0
LINE
8
0
10
138.0
20
31.83899
30
-173.20508
11
140.0
21
32.063293
31
-173.20508
0
LINE
8
0
10
140.0
20
-67.93671
30
-173.20508
11
142.0
21
-64.22882
31
-173.20508
0
LINE
8
0
10
140.0
20
32.063293
30
-173.20508
11
142.0
21
35.77118
31
-173.20508
0
LINE
8
0
10
142.0
20
-64.22882
30
-173.20508
11
144.0
21
-51.719666
31
-173.20508
0
LINE
8
0
10
142.0
20
35.77118
30
-173.20508
11
144.0
21
48.280334
31
-173.20508
0
LINE
8
0
10
144.0
20
-51.719666
30
-173.20508
11
146.0
21
-37.59613
31
-173.20508
0
LINE
8
0
10
144.0
20
48.280334
30
-173.20508
11
146.0
21
62.40387
31
-173.20508
0
LINE
8
0
10
146.0
20
-37.59613
30
-173.20508
11
148.0
21
-31.169128
31
-173.20508
0
LINE
8
0
10
146.0
20
62.40387
30
-173.20508
11
148.0
21
68.83087
31
-173.20508
0
LINE
8
0
10
148.0
20
-31.169128
30
-173.20508
11
150.0
21
-26.542664
31
-173.20508
0
LINE
8
0
10
148.0
20
68.83087
30
-173.20508
11
150.0
21
73.45734
31
-173.20508
0
LINE
8
0
10
150.0
20
-26.542664
30
-173.20508
11
152.0
21
-22.14508
31
-173.20508
0
LINE
8
0
10
150.0
20
73.45734
30
-173.20508
11
152.0
21
77.85492
31
-173.20508
0
LINE
8
0
10
152.0
20
-22.14508
30
-173.20508
11
154.0
21
-27.146912
31
-173.20508
0
LINE
8
0
10
152.0
20
77.85492
30
-173.20508
11
154.0
21
72.85309
31
-173.20508
0
LINE
8
0
10
154.0
20
-27.146912
30
-173.20508
11
156.0
21
-36.74774
31
-173.20508
0
LINE
8
0
10
154.0
20
72.85309
30
-173.20508
11
156.0
21
63.25226
31
-173.20508
0
LINE
8
0
10
156.0
20
-36.74774
30
-173.20508
11
158.0
21
-41.137695
31
-173.20508
0
LINE
8
0
10
156.0
20
63.25226
30
-173.20508
11
158.0
21
58.862305
31
-173.20508
0
LINE
8
0
10
158.0
20
-41.137695
30
-173.20508
11
160.0
21
-46.035767
31
-173.20508
0
LINE
8
0
10
158.0
20
58.862305
30
-173.20508
11
160.0
21
53.964233
31
-173.20508
0
LINE
8
0
10
160.0
20
-46.035767
30
-173.20508
11
162.0
21
-52.160645
31
-173.20508
0
LINE
8
0
10
160.0
20
53.964233
30
-173.20508
11
162.0
21
47.839355
31
-173.20508
0
LINE
8
0
10
162.0
20
-52.160645
30
-173.20508
11
164.0
21
-54.87213
31
-173.20508
0
LINE
8
0
10
162.0
20
47.839355
30
-173.20508
11
164.0
21
45.12787
31
-173.20508
0
LINE
8
0
10
164.0
20
-54.87213
30
-173.20508
11
166.0
21
-55.42755
31
-173.20508
0
LINE
8
0
10
164.0
20
45.12787
30
-173.20508
11
166.0
21
44.57245
31
-173.20508
0
LINE
8
0
10
166.0
20
-55.42755
30
-173.20508
11
168.0
21
-55.023193
31
-173.20508
0
LINE
8
0
10
166.0
20
44.57245
30
-173.20508
11
168.0
21
44.976807
31
-173.20508
0
LINE
8
0
10
168.0
20
-55.023193
30
-173.20508
11
170.0
21
-50.61035
31
-173.20508
0
LINE
8
0
10
168.0
20
44.976807
30
-173.20508
11
170.0
21
49.38965
31
-173.20508
0
LINE
8
0
10
170.0
20
-50.61035
30
-173.20508
11
172.0
21
-43.38684
31
-173.20508
0
LINE
8
0
10
170.0
20
49.38965
30
-173.20508
11
172.0
21
56.61316
31
-173.20508
0
LINE
8
0
10
172.0
20
-43.38684
30
-173.20508
11
174.0
21
-35.79254
31
-173.20508
0
LINE
8
0
10
172.0
20
56.61316
30
-173.20508
11
174.0
21
64.20746
31
-173.20508
0
LINE
8
0
10
174.0
20
-35.79254
30
-173.20508
11
176.0
21
-28.500366
31
-173.20508
0
LINE
8
0
10
174.0
20
64.20746
30
-173.20508
11
176.0
21
71.49963
31
-173.20508
0
LINE
8
0
10
176.0
20
-28.500366
30
-173.20508
11
178.0
21
-24.819946
31
-173.20508
0
LINE
8
0
10
176.0
20
71.49963
30
-173.20508
11
178.0
21
75.18005
31
-173.20508
0
LINE
8
0
10
178.0
20
-24.819946
30
-173.20508
11
180.0
21
-28.500366
31
-173.20508
0
LINE
8
0
10
178.0
20
75.18005
30
-173.20508
11
180.0
21
71.49963
31
-173.20508
0
LINE
8
0
10
180.0
20
-28.500366
30
-173.20508
11
182.0
21
-39.094543
31
-173.20508
0
LINE
8
0
10
180.0
20
71.49963
30
-173.20508
11
182.0
21
60.905457
31
-173.20508
0
LINE
8
0
10
182.0
20
-39.094543
30
-173.20508
11
184.0
21
-48.683167
31
-173.20508
0
LINE
8
0
10
182.0
20
60.905457
30
-173.20508
11
184.0
21
51.316833
31
-173.20508
0
LINE
8
0
10
184.0
20
-48.683167
30
-173.20508
11
186.0
21
-56.97632
31
-173.20508
0
LINE
8
0
10
184.0
20
51.316833
30
-173.20508
11
186.0
21
43.02368
31
-173.20508
0
LINE
8
0
10
186.0
20
-56.97632
30
-173.20508
11
188.0
21
-62.808228
31
-173.20508
0
LINE
8
0
10
186.0
20
43.02368
30
-173.20508
11
188.0
21
37.191772
31
-173.20508
0
LINE
8
0
10
188.0
20
-62.808228
30
-173.20508
11
190.0
21
-69.895935
31
-173.20508
0
LINE
8
0
10
188.0
20
37.191772
30
-173.20508
11
190.0
21
30.104065
31
-173.20508
0
LINE
8
0
10
190.0
20
-69.895935
30
-173.20508
11
192.0
21
-72.36633
31
-173.20508
0
LINE
8
0
10
190.0
20
30.104065
30
-173.20508
11
192.0
21
27.633667
31
-173.20508
0
LINE
8
0
10
192.0
20
-72.36633
30
-173.20508
11
194.0
21
-74.73755
31
-173.20508
0
LINE
8
0
10
192.0
20
27.633667
30
-173.20508
11
194.0
21
25.262451
31
-173.20508
0
LINE
8
0
10
194.0
20
-74.73755
30
-173.20508
11
196.0
21
-73.13843
31
-173.20508
0
LINE
8
0
10
194.0
20
25.262451
30
-173.20508
11
196.0
21
26.861572
31
-173.20508
0
LINE
8
0
10
196.0
20
-73.13843
30
-173.20508
11
198.0
21
-70.63599
31
-173.20508
0
LINE
8
0
10
196.0
20
26.861572
30
-173.20508
11
198.0
21
29.364014
31
-173.20508
0
LINE
8
0
10
198.0
20
-70.63599
30
-173.20508
11
200.0
21
-62.150574
31
-173.20508
0
LINE
8
0
10
198.0
20
29.364014
30
-173.20508
11
200.0
21
37.849426
31
-173.20508
0
LINE
8
0
10
200.0
20
-62.150574
30
-173.20508
11
202.0
21
-48.82202
31
-173.20508
0
LINE
8
0
10
200.0
20
37.849426
30
-173.20508
11
202.0
21
51.17798
31
-173.20508
0
LINE
8
0
10
202.0
20
-48.82202
30
-173.20508
11
204.0
21
-40.29236
31
-173.20508
0
LINE
8
0
10
202.0
20
51.17798
30
-173.20508
11
204.0
21
59.70764
31
-173.20508
0
LINE
8
0
10
204.0
20
-40.29236
30
-173.20508
11
206.0
21
-41.311646
31
-173.20508
0
LINE
8
0
10
204.0
20
59.70764
30
-173.20508
11
206.0
21
58.688354
31
-173.20508
0
LINE
8
0
10
206.0
20
-41.311646
30
-173.20508
11
208.0
21
-44.50836
31
-173.20508
0
LINE
8
0
10
206.0
20
58.688354
30
-173.20508
11
208.0
21
55.49164
31
-173.20508
0
LINE
8
0
10
208.0
20
-44.50836
30
-173.20508
11
210.0
21
-50.120544
31
-173.20508
0
LINE
8
0
10
208.0
20
55.49164
30
-173.20508
11
210.0
21
49.879456
31
-173.20508
0
LINE
8
0
10
210.0
20
-50.120544
30
-173.20508
11
212.0
21
-56.91681
31
-173.20508
0
LINE
8
0
10
210.0
20
49.879456
30
-173.20508
11
212.0
21
43.08319
31
-173.20508
0
LINE
8
0
10
212.0
20
-56.91681
30
-173.20508
11
214.0
21
-61.465454
31
-173.20508
0
LINE
8
0
10
212.0
20
43.08319
30
-173.20508
11
214.0
21
38.534546
31
-173.20508
0
LINE
8
0
10
214.0
20
-61.465454
30
-173.20508
11
216.0
21
-65.625
31
-173.20508
0
LINE
8
0
10
214.0
20
38.534546
30
-173.20508
11
216.0
21
34.375
31
-173.20508
0
LINE
8
0
10
216.0
20
-65.625
30
-173.20508
11
218.0
21
-68.04047
31
-173.20508
0
LINE
8
0
10
216.0
20
34.375
30
-173.20508
11
218.0
21
31.959534
31
-173.20508
0
LINE
8
0
10
218.0
20
-68.04047
30
-173.20508
11
220.0
21
-69.74945
31
-173.20508
0
LINE
8
0
10
218.0
20
31.959534
30
-173.20508
11
220.0
21
30.25055
31
-173.20508
0
LINE
8
0
10
220.0
20
-69.74945
30
-173.20508
11
222.0
21
-70.43457
31
-173.20508
0
LINE
8
0
10
220.0
20
30.25055
30
-173.20508
11
222.0
21
29.56543
31
-173.20508
0
LINE
8
0
10
222.0
20
-70.43457
30
-173.20508
11
224.0
21
-67.58118
31
-173.20508
0
LINE
8
0
10
222.0
20
29.56543
30
-173.20508
11
224.0
21
32.418823
31
-173.20508
0
LINE
8
0
10
224.0
20
-67.58118
30
-173.20508
11
226.0
21
-56.637573
31
-173.20508
0
LINE
8
0
10
224.0
20
32.418823
30
-173.20508
11
226.0
21
43.362427
31
-173.20508
0
LINE
8
0
10
226.0
20
-56.637573
30
-173.20508
11
228.0
21
-41.349792
31
-173.20508
0
LINE
8
0
10
226.0
20
43.362427
30
-173.20508
11
228.0
21
58.650208
31
-173.20508
0
LINE
8
0
10
228.0
20
-41.349792
30
-173.20508
11
230.0
21
-33.473206
31
-173.20508
0
LINE
8
0
10
228.0
20
58.650208
30
-173.20508
11
230.0
21
66.526794
31
-173.20508
0
LINE
8
0
10
230.0
20
-33.473206
30
-173.20508
11
232.0
21
-29.296875
31
-173.20508
0
LINE
8
0
10
230.0
20
66.526794
30
-173.20508
11
232.0
21
70.703125
31
-173.20508
0
LINE
8
0
10
232.0
20
-29.296875
30
-173.20508
11
234.0
21
-23.12622
31
-173.20508
0
LINE
8
0
10
232.0
20
70.703125
30
-173.20508
11
234.0
21
76.87378
31
-173.20508
0
LINE
8
0
10
234.0
20
-23.12622
30
-173.20508
11
236.0
21
-26.242065
31
-173.20508
0
LINE
8
0
10
234.0
20
76.87378
30
-173.20508
11
236.0
21
73.757935
31
-173.20508
0
LINE
8
0
10
236.0
20
-26.242065
30
-173.20508
11
238.0
21
-34.87091
31
-173.20508
0
LINE
8
0
10
236.0
20
73.757935
30
-173.20508
11
238.0
21
65.12909
31
-173.20508
0
LINE
8
0
10
238.0
20
-34.87091
30
-173.20508
11
240.0
21
-37.121582
31
-173.20508
0
LINE
8
0
10
238.0
20
65.12909
30
-173.20508
11
240.0
21
62.878418
31
-173.20508
0
LINE
8
0
10
240.0
20
-37.121582
30
-173.20508
11
242.0
21
-40.02838
31
-173.20508
0
LINE
8
0
10
240.0
20
62.878418
30
-173.20508
11
242.0
21
59.97162
31
-173.20508
0
LINE
8
0
10
242.0
20
-40.02838
30
-173.20508
11
244.0
21
-46.809387
31
-173.20508
0
LINE
8
0
10
242.0
20
59.97162
30
-173.20508
11
244.0
21
53.190613
31
-173.20508
0
LINE
8
0
10
244.0
20
-46.809387
30
-173.20508
11
246.0
21
-49.949646
31
-173.20508
0
LINE
8
0
10
244.0
20
53.190613
30
-173.20508
11
246.0
21
50.050354
31
-173.20508
0
LINE
8
0
10
246.0
20
-49.949646
30
-173.20508
11
248.0
21
-49.78485
31
-173.20508
0
LINE
8
0
10
246.0
20
50.050354
30
-173.20508
11
248.0
21
50.21515
31
-173.20508
0
LINE
8
0
10
248.0
20
-49.78485
30
-173.20508
11
250.0
21
-49.96643
31
-173.20508
0
LINE
8
0
10
248.0
20
50.21515
30
-173.20508
11
250.0
21
50.03357
31
-173.20508
0
LINE
8
0
10
250.0
20
-49.96643
30
-173.20508
11
252.0
21
-48.017883
31
-173.20508
0
LINE
8
0
10
250.0
20
50.03357
30
-173.20508
11
252.0
21
51.982117
31
-173.20508
0
LINE
8
0
10
252.0
20
-48.017883
30
-173.20508
11
254.0
21
-40.78369
31
-173.20508
0
LINE
8
0
10
252.0
20
51.982117
30
-173.20508
11
254.0
21
59.21631
31
-173.20508
0
ENDSEC
0
EOF
