0
SECTION
2
ENTITIES
0
LINE
8
0
10
201.0
20
-88.0
30
-415.6922
11
184.0
21
-91.0
31
-415.6922
0
LINE
8
0
10
184.0
20
-91.0
30
-415.6922
11
184.0
21
-91.0
31
-415.6922
0
LINE
8
0
10
184.0
20
-91.0
30
-415.6922
11
168.0
21
-93.0
31
-415.6922
0
LINE
8
0
10
168.0
20
-93.0
30
-415.6922
11
168.0
21
-93.0
31
-415.6922
0
LINE
8
0
10
168.0
20
-93.0
30
-415.6922
11
155.0
21
-94.0
31
-415.6922
0
LINE
8
0
10
155.0
20
-94.0
30
-415.6922
11
138.0
21
-89.0
31
-415.6922
0
LINE
8
0
10
138.0
20
-89.0
30
-415.6922
11
138.0
21
-89.0
31
-415.6922
0
LINE
8
0
10
138.0
20
-89.0
30
-415.6922
11
122.0
21
-80.0
31
-415.6922
0
LINE
8
0
10
122.0
20
-80.0
30
-415.6922
11
122.0
21
-80.0
31
-415.6922
0
LINE
8
0
10
122.0
20
-80.0
30
-415.6922
11
108.0
21
-67.0
31
-415.6922
0
LINE
8
0
10
108.0
20
-67.0
30
-415.6922
11
108.0
21
-67.0
31
-415.6922
0
LINE
8
0
10
108.0
20
-67.0
30
-415.6922
11
98.0
21
-52.0
31
-415.6922
0
LINE
8
0
10
98.0
20
-52.0
30
-415.6922
11
98.0
21
-52.0
31
-415.6922
0
LINE
8
0
10
98.0
20
-52.0
30
-415.6922
11
91.0
21
-33.0
31
-415.6922
0
LINE
8
0
10
91.0
20
-33.0
30
-415.6922
11
89.0
21
-15.0
31
-415.6922
0
LINE
8
0
10
89.0
20
-15.0
30
-415.6922
11
89.0
21
-15.0
31
-415.6922
0
LINE
8
0
10
89.0
20
-15.0
30
-415.6922
11
94.0
21
2.0
31
-415.6922
0
LINE
8
0
10
94.0
20
2.0
30
-415.6922
11
94.0
21
2.0
31
-415.6922
0
LINE
8
0
10
94.0
20
2.0
30
-415.6922
11
103.0
21
16.0
31
-415.6922
0
LINE
8
0
10
103.0
20
16.0
30
-415.6922
11
103.0
21
16.0
31
-415.6922
0
LINE
8
0
10
103.0
20
16.0
30
-415.6922
11
115.0
21
30.0
31
-415.6922
0
LINE
8
0
10
115.0
20
30.0
30
-415.6922
11
115.0
21
30.0
31
-415.6922
0
LINE
8
0
10
115.0
20
30.0
30
-415.6922
11
129.0
21
43.0
31
-415.6922
0
LINE
8
0
10
129.0
20
43.0
30
-415.6922
11
129.0
21
43.0
31
-415.6922
0
LINE
8
0
10
129.0
20
43.0
30
-415.6922
11
144.0
21
55.0
31
-415.6922
0
LINE
8
0
10
144.0
20
55.0
30
-415.6922
11
144.0
21
55.0
31
-415.6922
0
LINE
8
0
10
144.0
20
55.0
30
-415.6922
11
161.0
21
66.0
31
-415.6922
0
LINE
8
0
10
161.0
20
66.0
30
-415.6922
11
161.0
21
66.0
31
-415.6922
0
LINE
8
0
10
161.0
20
66.0
30
-415.6922
11
179.0
21
72.0
31
-415.6922
0
LINE
8
0
10
179.0
20
72.0
30
-415.6922
11
199.0
21
74.0
31
-415.6922
0
LINE
8
0
10
199.0
20
74.0
30
-415.6922
11
199.0
21
74.0
31
-415.6922
0
LINE
8
0
10
199.0
20
74.0
30
-415.6922
11
219.0
21
72.0
31
-415.6922
0
LINE
8
0
10
219.0
20
72.0
30
-415.6922
11
219.0
21
72.0
31
-415.6922
0
LINE
8
0
10
219.0
20
72.0
30
-415.6922
11
238.0
21
67.0
31
-415.6922
0
LINE
8
0
10
238.0
20
67.0
30
-415.6922
11
238.0
21
67.0
31
-415.6922
0
LINE
8
0
10
238.0
20
67.0
30
-415.6922
11
256.0
21
58.0
31
-415.6922
0
LINE
8
0
10
256.0
20
58.0
30
-415.6922
11
256.0
21
58.0
31
-415.6922
0
LINE
8
0
10
256.0
20
58.0
30
-415.6922
11
272.0
21
48.0
31
-415.6922
0
LINE
8
0
10
272.0
20
48.0
30
-415.6922
11
284.0
21
34.0
31
-415.6922
0
LINE
8
0
10
284.0
20
34.0
30
-415.6922
11
284.0
21
34.0
31
-415.6922
0
LINE
8
0
10
284.0
20
34.0
30
-415.6922
11
292.0
21
19.0
31
-415.6922
0
LINE
8
0
10
292.0
20
19.0
30
-415.6922
11
292.0
21
19.0
31
-415.6922
0
LINE
8
0
10
292.0
20
19.0
30
-415.6922
11
296.0
21
2.0
31
-415.6922
0
LINE
8
0
10
296.0
20
2.0
30
-415.6922
11
296.0
21
2.0
31
-415.6922
0
LINE
8
0
10
296.0
20
2.0
30
-415.6922
11
295.0
21
-15.0
31
-415.6922
0
LINE
8
0
10
295.0
20
-15.0
30
-415.6922
11
295.0
21
-15.0
31
-415.6922
0
LINE
8
0
10
295.0
20
-15.0
30
-415.6922
11
295.0
21
-32.0
31
-415.6922
0
LINE
8
0
10
295.0
20
-32.0
30
-415.6922
11
295.0
21
-32.0
31
-415.6922
0
LINE
8
0
10
295.0
20
-32.0
30
-415.6922
11
290.0
21
-48.0
31
-415.6922
0
LINE
8
0
10
290.0
20
-48.0
30
-415.6922
11
290.0
21
-48.0
31
-415.6922
0
LINE
8
0
10
290.0
20
-48.0
30
-415.6922
11
283.0
21
-63.0
31
-415.6922
0
LINE
8
0
10
283.0
20
-63.0
30
-415.6922
11
283.0
21
-63.0
31
-415.6922
0
LINE
8
0
10
283.0
20
-63.0
30
-415.6922
11
274.0
21
-77.0
31
-415.6922
0
LINE
8
0
10
274.0
20
-77.0
30
-415.6922
11
274.0
21
-77.0
31
-415.6922
0
LINE
8
0
10
274.0
20
-77.0
30
-415.6922
11
263.0
21
-90.0
31
-415.6922
0
LINE
8
0
10
263.0
20
-90.0
30
-415.6922
11
250.0
21
-100.0
31
-415.6922
0
LINE
8
0
10
250.0
20
-100.0
30
-415.6922
11
250.0
21
-100.0
31
-415.6922
0
LINE
8
0
10
250.0
20
-100.0
30
-415.6922
11
250.0
21
-100.0
31
-415.6922
0
LINE
8
0
10
250.0
20
-100.0
30
-415.6922
11
235.0
21
-109.0
31
-415.6922
0
LINE
8
0
10
235.0
20
-109.0
30
-415.6922
11
217.0
21
-114.0
31
-415.6922
0
LINE
8
0
10
217.0
20
-114.0
30
-415.6922
11
217.0
21
-114.0
31
-415.6922
0
LINE
8
0
10
217.0
20
-114.0
30
-415.6922
11
199.0
21
-118.0
31
-415.6922
0
LINE
8
0
10
199.0
20
-118.0
30
-415.6922
11
199.0
21
-118.0
31
-415.6922
0
LINE
8
0
10
199.0
20
-118.0
30
-415.6922
11
179.0
21
-118.0
31
-415.6922
0
LINE
8
0
10
179.0
20
-118.0
30
-415.6922
11
179.0
21
-118.0
31
-415.6922
0
LINE
8
0
10
179.0
20
-118.0
30
-415.6922
11
158.0
21
-117.0
31
-415.6922
0
LINE
8
0
10
158.0
20
-117.0
30
-415.6922
11
136.0
21
-114.0
31
-415.6922
0
LINE
8
0
10
136.0
20
-114.0
30
-415.6922
11
136.0
21
-114.0
31
-415.6922
0
LINE
8
0
10
136.0
20
-114.0
30
-415.6922
11
136.0
21
-114.0
31
-415.6922
0
LINE
8
0
10
136.0
20
-114.0
30
-415.6922
11
113.0
21
-105.0
31
-415.6922
0
LINE
8
0
10
113.0
20
-105.0
30
-415.6922
11
113.0
21
-105.0
31
-415.6922
0
LINE
8
0
10
113.0
20
-105.0
30
-415.6922
11
89.0
21
-92.0
31
-415.6922
0
LINE
8
0
10
89.0
20
-92.0
30
-415.6922
11
66.0
21
-74.0
31
-415.6922
0
LINE
8
0
10
66.0
20
-74.0
30
-415.6922
11
66.0
21
-74.0
31
-415.6922
0
LINE
8
0
10
66.0
20
-74.0
30
-415.6922
11
44.0
21
-54.0
31
-415.6922
0
LINE
8
0
10
44.0
20
-54.0
30
-415.6922
11
44.0
21
-54.0
31
-415.6922
0
LINE
8
0
10
44.0
20
-54.0
30
-415.6922
11
23.0
21
-29.0
31
-415.6922
0
LINE
8
0
10
23.0
20
-29.0
30
-415.6922
11
23.0
21
-29.0
31
-415.6922
0
LINE
8
0
10
23.0
20
-29.0
30
-415.6922
11
7.0
21
-4.0
31
-415.6922
0
LINE
8
0
10
7.0
20
-4.0
30
-415.6922
11
7.0
21
-4.0
31
-415.6922
0
LINE
8
0
10
7.0
20
-4.0
30
-415.6922
11
-7.0
21
21.0
31
-415.6922
0
LINE
8
0
10
-7.0
20
21.0
30
-415.6922
11
-18.0
21
46.0
31
-415.6922
0
LINE
8
0
10
-18.0
20
46.0
30
-415.6922
11
-18.0
21
46.0
31
-415.6922
0
LINE
8
0
10
-18.0
20
46.0
30
-415.6922
11
-18.0
21
46.0
31
-415.6922
0
LINE
8
0
10
-18.0
20
46.0
30
-415.6922
11
-24.0
21
70.0
31
-415.6922
0
LINE
8
0
10
-24.0
20
70.0
30
-415.6922
11
-24.0
21
70.0
31
-415.6922
0
LINE
8
0
10
-24.0
20
70.0
30
-415.6922
11
-29.0
21
94.0
31
-415.6922
0
LINE
8
0
10
-29.0
20
94.0
30
-415.6922
11
-28.0
21
114.0
31
-415.6922
0
LINE
8
0
10
-28.0
20
114.0
30
-415.6922
11
-28.0
21
114.0
31
-415.6922
0
LINE
8
0
10
-28.0
20
114.0
30
-415.6922
11
-25.0
21
133.0
31
-415.6922
0
LINE
8
0
10
-25.0
20
133.0
30
-415.6922
11
-25.0
21
133.0
31
-415.6922
0
LINE
8
0
10
-25.0
20
133.0
30
-415.6922
11
-17.0
21
147.0
31
-415.6922
0
LINE
8
0
10
-17.0
20
147.0
30
-415.6922
11
-17.0
21
147.0
31
-415.6922
0
LINE
8
0
10
-17.0
20
147.0
30
-415.6922
11
-9.0
21
159.0
31
-415.6922
0
LINE
8
0
10
-9.0
20
159.0
30
-415.6922
11
-9.0
21
159.0
31
-415.6922
0
LINE
8
0
10
-9.0
20
159.0
30
-415.6922
11
2.0
21
165.0
31
-415.6922
0
LINE
8
0
10
2.0
20
165.0
30
-415.6922
11
2.0
21
165.0
31
-415.6922
0
LINE
8
0
10
2.0
20
165.0
30
-415.6922
11
12.0
21
168.0
31
-415.6922
0
LINE
8
0
10
12.0
20
168.0
30
-415.6922
11
12.0
21
168.0
31
-415.6922
0
ENDSEC
0
EOF
