0
SECTION
2
ENTITIES
0
3DFACE
8
0
10
161.0
20
181.0
30
0.0
11
160.0
21
181.0
31
0.0
12
160.0
22
167.0
32
0.0
13
160.0001
23
167.0001
33
1.0E-4
0
3DFACE
8
0
10
160.0
20
167.0
30
0.0
11
161.0
21
181.0
31
0.0
12
161.0
22
167.0
32
0.0
13
161.0001
23
167.0001
33
1.0E-4
0
3DFACE
8
0
10
160.63004
20
166.71898
30
0.0
11
160.32101
21
167.67003
31
0.0
12
147.04427
22
163.35616
32
0.0
13
147.04437
23
163.35626
33
1.0E-4
0
3DFACE
8
0
10
147.04427
20
163.35616
30
0.0
11
160.63004
21
166.71898
31
0.0
12
147.35329
22
162.40509
32
0.0
13
147.3534
23
162.4052
33
1.0E-4
0
3DFACE
8
0
10
147.35329
20
163.66516
30
0.0
11
147.04427
21
162.71411
31
0.0
12
160.32101
22
158.40022
32
0.0
13
160.32112
23
158.40033
33
1.0E-4
0
3DFACE
8
0
10
160.32101
20
158.40022
30
0.0
11
147.35329
21
163.66516
31
0.0
12
160.63004
22
159.35129
32
0.0
13
160.63014
23
159.3514
33
1.0E-4
0
3DFACE
8
0
10
159.3016
20
158.91965
30
0.0
11
160.11061
21
158.33186
31
0.0
12
168.3161
22
169.62573
32
0.0
13
168.31621
23
169.62584
33
1.0E-4
0
3DFACE
8
0
10
168.3161
20
169.62573
30
0.0
11
159.3016
21
158.91965
31
0.0
12
167.50708
22
170.21352
32
0.0
13
167.50719
23
170.21362
33
1.0E-4
0
3DFACE
8
0
10
167.29668
20
170.14516
30
0.0
11
166.98766
21
169.1941
31
0.0
12
180.2644
22
164.88022
32
0.0
13
180.26451
23
164.88033
33
1.0E-4
0
3DFACE
8
0
10
180.2644
20
164.88022
30
0.0
11
167.29668
21
170.14516
31
0.0
12
180.57343
22
165.83128
32
0.0
13
180.57353
23
165.83139
33
1.0E-4
0
3DFACE
8
0
10
180.44339
20
166.01025
30
0.0
11
179.44339
21
166.01025
31
0.0
12
179.44339
22
152.05025
32
0.0
13
179.4435
23
152.05035
33
1.0E-4
0
3DFACE
8
0
10
179.44339
20
152.05025
30
0.0
11
180.44339
21
166.01025
31
0.0
12
180.44339
22
152.05025
32
0.0
13
180.4435
23
152.05035
33
1.0E-4
0
3DFACE
8
0
10
180.57343
20
152.22923
30
0.0
11
180.2644
21
153.18028
31
0.0
12
166.98766
22
148.86641
32
0.0
13
166.98776
23
148.86652
33
1.0E-4
0
3DFACE
8
0
10
166.98766
20
148.86641
30
0.0
11
180.57343
21
152.22923
31
0.0
12
167.29668
22
147.91534
32
0.0
13
167.29678
23
147.91545
33
1.0E-4
0
3DFACE
8
0
10
167.50708
20
147.84698
30
0.0
11
168.31609
21
148.43477
31
0.0
12
160.11061
22
159.72864
32
0.0
13
160.11072
23
159.72874
33
1.0E-4
0
3DFACE
8
0
10
160.11061
20
159.72864
30
0.0
11
167.50708
21
147.84698
31
0.0
12
159.30159
22
159.14085
32
0.0
13
159.3017
23
159.14096
33
1.0E-4
0
3DFACE
8
0
10
160.5
20
159.53024
30
0.0
11
159.5
21
159.53024
31
0.0
12
159.5
22
145.57024
32
0.0
13
159.5001
23
145.57034
33
1.0E-4
0
3DFACE
8
0
10
159.5
20
145.57024
30
0.0
11
160.5
21
159.53024
31
0.0
12
160.5
22
145.57024
32
0.0
13
160.5001
23
145.57034
33
1.0E-4
0
3DFACE
8
0
10
159.67899
20
146.70027
30
0.0
11
159.36996
21
145.74922
31
0.0
12
172.64671
22
141.43533
32
0.0
13
172.64682
23
141.43544
33
1.0E-4
0
3DFACE
8
0
10
172.64671
20
141.43533
30
0.0
11
159.67899
21
146.70027
31
0.0
12
172.95573
22
142.3864
32
0.0
13
172.95584
23
142.3865
33
1.0E-4
0
3DFACE
8
0
10
172.8257
20
142.56537
30
0.0
11
171.8257
21
142.56537
31
0.0
12
171.8257
22
128.60536
32
0.0
13
171.8258
23
128.60547
33
1.0E-4
0
3DFACE
8
0
10
171.8257
20
128.60536
30
0.0
11
172.8257
21
142.56537
31
0.0
12
172.8257
22
128.60536
32
0.0
13
172.8258
23
128.60547
33
1.0E-4
0
3DFACE
8
0
10
172.95573
20
128.78435
30
0.0
11
172.64671
21
129.7354
31
0.0
12
159.36996
22
125.421524
32
0.0
13
159.37007
23
125.42162
33
1.0E-4
0
3DFACE
8
0
10
159.36996
20
125.421524
30
0.0
11
172.95573
21
128.78435
31
0.0
12
159.67899
22
124.47047
32
0.0
13
159.6791
23
124.470566
33
1.0E-4
0
3DFACE
8
0
10
159.67899
20
125.73054
30
0.0
11
159.36996
21
124.77948
31
0.0
12
172.64671
22
120.46561
32
0.0
13
172.64682
23
120.465706
33
1.0E-4
0
3DFACE
8
0
10
172.64671
20
120.46561
30
0.0
11
159.67899
21
125.73054
31
0.0
12
172.95573
22
121.41666
32
0.0
13
172.95584
23
121.416756
33
1.0E-4
0
3DFACE
8
0
10
172.8257
20
121.59564
30
0.0
11
171.8257
21
121.59564
31
0.0
12
171.8257
22
107.635635
32
0.0
13
171.8258
23
107.635735
33
1.0E-4
0
3DFACE
8
0
10
171.8257
20
107.635635
30
0.0
11
172.8257
21
121.59564
31
0.0
12
172.8257
22
107.635635
32
0.0
13
172.8258
23
107.635735
33
1.0E-4
0
3DFACE
8
0
10
171.6273
20
108.02502
30
0.0
11
172.43631
21
107.43723
31
0.0
12
180.6418
22
118.73112
32
0.0
13
180.6419
23
118.73122
33
1.0E-4
0
3DFACE
8
0
10
180.6418
20
118.73112
30
0.0
11
171.6273
21
108.02502
31
0.0
12
179.83278
22
119.3189
32
0.0
13
179.83289
23
119.319
33
1.0E-4
0
3DFACE
8
0
10
179.8328
20
117.9221
30
0.0
11
180.6418
21
118.50988
31
0.0
12
172.43633
22
129.80377
32
0.0
13
172.43643
23
129.80388
33
1.0E-4
0
3DFACE
8
0
10
172.43633
20
129.80377
30
0.0
11
179.8328
21
117.9221
31
0.0
12
171.6273
22
129.21597
32
0.0
13
171.62741
23
129.21608
33
1.0E-4
0
3DFACE
8
0
10
171.6273
20
128.99475
30
0.0
11
172.43631
21
128.40697
31
0.0
12
180.6418
22
139.70084
32
0.0
13
180.6419
23
139.70094
33
1.0E-4
0
3DFACE
8
0
10
180.6418
20
139.70084
30
0.0
11
171.6273
21
128.99475
31
0.0
12
179.83278
22
140.28864
32
0.0
13
179.83289
23
140.28874
33
1.0E-4
0
3DFACE
8
0
10
179.62239
20
140.22026
30
0.0
11
179.31337
21
139.26921
31
0.0
12
192.59012
22
134.95532
32
0.0
13
192.59023
23
134.95543
33
1.0E-4
0
3DFACE
8
0
10
192.59012
20
134.95532
30
0.0
11
179.62239
21
140.22026
31
0.0
12
192.89914
22
135.90639
32
0.0
13
192.89925
23
135.9065
33
1.0E-4
0
3DFACE
8
0
10
191.57071
20
135.47475
30
0.0
11
192.37971
21
134.88696
31
0.0
12
200.5852
22
146.18085
32
0.0
13
200.58531
23
146.18095
33
1.0E-4
0
3DFACE
8
0
10
200.5852
20
146.18085
30
0.0
11
191.57071
21
135.47475
31
0.0
12
199.77618
22
146.76863
32
0.0
13
199.77629
23
146.76874
33
1.0E-4
0
3DFACE
8
0
10
199.5658
20
146.70026
30
0.0
11
199.25677
21
145.7492
31
0.0
12
212.53352
22
141.43532
32
0.0
13
212.53363
23
141.43542
33
1.0E-4
0
3DFACE
8
0
10
212.53352
20
141.43532
30
0.0
11
199.5658
21
146.70026
31
0.0
12
212.84254
22
142.38638
32
0.0
13
212.84265
23
142.38649
33
1.0E-4
0
3DFACE
8
0
10
212.1019
20
141.36696
30
0.0
11
212.9109
21
141.95474
31
0.0
12
204.70543
22
153.24863
32
0.0
13
204.70554
23
153.24873
33
1.0E-4
0
3DFACE
8
0
10
204.70543
20
153.24863
30
0.0
11
212.1019
21
141.36696
31
0.0
12
203.89641
22
152.66083
32
0.0
13
203.89651
23
152.66093
33
1.0E-4
0
3DFACE
8
0
10
205.22484
20
152.2292
30
0.0
11
204.91582
21
153.18025
31
0.0
12
191.63907
22
148.86638
32
0.0
13
191.63918
23
148.86649
33
1.0E-4
0
3DFACE
8
0
10
191.63907
20
148.86638
30
0.0
11
205.22484
21
152.2292
31
0.0
12
191.94809
22
147.91531
32
0.0
13
191.9482
23
147.91542
33
1.0E-4
0
3DFACE
8
0
10
192.1585
20
147.84695
30
0.0
11
192.9675
21
148.43474
31
0.0
12
184.76202
22
159.72862
32
0.0
13
184.76213
23
159.72873
33
1.0E-4
0
3DFACE
8
0
10
184.76202
20
159.72862
30
0.0
11
192.1585
21
147.84695
31
0.0
12
183.953
22
159.14084
32
0.0
13
183.95311
23
159.14095
33
1.0E-4
0
3DFACE
8
0
10
183.953
20
158.9196
30
0.0
11
184.76201
21
158.33182
31
0.0
12
192.9675
22
169.6257
32
0.0
13
192.9676
23
169.62581
33
1.0E-4
0
3DFACE
8
0
10
192.9675
20
169.6257
30
0.0
11
183.953
21
158.9196
31
0.0
12
192.15848
22
170.21349
32
0.0
13
192.15858
23
170.2136
33
1.0E-4
0
3DFACE
8
0
10
191.94809
20
170.14511
30
0.0
11
191.63907
21
169.19406
31
0.0
12
204.91583
22
164.88017
32
0.0
13
204.91594
23
164.88028
33
1.0E-4
0
3DFACE
8
0
10
204.91583
20
164.88017
30
0.0
11
191.94809
21
170.14511
31
0.0
12
205.22484
22
165.83124
32
0.0
13
205.22495
23
165.83134
33
1.0E-4
0
3DFACE
8
0
10
205.0948
20
166.01021
30
0.0
11
204.0948
21
166.01021
31
0.0
12
204.0948
22
152.0502
32
0.0
13
204.09491
23
152.05031
33
1.0E-4
0
3DFACE
8
0
10
204.0948
20
152.0502
30
0.0
11
205.0948
21
166.01021
31
0.0
12
205.0948
22
152.0502
32
0.0
13
205.09491
23
152.05031
33
1.0E-4
0
3DFACE
8
0
10
203.89641
20
152.43959
30
0.0
11
204.70541
21
151.8518
31
0.0
12
212.9109
22
163.14569
32
0.0
13
212.91101
23
163.1458
33
1.0E-4
0
3DFACE
8
0
10
212.9109
20
163.14569
30
0.0
11
203.89641
21
152.43959
31
0.0
12
212.10188
22
163.73347
32
0.0
13
212.10199
23
163.73358
33
1.0E-4
0
3DFACE
8
0
10
212.1019
20
162.33667
30
0.0
11
212.9109
21
162.92445
31
0.0
12
204.70541
22
174.21834
32
0.0
13
204.70552
23
174.21844
33
1.0E-4
0
3DFACE
8
0
10
204.70541
20
174.21834
30
0.0
11
212.1019
21
162.33667
31
0.0
12
203.89641
22
173.63055
32
0.0
13
203.89651
23
173.63066
33
1.0E-4
0
3DFACE
8
0
10
203.89641
20
173.40932
30
0.0
11
204.70541
21
172.82153
31
0.0
12
212.9109
22
184.11542
32
0.0
13
212.91101
23
184.11552
33
1.0E-4
0
3DFACE
8
0
10
212.9109
20
184.11542
30
0.0
11
203.89641
21
173.40932
31
0.0
12
212.10188
22
184.7032
32
0.0
13
212.10199
23
184.70331
33
1.0E-4
0
3DFACE
8
0
10
211.8915
20
184.63483
30
0.0
11
211.58247
21
183.68378
31
0.0
12
224.85924
22
179.36989
32
0.0
13
224.85934
23
179.37
33
1.0E-4
0
3DFACE
8
0
10
224.85924
20
179.36989
30
0.0
11
211.8915
21
184.63483
31
0.0
12
225.16824
22
180.32095
32
0.0
13
225.16835
23
180.32106
33
1.0E-4
0
3DFACE
8
0
10
225.03821
20
180.49992
30
0.0
11
224.03821
21
180.49992
31
0.0
12
224.03821
22
166.53992
32
0.0
13
224.03831
23
166.54002
33
1.0E-4
0
3DFACE
8
0
10
224.03821
20
166.53992
30
0.0
11
225.03821
21
180.49992
31
0.0
12
225.03821
22
166.53992
32
0.0
13
225.03831
23
166.54002
33
1.0E-4
0
3DFACE
8
0
10
225.16824
20
166.7189
30
0.0
11
224.85922
21
167.66995
31
0.0
12
211.58247
22
163.35608
32
0.0
13
211.58258
23
163.35619
33
1.0E-4
0
3DFACE
8
0
10
211.58247
20
163.35608
30
0.0
11
225.16824
21
166.7189
31
0.0
12
211.89148
22
162.40501
32
0.0
13
211.89159
23
162.40512
33
1.0E-4
0
3DFACE
8
0
10
211.8915
20
163.66508
30
0.0
11
211.58247
21
162.71404
31
0.0
12
224.85924
22
158.40015
32
0.0
13
224.85934
23
158.40025
33
1.0E-4
0
3DFACE
8
0
10
224.85924
20
158.40015
30
0.0
11
211.8915
21
163.66508
31
0.0
12
225.16824
22
159.35121
32
0.0
13
225.16835
23
159.35132
33
1.0E-4
0
3DFACE
8
0
10
223.83981
20
158.91957
30
0.0
11
224.64882
21
158.33179
31
0.0
12
232.85431
22
169.62567
32
0.0
13
232.85442
23
169.62578
33
1.0E-4
0
3DFACE
8
0
10
232.85431
20
169.62567
30
0.0
11
223.83981
21
158.91957
31
0.0
12
232.04529
22
170.21346
32
0.0
13
232.0454
23
170.21356
33
1.0E-4
0
3DFACE
8
0
10
231.8349
20
170.14508
30
0.0
11
231.52588
21
169.19403
31
0.0
12
244.80264
22
164.88014
32
0.0
13
244.80275
23
164.88025
33
1.0E-4
0
3DFACE
8
0
10
244.80264
20
164.88014
30
0.0
11
231.8349
21
170.14508
31
0.0
12
245.11165
22
165.8312
32
0.0
13
245.11176
23
165.83131
33
1.0E-4
0
3DFACE
8
0
10
244.98161
20
166.01018
30
0.0
11
243.98161
21
166.01018
31
0.0
12
243.98161
22
152.05017
32
0.0
13
243.98172
23
152.05028
33
1.0E-4
0
3DFACE
8
0
10
243.98161
20
152.05017
30
0.0
11
244.98161
21
166.01018
31
0.0
12
244.98161
22
152.05017
32
0.0
13
244.98172
23
152.05028
33
1.0E-4
0
3DFACE
8
0
10
245.11165
20
152.22916
30
0.0
11
244.80263
21
153.1802
31
0.0
12
231.52588
22
148.86633
32
0.0
13
231.52599
23
148.86644
33
1.0E-4
0
3DFACE
8
0
10
231.52588
20
148.86633
30
0.0
11
245.11165
21
152.22916
31
0.0
12
231.83488
22
147.91527
32
0.0
13
231.83499
23
147.91537
33
1.0E-4
0
3DFACE
8
0
10
232.0453
20
147.84691
30
0.0
11
232.85431
21
148.4347
31
0.0
12
224.64883
22
159.72858
32
0.0
13
224.64894
23
159.72868
33
1.0E-4
0
3DFACE
8
0
10
224.64883
20
159.72858
30
0.0
11
232.0453
21
147.84691
31
0.0
12
223.83981
22
159.1408
32
0.0
13
223.83992
23
159.1409
33
1.0E-4
0
3DFACE
8
0
10
225.03821
20
159.53017
30
0.0
11
224.03821
21
159.53017
31
0.0
12
224.03821
22
145.57016
32
0.0
13
224.03831
23
145.57027
33
1.0E-4
0
3DFACE
8
0
10
224.03821
20
145.57016
30
0.0
11
225.03821
21
159.53017
31
0.0
12
225.03821
22
145.57016
32
0.0
13
225.03831
23
145.57027
33
1.0E-4
0
3DFACE
8
0
10
224.2172
20
146.7002
30
0.0
11
223.90817
21
145.74915
31
0.0
12
237.18494
22
141.43526
32
0.0
13
237.18504
23
141.43536
33
1.0E-4
0
3DFACE
8
0
10
237.18494
20
141.43526
30
0.0
11
224.2172
21
146.7002
31
0.0
12
237.49394
22
142.38632
32
0.0
13
237.49405
23
142.38643
33
1.0E-4
0
3DFACE
8
0
10
237.3639
20
142.56529
30
0.0
11
236.3639
21
142.56529
31
0.0
12
236.3639
22
128.60529
32
0.0
13
236.36401
23
128.6054
33
1.0E-4
0
3DFACE
8
0
10
236.3639
20
128.60529
30
0.0
11
237.3639
21
142.56529
31
0.0
12
237.3639
22
128.60529
32
0.0
13
237.36401
23
128.6054
33
1.0E-4
0
3DFACE
8
0
10
237.49394
20
128.78427
30
0.0
11
237.18492
21
129.73532
31
0.0
12
223.90817
22
125.42144
32
0.0
13
223.90828
23
125.42154
33
1.0E-4
0
3DFACE
8
0
10
223.90817
20
125.42144
30
0.0
11
237.49394
21
128.78427
31
0.0
12
224.21718
22
124.47038
32
0.0
13
224.21729
23
124.47048
33
1.0E-4
0
3DFACE
8
0
10
224.4276
20
124.402016
30
0.0
11
225.2366
21
124.9898
31
0.0
12
217.03113
22
136.28369
32
0.0
13
217.03123
23
136.2838
33
1.0E-4
0
3DFACE
8
0
10
217.03113
20
136.28369
30
0.0
11
224.4276
21
124.402016
31
0.0
12
216.2221
22
135.6959
32
0.0
13
216.22221
23
135.69601
33
1.0E-4
0
3DFACE
8
0
10
216.2221
20
135.47467
30
0.0
11
217.03111
21
134.88689
31
0.0
12
225.2366
22
146.18077
32
0.0
13
225.23671
23
146.18088
33
1.0E-4
0
3DFACE
8
0
10
225.2366
20
146.18077
30
0.0
11
216.2221
21
135.47467
31
0.0
12
224.4276
22
146.76855
32
0.0
13
224.4277
23
146.76866
33
1.0E-4
0
3DFACE
8
0
10
225.16824
20
145.74913
30
0.0
11
224.85922
21
146.70018
31
0.0
12
211.58247
22
142.3863
32
0.0
13
211.58258
23
142.38641
33
1.0E-4
0
3DFACE
8
0
10
211.58247
20
142.3863
30
0.0
11
225.16824
21
145.74913
31
0.0
12
211.89148
22
141.43524
32
0.0
13
211.89159
23
141.43535
33
1.0E-4
0
3DFACE
8
0
10
212.71251
20
142.56528
30
0.0
11
211.71251
21
142.56528
31
0.0
12
211.71251
22
128.60527
32
0.0
13
211.71262
23
128.60538
33
1.0E-4
0
3DFACE
8
0
10
211.71251
20
128.60527
30
0.0
11
212.71251
21
142.56528
31
0.0
12
212.71251
22
128.60527
32
0.0
13
212.71262
23
128.60538
33
1.0E-4
0
3DFACE
8
0
10
212.84254
20
128.78426
30
0.0
11
212.53352
21
129.7353
31
0.0
12
199.25677
22
125.421425
32
0.0
13
199.25688
23
125.421524
33
1.0E-4
0
3DFACE
8
0
10
199.25677
20
125.421425
30
0.0
11
212.84254
21
128.78426
31
0.0
12
199.56578
22
124.47037
32
0.0
13
199.56589
23
124.47047
33
1.0E-4
0
3DFACE
8
0
10
199.7762
20
124.402
30
0.0
11
200.5852
21
124.989784
31
0.0
12
192.37973
22
136.28368
32
0.0
13
192.37984
23
136.28378
33
1.0E-4
0
3DFACE
8
0
10
192.37973
20
136.28368
30
0.0
11
199.7762
21
124.402
31
0.0
12
191.57071
22
135.69589
32
0.0
13
191.57082
23
135.696
33
1.0E-4
0
3DFACE
8
0
10
192.7691
20
136.08527
30
0.0
11
191.7691
21
136.08527
31
0.0
12
191.7691
22
122.12525
32
0.0
13
191.76921
23
122.12535
33
1.0E-4
0
3DFACE
8
0
10
191.7691
20
122.12525
30
0.0
11
192.7691
21
136.08527
31
0.0
12
192.7691
22
122.12525
32
0.0
13
192.76921
23
122.12535
33
1.0E-4
0
3DFACE
8
0
10
192.89914
20
122.30423
30
0.0
11
192.59012
21
123.25529
31
0.0
12
179.31337
22
118.94141
32
0.0
13
179.31348
23
118.941505
33
1.0E-4
0
3DFACE
8
0
10
179.31337
20
118.94141
30
0.0
11
192.89914
21
122.30423
31
0.0
12
179.62238
22
117.99035
32
0.0
13
179.62248
23
117.99045
33
1.0E-4
0
3DFACE
8
0
10
179.62239
20
119.25042
30
0.0
11
179.31337
21
118.29936
31
0.0
12
192.59013
22
113.98548
32
0.0
13
192.59024
23
113.98558
33
1.0E-4
0
3DFACE
8
0
10
192.59013
20
113.98548
30
0.0
11
179.62239
21
119.25042
31
0.0
12
192.89914
22
114.93654
32
0.0
13
192.89925
23
114.93664
33
1.0E-4
0
3DFACE
8
0
10
191.57071
20
114.504906
30
0.0
11
192.37971
21
113.91712
31
0.0
12
200.5852
22
125.21101
32
0.0
13
200.58531
23
125.21111
33
1.0E-4
0
3DFACE
8
0
10
200.5852
20
125.21101
30
0.0
11
191.57071
21
114.504906
31
0.0
12
199.77618
22
125.7988
32
0.0
13
199.77629
23
125.7989
33
1.0E-4
0
3DFACE
8
0
10
199.5658
20
125.73043
30
0.0
11
199.25677
21
124.77937
31
0.0
12
212.53354
22
120.46549
32
0.0
13
212.53365
23
120.46559
33
1.0E-4
0
3DFACE
8
0
10
212.53354
20
120.46549
30
0.0
11
199.5658
21
125.73043
31
0.0
12
212.84254
22
121.41655
32
0.0
13
212.84265
23
121.41665
33
1.0E-4
0
3DFACE
8
0
10
212.71251
20
121.59553
30
0.0
11
211.71251
21
121.59553
31
0.0
12
211.71251
22
107.63551
32
0.0
13
211.71262
23
107.63561
33
1.0E-4
0
3DFACE
8
0
10
211.71251
20
107.63551
30
0.0
11
212.71251
21
121.59553
31
0.0
12
212.71251
22
107.63551
32
0.0
13
212.71262
23
107.63561
33
1.0E-4
0
3DFACE
8
0
10
211.8915
20
108.76555
30
0.0
11
211.58247
21
107.81449
31
0.0
12
224.85924
22
103.50061
32
0.0
13
224.85934
23
103.50071
33
1.0E-4
0
3DFACE
8
0
10
224.85924
20
103.50061
30
0.0
11
211.8915
21
108.76555
31
0.0
12
225.16824
22
104.45167
32
0.0
13
225.16835
23
104.45177
33
1.0E-4
0
3DFACE
8
0
10
225.03821
20
104.630646
30
0.0
11
224.03821
21
104.630646
31
0.0
12
224.03821
22
90.67063
32
0.0
13
224.03831
23
90.67073
33
1.0E-4
0
3DFACE
8
0
10
224.03821
20
90.67063
30
0.0
11
225.03821
21
104.630646
31
0.0
12
225.03821
22
90.67063
32
0.0
13
225.03831
23
90.67073
33
1.0E-4
0
3DFACE
8
0
10
223.83981
20
91.06001
30
0.0
11
224.64882
21
90.47223
31
0.0
12
232.85431
22
101.76612
32
0.0
13
232.85442
23
101.76622
33
1.0E-4
0
3DFACE
8
0
10
232.85431
20
101.76612
30
0.0
11
223.83981
21
91.06001
31
0.0
12
232.04529
22
102.353905
32
0.0
13
232.0454
23
102.354004
33
1.0E-4
0
3DFACE
8
0
10
232.0453
20
100.9571
30
0.0
11
232.85431
21
101.54488
31
0.0
12
224.64882
22
112.838776
32
0.0
13
224.64893
23
112.838875
33
1.0E-4
0
3DFACE
8
0
10
224.64882
20
112.838776
30
0.0
11
232.0453
21
100.9571
31
0.0
12
223.83981
22
112.25099
32
0.0
13
223.83992
23
112.25109
33
1.0E-4
0
3DFACE
8
0
10
223.83981
20
112.029755
30
0.0
11
224.64882
21
111.44197
31
0.0
12
232.85431
22
122.73586
32
0.0
13
232.85442
23
122.73596
33
1.0E-4
0
3DFACE
8
0
10
232.85431
20
122.73586
30
0.0
11
223.83981
21
112.029755
31
0.0
12
232.04529
22
123.32365
32
0.0
13
232.0454
23
123.323746
33
1.0E-4
0
3DFACE
8
0
10
231.8349
20
123.25528
30
0.0
11
231.52588
21
122.30422
31
0.0
12
244.80264
22
117.99034
32
0.0
13
244.80275
23
117.99044
33
1.0E-4
0
3DFACE
8
0
10
244.80264
20
117.99034
30
0.0
11
231.8349
21
123.25528
31
0.0
12
245.11165
22
118.9414
32
0.0
13
245.11176
23
118.9415
33
1.0E-4
0
3DFACE
8
0
10
244.98161
20
119.12038
30
0.0
11
243.98161
21
119.12038
31
0.0
12
243.98161
22
105.16036
32
0.0
13
243.98172
23
105.16046
33
1.0E-4
0
3DFACE
8
0
10
243.98161
20
105.16036
30
0.0
11
244.98161
21
119.12038
31
0.0
12
244.98161
22
105.16036
32
0.0
13
244.98172
23
105.16046
33
1.0E-4
0
3DFACE
8
0
10
245.11165
20
105.33934
30
0.0
11
244.80263
21
106.2904
31
0.0
12
231.52588
22
101.97652
32
0.0
13
231.52599
23
101.976616
33
1.0E-4
0
3DFACE
8
0
10
231.52588
20
101.97652
30
0.0
11
245.11165
21
105.33934
31
0.0
12
231.83488
22
101.02546
32
0.0
13
231.83499
23
101.02556
33
1.0E-4
0
3DFACE
8
0
10
231.8349
20
102.28554
30
0.0
11
231.52588
21
101.33448
31
0.0
12
244.80264
22
97.0206
32
0.0
13
244.80275
23
97.0207
33
1.0E-4
0
3DFACE
8
0
10
244.80264
20
97.0206
30
0.0
11
231.8349
21
102.28554
31
0.0
12
245.11165
22
97.97166
32
0.0
13
245.11176
23
97.971756
33
1.0E-4
0
3DFACE
8
0
10
243.78322
20
97.540016
30
0.0
11
244.59222
21
96.95223
31
0.0
12
252.79771
22
108.246124
32
0.0
13
252.79782
23
108.24622
33
1.0E-4
0
3DFACE
8
0
10
252.79771
20
108.246124
30
0.0
11
243.78322
21
97.540016
31
0.0
12
251.9887
22
108.83391
32
0.0
13
251.9888
23
108.83401
33
1.0E-4
0
3DFACE
8
0
10
251.7783
20
108.76554
30
0.0
11
251.46928
21
107.81448
31
0.0
12
264.74603
22
103.5006
32
0.0
13
264.74612
23
103.5007
33
1.0E-4
0
3DFACE
8
0
10
264.74603
20
103.5006
30
0.0
11
251.7783
21
108.76554
31
0.0
12
265.05505
22
104.45166
32
0.0
13
265.05515
23
104.45176
33
1.0E-4
0
3DFACE
8
0
10
264.92502
20
104.63064
30
0.0
11
263.92502
21
104.63064
31
0.0
12
263.92502
22
90.67062
32
0.0
13
263.9251
23
90.67072
33
1.0E-4
0
3DFACE
8
0
10
263.92502
20
90.67062
30
0.0
11
264.92502
21
104.63064
31
0.0
12
264.92502
22
90.67062
32
0.0
13
264.9251
23
90.67072
33
1.0E-4
0
3DFACE
8
0
10
265.05505
20
90.8496
30
0.0
11
264.74603
21
91.80066
31
0.0
12
251.46928
22
87.48678
32
0.0
13
251.46939
23
87.48688
33
1.0E-4
0
3DFACE
8
0
10
251.46928
20
87.48678
30
0.0
11
265.05505
21
90.8496
31
0.0
12
251.77829
22
86.53572
32
0.0
13
251.7784
23
86.53582
33
1.0E-4
0
3DFACE
8
0
10
251.98871
20
86.46736
30
0.0
11
252.79771
21
87.055145
31
0.0
12
244.59224
22
98.34904
32
0.0
13
244.59235
23
98.34914
33
1.0E-4
0
3DFACE
8
0
10
244.59224
20
98.34904
30
0.0
11
251.98871
21
86.46736
31
0.0
12
243.78322
22
97.76125
32
0.0
13
243.78333
23
97.76135
33
1.0E-4
0
3DFACE
8
0
10
244.98161
20
98.150635
30
0.0
11
243.98161
21
98.150635
31
0.0
12
243.98161
22
84.19062
32
0.0
13
243.98172
23
84.19072
33
1.0E-4
0
3DFACE
8
0
10
243.98161
20
84.19062
30
0.0
11
244.98161
21
98.150635
31
0.0
12
244.98161
22
84.19062
32
0.0
13
244.98172
23
84.19072
33
1.0E-4
0
3DFACE
8
0
10
244.1606
20
85.320656
30
0.0
11
243.85158
21
84.3696
31
0.0
12
257.12833
22
80.05572
32
0.0
13
257.12842
23
80.05582
33
1.0E-4
0
3DFACE
8
0
10
257.12833
20
80.05572
30
0.0
11
244.1606
21
85.320656
31
0.0
12
257.43735
22
81.006775
32
0.0
13
257.43744
23
81.006874
33
1.0E-4
0
3DFACE
8
0
10
257.3073
20
81.18576
30
0.0
11
256.3073
21
81.18576
31
0.0
12
256.3073
22
67.225746
32
0.0
13
256.3074
23
67.225845
33
1.0E-4
0
3DFACE
8
0
10
256.3073
20
67.225746
30
0.0
11
257.3073
21
81.18576
31
0.0
12
257.3073
22
67.225746
32
0.0
13
257.3074
23
67.225845
33
1.0E-4
0
3DFACE
8
0
10
257.43735
20
67.404724
30
0.0
11
257.12833
21
68.35578
31
0.0
12
243.85158
22
64.0419
32
0.0
13
243.85168
23
64.042
33
1.0E-4
0
3DFACE
8
0
10
243.85158
20
64.0419
30
0.0
11
257.43735
21
67.404724
31
0.0
12
244.16058
22
63.090843
32
0.0
13
244.16069
23
63.090942
33
1.0E-4
0
3DFACE
8
0
10
244.1606
20
64.35092
30
0.0
11
243.85158
21
63.399864
31
0.0
12
257.12833
22
59.085983
32
0.0
13
257.12842
23
59.086082
33
1.0E-4
0
3DFACE
8
0
10
257.12833
20
59.085983
30
0.0
11
244.1606
21
64.35092
31
0.0
12
257.43735
22
60.03704
32
0.0
13
257.43744
23
60.03714
33
1.0E-4
0
3DFACE
8
0
10
257.3073
20
60.21602
30
0.0
11
256.3073
21
60.21602
31
0.0
12
256.3073
22
46.256004
32
0.0
13
256.3074
23
46.256104
33
1.0E-4
0
3DFACE
8
0
10
256.3073
20
46.256004
30
0.0
11
257.3073
21
60.21602
31
0.0
12
257.3073
22
46.256004
32
0.0
13
257.3074
23
46.256104
33
1.0E-4
0
3DFACE
8
0
10
256.10892
20
46.645393
30
0.0
11
256.91794
21
46.057606
31
0.0
12
265.1234
22
57.351494
32
0.0
13
265.1235
23
57.351593
33
1.0E-4
0
3DFACE
8
0
10
265.1234
20
57.351494
30
0.0
11
256.10892
21
46.645393
31
0.0
12
264.3144
22
57.93928
32
0.0
13
264.31448
23
57.93938
33
1.0E-4
0
3DFACE
8
0
10
264.3144
20
56.542477
30
0.0
11
265.1234
21
57.130264
31
0.0
12
256.91794
22
68.42415
32
0.0
13
256.91803
23
68.42425
33
1.0E-4
0
3DFACE
8
0
10
256.91794
20
68.42415
30
0.0
11
264.3144
21
56.542477
31
0.0
12
256.10892
22
67.836365
32
0.0
13
256.109
23
67.836464
33
1.0E-4
0
3DFACE
8
0
10
256.10892
20
67.61513
30
0.0
11
256.91794
21
67.02734
31
0.0
12
265.1234
22
78.321236
32
0.0
13
265.1235
23
78.321335
33
1.0E-4
0
3DFACE
8
0
10
265.1234
20
78.321236
30
0.0
11
256.10892
21
67.61513
31
0.0
12
264.3144
22
78.90902
32
0.0
13
264.31448
23
78.90912
33
1.0E-4
0
3DFACE
8
0
10
264.104
20
78.84065
30
0.0
11
263.79498
21
77.889595
31
0.0
12
277.07175
22
73.575714
32
0.0
13
277.07184
23
73.57581
33
1.0E-4
0
3DFACE
8
0
10
277.07175
20
73.575714
30
0.0
11
264.104
21
78.84065
31
0.0
12
277.38077
22
74.52677
32
0.0
13
277.38086
23
74.52687
33
1.0E-4
0
3DFACE
8
0
10
277.25073
20
74.70575
30
0.0
11
276.25073
21
74.70575
31
0.0
12
276.25073
22
60.745735
32
0.0
13
276.25082
23
60.745834
33
1.0E-4
0
3DFACE
8
0
10
276.25073
20
60.745735
30
0.0
11
277.25073
21
74.70575
31
0.0
12
277.25073
22
60.745735
32
0.0
13
277.25082
23
60.745834
33
1.0E-4
0
3DFACE
8
0
10
277.38077
20
60.92472
30
0.0
11
277.07175
21
61.875774
31
0.0
12
263.79498
22
57.561897
32
0.0
13
263.79507
23
57.561996
33
1.0E-4
0
3DFACE
8
0
10
263.79498
20
57.561897
30
0.0
11
277.38077
21
60.92472
31
0.0
12
264.104
22
56.61084
32
0.0
13
264.1041
23
56.61094
33
1.0E-4
0
3DFACE
8
0
10
264.104
20
57.87091
30
0.0
11
263.79498
21
56.919857
31
0.0
12
277.07175
22
52.605972
32
0.0
13
277.07184
23
52.60607
33
1.0E-4
0
3DFACE
8
0
10
277.07175
20
52.605972
30
0.0
11
264.104
21
57.87091
31
0.0
12
277.38077
22
53.55703
32
0.0
13
277.38086
23
53.55713
33
1.0E-4
0
3DFACE
8
0
10
276.05234
20
53.125397
30
0.0
11
276.86136
21
52.53761
31
0.0
12
285.06683
22
63.831497
32
0.0
13
285.06693
23
63.831596
33
1.0E-4
0
3DFACE
8
0
10
285.06683
20
63.831497
30
0.0
11
276.05234
21
53.125397
31
0.0
12
284.2578
22
64.41928
32
0.0
13
284.2579
23
64.41938
33
1.0E-4
0
3DFACE
8
0
10
284.04742
20
64.35092
30
0.0
11
283.7384
21
63.399864
31
0.0
12
297.01517
22
59.08598
32
0.0
13
297.01526
23
59.08608
33
1.0E-4
0
3DFACE
8
0
10
297.01517
20
59.08598
30
0.0
11
284.04742
21
64.35092
31
0.0
12
297.3242
22
60.037037
32
0.0
13
297.32428
23
60.037136
33
1.0E-4
0
3DFACE
8
0
10
297.19415
20
60.21602
30
0.0
11
296.19415
21
60.21602
31
0.0
12
296.19415
22
46.256004
32
0.0
13
296.19424
23
46.256104
33
1.0E-4
0
3DFACE
8
0
10
296.19415
20
46.256004
30
0.0
11
297.19415
21
60.21602
31
0.0
12
297.19415
22
46.256004
32
0.0
13
297.19424
23
46.256104
33
1.0E-4
0
3DFACE
8
0
10
295.99576
20
46.645393
30
0.0
11
296.80478
21
46.057606
31
0.0
12
305.01025
22
57.351494
32
0.0
13
305.01035
23
57.351593
33
1.0E-4
0
3DFACE
8
0
10
305.01025
20
57.351494
30
0.0
11
295.99576
21
46.645393
31
0.0
12
304.20123
22
57.93928
32
0.0
13
304.20132
23
57.93938
33
1.0E-4
0
3DFACE
8
0
10
303.99084
20
57.87092
30
0.0
11
303.68182
21
56.91986
31
0.0
12
316.9586
22
52.605976
32
0.0
13
316.95868
23
52.606075
33
1.0E-4
0
3DFACE
8
0
10
316.9586
20
52.605976
30
0.0
11
303.99084
21
57.87092
31
0.0
12
317.2676
22
53.557034
32
0.0
13
317.2677
23
53.557133
33
1.0E-4
0
3DFACE
8
0
10
316.52695
20
52.537613
30
0.0
11
317.33597
21
53.1254
31
0.0
12
309.1305
22
64.41929
32
0.0
13
309.13058
23
64.41939
33
1.0E-4
0
3DFACE
8
0
10
309.1305
20
64.41929
30
0.0
11
316.52695
21
52.537613
31
0.0
12
308.32147
22
63.8315
32
0.0
13
308.32156
23
63.8316
33
1.0E-4
0
ENDSEC
0
EOF
